<svg xmlns="http://www.w3.org/2000/svg" viewBox="0 0 750.35 521.64"><defs><style>.cls-1{fill:#f2fafe;}.cls-2{fill:#d9eaf9;}.cls-3{fill:#e0e0e0;}.cls-4{fill:#fafafa;}.cls-5{fill:#f3faff;}.cls-6{fill:#fff;}.cls-7{fill:#f7fafc;}.cls-8{fill:#f5f5f5;}.cls-9{fill:#263238;}.cls-10{opacity:0.3;}.cls-11{fill:#e04f4e;}.cls-12{fill:#4d5a64;}.cls-13{fill:#ff725e;}.cls-14{opacity:0.5;}.cls-15{opacity:0.2;}</style></defs><g id="Слой_2" data-name="Слой 2"><g id="Слой_1-2" data-name="Слой 1"><g id="Слой_2-2" data-name="Слой 2-2"><g id="Background_complete" data-name="Background complete"><g id="freepik--background-complete--inject-481"><polygon class="cls-1" points="686.93 248.51 686.93 172.51 639.88 172.51 639.88 189.85 608.51 189.85 608.51 0 548.2 0 548.2 74.72 530.11 74.72 530.11 37.41 483.05 37.41 483.05 219.38 416.7 219.38 416.7 155.09 375.1 155.09 375.1 15.69 323.75 15.69 323.75 108.62 275.49 108.62 275.49 308.82 238.1 308.82 238.1 211.34 199.49 211.34 199.49 148.6 158.48 148.6 158.48 100.44 112.72 124.58 112.72 253.43 64.46 253.43 64.46 226.85 0 226.85 0 413.61 750.35 413.98 750.35 248.51 686.93 248.51"/><path class="cls-2" d="M202.64,413.71V135.85H151.37V414C167.6,413.57,202.64,413.71,202.64,413.71Z"/><path class="cls-2" d="M156,414V261.16H50.43V413.64Z"/><path class="cls-3" d="M284.15,413.75V189.41H224.38V413.72Z"/><rect class="cls-4" x="228.91" y="198.2" width="7.25" height="14.95"/><rect class="cls-4" x="243.4" y="198.2" width="7.25" height="14.95"/><rect class="cls-4" x="257.9" y="198.2" width="7.25" height="14.95"/><rect class="cls-4" x="272.39" y="198.2" width="7.25" height="14.95"/><rect class="cls-4" x="228.91" y="223.27" width="7.25" height="14.95"/><rect class="cls-4" x="243.4" y="223.27" width="7.25" height="14.95"/><rect class="cls-4" x="257.9" y="223.27" width="7.25" height="14.95"/><rect class="cls-4" x="272.39" y="223.27" width="7.25" height="14.95"/><rect class="cls-4" x="228.91" y="248.32" width="7.25" height="14.95"/><rect class="cls-4" x="243.4" y="248.32" width="7.25" height="14.95"/><rect class="cls-4" x="257.9" y="248.32" width="7.25" height="14.95"/><rect class="cls-4" x="272.39" y="248.32" width="7.25" height="14.95"/><rect class="cls-4" x="228.91" y="273.38" width="7.25" height="14.95"/><rect class="cls-4" x="243.4" y="273.38" width="7.25" height="14.95"/><rect class="cls-4" x="257.9" y="273.38" width="7.25" height="14.95"/><rect class="cls-4" x="272.39" y="273.38" width="7.25" height="14.95"/><rect class="cls-4" x="228.91" y="298.43" width="7.25" height="14.95"/><rect class="cls-4" x="243.4" y="298.43" width="7.25" height="14.95"/><rect class="cls-4" x="257.9" y="298.43" width="7.25" height="14.95"/><rect class="cls-4" x="272.39" y="298.43" width="7.25" height="14.95"/><rect class="cls-4" x="228.91" y="323.48" width="7.25" height="14.95"/><rect class="cls-4" x="243.4" y="323.48" width="7.25" height="14.95"/><rect class="cls-4" x="257.9" y="323.48" width="7.25" height="14.95"/><rect class="cls-4" x="272.39" y="323.48" width="7.25" height="14.95"/><rect class="cls-4" x="228.91" y="348.54" width="7.25" height="14.95"/><rect class="cls-4" x="243.4" y="348.54" width="7.25" height="14.95"/><rect class="cls-4" x="257.9" y="348.54" width="7.25" height="14.95"/><rect class="cls-4" x="272.39" y="348.54" width="7.25" height="14.95"/><rect class="cls-4" x="228.91" y="373.61" width="7.25" height="14.95"/><rect class="cls-4" x="243.4" y="373.61" width="7.25" height="14.95"/><rect class="cls-4" x="257.9" y="373.61" width="7.25" height="14.95"/><rect class="cls-4" x="272.39" y="373.61" width="7.25" height="14.95"/><path class="cls-2" d="M491.86,413.85V157.45H367.93V413.94S490.91,414,491.86,413.85Z"/><rect class="cls-5" x="377.23" y="167.67" width="15.02" height="17.22"/><rect class="cls-5" x="407.3" y="167.67" width="15.02" height="17.22"/><rect class="cls-5" x="437.35" y="167.67" width="15.02" height="17.22"/><rect class="cls-5" x="467.42" y="167.67" width="15.02" height="17.22"/><rect class="cls-5" x="377.23" y="196.56" width="15.02" height="17.22"/><rect class="cls-5" x="407.3" y="196.56" width="15.02" height="17.22"/><rect class="cls-5" x="437.35" y="196.56" width="15.02" height="17.22"/><rect class="cls-5" x="467.42" y="196.56" width="15.02" height="17.22"/><rect class="cls-5" x="377.23" y="225.43" width="15.02" height="17.22"/><rect class="cls-5" x="407.3" y="225.43" width="15.02" height="17.22"/><rect class="cls-5" x="437.35" y="225.43" width="15.02" height="17.22"/><rect class="cls-5" x="467.42" y="225.43" width="15.02" height="17.22"/><rect class="cls-5" x="377.23" y="254.29" width="15.02" height="17.22"/><rect class="cls-5" x="407.3" y="254.29" width="15.02" height="17.22"/><rect class="cls-5" x="437.35" y="254.29" width="15.02" height="17.22"/><rect class="cls-5" x="467.42" y="254.29" width="15.02" height="17.22"/><rect class="cls-5" x="377.23" y="283.18" width="15.02" height="17.22"/><rect class="cls-5" x="407.3" y="283.18" width="15.02" height="17.22"/><rect class="cls-5" x="437.35" y="283.18" width="15.02" height="17.22"/><rect class="cls-5" x="467.42" y="283.18" width="15.02" height="17.22"/><rect class="cls-5" x="377.23" y="312.04" width="15.02" height="17.22"/><rect class="cls-5" x="407.3" y="312.04" width="15.02" height="17.22"/><rect class="cls-5" x="437.35" y="312.04" width="15.02" height="17.22"/><rect class="cls-5" x="467.42" y="312.04" width="15.02" height="17.22"/><rect class="cls-5" x="377.23" y="340.93" width="15.02" height="17.22"/><rect class="cls-5" x="407.3" y="340.93" width="15.02" height="17.22"/><rect class="cls-5" x="437.35" y="340.93" width="15.02" height="17.22"/><rect class="cls-5" x="467.42" y="340.93" width="15.02" height="17.22"/><rect class="cls-5" x="377.23" y="369.8" width="15.02" height="17.22"/><rect class="cls-5" x="407.3" y="369.8" width="15.02" height="17.22"/><rect class="cls-5" x="437.35" y="369.8" width="15.02" height="17.22"/><rect class="cls-5" x="467.42" y="369.8" width="15.02" height="17.22"/><rect class="cls-4" x="160.82" y="154.74" width="13.85" height="15.87"/><rect class="cls-4" x="160.82" y="181.34" width="13.85" height="15.87"/><rect class="cls-4" x="160.82" y="207.96" width="13.85" height="15.87"/><rect class="cls-4" x="160.82" y="234.56" width="13.85" height="15.87"/><rect class="cls-4" x="160.82" y="261.16" width="13.85" height="15.87"/><rect class="cls-4" x="160.82" y="287.78" width="13.85" height="15.87"/><rect class="cls-4" x="160.82" y="314.38" width="13.85" height="15.87"/><rect class="cls-4" x="160.82" y="341" width="13.85" height="15.87"/><rect class="cls-4" x="179.34" y="154.74" width="13.85" height="15.87"/><rect class="cls-4" x="179.34" y="181.34" width="13.85" height="15.87"/><rect class="cls-4" x="179.34" y="207.96" width="13.85" height="15.87"/><rect class="cls-4" x="179.34" y="234.56" width="13.85" height="15.87"/><rect class="cls-4" x="179.34" y="261.16" width="13.85" height="15.87"/><rect class="cls-4" x="179.34" y="287.78" width="13.85" height="15.87"/><rect class="cls-4" x="179.34" y="314.38" width="13.85" height="15.87"/><rect class="cls-4" x="179.34" y="341" width="13.85" height="15.87"/><rect class="cls-2" x="335.5" y="34.13" width="15.02" height="17.22"/><rect class="cls-2" x="335.5" y="63" width="15.02" height="17.22"/><rect class="cls-2" x="335.5" y="89.9" width="15.02" height="17.22"/><rect class="cls-2" x="335.5" y="118.77" width="15.02" height="17.22"/><rect class="cls-2" x="335.5" y="147.63" width="15.02" height="17.22"/><rect class="cls-2" x="335.5" y="176.52" width="15.02" height="17.22"/><rect class="cls-2" x="335.5" y="205.39" width="15.02" height="17.22"/><rect class="cls-2" x="335.5" y="234.27" width="15.02" height="17.22"/><rect class="cls-2" x="561.19" y="9.09" width="15.02" height="17.22"/><rect class="cls-2" x="561.19" y="37.96" width="15.02" height="17.22"/><rect class="cls-2" x="561.19" y="66.85" width="15.02" height="17.22"/><rect class="cls-2" x="561.19" y="95.71" width="15.02" height="17.22"/><rect class="cls-2" x="561.19" y="124.6" width="15.02" height="17.22"/><rect class="cls-2" x="561.19" y="153.47" width="15.02" height="17.22"/><rect class="cls-2" x="561.19" y="182.35" width="15.02" height="17.22"/><rect class="cls-2" x="561.19" y="211.22" width="15.02" height="17.22"/><rect class="cls-2" x="593.37" y="141.74" width="90.49" height="272.23"/><rect class="cls-6" x="606.76" y="155.16" width="26.52" height="17.22"/><rect class="cls-6" x="606.76" y="184.05" width="26.52" height="17.22"/><rect class="cls-6" x="606.76" y="212.92" width="26.52" height="17.22"/><rect class="cls-6" x="606.76" y="241.8" width="26.52" height="17.22"/><rect class="cls-6" x="606.76" y="270.67" width="26.52" height="17.22"/><rect class="cls-6" x="606.76" y="299.54" width="26.52" height="17.22"/><rect class="cls-6" x="606.76" y="328.42" width="26.52" height="17.22"/><rect class="cls-6" x="606.76" y="357.29" width="26.52" height="17.22"/><rect class="cls-6" x="642.24" y="155.16" width="26.52" height="17.22"/><rect class="cls-6" x="642.24" y="184.05" width="26.52" height="17.22"/><rect class="cls-6" x="642.24" y="212.92" width="26.52" height="17.22"/><rect class="cls-6" x="642.24" y="241.8" width="26.52" height="17.22"/><rect class="cls-6" x="642.24" y="270.67" width="26.52" height="17.22"/><rect class="cls-6" x="642.24" y="299.54" width="26.52" height="17.22"/><rect class="cls-6" x="642.24" y="328.42" width="26.52" height="17.22"/><rect class="cls-6" x="642.24" y="357.29" width="26.52" height="17.22"/><path class="cls-3" d="M544,413.88V225.43H504.56V413.86Z"/><rect class="cls-4" x="507.55" y="233.05" width="4.79" height="12.83"/><rect class="cls-4" x="517.13" y="233.05" width="4.79" height="12.83"/><rect class="cls-4" x="526.68" y="233.05" width="4.79" height="12.83"/><rect class="cls-4" x="536.25" y="233.05" width="4.79" height="12.83"/><rect class="cls-4" x="507.55" y="254.58" width="4.79" height="12.83"/><rect class="cls-4" x="517.13" y="254.58" width="4.79" height="12.83"/><rect class="cls-4" x="526.68" y="254.58" width="4.79" height="12.83"/><rect class="cls-4" x="536.25" y="254.58" width="4.79" height="12.83"/><rect class="cls-4" x="507.55" y="276.1" width="4.79" height="12.83"/><rect class="cls-4" x="517.13" y="276.1" width="4.79" height="12.83"/><rect class="cls-4" x="526.68" y="276.1" width="4.79" height="12.83"/><rect class="cls-4" x="536.25" y="276.1" width="4.79" height="12.83"/><rect class="cls-4" x="507.55" y="297.63" width="4.79" height="12.83"/><rect class="cls-4" x="517.13" y="297.63" width="4.79" height="12.83"/><rect class="cls-4" x="526.68" y="297.63" width="4.79" height="12.83"/><rect class="cls-4" x="536.25" y="297.63" width="4.79" height="12.83"/><rect class="cls-4" x="507.55" y="319.18" width="4.79" height="12.83"/><rect class="cls-4" x="517.13" y="319.18" width="4.79" height="12.83"/><rect class="cls-4" x="526.68" y="319.18" width="4.79" height="12.83"/><rect class="cls-4" x="536.25" y="319.18" width="4.79" height="12.83"/><rect class="cls-4" x="507.55" y="340.7" width="4.79" height="12.83"/><rect class="cls-4" x="517.13" y="340.7" width="4.79" height="12.83"/><rect class="cls-4" x="526.68" y="340.7" width="4.79" height="12.83"/><rect class="cls-4" x="536.25" y="340.7" width="4.79" height="12.83"/><rect class="cls-4" x="507.55" y="362.23" width="4.79" height="12.83"/><rect class="cls-4" x="517.13" y="362.23" width="4.79" height="12.83"/><rect class="cls-4" x="526.68" y="362.23" width="4.79" height="12.83"/><rect class="cls-4" x="536.25" y="362.23" width="4.79" height="12.83"/><rect class="cls-4" x="507.55" y="383.75" width="4.79" height="12.83"/><rect class="cls-4" x="517.13" y="383.75" width="4.79" height="12.83"/><rect class="cls-4" x="526.68" y="383.75" width="4.79" height="12.83"/><rect class="cls-4" x="536.25" y="383.75" width="4.79" height="12.83"/><rect class="cls-7" x="58.42" y="267.54" width="12.79" height="10.77"/><rect class="cls-7" x="84.01" y="267.54" width="12.79" height="10.77"/><rect class="cls-7" x="109.58" y="267.54" width="12.79" height="10.77"/><rect class="cls-7" x="135.16" y="267.54" width="12.79" height="10.77"/><rect class="cls-7" x="58.42" y="285.6" width="12.79" height="10.77"/><rect class="cls-7" x="84.01" y="285.6" width="12.79" height="10.77"/><rect class="cls-7" x="109.58" y="285.6" width="12.79" height="10.77"/><rect class="cls-7" x="135.16" y="285.6" width="12.79" height="10.77"/><rect class="cls-7" x="58.42" y="303.66" width="12.79" height="10.77"/><rect class="cls-7" x="84.01" y="303.66" width="12.79" height="10.77"/><rect class="cls-7" x="109.58" y="303.66" width="12.79" height="10.77"/><rect class="cls-7" x="135.16" y="303.66" width="12.79" height="10.77"/><rect class="cls-7" x="58.42" y="321.71" width="12.79" height="10.77"/><rect class="cls-7" x="84.01" y="321.71" width="12.79" height="10.77"/><rect class="cls-7" x="109.58" y="321.71" width="12.79" height="10.77"/><rect class="cls-7" x="135.16" y="321.71" width="12.79" height="10.77"/><rect class="cls-7" x="58.42" y="339.75" width="12.79" height="10.77"/><rect class="cls-7" x="84.01" y="339.75" width="12.79" height="10.77"/><rect class="cls-7" x="109.58" y="339.75" width="12.79" height="10.77"/><rect class="cls-7" x="135.16" y="339.75" width="12.79" height="10.77"/><rect class="cls-7" x="58.42" y="357.8" width="12.79" height="10.77"/><rect class="cls-7" x="84.01" y="357.8" width="12.79" height="10.77"/><rect class="cls-7" x="109.58" y="357.8" width="12.79" height="10.77"/><rect class="cls-7" x="135.16" y="357.8" width="12.79" height="10.77"/><rect class="cls-7" x="58.42" y="375.86" width="12.79" height="10.77"/><rect class="cls-7" x="84.01" y="375.86" width="12.79" height="10.77"/><rect class="cls-7" x="109.58" y="375.86" width="12.79" height="10.77"/><rect class="cls-7" x="135.16" y="375.86" width="12.79" height="10.77"/></g></g><g id="Shadow"><path class="cls-8" d="M579,515.5c0,3.39-117.57,6.14-262.6,6.14s-262.6-2.75-262.6-6.14,117.61-6.13,262.61-6.13S579,512.12,579,515.5Z"/></g></g><g id="Background_complete-2" data-name="Background complete"><path class="cls-9" d="M259.18,405s-3.68-3.71-4.73,18.77c-1,21.22-2.46,51.82,2.64,64.94a7,7,0,0,0,2.83,3.44,11.66,11.66,0,0,0,4.41,1.6c4.44.68,22,.3,22,.3s9.95,0,10.1-8.2c.13-6.74,0-21.41,0-21.41Z"/><g class="cls-10"><path d="M259.18,405s-3.68-3.71-4.73,18.77c-1,21.22-2.46,51.82,2.64,64.94a7,7,0,0,0,2.83,3.44,11.66,11.66,0,0,0,4.41,1.6c4.44.68,22,.3,22,.3s9.95,0,10.1-8.2c.13-6.74,0-21.41,0-21.41Z"/></g><path class="cls-9" d="M461.78,405s-3.68-3.71-4.74,18.77c-1,21.22-2.45,51.82,2.65,64.94a7,7,0,0,0,2.82,3.44,11.94,11.94,0,0,0,4.42,1.6c4.44.68,22,.3,22,.3s9.95,0,10.1-8.2c.13-6.74,0-21.41,0-21.41Z"/><g class="cls-10"><path d="M461.78,405s-3.68-3.71-4.74,18.77c-1,21.22-2.45,51.82,2.65,64.94a7,7,0,0,0,2.82,3.44,11.94,11.94,0,0,0,4.42,1.6c4.44.68,22,.3,22,.3s9.95,0,10.1-8.2c.13-6.74,0-21.41,0-21.41Z"/></g><path class="cls-9" d="M516,366.14s-1.12,3.8-3.41,4.2-20.4,1-20.4,1L490.37,375H487l-2.48-14.6,2.12.43a2.25,2.25,0,0,1,1.61,1.32h0a2.21,2.21,0,0,0,1.84,1.35Z"/><path class="cls-11" d="M515.19,366.71a2.34,2.34,0,0,0,2.15-2.52.78.78,0,0,0,0-.14c-.59-4.17-2.78-12.28-10.83-13.48a55.41,55.41,0,0,0-15-.38,2.51,2.51,0,0,0-2,2.55c-.68,5.73-.13,12.85,1.53,13.72S509.31,367.17,515.19,366.71Z"/><path class="cls-9" d="M504.39,350.61a2.5,2.5,0,0,1,.46.57c.28.38.67.95,1.12,1.66a42.4,42.4,0,0,1,3.08,5.85A43.64,43.64,0,0,1,511.2,365c.21.82.36,1.48.45,1.95a3.66,3.66,0,0,1,.1.73,4.07,4.07,0,0,1-.22-.7c-.12-.46-.3-1.12-.53-1.93a51.88,51.88,0,0,0-5.23-12c-.43-.73-.79-1.31-1-1.71A2.92,2.92,0,0,1,504.39,350.61Z"/><path class="cls-9" d="M511.86,420.25s3.68-3.72,4.73,18.76c1,21.23,2.46,51.82-2.64,65a7,7,0,0,1-2.83,3.43,11.65,11.65,0,0,1-4.42,1.6c-4.43.69-22,.3-22,.3s-10,0-10.11-8.19c-.12-6.75,0-21.41,0-21.41Z"/><path class="cls-12" d="M511.86,420.25l-.17.29c-.12.19-.29.48-.52.84l-2,3.28-7.65,12.28-26.76,42.82v19.93a17,17,0,0,0,.11,2.58,7.41,7.41,0,0,0,.82,2.44,7.85,7.85,0,0,0,3.92,3.31c3.29,1.47,7,1,10.69,1.17,3.85,0,7.66.05,11.41-.05a38,38,0,0,0,5.54-.43,11.54,11.54,0,0,0,2.59-.84,7.93,7.93,0,0,0,2.25-1.44,6.84,6.84,0,0,0,1.54-2.15,8.84,8.84,0,0,0,.45-1.25l.42-1.27a9.34,9.34,0,0,0,.36-1.28c.11-.43.21-.86.31-1.28.23-.85.38-1.72.53-2.58.35-1.71.53-3.43.76-5.12.11-.85.17-1.69.26-2.53s.17-1.68.21-2.51c.47-6.66.53-13,.49-18.94S517.2,456.05,517,451s-.4-9.61-.6-13.62a97.57,97.57,0,0,0-1-10.23,18.24,18.24,0,0,0-1.78-6.2,2.48,2.48,0,0,0-.64-.73,1,1,0,0,0-.64-.21.92.92,0,0,0-.52.21l.11-.1a.84.84,0,0,1,.4-.14,1.07,1.07,0,0,1,.68.2,2.59,2.59,0,0,1,.66.74,18.12,18.12,0,0,1,1.85,6.21,95.39,95.39,0,0,1,1,10.24c.21,4,.43,8.58.64,13.62s.39,10.58.45,16.52,0,12.3-.46,19c0,.83-.14,1.67-.21,2.51s-.15,1.69-.25,2.54c-.23,1.7-.42,3.42-.76,5.14-.16.87-.3,1.74-.53,2.59-.11.43-.21.86-.32,1.3a9.48,9.48,0,0,1-.36,1.29l-.42,1.28a9.18,9.18,0,0,1-.47,1.27,6.86,6.86,0,0,1-1.6,2.24,8.19,8.19,0,0,1-2.33,1.51,11.55,11.55,0,0,1-2.65.85,37.42,37.42,0,0,1-5.6.44c-3.75.1-7.56.09-11.42.06l-5.48-.09a14.55,14.55,0,0,1-5.32-1.11,8.2,8.2,0,0,1-4.06-3.45,7.74,7.74,0,0,1-.86-2.53,19.22,19.22,0,0,1-.11-2.63v-20h0L501.27,437,509,424.71l2.06-3.24.54-.84Z"/><path class="cls-9" d="M242.69,420.25S239,416.53,238,439c-1,21.23-2.46,51.82,2.64,65a7.16,7.16,0,0,0,2.83,3.43,11.77,11.77,0,0,0,4.42,1.6c4.44.69,22,.3,22,.3s10,0,10.1-8.19c.12-6.75,0-21.41,0-21.41Z"/><path class="cls-11" d="M515.27,400.9l-8.14-5.36c-1.85-8.33-17-25.6-17-25.6S474.41,332,460.84,323.07,381,315.25,381,315.25l-3.51.05s-70.24-1.18-83.81,7.77-29.3,46.87-29.3,46.87-15.11,17.27-17,25.6l-8.15,5.36a5.69,5.69,0,0,0-2.54,4.91c.5,14.05,3.2,69.83,7.91,76.09,4.52,6,47.17,2.81,58.76,2.79,16.63,0,68.41-.71,68.41-.71l76.1-.18c8.64-.93,56.11,4.88,62-1.9,5.12-5.93,7.42-62,7.91-76.09A5.6,5.6,0,0,0,515.27,400.9Z"/><path class="cls-12" d="M457.18,325.61a2,2,0,0,0-1.66-1l-77-3.3h-.6v.05L299,324.63a2,2,0,0,0-1.66,1l-20.09,35.06a1.81,1.81,0,0,0,.66,2.46,1.7,1.7,0,0,0,.85.24c2.21.07,5.48.1,9.28-.06,6.18-.25,55.33-.14,81.28-.05v.05h16v-.08c25.94-.09,75.09-.2,81.27.05,4,.17,7.41.12,9.62.05a1.6,1.6,0,0,0,1.56-1.64,1.56,1.56,0,0,0-.22-.76Z"/><path class="cls-9" d="M238.56,366.14s1.11,3.8,3.41,4.2,20.39,1,20.39,1l1.77,3.64h3.41l2.48-14.6-2.11.43a2.3,2.3,0,0,0-1.62,1.32h0a2.22,2.22,0,0,1-1.83,1.35Z"/><polygon class="cls-13" points="284.71 356.71 470.05 356.21 471.55 359.89 382 360.48 282.97 359.83 284.71 356.71"/><g class="cls-14"><polygon points="284.71 356.71 469.51 356.21 471.55 359.89 382 360.48 282.97 359.83 284.71 356.71"/></g><path class="cls-9" d="M354.16,357.55c0-2-.78-7.74-2.65-9.26-1.45-1.18-4.88-1.53-6.57-1.63h-.16c-.9,0-6.89.17-8.68,1.63s-2.66,7.24-2.66,9.26v.06a2.28,2.28,0,0,0,2.28,2.28h16.16a2.28,2.28,0,0,0,2.28-2.28Z"/><g class="cls-10"><path d="M354.16,357.55c0-2-.78-7.74-2.65-9.26-1.45-1.18-4.88-1.53-6.57-1.63h-.16c-.9,0-6.89.17-8.68,1.63s-2.66,7.24-2.66,9.26v.06a2.28,2.28,0,0,0,2.28,2.28h16.16a2.28,2.28,0,0,0,2.28-2.28Z"/></g><path class="cls-9" d="M346,356.07c0-3.31-1.27-12.68-4.34-15.17-2.38-1.93-8-2.5-10.75-2.67h-.22c-1.47,0-11.27.28-14.21,2.67s-4.34,11.86-4.34,15.17v.09a3.73,3.73,0,0,0,3.73,3.73h26.45a3.73,3.73,0,0,0,3.73-3.73h0Z"/><g class="cls-10"><path d="M313.6,452.85s-59.34-7.8-61.75-8.09c-3.67-.45-5.63,1.93-5.63,4.76,0,2-.27,9.59-.43,13.91a7,7,0,0,0,3.39,6.26,23.27,23.27,0,0,0,5.23,2.19c5,1.46,35.06,2.85,41.29,3.13a2.76,2.76,0,0,0,2-.71c2.25-2,8.25-7.37,10.15-10.05,6.19-8.75,5.76-11.4,5.76-11.4Zm-30.8,16.22-28.69-4.65,1.13-15.71,39,3.54Z"/></g><g class="cls-10"><path d="M247.11,412.51s-2.94,8.93,15.74,13.08c18.9,4.21,46.88,11.83,46.88,11.83l-15-10.72s-43.22-7.2-44.29-13.81a61.67,61.67,0,0,1,0-16.06Z"/></g><path class="cls-9" d="M320.05,452.58h-.21l-.59-.14-2.27-.57c-2-.48-4.82-1.19-8.37-2-7.08-1.6-16.93-3.53-27.86-5.31-5.47-.89-10.69-1.71-15.45-2.33l-6.75-.93a38.85,38.85,0,0,0-5.9-.53,8,8,0,0,0-4.59,1.31,9.56,9.56,0,0,0-2.52,2.63,8.29,8.29,0,0,0-1.13,2.91,5.66,5.66,0,0,1,.12-.81,7.75,7.75,0,0,1,.91-2.16,9.61,9.61,0,0,1,2.53-2.71,8.31,8.31,0,0,1,4.68-1.39,37.74,37.74,0,0,1,5.92.5l6.77.9c4.76.61,10,1.42,15.46,2.31,10.94,1.78,20.78,3.75,27.86,5.4,3.54.81,6.39,1.55,8.35,2.06l2.26.63.58.17Z"/><path class="cls-9" d="M244.74,429.51a1.82,1.82,0,0,1,0-.33v-4.46c0-3,.2-7.05.6-11.55s1-8.56,1.45-11.48c.24-1.46.46-2.63.62-3.45.08-.37.14-.68.2-.93a1.87,1.87,0,0,1,.08-.32,1.82,1.82,0,0,1,0,.33c0,.25-.09.56-.14.94-.13.86-.31,2-.53,3.47-.43,2.92-1,7-1.36,11.47s-.59,8.57-.68,11.52l-.09,3.51v.95A1,1,0,0,1,244.74,429.51Z"/><path class="cls-9" d="M257.69,389.31a4.21,4.21,0,0,1,0-.71,7.89,7.89,0,0,1,.05-.84,5.91,5.91,0,0,1,.14-1.1,44.63,44.63,0,0,1,1.54-6.23c.76-2.4,1.56-4.52,2.18-6,.3-.76.56-1.37.75-1.79a3.87,3.87,0,0,1,.33-.64,2.58,2.58,0,0,1-.22.68c-.18.49-.4,1.1-.67,1.82-.56,1.54-1.33,3.67-2.08,6.06a55.45,55.45,0,0,0-1.62,6.17C257.79,388.3,257.78,389.31,257.69,389.31Z"/><path class="cls-8" d="M261.25,393.39s-9.73-3.55-11,4-1.11,15.06.52,17.7,16.66,6.23,16.66,6.23l26,5.72s1.86.39.74-1.73c-1.26-2.37-8.15-17.55-12.12-21.24C274.69,397.25,261.25,393.39,261.25,393.39Z"/><g class="cls-10"><path d="M270.84,422.06s0-17.78-1.27-19.76S253,393.25,253,393.25s1.49-1.27,4.55-.69a49.49,49.49,0,0,1,12.37,4.14c4.23,2.16,11,5.27,13.52,8.87,1.1,1.56,3.4,5.29,5.59,9.33,2.85,5.27,5.55,10.9,5.55,11.21,0,.65.15,1.24-2.38.7C286.31,425.55,270.84,422.06,270.84,422.06Z"/></g><circle class="cls-8" cx="279.31" cy="414.15" r="6.3"/><path class="cls-9" d="M285.61,414.15a13.54,13.54,0,0,0-.25-1.53,6.22,6.22,0,0,0-8.15-4.26,6,6,0,0,0-1.52.89,6.46,6.46,0,0,0-1.3,1.31,6.11,6.11,0,0,0,0,7.27,6.2,6.2,0,0,0,10.85-1.59,4.48,4.48,0,0,0,.16-.52,13,13,0,0,0,.25-1.52,4.75,4.75,0,0,1-.14,1.55,6.39,6.39,0,0,1-10,3.63,5.75,5.75,0,0,1-1.37-1.37,6.41,6.41,0,0,1,0-7.63,6.31,6.31,0,0,1,1.37-1.36,6.4,6.4,0,0,1,7.7.08,6.28,6.28,0,0,1,2.29,3.54A4.54,4.54,0,0,1,285.61,414.15Z"/><path class="cls-3" d="M279.31,413.87a6.16,6.16,0,0,1,5.38,3.18,6.13,6.13,0,1,0-10.74,0A6.16,6.16,0,0,1,279.31,413.87Z"/><path class="cls-6" d="M282,413.94a2.72,2.72,0,1,1-2.72-2.72h0a2.71,2.71,0,0,1,2.71,2.71Z"/><path class="cls-9" d="M282,413.94a2.24,2.24,0,0,0-.14-.65,2.61,2.61,0,1,0-5,1.55,2.63,2.63,0,0,0,5-.25c.12-.41.11-.65.14-.65s0,.06,0,.17a1.46,1.46,0,0,1,0,.51,2.68,2.68,0,0,1-1,1.56,2.78,2.78,0,0,1-2.68.44,2.85,2.85,0,0,1-1.71-3.65,2.89,2.89,0,0,1,1.71-1.71,2.81,2.81,0,0,1,2.68.44,2.66,2.66,0,0,1,1,1.56,1.44,1.44,0,0,1,.05.5C282,413.88,282,413.94,282,413.94Z"/><path class="cls-6" d="M281.69,409.67c-.11.19-.68,0-1.54,0a5.46,5.46,0,0,0-5.38,2.87c-.43.74-.61,1.31-.83,1.3s-.41-.65-.16-1.69a5.09,5.09,0,0,1,6.21-3.64l.4.12C281.37,409,281.79,409.51,281.69,409.67Z"/><path class="cls-6" d="M283.26,410.67c-.34.24-.66.38-.72.33s.08-.38.31-.73.58-.53.75-.36S283.61,410.44,283.26,410.67Z"/><path class="cls-9" d="M378.55,394.32H299.69a4.64,4.64,0,0,0-3.15.91L292,399l-1.86,1.55a4.55,4.55,0,0,1-1.84.88,4.89,4.89,0,0,1-1.62.12l-1.19-.06h1.19a4.72,4.72,0,0,0,1.59-.14,4.57,4.57,0,0,0,1.79-.89l1.83-1.56,4.48-3.83a4.9,4.9,0,0,1,3.28-1h30.68l34.1.09,10.34.06h3.54Z"/><path class="cls-9" d="M500.48,477.25a2,2,0,0,0-2.29-1c-3.63.41-41.75,1.26-47,0S428.44,455.13,421,453.78c-6.21-1.14-36.41-1.74-46-1.47-9.58-.27-39.79.33-46,1.47-7.41,1.35-24.64,23.15-29.89,24.42s-43.63-1.54-47.27-1.95c-1.31-.15-2,.32-2.29,1a2.14,2.14,0,0,0,1.1,2.82,2,2,0,0,0,.82.18c8.12.23,39.46.59,45.33.48,6.15-.1,69.08-1.26,79.62-1.45,15.9.1,70.22.45,76,.53,6.79.09,38,.67,46.13.44a2.13,2.13,0,0,0,2.09-2.17A2.18,2.18,0,0,0,500.48,477.25Z"/><path class="cls-9" d="M364.35,323.9c.32,0,1.26,5.47,5.67,5.37s15.2,0,15.2,0v-6.84Z"/><path class="cls-11" d="M239.32,366.71a2.33,2.33,0,0,1-2.15-2.51c0-.05,0-.1,0-.15.59-4.17,2.78-12.28,10.84-13.48a55.42,55.42,0,0,1,15-.38,2.53,2.53,0,0,1,2,2.55c.69,5.73.13,12.85-1.52,13.72S245.2,367.17,239.32,366.71Z"/><path class="cls-9" d="M295.07,322.43l-.06.14-.2.38-.78,1.48c-.71,1.29-1.71,3.13-2.94,5.39l-9.78,17.72c-3.13,5.62-6,10.8-8.33,14.93h0l-6.67,5.13L264.46,369l-.49.36-.17.12.15-.15.47-.38,1.81-1.45,6.6-5.21h0l8.27-15c3.85-6.9,7.33-13.14,9.86-17.69l3-5.34.84-1.45.22-.37Z"/><path class="cls-9" d="M305.8,319.15a9,9,0,0,1-1.44.57,13.9,13.9,0,0,0-3.26,1.71,14.28,14.28,0,0,0-2.56,2.65,11.11,11.11,0,0,1-.94,1.23,6.45,6.45,0,0,1,.77-1.35,10.42,10.42,0,0,1,5.92-4.45A7.9,7.9,0,0,1,305.8,319.15Z"/><g class="cls-10"><path d="M272.93,362.46l-.56.38c-.23-.28,13.44,28.36,19.87,35.92l4.23-3.59C287.35,386.34,280.53,372.62,272.93,362.46Z"/></g><path class="cls-9" d="M300,475.05a1,1,0,0,0,.33-.15,6.29,6.29,0,0,0,.85-.61c.73-.56,1.76-1.46,3.06-2.64,2.59-2.37,6.27-5.88,10.69-10.34,1.1-1.12,2.25-2.3,3.43-3.54a50.19,50.19,0,0,1,3.78-3.8,18,18,0,0,1,5-2.81,22.89,22.89,0,0,1,6-1.24c1-.08,2.1-.08,3.16-.09h3.23l6.65-.06,14-.14,49.1-.4,14.88-.09h4l-4,.07-14.88.18-49.1.5-14,.12-6.66.06h-3.22c-1.07,0-2.11,0-3.15.08a22.37,22.37,0,0,0-5.89,1.21,17.59,17.59,0,0,0-4.93,2.76,49.53,49.53,0,0,0-3.77,3.76c-1.19,1.24-2.34,2.41-3.45,3.53-4.44,4.44-8.14,7.94-10.76,10.28-1.32,1.17-2.36,2.05-3.1,2.6a5.88,5.88,0,0,1-.88.59A.69.69,0,0,1,300,475.05Z"/><g class="cls-10"><path class="cls-6" d="M268.69,440.36a36.09,36.09,0,0,0-5.75-4.92c-2.14-1.35-5.21-2.93-7.14-1.67a12.81,12.81,0,0,0-2.34,3.64,1.83,1.83,0,0,0-.14,1.43c.27.55,1,.7,1.59.77l13.36,1.64c.26,0,.58,0,.71-.19S268.9,440.56,268.69,440.36Z"/></g><g class="cls-10"><path d="M320.74,431.92c34.07,9.07,70.07,6.79,105.1,2.75,5.41-.63,11.29-1.53,15-5.53"/></g><path class="cls-9" d="M447.74,400.5c-13.31-1.88-41.29-2.82-69.07-2.8s-55.76.92-69.07,2.8a6.92,6.92,0,0,0-5.9,7.81,6.3,6.3,0,0,0,.2,1,.16.16,0,0,0,.05.14c1.45,4.78,7.19,20,16.33,22.33,4.24,1.06,28.14,2.08,53.64,2.28h9.5c25.49-.2,49.39-1.22,53.63-2.28,9.15-2.29,14.89-17.55,16.34-22.33a.33.33,0,0,0,0-.14,6.9,6.9,0,0,0-4.7-8.56A7.66,7.66,0,0,0,447.74,400.5Z"/><path class="cls-9" d="M451.11,429.72l-.36.19-1,.54-1.7.87c-.34.16-.7.36-1.09.54l-1.27.56A95.45,95.45,0,0,1,430,437.94a146.71,146.71,0,0,1-24.29,4c-9.25.86-19.45,1-30.15,1a237.51,237.51,0,0,1-30.16-1.69,128.09,128.09,0,0,1-24-5.35,93.36,93.36,0,0,1-15.26-6.54c-.87-.45-1.62-.9-2.27-1.28s-1.21-.71-1.64-1l-1-.63-.33-.22.35.2,1,.6c.44.26,1,.59,1.65,1s1.41.81,2.28,1.26a97.41,97.41,0,0,0,15.27,6.44,129.71,129.71,0,0,0,24,5.28,244.15,244.15,0,0,0,30.09,1.73c10.69,0,20.89-.13,30.12-1a148.48,148.48,0,0,0,24.26-4,97.42,97.42,0,0,0,15.67-5.42l1.27-.54c.4-.18.76-.37,1.1-.54l1.71-.84,1.06-.51Z"/><path class="cls-12" d="M452.75,407.93c0,.08-33.23.15-74.22.15s-74.21-.07-74.21-.15,33.22-.15,74.21-.15S452.75,407.85,452.75,407.93Z"/><path class="cls-12" d="M452.75,403.41c0,.08-33.23.15-74.22.15s-74.21-.07-74.21-.15,33.22-.15,74.21-.15S452.75,403.32,452.75,403.41Z"/><path class="cls-12" d="M431.74,398.89c0,.08-23.78.15-53.12.15s-53.12-.07-53.12-.15,23.78-.16,53.12-.16S431.74,398.8,431.74,398.89Z"/><path class="cls-12" d="M452.75,412.51c0,.09-33.23.15-74.22.15s-74.21-.06-74.21-.15,33.22-.15,74.21-.15S452.75,412.43,452.75,412.51Z"/><path class="cls-12" d="M449.45,417.1c0,.08-31.91.15-71.26.15s-71.27-.07-71.27-.15,31.91-.16,71.27-.16S449.45,417,449.45,417.1Z"/><path class="cls-12" d="M448,421.68c0,.08-31.05.15-69.34.15s-69.34-.07-69.34-.15,31-.15,69.34-.15S448,421.59,448,421.68Z"/><path class="cls-12" d="M444.42,426.25c0,.09-29.44.15-65.75.15s-65.77-.06-65.77-.15,29.44-.15,65.77-.15S444.42,426.18,444.42,426.25Z"/><path class="cls-12" d="M440,430.84c0,.09-27.28.16-60.93.16s-60.93-.07-60.93-.16,27.27-.15,60.93-.15S440,430.76,440,430.84Z"/><path class="cls-6" d="M265.29,478.34h0a1.62,1.62,0,0,1-1.1,2,1.32,1.32,0,0,1-.39.06l-9.67-.17a1.7,1.7,0,0,1-1.48-1.51l-.06-.54a1.64,1.64,0,0,1,1.52-1.75h.2l9.59.7A1.62,1.62,0,0,1,265.29,478.34Z"/><path class="cls-12" d="M445.69,472.71c0,.08-31.18.15-69.63.15s-69.64-.07-69.64-.15,31.17-.16,69.64-.16S445.69,472.62,445.69,472.71Z"/><polygon class="cls-12" points="337.11 477.78 333.03 477.78 332.74 472.7 337.42 472.7 337.11 477.78"/><polygon class="cls-12" points="375.31 477.78 371.23 477.78 370.94 472.7 375.62 472.7 375.31 477.78"/><polygon class="cls-12" points="413.51 477.78 409.43 477.78 409.14 472.7 413.82 472.7 413.51 477.78"/><path class="cls-12" d="M443.52,470.87c-7.39-6.37-17.34-16.16-22.46-17.09-6.21-1.14-36.42-1.74-46-1.47-9.58-.27-39.78.33-46,1.47-4.76.87-13.6,10.21-20.69,17.09Z"/><path class="cls-9" d="M246.93,467.53l.32-.29,1-.8c.87-.7,2.11-1.7,3.65-3h0L272,465.91l11,1.39H283l9.84,5.42,2.79,1.56.73.42c.16.1.25.15.24.16l-.26-.12-.76-.39-2.82-1.49-9.89-5.31h0l-11-1.36-20.07-2.57h.07l-3.7,2.89-1,.76A1.16,1.16,0,0,1,246.93,467.53Z"/><path class="cls-9" d="M296.69,456.43s2-3.34,0-4.18c-2.26-1-40.14-5.51-41.68-5.65-3.08-.27-4.19,1.12-4.91,4.72s-2.31,12.56.72,15.16,7.79,3.75,17.17,4.33,14.32.89,18.94-1.71S296.69,456.43,296.69,456.43Z"/><path class="cls-9" d="M294.69,426.7a13.24,13.24,0,0,1-1.54-2.72c-.92-1.79-2.23-4.38-3.92-7.54-.86-1.56-1.8-3.29-2.89-5.08a52.14,52.14,0,0,0-3.72-5.51,17.93,17.93,0,0,0-2.42-2.51,20.88,20.88,0,0,0-3-2.09c-1.09-.63-2.26-1.24-3.44-1.86s-2.37-1.24-3.59-1.84a52.55,52.55,0,0,0-7.28-3c-1.21-.38-2.41-.7-3.61-.95a14.71,14.71,0,0,0-3.44-.4,4.65,4.65,0,0,0-4.59,3.2,17.59,17.59,0,0,0-.82,2.83c-.21,1-.41,1.88-.62,2.75-.83,3.48-1.51,6.3-2,8.27a13,13,0,0,1-.84,3,11.37,11.37,0,0,1,.26-3.13c.29-2,.81-4.86,1.51-8.38.17-.88.34-1.81.52-2.77a19.13,19.13,0,0,1,.8-3.06,5.94,5.94,0,0,1,5.7-4.12,15.53,15.53,0,0,1,3.79.37c1.27.27,2.53.61,3.76,1a50.14,50.14,0,0,1,7.51,3.07c1.24.61,2.45,1.24,3.63,1.87s2.34,1.24,3.48,1.91a22.6,22.6,0,0,1,3.21,2.26,18.26,18.26,0,0,1,2.59,2.76,49.71,49.71,0,0,1,3.71,5.74c1.06,1.84,1.94,3.61,2.75,5.22,1.59,3.24,2.75,5.92,3.5,7.79A11,11,0,0,1,294.69,426.7Z"/><path class="cls-3" d="M260.52,407.64a7.83,7.83,0,0,1,6.84,4.05,7.61,7.61,0,0,0,1-3.76,7.81,7.81,0,1,0-14.67,3.76A7.83,7.83,0,0,1,260.52,407.64Z"/><circle class="cls-6" cx="260.52" cy="407.67" r="3.36"/><path class="cls-9" d="M263.89,407.67a2.77,2.77,0,0,0-.17-.8,3.39,3.39,0,0,0-1.23-1.79,3.24,3.24,0,1,0-1.92,5.82,3.18,3.18,0,0,0,1.92-.65,3.29,3.29,0,0,0,1.23-1.78c.14-.51.13-.81.17-.81a.81.81,0,0,1,0,.22,2.14,2.14,0,0,1-.06.62,3.32,3.32,0,0,1-1.22,1.92,3.47,3.47,0,0,1-4.88-.61l-.05-.07a3.53,3.53,0,0,1,0-4.15,3.61,3.61,0,0,1,1.64-1.22,3.5,3.5,0,0,1,3.29.53,3.41,3.41,0,0,1,1.22,1.93,2.21,2.21,0,0,1,.06.62A.41.41,0,0,1,263.89,407.67Z"/><path class="cls-9" d="M268.33,407.93A15.46,15.46,0,0,0,268,406a7.86,7.86,0,0,0-2.85-4.23,7.73,7.73,0,0,0-7.27-1.08,7.14,7.14,0,0,0-1.94,1,7.77,7.77,0,0,0-1.62,1.62,7.67,7.67,0,0,0,0,9A7.16,7.16,0,0,0,256,414a7.3,7.3,0,0,0,1.94,1.05,7.66,7.66,0,0,0,7.24-1.08,7.79,7.79,0,0,0,2.85-4.23,14.88,14.88,0,0,0,.3-1.89,2.09,2.09,0,0,1,0,.5,3,3,0,0,1,0,.6,5.64,5.64,0,0,1-.15.82,7.86,7.86,0,0,1-6.15,5.87,7.94,7.94,0,0,1-4.18-.33,7.42,7.42,0,0,1-2-1.07,7.7,7.7,0,0,1-1.68-1.69,7.86,7.86,0,0,1,0-9.4,7.7,7.7,0,0,1,1.68-1.69,7.89,7.89,0,0,1,6.17-1.4,7.86,7.86,0,0,1,6.16,5.87,5.89,5.89,0,0,1,.15.82,3,3,0,0,1,0,.6A2.57,2.57,0,0,1,268.33,407.93Z"/><path class="cls-6" d="M263.47,402.39c-.12.2-.8-.06-1.89-.16a7.11,7.11,0,0,0-4,.71,7.18,7.18,0,0,0-2.82,2.91c-.52,1-.69,1.67-.92,1.66s-.41-.8-.08-2.05a6.32,6.32,0,0,1,7.82-4.33l.18.05C263,401.61,263.57,402.25,263.47,402.39Z"/><path class="cls-6" d="M265.42,403.63c-.34.24-.68.35-.76.27s0-.42.25-.77.6-.51.8-.32S265.77,403.39,265.42,403.63Z"/><path class="cls-9" d="M309.69,437.42c-.1.4-10.54-1.89-23.32-5.11s-23.05-6.17-22.94-6.58,10.54,1.88,23.31,5.11S309.83,437,309.69,437.42Z"/><path class="cls-9" d="M248.19,394.69v-.18a5.16,5.16,0,0,1,.09-.52,7.86,7.86,0,0,1,.71-1.91,6.33,6.33,0,0,1,2.23-2.31,6.49,6.49,0,0,1,1.88-.75,10.32,10.32,0,0,1,1.09-.18,7.62,7.62,0,0,1,1.17,0,29,29,0,0,1,5.07,1c1.8.48,3.69,1.08,5.66,1.76q6.42,2.19,12.59,5c.54.26,1.08.52,1.61.81a10.1,10.1,0,0,1,1.48,1,15.6,15.6,0,0,1,2.48,2.46c1.35,1.85,2.54,3.66,3.71,5.4,2.31,3.46,4.29,6.65,5.9,9.36s2.84,4.95,3.67,6.5c.42.78.74,1.39,1,1.8l.23.47.08.17s0-.05-.1-.15l-.27-.46-1-1.77c-.86-1.53-2.12-3.75-3.75-6.45s-3.63-5.86-6-9.32c-1.16-1.72-2.38-3.56-3.7-5.37a16.22,16.22,0,0,0-2.43-2.4,10.27,10.27,0,0,0-1.44-1c-.52-.28-1.06-.54-1.6-.8-4.35-2-8.63-3.67-12.55-5.05-2-.68-3.85-1.29-5.63-1.78a31.17,31.17,0,0,0-5-1,7.1,7.1,0,0,0-1.13,0,7.93,7.93,0,0,0-1.07.17c-.33.08-.67.18-1,.29s-.59.25-.86.41a6.27,6.27,0,0,0-2.2,2.23,7.91,7.91,0,0,0-.76,1.86c-.06.23-.1.4-.12.52A1.28,1.28,0,0,1,248.19,394.69Z"/><path class="cls-9" d="M250.11,350.61a2.51,2.51,0,0,1-.36.64c-.25.4-.61,1-1,1.71a53.89,53.89,0,0,0-3,5.86,56.88,56.88,0,0,0-2.22,6.18c-.24.81-.42,1.47-.54,1.93a3.35,3.35,0,0,1-.22.7,3.68,3.68,0,0,1,.11-.73c.08-.47.23-1.13.44-1.95a43.06,43.06,0,0,1,5.23-12.11c.46-.71.84-1.28,1.12-1.66A3.47,3.47,0,0,1,250.11,350.61Z"/><g class="cls-10"><path class="cls-6" d="M245.77,398c-.58.19-3.74,2.16-5.07,2.91a5.89,5.89,0,0,0-2.9,3.41,8.66,8.66,0,0,0,.46,4.51c1.38,4.79,3,13.42,4.36,18.22,1.07-8.7,2.25-23.53,3.15-29.05"/></g><path class="cls-12" d="M289.09,467c0,.08-9-1.1-20.09-2.63s-20.06-2.85-20.05-2.93,9,1.09,20.09,2.63S289.1,466.94,289.09,467Z"/><path class="cls-12" d="M286.23,469.25a1.21,1.21,0,0,1-.38,0l-1.08-.12-4-.47-13.06-1.56c-5.11-.61-9.73-1.19-13.06-1.65-1.67-.23-3-.43-4-.57l-1-.23a1.23,1.23,0,0,1-.37-.08h.38l1.07.12,4,.48,13.07,1.56c5.1.6,9.72,1.18,13.06,1.64l4,.58,1.07.17Z"/><path class="cls-12" d="M279.94,470.87a27.7,27.7,0,0,1-3.85-.28l-9.29-1c-3.63-.39-6.9-.83-9.27-1.14l-2.81-.38a4.9,4.9,0,0,1-1-.19c.34,0,.67,0,1,.07l2.81.29,9.29,1.05,9.27,1.11,2.81.36C279.58,470.81,280,470.87,279.94,470.87Z"/><path class="cls-12" d="M291.19,464.52c0,.08-9.48-1.09-21.14-2.63S248.94,459.05,249,459s9.47,1.09,21.14,2.62S291.2,464.44,291.19,464.52Z"/><path class="cls-12" d="M292.83,462.25c0,.08-9.81-1.14-21.89-2.73s-21.86-2.94-21.85-3,9.81,1.13,21.89,2.72S292.84,462.11,292.83,462.25Z"/><path class="cls-12" d="M294.69,459.45c0,.08-10.08-1.17-22.5-2.81s-22.47-3-22.46-3.1,10.08,1.17,22.5,2.8S294.69,459.37,294.69,459.45Z"/><path class="cls-12" d="M296.09,456.65c0,.08-10.27-1.2-22.9-2.86s-22.87-3.08-22.86-3.16,10.26,1.19,22.9,2.86S296.1,456.56,296.09,456.65Z"/><path class="cls-12" d="M297.52,453.84c0,.09-10.35-1.21-23.09-2.88s-23.05-3.1-23-3.18,10.34,1.2,23.08,2.88S297.53,453.76,297.52,453.84Z"/><path class="cls-12" d="M264.15,447.45c.09,0-.92,5.05-2.24,11.25s-2.45,11.2-2.53,11.19.92-5.06,2.24-11.26S264.07,447.43,264.15,447.45Z"/><path class="cls-12" d="M260.35,446.81c.08,0-.93,5.06-2.24,11.25s-2.42,11.19-2.54,11.19.92-5.05,2.24-11.25S260.26,446.79,260.35,446.81Z"/><path class="cls-12" d="M256.54,446.17c.08,0-.87,4.79-2.11,10.65s-2.33,10.6-2.41,10.58.86-4.78,2.11-10.64S256.46,446.16,256.54,446.17Z"/><path class="cls-12" d="M252.41,447a2.73,2.73,0,0,1-.07.64c-.09.48-.19,1.05-.31,1.73-.28,1.53-.63,3.51-1,5.7s-.78,4.24-1.11,5.68c-.16.73-.3,1.31-.4,1.71a2.62,2.62,0,0,1-.19.62,3.48,3.48,0,0,1,.07-.64c.09-.47.19-1.05.31-1.73.28-1.53.63-3.51,1-5.7s.78-4.24,1.11-5.68c.16-.73.3-1.31.4-1.71A3.41,3.41,0,0,1,252.41,447Z"/><path class="cls-12" d="M268.55,448.25c.09,0-.88,4.88-2.15,10.86s-2.37,10.81-2.46,10.8.89-4.88,2.16-10.86S268.47,448.25,268.55,448.25Z"/><path class="cls-12" d="M272.93,449.12c.09,0-.88,4.89-2.16,10.89s-2.38,10.84-2.46,10.82.89-4.89,2.16-10.89S272.85,449.1,272.93,449.12Z"/><path class="cls-12" d="M277.45,449.36c.08,0-.88,4.85-2.14,10.79s-2.36,10.74-2.44,10.73.88-4.85,2.14-10.79S277.37,449.34,277.45,449.36Z"/><path class="cls-12" d="M281.89,449.94c.08,0-.87,4.82-2.13,10.73s-2.34,10.69-2.42,10.67.87-4.82,2.13-10.73S281.81,449.92,281.89,449.94Z"/><path class="cls-12" d="M286.28,450.81c.08,0-.81,4.51-2,10s-2.19,10-2.28,10,.81-4.52,2-10S286.19,450.79,286.28,450.81Z"/><path class="cls-12" d="M290.76,451.18c.09,0-.74,4.22-1.84,9.38s-2.06,9.34-2.14,9.33.74-4.22,1.84-9.39S290.69,451.16,290.76,451.18Z"/><path class="cls-12" d="M295.18,451.9a105.46,105.46,0,0,1-2.35,11c.24-1.86.58-3.71,1-5.55S294.64,453.7,295.18,451.9Z"/><path class="cls-9" d="M440.18,468.57c0,.09-28.91.15-64.56.15s-64.56-.06-64.56-.15,28.9-.15,64.56-.15S440.18,468.49,440.18,468.57Z"/><path class="cls-9" d="M437.69,465.65c0,.08-27.66.15-61.78.15s-61.78-.07-61.78-.15,27.65-.15,61.78-.15S437.69,465.57,437.69,465.65Z"/><path class="cls-9" d="M433.8,462.66c0,.08-26.17.15-58.44.15s-58.44-.07-58.44-.15,26.16-.15,58.44-.15S433.8,462.58,433.8,462.66Z"/><path class="cls-9" d="M431.24,459.67c0,.08-24.93.15-55.66.15s-55.67-.07-55.67-.15,24.92-.15,55.67-.15S431.24,459.59,431.24,459.67Z"/><path class="cls-9" d="M427,456.82c0,.09-23.11.15-51.61.15s-51.6-.06-51.6-.15,23.1-.15,51.6-.15S427,456.74,427,456.82Z"/><path class="cls-9" d="M422.13,454c0,.08-20.88.15-46.62.15s-46.63-.07-46.63-.15,20.87-.16,46.63-.16S422.13,453.89,422.13,454Z"/><g class="cls-10"><path d="M385.22,363.31h0l-108.13-.17a17.2,17.2,0,0,0,12.72,5.31c7.51-.05,80.65,0,93.49,0h1.92c11.85,0,74.78-.05,81.29,0a13.25,13.25,0,0,0,10.71-5.14Z"/></g><path class="cls-9" d="M477.6,361l-20.46-35.47a1.85,1.85,0,0,0-1.53-.93l-70.39-3h0l-6.75-.29H376l-6.75.29h0l-70.39,3a1.88,1.88,0,0,0-1.54.93L276.9,361a1.89,1.89,0,0,0,.69,2.56,1.85,1.85,0,0,0,.65.22c.29,0,.61.09.93.12,1.79.2,73.19.07,98.08,0s96.29.18,98.08,0a3.38,3.38,0,0,0,.93-.12,1.87,1.87,0,0,0,1.57-2.13A1.69,1.69,0,0,0,477.6,361Zm-9.42-1.49-90.93.61-90.93-.61a1.87,1.87,0,0,1-1.86-1.87,1.94,1.94,0,0,1,.25-.94c3.92-6.78,13.77-23.76,15.35-25.72,2.86-3.55,47.13-4,70.68-4a1,1,0,0,0,.43,0h12.16a1.09,1.09,0,0,0,.44,0c23.55,0,67.82.47,70.68,4,1.57,2,11.42,18.94,15.34,25.72a1.87,1.87,0,0,1-.67,2.56,1.84,1.84,0,0,1-.94.25Z"/><path class="cls-9" d="M400.34,357.55c0-2,.78-7.74,2.66-9.26,1.44-1.18,4.87-1.53,6.56-1.63h.13c.9,0,6.89.17,8.68,1.63s2.66,7.24,2.66,9.26v.06a2.28,2.28,0,0,1-2.28,2.28H402.62a2.28,2.28,0,0,1-2.28-2.28Z"/><g class="cls-10"><path d="M400.34,357.55c0-2,.78-7.74,2.66-9.26,1.44-1.18,4.87-1.53,6.56-1.63h.13c.9,0,6.89.17,8.68,1.63s2.66,7.24,2.66,9.26v.06a2.28,2.28,0,0,1-2.28,2.28H402.62a2.28,2.28,0,0,1-2.28-2.28Z"/></g><path class="cls-9" d="M408.5,356.07c0-3.31,1.28-12.68,4.35-15.17,2.37-1.93,8-2.5,10.75-2.67h.26c1.47,0,11.27.28,14.21,2.67s4.35,11.86,4.35,15.17v.09a3.73,3.73,0,0,1-3.73,3.73H412.23a3.73,3.73,0,0,1-3.73-3.73h0Z"/><g class="cls-10"><path d="M440.91,452.85h0s-.44,2.65,5.76,11.4c1.89,2.68,7.9,8.07,10.14,10.05a2.79,2.79,0,0,0,2,.71c6.23-.28,36.3-1.67,41.3-3.13a22.81,22.81,0,0,0,5.22-2.19,6.91,6.91,0,0,0,3.39-6.26c-.16-4.32-.42-11.92-.42-13.91,0-2.83-2-5.21-5.64-4.76-2.41.29-61.74,8.09-61.74,8.09Zm19.39-.6,39-3.54,1.13,15.71-28.74,4.65Z"/></g><g class="cls-10"><path d="M507.39,412.51s2.94,8.93-15.73,13.08c-18.91,4.21-46.88,11.83-46.88,11.83l15-10.72s43.22-7.2,44.3-13.81a60.81,60.81,0,0,0,0-16.06Z"/></g><path class="cls-9" d="M434.45,452.58l.2-.07.58-.17,2.26-.63c2-.51,4.81-1.25,8.35-2.06,7.08-1.65,16.93-3.62,27.87-5.4,5.47-.89,10.69-1.7,15.46-2.31l6.76-.9a38.07,38.07,0,0,1,5.93-.5,8.26,8.26,0,0,1,4.68,1.39,9.3,9.3,0,0,1,2.52,2.71,7.2,7.2,0,0,1,.91,2.16,3.78,3.78,0,0,1,.12.81A7.75,7.75,0,0,0,509,444.7a9.42,9.42,0,0,0-2.52-2.63,8,8,0,0,0-4.59-1.31,38.84,38.84,0,0,0-5.89.53l-6.76.93c-4.76.62-10,1.44-15.44,2.33-10.94,1.78-20.79,3.71-27.87,5.31-3.55.78-6.4,1.49-8.37,2l-2.27.57-.59.14C434.52,452.57,434.46,452.59,434.45,452.58Z"/><path class="cls-9" d="M509.77,429.51v-1.28l-.09-3.51c-.09-3-.29-7-.69-11.52s-.92-8.55-1.36-11.47c-.21-1.43-.39-2.61-.52-3.47l-.14-.94a1.82,1.82,0,0,1,0-.33,1.28,1.28,0,0,1,.09.32c.05.25.11.56.19.93.17.82.38,2,.63,3.45.48,2.92,1,7,1.45,11.48s.55,8.59.59,11.55v4.46A1,1,0,0,1,509.77,429.51Z"/><path class="cls-9" d="M496.78,389.31c-.06,0-.07-1-.37-2.62a55.5,55.5,0,0,0-1.63-6.17c-.75-2.39-1.52-4.52-2.08-6.06l-.67-1.82a3.59,3.59,0,0,1-.21-.68,3.48,3.48,0,0,1,.32.64c.19.42.45,1,.76,1.79.61,1.52,1.42,3.64,2.17,6a43.3,43.3,0,0,1,1.55,6.23c.08.4.09.78.13,1.1a4.74,4.74,0,0,1,.05.84A2.68,2.68,0,0,1,496.78,389.31Z"/><path class="cls-8" d="M493.25,393.39s9.74-3.55,11,4,1.12,15.06-.52,17.7-16.66,6.23-16.66,6.23l-26,5.72s-1.87.39-.75-1.73c1.27-2.37,8.15-17.55,12.13-21.24C479.79,397.25,493.25,393.39,493.25,393.39Z"/><g class="cls-10"><path d="M483.69,422.06s0-17.78,1.27-19.76,16.59-9.05,16.59-9.05-1.5-1.27-4.56-.69a50.59,50.59,0,0,0-12.37,4.14c-4.23,2.16-11,5.27-13.52,8.87-1.1,1.56-3.4,5.29-5.59,9.33-2.85,5.27-5.55,10.9-5.55,11.21,0,.65-.15,1.24,2.38.7C468.19,425.55,483.69,422.06,483.69,422.06Z"/></g><circle class="cls-8" cx="475.2" cy="414.15" r="6.3"/><path class="cls-9" d="M468.89,414.15a5.47,5.47,0,0,1,.14-1.56,6.42,6.42,0,0,1,2.29-3.54,6.35,6.35,0,0,1,6.07-.95A6.14,6.14,0,0,1,479,409a5.85,5.85,0,0,1,1.36,1.36,6.41,6.41,0,0,1,0,7.63,5.71,5.71,0,0,1-1.36,1.37,6.39,6.39,0,0,1-10-3.63,5.37,5.37,0,0,1-.14-1.55c.06.51.15,1,.26,1.52a6.21,6.21,0,0,0,7.57,4.45,5.58,5.58,0,0,0,.58-.18,5.45,5.45,0,0,0,1.55-.85,5.06,5.06,0,0,0,1.3-1.31,6.11,6.11,0,0,0,0-7.27,6.19,6.19,0,0,0-2.85-2.15,6.2,6.2,0,0,0-5.85.86,6.36,6.36,0,0,0-2.3,3.4C469,413.13,469,413.64,468.89,414.15Z"/><path class="cls-3" d="M475.2,413.87a6.14,6.14,0,0,0-5.37,3.18,6.06,6.06,0,0,1-.76-2.95,6.13,6.13,0,1,1,11.5,2.95A6.16,6.16,0,0,0,475.2,413.87Z"/><path class="cls-6" d="M472.48,413.94a2.72,2.72,0,1,0,2.72-2.72,2.72,2.72,0,0,0-2.72,2.72Z"/><path class="cls-9" d="M472.48,413.94v-.18a1.73,1.73,0,0,1,0-.5,2.71,2.71,0,0,1,1-1.56,2.84,2.84,0,1,1,0,4.48,2.65,2.65,0,0,1-1-1.56,1.7,1.7,0,0,1,0-.51v-.17a2.24,2.24,0,0,0,.14.65,2.72,2.72,0,0,0,1,1.42,2.58,2.58,0,1,0,0-4.14,2.81,2.81,0,0,0-1,1.42C472.51,413.7,472.51,413.94,472.48,413.94Z"/><path class="cls-6" d="M472.82,409.67c-.11-.16.31-.7,1.31-1.07a5.11,5.11,0,0,1,6.5,3.14c0,.13.08.26.11.38.24,1,0,1.68-.17,1.69s-.4-.56-.83-1.3a5.45,5.45,0,0,0-5.38-2.87C473.5,409.7,472.93,409.86,472.82,409.67Z"/><path class="cls-6" d="M471.24,410.67c-.34-.23-.51-.59-.34-.76s.53,0,.75.36.36.67.31.73S471.58,410.91,471.24,410.67Z"/><path class="cls-9" d="M376,394.32h3.79l10.34-.06,34.1-.09h30.68a4.89,4.89,0,0,1,3.28,1l4.48,3.83,1.84,1.56a4.67,4.67,0,0,0,1.78.89,4.75,4.75,0,0,0,1.59.14H470a.53.53,0,0,1-.25,0H469l-1.19.06a5,5,0,0,1-3.46-1l-1.86-1.55-4.5-3.79a4.61,4.61,0,0,0-3.15-.91H376.2Z"/><path class="cls-9" d="M254,477.25a2,2,0,0,1,2.29-1c3.64.41,41.75,1.26,47,0s22.75-21.12,30.16-22.47c6.21-1.14,36.42-1.74,46-1.47,9.58-.27,39.78.33,46,1.47,7.41,1.35,24.65,23.15,29.9,24.42s43.63-1.54,47.26-1.95c1.31-.15,2,.32,2.29,1a2.14,2.14,0,0,1-1.07,2.82,2.06,2.06,0,0,1-.85.18c-8.12.23-39.46.59-45.32.48-6.16-.1-69.09-1.26-79.63-1.45-15.9.1-70.22.45-76,.53-6.79.09-38,.67-46.13.44a2.13,2.13,0,0,1-2.08-2.19A2.27,2.27,0,0,1,254,477.25Z"/><path class="cls-9" d="M390.15,323.9c-.31,0,0,5.47-4.47,5.37s-12.74,0-12.74,0l-3.65-6.84Z"/><path class="cls-9" d="M388.2,331.17a1.92,1.92,0,0,1,1.55.79c1.05,1.43,3.16,4.41,3.22,5.34a2.13,2.13,0,0,1-1.83,2.4h-.08c-1.21.15-24.5,0-26.91,0a1.73,1.73,0,0,1-.45-.05c-.63-.16-2.29-.68-2.16-1.81s1.91-4.15,2.85-5.74a1.93,1.93,0,0,1,1.65-.93Z"/><path class="cls-9" d="M459.43,322.43l.09.12.22.37.84,1.45,3,5.34c2.53,4.55,6,10.79,9.86,17.69l8.27,15h0l6.6,5.21,1.81,1.45.47.38q.18.13.15.15l-.17-.12-.49-.36-1.85-1.39-6.67-5.13h0l-8.32-14.93c-3.82-6.91-7.27-13.17-9.79-17.72l-2.93-5.39-.83-1.6-.2-.38Z"/><path class="cls-9" d="M448.69,319.15a7.56,7.56,0,0,1,1.51.36,10.45,10.45,0,0,1,5.93,4.45,6.45,6.45,0,0,1,.77,1.35,9.94,9.94,0,0,1-1-1.23,14,14,0,0,0-2.56-2.65,13.35,13.35,0,0,0-3.26-1.71A9.23,9.23,0,0,1,448.69,319.15Z"/><g class="cls-10"><path d="M481.58,362.46l.55.38c.23-.28-13.43,28.36-19.87,35.92L458,395.17C467.16,386.34,474,372.62,481.58,362.46Z"/></g><path class="cls-9" d="M454.47,475.05a.73.73,0,0,1-.34-.12,7,7,0,0,1-.87-.59c-.75-.55-1.79-1.43-3.1-2.6-2.62-2.34-6.32-5.84-10.76-10.28-1.11-1.12-2.27-2.29-3.46-3.53a46,46,0,0,0-3.76-3.76,17.5,17.5,0,0,0-4.94-2.76,21.89,21.89,0,0,0-5.89-1.21c-1-.07-2.08-.07-3.14-.08H415l-6.65-.06-14-.12-49.11-.5-14.87-.19-4-.07h4l14.88.09,49.1.4,14,.14,6.65.06h3.23c1.06,0,2.12,0,3.16.09a22.73,22.73,0,0,1,6,1.24,17.73,17.73,0,0,1,5,2.81,43.72,43.72,0,0,1,3.78,3.8c1.19,1.24,2.33,2.42,3.44,3.54,4.42,4.46,8.09,8,10.69,10.34,1.3,1.18,2.33,2.08,3.05,2.64a7.09,7.09,0,0,0,.86.61A1.2,1.2,0,0,0,454.47,475.05Z"/><g class="cls-10"><path class="cls-6" d="M485.81,440.36a35.87,35.87,0,0,1,5.74-4.92c2.14-1.35,5.21-2.93,7.15-1.67a12.7,12.7,0,0,1,2.33,3.64,1.68,1.68,0,0,1,.14,1.43c-.27.55-1,.7-1.58.77l-13.36,1.64c-.26,0-.58,0-.7-.19S485.61,440.56,485.81,440.36Z"/></g><path class="cls-6" d="M489.21,478.34h0a1.62,1.62,0,0,0,1.06,2,1.48,1.48,0,0,0,.42.07l9.67-.17a1.67,1.67,0,0,0,1.48-1.51l.07-.54a1.63,1.63,0,0,0-1.53-1.75h-.2l-9.59.7A1.64,1.64,0,0,0,489.21,478.34Z"/><path class="cls-12" d="M308.82,472.71c0-.09,31.18-.16,69.63-.16s69.64.07,69.64.16-31.17.15-69.64.15S308.82,472.79,308.82,472.71Z"/><polygon class="cls-12" points="417.39 477.78 421.48 477.78 421.77 472.7 417.08 472.7 417.39 477.78"/><polygon class="cls-12" points="379.19 477.78 383.28 477.78 383.57 472.7 378.88 472.7 379.19 477.78"/><polygon class="cls-12" points="340.99 477.78 345.08 477.78 345.37 472.7 340.69 472.7 340.99 477.78"/><path class="cls-12" d="M311,470.87c7.39-6.37,17.34-16.16,22.46-17.09,6.22-1.14,36.42-1.74,46-1.47,9.58-.27,39.79.33,46,1.47,4.77.87,13.6,10.21,20.69,17.09Z"/><path class="cls-9" d="M507.57,467.53a2.71,2.71,0,0,1-.35-.24l-1-.76-3.7-2.89h.08l-20.08,2.61-11,1.36h0l-9.83,5.28-2.82,1.49-.75.39-.27.12.24-.16.74-.42,2.78-1.56,9.84-5.42h.05l11-1.39,20.09-2.47h0l3.65,3,1,.8Z"/><path class="cls-9" d="M457.86,456.43s-2-3.34,0-4.18c2.27-1,40.15-5.51,41.69-5.65,3.07-.27,4.18,1.12,4.9,4.72s2.31,12.56-.72,15.16-7.79,3.75-17.17,4.33-14.32.89-18.93-1.71S457.86,456.43,457.86,456.43Z"/><path class="cls-9" d="M459.8,426.7a12.75,12.75,0,0,1,1-3c.76-1.87,1.92-4.55,3.5-7.79.81-1.61,1.7-3.38,2.75-5.22a52.51,52.51,0,0,1,3.71-5.74,19.33,19.33,0,0,1,2.59-2.76,23.18,23.18,0,0,1,3.21-2.26c1.14-.67,2.31-1.28,3.48-1.91s2.39-1.26,3.63-1.87a51,51,0,0,1,7.51-3.07c1.24-.39,2.49-.73,3.76-1a15.63,15.63,0,0,1,3.79-.37,5.9,5.9,0,0,1,5.7,4.12,18.13,18.13,0,0,1,.8,3.06c.18,1,.36,1.89.52,2.77.7,3.52,1.23,6.39,1.51,8.38a11.37,11.37,0,0,1,.26,3.13,14.07,14.07,0,0,1-.84-3l-2-8.27c-.21-.87-.42-1.8-.63-2.75a16.62,16.62,0,0,0-.82-2.83,5.2,5.2,0,0,0-1.69-2.32,5.32,5.32,0,0,0-2.9-.88,14.77,14.77,0,0,0-3.44.4c-1.19.25-2.4.57-3.61,1a53.06,53.06,0,0,0-7.28,3c-1.22.6-2.41,1.22-3.59,1.84s-2.35,1.23-3.44,1.86a22.06,22.06,0,0,0-3,2.09,17.47,17.47,0,0,0-2.43,2.51,55.38,55.38,0,0,0-3.72,5.51c-1.09,1.79-2,3.52-2.89,5.08-1.69,3.16-3,5.75-3.91,7.54A12.27,12.27,0,0,1,459.8,426.7Z"/><path class="cls-3" d="M494,407.64a7.85,7.85,0,0,0-6.84,4.05,7.81,7.81,0,0,1,13.68-7.54,7.71,7.71,0,0,1,1,3.78,7.61,7.61,0,0,1-1,3.76A7.83,7.83,0,0,0,494,407.64Z"/><path class="cls-6" d="M490.62,407.67a3.37,3.37,0,1,0,3.38-3.36h0A3.37,3.37,0,0,0,490.62,407.67Z"/><path class="cls-9" d="M490.62,407.67v-.21a2.68,2.68,0,0,1,.07-.62,3.36,3.36,0,0,1,1.21-1.93,3.52,3.52,0,0,1,3.3-.53,3.5,3.5,0,0,1,1.63,5.37A3.29,3.29,0,0,1,495.2,411a3.42,3.42,0,0,1-3.3-.53,3.33,3.33,0,0,1-1.21-1.92,2.56,2.56,0,0,1-.07-.62.81.81,0,0,1,0-.22,3,3,0,0,0,.16.81,3.4,3.4,0,0,0,1.23,1.78,3.23,3.23,0,1,0,0-5.18,3.5,3.5,0,0,0-1.23,1.79C490.69,407.37,490.69,407.67,490.62,407.67Z"/><path class="cls-9" d="M486.18,407.93a4.17,4.17,0,0,1,0-.5q0-.3,0-.6a7.69,7.69,0,0,1,6.3-6.69,7.93,7.93,0,0,1,7.87,3.09,7.92,7.92,0,1,1-14,6.62,7.39,7.39,0,0,1-.14-.82q0-.3,0-.6a4.17,4.17,0,0,1,0-.5,12,12,0,0,0,.3,1.89,7.73,7.73,0,0,0,9.42,5.53,5.54,5.54,0,0,0,.69-.22,7.15,7.15,0,0,0,1.94-1.05,7,7,0,0,0,1.62-1.63,7.61,7.61,0,0,0,0-9.05,7.32,7.32,0,0,0-1.62-1.62,7,7,0,0,0-1.94-1,7.67,7.67,0,0,0-4-.34,7.75,7.75,0,0,0-6.08,5.65A11.64,11.64,0,0,0,486.18,407.93Z"/><path class="cls-6" d="M491,402.39c-.11-.16.42-.78,1.64-1.21a6.31,6.31,0,0,1,7.94,4.08l.06.2c.33,1.25.11,2.05-.08,2.05s-.4-.7-.92-1.66a6.59,6.59,0,0,0-6.8-3.62C491.84,402.33,491.15,402.59,491,402.39Z"/><path class="cls-6" d="M489.08,403.63c-.34-.24-.49-.62-.29-.82s.58,0,.81.32.33.69.25.77S489.43,403.87,489.08,403.63Z"/><path class="cls-9" d="M444.78,437.42c-.11-.41,10.17-3.35,22.94-6.58s23.21-5.52,23.32-5.11-10.17,3.35-23,6.58S444.88,437.82,444.78,437.42Z"/><path class="cls-9" d="M506.31,394.69v-.17a2.69,2.69,0,0,0-.11-.52,7.91,7.91,0,0,0-.76-1.86,6.21,6.21,0,0,0-2.21-2.23,8.48,8.48,0,0,0-.86-.41c-.32-.11-.66-.21-1-.29a7.55,7.55,0,0,0-1.06-.17,7.23,7.23,0,0,0-1.14,0,31.62,31.62,0,0,0-5,1c-1.79.49-3.67,1.1-5.63,1.78A131.3,131.3,0,0,0,476,396.87c-.54.26-1.07.52-1.59.8a10.27,10.27,0,0,0-1.44,1,16.22,16.22,0,0,0-2.43,2.4c-1.33,1.81-2.55,3.65-3.71,5.37-2.32,3.46-4.33,6.63-6,9.32s-2.88,4.92-3.75,6.45l-1,1.77c-.11.19-.2.34-.26.46a.56.56,0,0,1-.1.15.37.37,0,0,1,.07-.17L456,424l.94-1.8c.83-1.55,2.06-3.78,3.67-6.5s3.6-5.9,5.91-9.36c1.16-1.74,2.36-3.55,3.7-5.4a16.69,16.69,0,0,1,2.46-2.44,11.3,11.3,0,0,1,1.48-1c.53-.29,1.07-.55,1.61-.81a132.8,132.8,0,0,1,12.59-5c2-.68,3.87-1.28,5.66-1.76a29.26,29.26,0,0,1,5.08-1,7.49,7.49,0,0,1,1.16,0,10.09,10.09,0,0,1,1.1.18c.35.07.67.21,1,.31a3.62,3.62,0,0,1,.88.44,6.23,6.23,0,0,1,2.22,2.31,7.89,7.89,0,0,1,.72,1.91c.05.23.07.4.09.52S506.32,394.69,506.31,394.69Z"/><g class="cls-10"><path class="cls-6" d="M508.69,398c.58.19,3.74,2.16,5.08,2.91a5.74,5.74,0,0,1,2.89,3.41,8.56,8.56,0,0,1-.46,4.51c-1.38,4.79-3,13.42-4.35,18.22-1.08-8.7-2.26-23.53-3.16-29.05"/></g><path class="cls-12" d="M465.41,467c0-.09,9-1.4,20-2.93s20.08-2.71,20.09-2.63-9,1.39-20.05,2.93S465.42,467.11,465.41,467Z"/><path class="cls-12" d="M468.28,469.25l.37-.08,1.07-.17c.93-.15,2.28-.34,4-.58,3.33-.46,7.95-1,13-1.64l13.07-1.56,4-.48,1.08-.12h.38a1.61,1.61,0,0,1-.38.08l-1.07.18c-.93.14-2.28.34-3.94.57-3.34.46-8,1-13.06,1.65l-13.11,1.51-4,.47-1,.17A1.41,1.41,0,0,1,468.28,469.25Z"/><path class="cls-12" d="M474.57,470.87s.35-.06,1-.14l2.81-.36,9.31-1.12L497,468.2l2.82-.29c.33,0,.67-.06,1-.07a4.78,4.78,0,0,1-1,.19l-2.8.38c-2.38.31-5.65.71-9.28,1.14s-6.91.78-9.29,1A27.51,27.51,0,0,1,474.57,470.87Z"/><path class="cls-12" d="M463.31,464.52c0-.08,9.44-1.39,21.1-2.93s21.14-2.71,21.15-2.62-9.44,1.39-21.11,2.92S463.33,464.6,463.31,464.52Z"/><path class="cls-12" d="M461.69,462.25c0-.09,9.77-1.44,21.84-3s21.88-2.81,21.89-2.72-9.77,1.43-21.85,3S461.69,462.25,461.69,462.25Z"/><path class="cls-12" d="M459.83,459.45c0-.08,10.05-1.47,22.46-3.11s22.49-2.89,22.5-2.8-10,1.47-22.46,3.1S459.84,459.53,459.83,459.45Z"/><path class="cls-12" d="M458.42,456.64c0-.08,10.22-1.49,22.86-3.15s22.89-2.95,22.9-2.86-10.22,1.49-22.86,3.16S458.43,456.73,458.42,456.64Z"/><path class="cls-12" d="M457,453.84c0-.08,10.3-1.51,23-3.18s23.08-3,23.09-2.88-10.31,1.5-23,3.18S457,453.93,457,453.84Z"/><path class="cls-12" d="M490.35,447.45c.08,0,1.22,5,2.54,11.18s2.32,11.24,2.24,11.26-1.22-5-2.54-11.19S490.27,447.46,490.35,447.45Z"/><path class="cls-12" d="M494.16,446.81c.08,0,1.21,5,2.53,11.19s2.33,11.25,2.24,11.25-1.21-5-2.53-11.19S494.07,446.83,494.16,446.81Z"/><path class="cls-12" d="M498,446.17c.09,0,1.16,4.73,2.41,10.59s2.2,10.62,2.11,10.64-1.16-4.72-2.4-10.58S497.88,446.19,498,446.17Z"/><path class="cls-12" d="M502.09,447a2.34,2.34,0,0,1,.19.62c.11.4.24,1,.41,1.71.32,1.44.72,3.46,1.11,5.68s.75,4.17,1,5.7c.12.68.23,1.26.31,1.73a2.8,2.8,0,0,1,.08.64,2.49,2.49,0,0,1-.19-.62c-.11-.4-.25-1-.41-1.71-.32-1.44-.72-3.46-1.11-5.68s-.75-4.17-1-5.7c-.13-.68-.23-1.25-.31-1.73A2.74,2.74,0,0,1,502.09,447Z"/><path class="cls-12" d="M486,448.25c.08,0,1.18,4.82,2.45,10.8s2.24,10.84,2.16,10.86-1.18-4.82-2.45-10.8S485.87,448.25,486,448.25Z"/><path class="cls-12" d="M481.57,449.12c.08,0,1.18,4.83,2.46,10.82s2.24,10.87,2.16,10.89S485,466,483.73,460,481.49,449.14,481.57,449.12Z"/><path class="cls-12" d="M477.05,449.36c.09,0,1.18,4.79,2.44,10.73s2.23,10.77,2.14,10.79-1.17-4.79-2.43-10.73S477,449.38,477.05,449.36Z"/><path class="cls-12" d="M472.61,449.94c.08,0,1.17,4.76,2.43,10.67s2.21,10.71,2.13,10.73-1.17-4.76-2.43-10.67S472.53,450,472.61,449.94Z"/><path class="cls-12" d="M468.23,450.81c.08,0,1.1,4.45,2.28,10s2.06,10,2,10-1.1-4.45-2.28-10S468.15,450.83,468.23,450.81Z"/><path class="cls-12" d="M463.74,451.18c.08,0,1,4.16,2.14,9.32s1.92,9.37,1.84,9.39-1-4.16-2.14-9.33S463.69,451.25,463.74,451.18Z"/><path class="cls-12" d="M459.32,451.9a47.69,47.69,0,0,1,1.33,5.49,52.94,52.94,0,0,1,1,5.55,51.05,51.05,0,0,1-1.33-5.49A54.66,54.66,0,0,1,459.32,451.9Z"/><path class="cls-9" d="M314.33,468.57c0-.08,28.9-.15,64.55-.15s64.56.07,64.56.15-28.9.15-64.56.15S314.33,468.66,314.33,468.57Z"/><path class="cls-9" d="M316.86,465.65c0-.08,27.66-.15,61.78-.15s61.79.07,61.79.15-27.66.15-61.79.15S316.86,465.73,316.86,465.65Z"/><path class="cls-9" d="M320.69,462.66c0-.08,26.17-.15,58.44-.15s58.44.07,58.44.15-26.16.15-58.44.15S320.69,462.74,320.69,462.66Z"/><path class="cls-9" d="M323.27,459.67c0-.08,24.92-.15,55.66-.15s55.66.07,55.66.15-24.92.15-55.66.15S323.27,459.75,323.27,459.67Z"/><path class="cls-9" d="M327.54,456.82c0-.08,23.1-.15,51.6-.15s51.61.07,51.61.15-23.1.15-51.61.15S327.54,456.91,327.54,456.82Z"/><path class="cls-9" d="M332.38,454c0-.09,20.87-.16,46.62-.16s46.62.07,46.62.16-20.87.15-46.62.15S332.38,454.06,332.38,454Z"/><rect class="cls-9" x="376.42" y="328.8" width="1.58" height="2.85"/><g class="cls-10"><path class="cls-6" d="M288.87,382.14s2.85-1,2.29-3.11a40.9,40.9,0,0,0,19.53,4.67c11.25-.17,52.46,2.35,52.46,2.35l4.72,6.53s-69.77-1.62-72.36.06Z"/></g><g class="cls-10"><path class="cls-6" d="M262.69,387.32c-.58,0,17.78,6.31,20.16,8.3l3.75-.82-13.11-21.73-1.5-.35S267.49,387.35,262.69,387.32Z"/></g><g class="cls-10"><path class="cls-6" d="M306.83,321.25c.36,0,71.88-3.06,71.76-4s-31.89-.82-45.84,0A147.54,147.54,0,0,0,306.83,321.25Z"/></g><g class="cls-15"><path class="cls-6" d="M276.9,361,335,346.66l11-24-47,2a1.52,1.52,0,0,0-1.46.93Z"/></g></g></g></g></svg>