<svg xmlns="http://www.w3.org/2000/svg" viewBox="0 0 750.35 521.64"><defs><style>.cls-1{fill:#f2fafe;}.cls-2{fill:#d9eaf9;}.cls-3{fill:#e0e0e0;}.cls-4{fill:#fafafa;}.cls-5{fill:#f3faff;}.cls-14,.cls-16,.cls-17,.cls-6{fill:#fff;}.cls-7{fill:#f7fafc;}.cls-8{fill:#f5f5f5;}.cls-9{fill:#e04f4e;}.cls-10,.cls-19,.cls-21,.cls-25{fill:none;stroke-linecap:round;stroke-linejoin:round;}.cls-10{stroke:#407bff;}.cls-10,.cls-19,.cls-25{stroke-width:0.5px;}.cls-11{fill:#263238;}.cls-12,.cls-14,.cls-16,.cls-17,.cls-18,.cls-19,.cls-21,.cls-22,.cls-25{isolation:isolate;}.cls-12{opacity:0.5;}.cls-13{fill:#407bff;}.cls-14{opacity:0.8;}.cls-15,.cls-18,.cls-21{opacity:0.3;}.cls-16,.cls-22,.cls-25{opacity:0.2;}.cls-17{opacity:0.4;}.cls-19,.cls-21,.cls-25{stroke:#000;}.cls-19{opacity:0.6;}.cls-20{fill:#e1715b;}.cls-21{stroke-width:0.25px;}.cls-23{fill:#fd504e;}.cls-24{fill:#fb504e;}</style></defs><g id="Слой_2" data-name="Слой 2"><g id="Слой_1-2" data-name="Слой 1"><g id="Слой_2-2" data-name="Слой 2-2"><g id="Background_complete" data-name="Background complete"><g id="freepik--background-complete--inject-481"><polygon class="cls-1" points="686.93 248.51 686.93 172.51 639.88 172.51 639.88 189.85 608.51 189.85 608.51 0 548.2 0 548.2 74.72 530.11 74.72 530.11 37.41 483.05 37.41 483.05 219.38 416.7 219.38 416.7 155.09 375.1 155.09 375.1 15.69 323.75 15.69 323.75 108.62 275.49 108.62 275.49 308.82 238.1 308.82 238.1 211.34 199.49 211.34 199.49 148.6 158.48 148.6 158.48 100.44 112.72 124.58 112.72 253.43 64.46 253.43 64.46 226.85 0 226.85 0 413.61 750.35 413.98 750.35 248.51 686.93 248.51"/><path class="cls-2" d="M202.64,413.71V135.85H151.37V414C167.6,413.57,202.64,413.71,202.64,413.71Z"/><path class="cls-2" d="M156,414V261.16H50.43V413.64Z"/><path class="cls-3" d="M284.15,413.75V189.41H224.38V413.72Z"/><rect class="cls-4" x="228.91" y="198.2" width="7.25" height="14.95"/><rect class="cls-4" x="243.4" y="198.2" width="7.25" height="14.95"/><rect class="cls-4" x="257.9" y="198.2" width="7.25" height="14.95"/><rect class="cls-4" x="272.39" y="198.2" width="7.25" height="14.95"/><rect class="cls-4" x="228.91" y="223.27" width="7.25" height="14.95"/><rect class="cls-4" x="243.4" y="223.27" width="7.25" height="14.95"/><rect class="cls-4" x="257.9" y="223.27" width="7.25" height="14.95"/><rect class="cls-4" x="272.39" y="223.27" width="7.25" height="14.95"/><rect class="cls-4" x="228.91" y="248.32" width="7.25" height="14.95"/><rect class="cls-4" x="243.4" y="248.32" width="7.25" height="14.95"/><rect class="cls-4" x="257.9" y="248.32" width="7.25" height="14.95"/><rect class="cls-4" x="272.39" y="248.32" width="7.25" height="14.95"/><rect class="cls-4" x="228.91" y="273.38" width="7.25" height="14.95"/><rect class="cls-4" x="243.4" y="273.38" width="7.25" height="14.95"/><rect class="cls-4" x="257.9" y="273.38" width="7.25" height="14.95"/><rect class="cls-4" x="272.39" y="273.38" width="7.25" height="14.95"/><rect class="cls-4" x="228.91" y="298.43" width="7.25" height="14.95"/><rect class="cls-4" x="243.4" y="298.43" width="7.25" height="14.95"/><rect class="cls-4" x="257.9" y="298.43" width="7.25" height="14.95"/><rect class="cls-4" x="272.39" y="298.43" width="7.25" height="14.95"/><rect class="cls-4" x="228.91" y="323.48" width="7.25" height="14.95"/><rect class="cls-4" x="243.4" y="323.48" width="7.25" height="14.95"/><rect class="cls-4" x="257.9" y="323.48" width="7.25" height="14.95"/><rect class="cls-4" x="272.39" y="323.48" width="7.25" height="14.95"/><rect class="cls-4" x="228.91" y="348.54" width="7.25" height="14.95"/><rect class="cls-4" x="243.4" y="348.54" width="7.25" height="14.95"/><rect class="cls-4" x="257.9" y="348.54" width="7.25" height="14.95"/><rect class="cls-4" x="272.39" y="348.54" width="7.25" height="14.95"/><rect class="cls-4" x="228.91" y="373.61" width="7.25" height="14.95"/><rect class="cls-4" x="243.4" y="373.61" width="7.25" height="14.95"/><rect class="cls-4" x="257.9" y="373.61" width="7.25" height="14.95"/><rect class="cls-4" x="272.39" y="373.61" width="7.25" height="14.95"/><path class="cls-2" d="M491.86,413.85V157.45H367.93V413.94S490.91,414,491.86,413.85Z"/><rect class="cls-5" x="377.23" y="167.67" width="15.02" height="17.22"/><rect class="cls-5" x="407.3" y="167.67" width="15.02" height="17.22"/><rect class="cls-5" x="437.35" y="167.67" width="15.02" height="17.22"/><rect class="cls-5" x="467.42" y="167.67" width="15.02" height="17.22"/><rect class="cls-5" x="377.23" y="196.56" width="15.02" height="17.22"/><rect class="cls-5" x="407.3" y="196.56" width="15.02" height="17.22"/><rect class="cls-5" x="437.35" y="196.56" width="15.02" height="17.22"/><rect class="cls-5" x="467.42" y="196.56" width="15.02" height="17.22"/><rect class="cls-5" x="377.23" y="225.43" width="15.02" height="17.22"/><rect class="cls-5" x="407.3" y="225.43" width="15.02" height="17.22"/><rect class="cls-5" x="437.35" y="225.43" width="15.02" height="17.22"/><rect class="cls-5" x="467.42" y="225.43" width="15.02" height="17.22"/><rect class="cls-5" x="377.23" y="254.29" width="15.02" height="17.22"/><rect class="cls-5" x="407.3" y="254.29" width="15.02" height="17.22"/><rect class="cls-5" x="437.35" y="254.29" width="15.02" height="17.22"/><rect class="cls-5" x="467.42" y="254.29" width="15.02" height="17.22"/><rect class="cls-5" x="377.23" y="283.18" width="15.02" height="17.22"/><rect class="cls-5" x="407.3" y="283.18" width="15.02" height="17.22"/><rect class="cls-5" x="437.35" y="283.18" width="15.02" height="17.22"/><rect class="cls-5" x="467.42" y="283.18" width="15.02" height="17.22"/><rect class="cls-5" x="377.23" y="312.04" width="15.02" height="17.22"/><rect class="cls-5" x="407.3" y="312.04" width="15.02" height="17.22"/><rect class="cls-5" x="437.35" y="312.04" width="15.02" height="17.22"/><rect class="cls-5" x="467.42" y="312.04" width="15.02" height="17.22"/><rect class="cls-5" x="377.23" y="340.93" width="15.02" height="17.22"/><rect class="cls-5" x="407.3" y="340.93" width="15.02" height="17.22"/><rect class="cls-5" x="437.35" y="340.93" width="15.02" height="17.22"/><rect class="cls-5" x="467.42" y="340.93" width="15.02" height="17.22"/><rect class="cls-5" x="377.23" y="369.8" width="15.02" height="17.22"/><rect class="cls-5" x="407.3" y="369.8" width="15.02" height="17.22"/><rect class="cls-5" x="437.35" y="369.8" width="15.02" height="17.22"/><rect class="cls-5" x="467.42" y="369.8" width="15.02" height="17.22"/><rect class="cls-4" x="160.82" y="154.74" width="13.85" height="15.87"/><rect class="cls-4" x="160.82" y="181.34" width="13.85" height="15.87"/><rect class="cls-4" x="160.82" y="207.96" width="13.85" height="15.87"/><rect class="cls-4" x="160.82" y="234.56" width="13.85" height="15.87"/><rect class="cls-4" x="160.82" y="261.16" width="13.85" height="15.87"/><rect class="cls-4" x="160.82" y="287.78" width="13.85" height="15.87"/><rect class="cls-4" x="160.82" y="314.38" width="13.85" height="15.87"/><rect class="cls-4" x="160.82" y="341" width="13.85" height="15.87"/><rect class="cls-4" x="179.34" y="154.74" width="13.85" height="15.87"/><rect class="cls-4" x="179.34" y="181.34" width="13.85" height="15.87"/><rect class="cls-4" x="179.34" y="207.96" width="13.85" height="15.87"/><rect class="cls-4" x="179.34" y="234.56" width="13.85" height="15.87"/><rect class="cls-4" x="179.34" y="261.16" width="13.85" height="15.87"/><rect class="cls-4" x="179.34" y="287.78" width="13.85" height="15.87"/><rect class="cls-4" x="179.34" y="314.38" width="13.85" height="15.87"/><rect class="cls-4" x="179.34" y="341" width="13.85" height="15.87"/><rect class="cls-2" x="335.5" y="34.13" width="15.02" height="17.22"/><rect class="cls-2" x="335.5" y="63" width="15.02" height="17.22"/><rect class="cls-2" x="335.5" y="89.9" width="15.02" height="17.22"/><rect class="cls-2" x="335.5" y="118.77" width="15.02" height="17.22"/><rect class="cls-2" x="335.5" y="147.63" width="15.02" height="17.22"/><rect class="cls-2" x="335.5" y="176.52" width="15.02" height="17.22"/><rect class="cls-2" x="335.5" y="205.39" width="15.02" height="17.22"/><rect class="cls-2" x="335.5" y="234.27" width="15.02" height="17.22"/><rect class="cls-2" x="561.19" y="9.09" width="15.02" height="17.22"/><rect class="cls-2" x="561.19" y="37.96" width="15.02" height="17.22"/><rect class="cls-2" x="561.19" y="66.85" width="15.02" height="17.22"/><rect class="cls-2" x="561.19" y="95.71" width="15.02" height="17.22"/><rect class="cls-2" x="561.19" y="124.6" width="15.02" height="17.22"/><rect class="cls-2" x="561.19" y="153.47" width="15.02" height="17.22"/><rect class="cls-2" x="561.19" y="182.35" width="15.02" height="17.22"/><rect class="cls-2" x="561.19" y="211.22" width="15.02" height="17.22"/><rect class="cls-2" x="593.37" y="141.74" width="90.49" height="272.23"/><rect class="cls-6" x="606.76" y="155.16" width="26.52" height="17.22"/><rect class="cls-6" x="606.76" y="184.05" width="26.52" height="17.22"/><rect class="cls-6" x="606.76" y="212.92" width="26.52" height="17.22"/><rect class="cls-6" x="606.76" y="241.8" width="26.52" height="17.22"/><rect class="cls-6" x="606.76" y="270.67" width="26.52" height="17.22"/><rect class="cls-6" x="606.76" y="299.54" width="26.52" height="17.22"/><rect class="cls-6" x="606.76" y="328.42" width="26.52" height="17.22"/><rect class="cls-6" x="606.76" y="357.29" width="26.52" height="17.22"/><rect class="cls-6" x="642.24" y="155.16" width="26.52" height="17.22"/><rect class="cls-6" x="642.24" y="184.05" width="26.52" height="17.22"/><rect class="cls-6" x="642.24" y="212.92" width="26.52" height="17.22"/><rect class="cls-6" x="642.24" y="241.8" width="26.52" height="17.22"/><rect class="cls-6" x="642.24" y="270.67" width="26.52" height="17.22"/><rect class="cls-6" x="642.24" y="299.54" width="26.52" height="17.22"/><rect class="cls-6" x="642.24" y="328.42" width="26.52" height="17.22"/><rect class="cls-6" x="642.24" y="357.29" width="26.52" height="17.22"/><path class="cls-3" d="M544,413.88V225.43H504.56V413.86Z"/><rect class="cls-4" x="507.55" y="233.05" width="4.79" height="12.83"/><rect class="cls-4" x="517.13" y="233.05" width="4.79" height="12.83"/><rect class="cls-4" x="526.68" y="233.05" width="4.79" height="12.83"/><rect class="cls-4" x="536.25" y="233.05" width="4.79" height="12.83"/><rect class="cls-4" x="507.55" y="254.58" width="4.79" height="12.83"/><rect class="cls-4" x="517.13" y="254.58" width="4.79" height="12.83"/><rect class="cls-4" x="526.68" y="254.58" width="4.79" height="12.83"/><rect class="cls-4" x="536.25" y="254.58" width="4.79" height="12.83"/><rect class="cls-4" x="507.55" y="276.1" width="4.79" height="12.83"/><rect class="cls-4" x="517.13" y="276.1" width="4.79" height="12.83"/><rect class="cls-4" x="526.68" y="276.1" width="4.79" height="12.83"/><rect class="cls-4" x="536.25" y="276.1" width="4.79" height="12.83"/><rect class="cls-4" x="507.55" y="297.63" width="4.79" height="12.83"/><rect class="cls-4" x="517.13" y="297.63" width="4.79" height="12.83"/><rect class="cls-4" x="526.68" y="297.63" width="4.79" height="12.83"/><rect class="cls-4" x="536.25" y="297.63" width="4.79" height="12.83"/><rect class="cls-4" x="507.55" y="319.18" width="4.79" height="12.83"/><rect class="cls-4" x="517.13" y="319.18" width="4.79" height="12.83"/><rect class="cls-4" x="526.68" y="319.18" width="4.79" height="12.83"/><rect class="cls-4" x="536.25" y="319.18" width="4.79" height="12.83"/><rect class="cls-4" x="507.55" y="340.7" width="4.79" height="12.83"/><rect class="cls-4" x="517.13" y="340.7" width="4.79" height="12.83"/><rect class="cls-4" x="526.68" y="340.7" width="4.79" height="12.83"/><rect class="cls-4" x="536.25" y="340.7" width="4.79" height="12.83"/><rect class="cls-4" x="507.55" y="362.23" width="4.79" height="12.83"/><rect class="cls-4" x="517.13" y="362.23" width="4.79" height="12.83"/><rect class="cls-4" x="526.68" y="362.23" width="4.79" height="12.83"/><rect class="cls-4" x="536.25" y="362.23" width="4.79" height="12.83"/><rect class="cls-4" x="507.55" y="383.75" width="4.79" height="12.83"/><rect class="cls-4" x="517.13" y="383.75" width="4.79" height="12.83"/><rect class="cls-4" x="526.68" y="383.75" width="4.79" height="12.83"/><rect class="cls-4" x="536.25" y="383.75" width="4.79" height="12.83"/><rect class="cls-7" x="58.42" y="267.54" width="12.79" height="10.77"/><rect class="cls-7" x="84.01" y="267.54" width="12.79" height="10.77"/><rect class="cls-7" x="109.58" y="267.54" width="12.79" height="10.77"/><rect class="cls-7" x="135.16" y="267.54" width="12.79" height="10.77"/><rect class="cls-7" x="58.42" y="285.6" width="12.79" height="10.77"/><rect class="cls-7" x="84.01" y="285.6" width="12.79" height="10.77"/><rect class="cls-7" x="109.58" y="285.6" width="12.79" height="10.77"/><rect class="cls-7" x="135.16" y="285.6" width="12.79" height="10.77"/><rect class="cls-7" x="58.42" y="303.66" width="12.79" height="10.77"/><rect class="cls-7" x="84.01" y="303.66" width="12.79" height="10.77"/><rect class="cls-7" x="109.58" y="303.66" width="12.79" height="10.77"/><rect class="cls-7" x="135.16" y="303.66" width="12.79" height="10.77"/><rect class="cls-7" x="58.42" y="321.71" width="12.79" height="10.77"/><rect class="cls-7" x="84.01" y="321.71" width="12.79" height="10.77"/><rect class="cls-7" x="109.58" y="321.71" width="12.79" height="10.77"/><rect class="cls-7" x="135.16" y="321.71" width="12.79" height="10.77"/><rect class="cls-7" x="58.42" y="339.75" width="12.79" height="10.77"/><rect class="cls-7" x="84.01" y="339.75" width="12.79" height="10.77"/><rect class="cls-7" x="109.58" y="339.75" width="12.79" height="10.77"/><rect class="cls-7" x="135.16" y="339.75" width="12.79" height="10.77"/><rect class="cls-7" x="58.42" y="357.8" width="12.79" height="10.77"/><rect class="cls-7" x="84.01" y="357.8" width="12.79" height="10.77"/><rect class="cls-7" x="109.58" y="357.8" width="12.79" height="10.77"/><rect class="cls-7" x="135.16" y="357.8" width="12.79" height="10.77"/><rect class="cls-7" x="58.42" y="375.86" width="12.79" height="10.77"/><rect class="cls-7" x="84.01" y="375.86" width="12.79" height="10.77"/><rect class="cls-7" x="109.58" y="375.86" width="12.79" height="10.77"/><rect class="cls-7" x="135.16" y="375.86" width="12.79" height="10.77"/></g></g><g id="Shadow"><path class="cls-8" d="M579,515.5c0,3.39-117.57,6.14-262.6,6.14s-262.6-2.75-262.6-6.14,117.61-6.13,262.61-6.13S579,512.12,579,515.5Z"/></g><g id="Speech_Bubble" data-name="Speech Bubble"><circle class="cls-9" cx="308.06" cy="286.93" r="21.21"/><polygon class="cls-9" points="316.4 301.34 314.93 306.6 321.01 309.84 321.75 303.1 316.4 301.34"/><path class="cls-10" d="M325.28,268.05a21,21,0,0,1,8.56,17.89"/><path class="cls-10" d="M333.58,289.09a7.38,7.38,0,0,1-.58,3.08"/><polygon class="cls-6" points="307.68 295.89 297 288.75 299.49 285.02 306.66 289.81 315.57 278.02 319.14 280.72 307.68 295.89"/></g><g id="Character"><polygon class="cls-11" points="582.2 471.07 160.02 480.96 160.02 408.75 586.26 408.75 582.2 471.07"/><polygon class="cls-12" points="582.2 471.07 160.02 480.96 160.02 408.75 586.26 408.75 582.2 471.07"/><g id="freepik--Car--inject-7"><path class="cls-9" d="M143.78,427.29v36.62A17.92,17.92,0,0,0,156.39,481l3,.92a18.21,18.21,0,0,0,5.68.78l19.72-.46a50,50,0,1,1,96.65-2.3l200.63-4.78a49.95,49.95,0,1,1,99-13.65,48.42,48.42,0,0,1,.47,7c0,1-.08,1.93-.08,2.9.26-.12.54-.22.8-.35L589,468a18.89,18.89,0,0,0,11.09-17.23V376.2a18.84,18.84,0,0,0-10-16.71l-51.56-27.12a2.71,2.71,0,0,1-1.1-3.69h0a2.76,2.76,0,0,1,1.45-1.24l6.3-2.27a1.45,1.45,0,0,0,.93-1.85,1.47,1.47,0,0,0-1.22-1c-24.49-3.41-119.79-15.87-169.86-9.75-57.78,7.07-113.16,57.19-113.16,57.19-42.53-1.6-82.23,13.21-99.31,20.64a21.33,21.33,0,0,0-11.69,12.73L145,420.46A21.52,21.52,0,0,0,143.78,427.29Z"/><path class="cls-11" d="M482.1,475.15a49,49,0,0,1-.42-6.63c0-1.13,0-2.25.1-3.36l-36.29-14.82a15.19,15.19,0,0,0-6.7-1.09L312.6,457.53a15.22,15.22,0,0,0-5.91,1.6l-24,12.34a51.34,51.34,0,0,1-1.22,8.46Z"/><path class="cls-11" d="M600.2,450.78v-1.9l-20.48,6.28a50.27,50.27,0,0,1,1.81,13.36c0,1-.08,1.93-.08,2.89.26-.11.54-.21.8-.34l6.88-3.06A18.93,18.93,0,0,0,600.2,450.78Z"/><path class="cls-11" d="M149.63,477.05a17.81,17.81,0,0,0,6.83,3.94l3,.91a17.87,17.87,0,0,0,5.67.79l19.72-.46a50.68,50.68,0,0,1-1.54-7.62Z"/><path class="cls-11" d="M531.66,413.88a54.63,54.63,0,0,0-54.22,61.39l4.73-.12a49.06,49.06,0,0,1-.47-7.06,50,50,0,0,1,99.87-2.15v2.56c0,.86-.09,1.93-.09,2.9l.8-.34,4-1.8v-.76a54.69,54.69,0,0,0-54.63-54.62Z"/><path class="cls-11" d="M232.87,413.88A54.62,54.62,0,0,0,180,482.33l4.85-.1a50,50,0,1,1,96.65-2.3l4.84-.12a54.62,54.62,0,0,0-42.13-64.75,53.86,53.86,0,0,0-11.32-1.18Z"/><path class="cls-13" d="M280.41,371.86a3.78,3.78,0,0,0-1.17,2,3.6,3.6,0,0,0,2.27,4.27L302.42,384a14.23,14.23,0,0,0,5.66.43l154.63-19.17a15.78,15.78,0,0,0,9.93-5.5l20.29-23.64a5.2,5.2,0,0,0,1.21-2.88c.28-2.69-1.41-5.12-3.77-5.42-37-4.91-83.84-9.39-113.41-5.76C338.17,326.79,299.17,355.92,280.41,371.86Z"/><path class="cls-14" d="M281.08,371.86a3.73,3.73,0,0,0-1.18,2,3.6,3.6,0,0,0,2.28,4.27L303,384a14.24,14.24,0,0,0,5.66.43L459.9,374.07c3.76-.47,9.58-7.4,13.66-13l20.06-24.94a5.21,5.21,0,0,0,1.22-2.88c.27-2.69-1.41-5.12-3.78-5.42-37-4.91-83.84-9.39-113.4-5.76C338.87,326.79,299.86,355.92,281.08,371.86Z"/><g class="cls-15"><path d="M382.13,386.6a1.93,1.93,0,0,1-1.15-2.45h0a3.2,3.2,0,0,1,2.88-2.11l18.4-.78a1.94,1.94,0,0,1,2,1.84,1.79,1.79,0,0,1-.12.72h0a3.25,3.25,0,0,1-2.89,2.12l-18.4.76A2,2,0,0,1,382.13,386.6Z"/></g><path class="cls-13" d="M519,333.87a4,4,0,0,0-.32,5.57l4.36,4.74a4.11,4.11,0,0,0,1.85,1.12l53.45,14.83a11.94,11.94,0,0,0,2.86.38h10.6a19.77,19.77,0,0,0-1.71-1l-51.56-27.16h0a2.62,2.62,0,0,1-1.21-3.5h0L520.56,333A4,4,0,0,0,519,333.87Z"/><path class="cls-6" d="M186.09,397.42l-18.24-2-10.48,4.27a7.51,7.51,0,0,0-4.44,5.12h0a5.27,5.27,0,0,0,.54,3.94l.19.32a5.73,5.73,0,0,0,5.75,2.81l10.52-1.45a6,6,0,0,0,2.82-1.17l12.14-9.2Z"/><path class="cls-13" d="M261.87,369.74l2.9.85a7.08,7.08,0,0,0,6.48-1.39c16.91-14.31,46.29-36.24,78-46.47a.6.6,0,0,0,.37-.76.56.56,0,0,0-.27-.32l-3.94-2C299.67,335.47,261.87,369.74,261.87,369.74Z"/><path class="cls-14" d="M261.87,369.74l2.9.85a7.08,7.08,0,0,0,6.48-1.39c16.91-14.31,46.29-36.24,78-46.47a.6.6,0,0,0,.37-.76.56.56,0,0,0-.27-.32l-3.94-2C299.67,335.47,261.87,369.74,261.87,369.74Z"/><path class="cls-16" d="M435.22,389.05,281.49,400l2.89,19a40,40,0,0,0,6.31,16.21l12.85,19.21,131.18-17.74,62-47.64Z"/><circle class="cls-11" cx="531.61" cy="468.51" r="41.62"/><circle class="cls-17" cx="531.61" cy="468.51" r="25.51"/><g class="cls-15"><rect class="cls-6" x="529.57" y="445.57" width="4.09" height="17.16" rx="2.04"/></g><g class="cls-15"><rect class="cls-6" x="529.57" y="474.32" width="4.09" height="17.16" rx="2.04"/></g><g class="cls-15"><path class="cls-6" d="M539.41,466.38a2,2,0,0,1-2.78-.77h0a2,2,0,0,1,.75-2.78l11.32-6.58a2.06,2.06,0,0,1,2.8.75h0a2.05,2.05,0,0,1-.75,2.78l-11.32,6.57Z"/></g><g class="cls-15"><path class="cls-6" d="M514.51,480.69a2,2,0,0,1-2.78-.75h0a2,2,0,0,1,.75-2.77h0l11.32-6.58h0a2,2,0,0,1,2.79.74h0a2,2,0,0,1-.73,2.79h0l-11.33,6.57Z"/></g><g class="cls-15"><path class="cls-6" d="M548.7,480.74l-11.32-6.57a2,2,0,0,1-.75-2.8h0a2.05,2.05,0,0,1,2.8-.73l11.32,6.57a2.05,2.05,0,0,1,.75,2.78h0a2,2,0,0,1-2.8.75Z"/></g><g class="cls-15"><path class="cls-6" d="M526.58,465.62a2,2,0,0,1-2.78.74l-11.32-6.57h0a2,2,0,0,1-.75-2.78h0a2,2,0,0,1,2.78-.75l11.33,6.58h0a2,2,0,0,1,.73,2.78h0Z"/></g><path class="cls-11" d="M528.19,468.5a3.42,3.42,0,0,1,3.42-3.41h0a3.42,3.42,0,1,1-3.42,3.41Z"/><circle class="cls-11" cx="232.86" cy="468.52" r="41.62"/><circle class="cls-17" cx="232.86" cy="468.52" r="25.51"/><g class="cls-15"><rect class="cls-6" x="230.81" y="445.57" width="4.09" height="17.16" rx="2.04"/></g><g class="cls-15"><rect class="cls-6" x="230.81" y="474.32" width="4.09" height="17.16" rx="2.04"/></g><g class="cls-15"><path class="cls-6" d="M240.65,466.38a2,2,0,0,1-2.75-.75h0a2,2,0,0,1,.71-2.77h0L250,456.28h0a2,2,0,0,1,2.77.73h0a2,2,0,0,1-.73,2.77h0l-11.32,6.57Z"/></g><g class="cls-15"><path class="cls-6" d="M213,479.94h0a2,2,0,0,1,.75-2.77h0l11.32-6.58a2.05,2.05,0,0,1,2.8.74h0a2,2,0,0,1-.75,2.8h0l-11.31,6.57A2.06,2.06,0,0,1,213,480Z"/></g><g class="cls-15"><path class="cls-6" d="M252.74,480a2,2,0,0,1-2.78.74l-11.34-6.57a2.05,2.05,0,0,1-.73-2.8h0a2,2,0,0,1,2.76-.74h0L252,477.2h0a2,2,0,0,1,.75,2.78h0Z"/></g><g class="cls-15"><path class="cls-6" d="M227.83,465.64a2,2,0,0,1-2.79.72l-11.32-6.57h0A2,2,0,0,1,213,457h0a2.06,2.06,0,0,1,2.8-.76h0l11.31,6.58h0a2,2,0,0,1,.74,2.78h0Z"/></g><path class="cls-11" d="M232.87,465.09h0a3.42,3.42,0,1,1-3.41,3.41A3.41,3.41,0,0,1,232.87,465.09Z"/><path class="cls-18" d="M595.83,390a2.66,2.66,0,0,0,1.71-3.3c-.49-8.75-2.35-16.55-7.68-21.92a2.66,2.66,0,0,0-2.73-1.86l-31.72,3a2.64,2.64,0,0,0-2.37,2.86,2.61,2.61,0,0,0,.67,1.52l9,9.79a2.61,2.61,0,0,0,1.16.73l30.42,9.2A2.7,2.7,0,0,0,595.83,390Z"/><path class="cls-11" d="M279.24,373.85a3.59,3.59,0,0,0,2.27,4.27L302.42,384a23.26,23.26,0,0,0,5.79,1l6.57-.43-6.19-33.46c-14.31,9.39-15.29,9.82-28.17,20.76A3.67,3.67,0,0,0,279.24,373.85Z"/><path class="cls-11" d="M415.09,321,402,378.12l17.14-1.24L427,321.52Q421,321.18,415.09,321Z"/><path class="cls-11" d="M469.48,366.2l24.07-30.07a5.12,5.12,0,0,0,1.24-2.93c.28-2.68-1.42-5.12-3.78-5.4-4.93-.67-10.18-1.31-15.42-1.94"/><path class="cls-9" d="M298.21,379.66a7.54,7.54,0,0,1-7.63-7.45h0a7.56,7.56,0,0,1,5.84-7.44l10.05-2.34L309,379.27l-10.61.4Z"/><polygon class="cls-18" points="306.09 379.37 309.02 379.25 306.47 362.4 303.6 363.08 306.09 379.37"/></g><path class="cls-19" d="M418.78,376.93c.12,5.93.06,12.18-.58,15.37-1.4,7.08-12.5,59.1-12.5,59.1"/><path class="cls-19" d="M279.15,375.11s3.31,45,8.36,54.07c4.92,8.87,19.18,29.95,19.18,29.95"/><path class="cls-19" d="M267.58,370.83s-35.44,8.76-45.87,10.43c-8.54,1.37-43.38,9.84-53.86,14.14"/><path class="cls-14" d="M519,333.87a4,4,0,0,0-.32,5.57l4.36,4.74a4.11,4.11,0,0,0,1.85,1.12l53.45,14.83a11.94,11.94,0,0,0,2.86.38h10.6a19.77,19.77,0,0,0-1.71-1l-51.56-27.16h0a2.62,2.62,0,0,1-1.21-3.5h0L520.56,333A4,4,0,0,0,519,333.87Z"/><path class="cls-20" d="M341.93,356.5s6.38,22.46,9.49,23.26c5.62,1.45,24.62-1.81,24.24-2.44l-1.54-7.92s-19.4-1.39-19.81-1.23l-6.15-14.09Z"/><path class="cls-20" d="M348.19,358.06a6.53,6.53,0,0,0,2-4c.05-2.18.69-3.92.61-5.54s-1.43.09-2,1.16-1.16,2.27-1.9,1.7-3.93-7.68-5-8.28-.94.69-.94.69-.85-1.71-1.6-1.57c-.19,0-.59.44-.35,1.28.58,1.88,2,5.78,2,5.78-.08-.22-2.16-4.91-2.57-5.57-.52-.85-1.21-1-1.7-.68-.7.45,1.66,6.35,1.59,6.67,0,0-1.25-3.41-2.32-3.61s-.39,2,.57,3.89,2.16,5.21,3.22,6.82c1.31,2,2.64,3.05,4.85,2.72A7.55,7.55,0,0,0,348.19,358.06Z"/><path class="cls-21" d="M341.08,344c.64,1.38,1.19,2.8,1.71,4.27"/><path class="cls-21" d="M338.75,351.09a10,10,0,0,1,5.36-2.24"/><path class="cls-21" d="M346.44,352.27a3.48,3.48,0,0,0-1.34,4.23"/><path class="cls-11" d="M392,349s7.1-6,6.83-8-1.44-1.39-1.44-1.39,2.46-4.84,0-5.68-2.56,0-2.56,0,1-3.95-1-5.12c-1.47-.91-2.08.91-2.08.91s-2.79-4.34-6.14-4.27c-1.65.13-2.46,1.19-2.23,2.46v.17c0,.06-6.74-2.95-9.87-1.09s1,3.82,1,3.82-6.56-.68-7.85,2c-1,2.1,1.9,3.51,1.9,3.51a6.33,6.33,0,0,0-1.92,1.15,2.56,2.56,0,0,0,1.62,4.51h0c.35,0,1,.09,1.23-.15,0,0-1.13,2.37,1.3,3.14s3.59-2.06,3.59-2.06Z"/><path class="cls-20" d="M389.77,364.5s-.4-3.42,2-11.75a4.51,4.51,0,0,1-.44-.22c.34-1.16.69-2.24,1-3.17h0l-11.45,7c.26,2.67-.71,7.82-1.28,10l2.95,5Z"/><path class="cls-22" d="M380.78,360.08l6.57-1.46c-.6,2-2.41,4.46-7,4.64A19,19,0,0,0,380.78,360.08Z"/><path class="cls-11" d="M373.16,336.63c-1.35,2.63-1.83,8.43,2.37,7.23S375.48,332.1,373.16,336.63Z"/><path class="cls-20" d="M392.51,343.79c-.79,7.22-1.08,11.31-4.92,14.83-5.78,5.28-14.38,1.63-15.77-5.71-1.25-6.6.25-17.31,7.49-19.78A10,10,0,0,1,392,339.37,9.9,9.9,0,0,1,392.51,343.79Z"/><path class="cls-11" d="M382,345.39c0,.74-.45,1.32-.94,1.29s-.85-.65-.85-1.39.46-1.32.94-1.3S382.07,344.65,382,345.39Z"/><path class="cls-11" d="M374.76,345.19c0,.74-.45,1.32-.94,1.3s-.85-.66-.81-1.39.45-1.33.94-1.3S374.8,344.45,374.76,345.19Z"/><path class="cls-23" d="M377.15,344.89s-2.52,3.58-3.35,5a3.53,3.53,0,0,0,2.79.64Z"/><path class="cls-11" d="M383.84,341.41a.34.34,0,0,1-.34-.1,2.83,2.83,0,0,0-2.37-.85.35.35,0,0,1-.2-.67H381a3.5,3.5,0,0,1,3,1.08.34.34,0,0,1,0,.48h0A.25.25,0,0,1,383.84,341.41Z"/><path class="cls-11" d="M371.67,341.84a.31.31,0,0,1-.16-.11.34.34,0,0,1,0-.49,3.38,3.38,0,0,1,3.08-.7.34.34,0,0,1-.21.65h0a2.7,2.7,0,0,0-2.42.59A.33.33,0,0,1,371.67,341.84Z"/><path class="cls-11" d="M377.53,352.61a11.55,11.55,0,0,0,4.35-2.25,2.86,2.86,0,0,1,.3.8,3.17,3.17,0,0,1,0,1.5c-.26,1-1.13,2.08-3.49,2.74h-.07s-1.27.32-1.9-2.56A6.89,6.89,0,0,0,377.53,352.61Z"/><path class="cls-6" d="M377.53,352.61l.45.78c2.21-.62,3.7-1.36,4.2-2.23a2.86,2.86,0,0,0-.3-.8A11,11,0,0,1,377.53,352.61Z"/><path class="cls-24" d="M378.74,355.4c2.36-.66,3.23-1.71,3.49-2.74a8.19,8.19,0,0,0-2.47,1.24A3,3,0,0,0,378.74,355.4Z"/><path class="cls-11" d="M390.34,349.38a3.8,3.8,0,0,1-1.63-1.34,3.48,3.48,0,0,1-.24-1.94c.07-.69.16-1.37.29-2.05-.64.33-1.41-.18-1.77-.85a5.71,5.71,0,0,1-.42-3.16,2.35,2.35,0,0,1-2.29-.71,1.85,1.85,0,0,1,0-2.31,20.75,20.75,0,0,1-8-.49,1,1,0,0,1-.26,1,6.36,6.36,0,0,1-3.83,2.34c-.22,0-.5.05-.62-.14a.55.55,0,0,1,0-.38,5.63,5.63,0,0,1,2-3.79,12.69,12.69,0,0,1,3.83-2.11,24.36,24.36,0,0,1,7.08-1.71,14.35,14.35,0,0,1,7.14,1.24,3.92,3.92,0,0,1,1.3.91,3.85,3.85,0,0,1,.63,1.38,25.08,25.08,0,0,1,.94,9.2"/><path class="cls-20" d="M395.08,350a6.76,6.76,0,0,1-3.59,3.83c-2.21,1-3.68-.93-3.37-3.2.29-2,1.77-5,4.14-5A3.11,3.11,0,0,1,395.08,350Z"/><path class="cls-25" d="M393.53,347.91a1.36,1.36,0,0,0-1.38-.53,2.3,2.3,0,0,0-1.28.86,3.8,3.8,0,0,0-.76,1.7"/><path class="cls-20" d="M379.16,376.28s-21.26,6.21-28.94,6.48-24.76-3.33-24.76-3.33l1-7.83,25,1.28,27.23-9.09Z"/><path class="cls-11" d="M371.56,381.07l4.17-17.25L386.32,362c.47-.07,9.08-.78,11.66,8.67l.58,7.51Z"/><path class="cls-11" d="M381.56,379.35c-.59,0-17.07,3-17.07,3l-3.41-13.43a134.55,134.55,0,0,1,14.7-5.12c7.85-2.13,15.2-2.79,16.89.85C395.87,371.64,381.56,379.35,381.56,379.35Z"/><path class="cls-18" d="M347.35,372.79l4.11.22,10.71-3.67s2.22-1,1.65-.76-5-.28-5.3-.23S347.35,372.79,347.35,372.79Z"/><path class="cls-11" d="M318.2,368c-.49.29-6.15,6.15-6.15,6.15l1.1,7.28,7.13-7.37Z"/><path class="cls-11" d="M326.74,383.21h0a2.56,2.56,0,0,1-3.41-1.16L312,359.11a2.56,2.56,0,0,1,1.16-3.41h0a2.55,2.55,0,0,1,3.41,1.15l11.32,22.94A2.56,2.56,0,0,1,326.74,383.21Z"/><path class="cls-20" d="M334.9,372.23,325.58,371l-2.68-3.25s-4.73-.42-5.75.42-2,3.54-2,3.54-1.24,2.21.85,3.36c0,0-1.34,2,1.05,3.35,0,0-1.75,1,.77,2a7.86,7.86,0,0,0,6.06-.12,13.07,13.07,0,0,1,4.27-.32l8.48,1.5Z"/></g></g></g></g></svg>