<svg xmlns="http://www.w3.org/2000/svg" viewBox="0 0 750.35 521.64"><defs><style>.cls-1{fill:#f2fafe;}.cls-2{fill:#d9eaf9;}.cls-3{fill:#e0e0e0;}.cls-4{fill:#fafafa;}.cls-5{fill:#f3faff;}.cls-6{fill:#fff;}.cls-7{fill:#f7fafc;}.cls-8{fill:#f5f5f5;}.cls-9{fill:#e04f4e;}.cls-10{fill:#263238;}.cls-11{opacity:0.7;}.cls-12{opacity:0.4;}.cls-13{opacity:0.5;}.cls-14{fill:#4d5a64;}.cls-15{fill:#ca515b;}.cls-16{fill:#ebebeb;}.cls-17{fill:#ffbf9d;}.cls-18{fill:#ae7461;}.cls-19{fill:#ff9a6c;}.cls-20{fill:#6f4439;}.cls-21,.cls-23{opacity:0.3;}.cls-22{opacity:0.6;}.cls-23{isolation:isolate;}</style></defs><g id="Слой_2" data-name="Слой 2"><g id="Слой_1-2" data-name="Слой 1"><g id="Слой_2-2" data-name="Слой 2-2"><g id="Background_complete" data-name="Background complete"><g id="freepik--background-complete--inject-481"><polygon class="cls-1" points="686.93 248.51 686.93 172.51 639.88 172.51 639.88 189.85 608.51 189.85 608.51 0 548.2 0 548.2 74.72 530.11 74.72 530.11 37.41 483.05 37.41 483.05 219.38 416.7 219.38 416.7 155.09 375.1 155.09 375.1 15.69 323.75 15.69 323.75 108.62 275.49 108.62 275.49 308.82 238.1 308.82 238.1 211.34 199.49 211.34 199.49 148.6 158.48 148.6 158.48 100.44 112.72 124.58 112.72 253.43 64.46 253.43 64.46 226.85 0 226.85 0 413.61 750.35 413.98 750.35 248.51 686.93 248.51"/><path class="cls-2" d="M202.64,413.71V135.85H151.37V414C167.6,413.57,202.64,413.71,202.64,413.71Z"/><path class="cls-2" d="M156,414V261.16H50.43V413.64Z"/><path class="cls-3" d="M284.15,413.75V189.41H224.38V413.72Z"/><rect class="cls-4" x="228.91" y="198.2" width="7.25" height="14.95"/><rect class="cls-4" x="243.4" y="198.2" width="7.25" height="14.95"/><rect class="cls-4" x="257.9" y="198.2" width="7.25" height="14.95"/><rect class="cls-4" x="272.39" y="198.2" width="7.25" height="14.95"/><rect class="cls-4" x="228.91" y="223.27" width="7.25" height="14.95"/><rect class="cls-4" x="243.4" y="223.27" width="7.25" height="14.95"/><rect class="cls-4" x="257.9" y="223.27" width="7.25" height="14.95"/><rect class="cls-4" x="272.39" y="223.27" width="7.25" height="14.95"/><rect class="cls-4" x="228.91" y="248.32" width="7.25" height="14.95"/><rect class="cls-4" x="243.4" y="248.32" width="7.25" height="14.95"/><rect class="cls-4" x="257.9" y="248.32" width="7.25" height="14.95"/><rect class="cls-4" x="272.39" y="248.32" width="7.25" height="14.95"/><rect class="cls-4" x="228.91" y="273.38" width="7.25" height="14.95"/><rect class="cls-4" x="243.4" y="273.38" width="7.25" height="14.95"/><rect class="cls-4" x="257.9" y="273.38" width="7.25" height="14.95"/><rect class="cls-4" x="272.39" y="273.38" width="7.25" height="14.95"/><rect class="cls-4" x="228.91" y="298.43" width="7.25" height="14.95"/><rect class="cls-4" x="243.4" y="298.43" width="7.25" height="14.95"/><rect class="cls-4" x="257.9" y="298.43" width="7.25" height="14.95"/><rect class="cls-4" x="272.39" y="298.43" width="7.25" height="14.95"/><rect class="cls-4" x="228.91" y="323.48" width="7.25" height="14.95"/><rect class="cls-4" x="243.4" y="323.48" width="7.25" height="14.95"/><rect class="cls-4" x="257.9" y="323.48" width="7.25" height="14.95"/><rect class="cls-4" x="272.39" y="323.48" width="7.25" height="14.95"/><rect class="cls-4" x="228.91" y="348.54" width="7.25" height="14.95"/><rect class="cls-4" x="243.4" y="348.54" width="7.25" height="14.95"/><rect class="cls-4" x="257.9" y="348.54" width="7.25" height="14.95"/><rect class="cls-4" x="272.39" y="348.54" width="7.25" height="14.95"/><rect class="cls-4" x="228.91" y="373.61" width="7.25" height="14.95"/><rect class="cls-4" x="243.4" y="373.61" width="7.25" height="14.95"/><rect class="cls-4" x="257.9" y="373.61" width="7.25" height="14.95"/><rect class="cls-4" x="272.39" y="373.61" width="7.25" height="14.95"/><path class="cls-2" d="M491.86,413.85V157.45H367.93V413.94S490.91,414,491.86,413.85Z"/><rect class="cls-5" x="377.23" y="167.67" width="15.02" height="17.22"/><rect class="cls-5" x="407.3" y="167.67" width="15.02" height="17.22"/><rect class="cls-5" x="437.35" y="167.67" width="15.02" height="17.22"/><rect class="cls-5" x="467.42" y="167.67" width="15.02" height="17.22"/><rect class="cls-5" x="377.23" y="196.56" width="15.02" height="17.22"/><rect class="cls-5" x="407.3" y="196.56" width="15.02" height="17.22"/><rect class="cls-5" x="437.35" y="196.56" width="15.02" height="17.22"/><rect class="cls-5" x="467.42" y="196.56" width="15.02" height="17.22"/><rect class="cls-5" x="377.23" y="225.43" width="15.02" height="17.22"/><rect class="cls-5" x="407.3" y="225.43" width="15.02" height="17.22"/><rect class="cls-5" x="437.35" y="225.43" width="15.02" height="17.22"/><rect class="cls-5" x="467.42" y="225.43" width="15.02" height="17.22"/><rect class="cls-5" x="377.23" y="254.29" width="15.02" height="17.22"/><rect class="cls-5" x="407.3" y="254.29" width="15.02" height="17.22"/><rect class="cls-5" x="437.35" y="254.29" width="15.02" height="17.22"/><rect class="cls-5" x="467.42" y="254.29" width="15.02" height="17.22"/><rect class="cls-5" x="377.23" y="283.18" width="15.02" height="17.22"/><rect class="cls-5" x="407.3" y="283.18" width="15.02" height="17.22"/><rect class="cls-5" x="437.35" y="283.18" width="15.02" height="17.22"/><rect class="cls-5" x="467.42" y="283.18" width="15.02" height="17.22"/><rect class="cls-5" x="377.23" y="312.04" width="15.02" height="17.22"/><rect class="cls-5" x="407.3" y="312.04" width="15.02" height="17.22"/><rect class="cls-5" x="437.35" y="312.04" width="15.02" height="17.22"/><rect class="cls-5" x="467.42" y="312.04" width="15.02" height="17.22"/><rect class="cls-5" x="377.23" y="340.93" width="15.02" height="17.22"/><rect class="cls-5" x="407.3" y="340.93" width="15.02" height="17.22"/><rect class="cls-5" x="437.35" y="340.93" width="15.02" height="17.22"/><rect class="cls-5" x="467.42" y="340.93" width="15.02" height="17.22"/><rect class="cls-5" x="377.23" y="369.8" width="15.02" height="17.22"/><rect class="cls-5" x="407.3" y="369.8" width="15.02" height="17.22"/><rect class="cls-5" x="437.35" y="369.8" width="15.02" height="17.22"/><rect class="cls-5" x="467.42" y="369.8" width="15.02" height="17.22"/><rect class="cls-4" x="160.82" y="154.74" width="13.85" height="15.87"/><rect class="cls-4" x="160.82" y="181.34" width="13.85" height="15.87"/><rect class="cls-4" x="160.82" y="207.96" width="13.85" height="15.87"/><rect class="cls-4" x="160.82" y="234.56" width="13.85" height="15.87"/><rect class="cls-4" x="160.82" y="261.16" width="13.85" height="15.87"/><rect class="cls-4" x="160.82" y="287.78" width="13.85" height="15.87"/><rect class="cls-4" x="160.82" y="314.38" width="13.85" height="15.87"/><rect class="cls-4" x="160.82" y="341" width="13.85" height="15.87"/><rect class="cls-4" x="179.34" y="154.74" width="13.85" height="15.87"/><rect class="cls-4" x="179.34" y="181.34" width="13.85" height="15.87"/><rect class="cls-4" x="179.34" y="207.96" width="13.85" height="15.87"/><rect class="cls-4" x="179.34" y="234.56" width="13.85" height="15.87"/><rect class="cls-4" x="179.34" y="261.16" width="13.85" height="15.87"/><rect class="cls-4" x="179.34" y="287.78" width="13.85" height="15.87"/><rect class="cls-4" x="179.34" y="314.38" width="13.85" height="15.87"/><rect class="cls-4" x="179.34" y="341" width="13.85" height="15.87"/><rect class="cls-2" x="335.5" y="34.13" width="15.02" height="17.22"/><rect class="cls-2" x="335.5" y="63" width="15.02" height="17.22"/><rect class="cls-2" x="335.5" y="89.9" width="15.02" height="17.22"/><rect class="cls-2" x="335.5" y="118.77" width="15.02" height="17.22"/><rect class="cls-2" x="335.5" y="147.63" width="15.02" height="17.22"/><rect class="cls-2" x="335.5" y="176.52" width="15.02" height="17.22"/><rect class="cls-2" x="335.5" y="205.39" width="15.02" height="17.22"/><rect class="cls-2" x="335.5" y="234.27" width="15.02" height="17.22"/><rect class="cls-2" x="561.19" y="9.09" width="15.02" height="17.22"/><rect class="cls-2" x="561.19" y="37.96" width="15.02" height="17.22"/><rect class="cls-2" x="561.19" y="66.85" width="15.02" height="17.22"/><rect class="cls-2" x="561.19" y="95.71" width="15.02" height="17.22"/><rect class="cls-2" x="561.19" y="124.6" width="15.02" height="17.22"/><rect class="cls-2" x="561.19" y="153.47" width="15.02" height="17.22"/><rect class="cls-2" x="561.19" y="182.35" width="15.02" height="17.22"/><rect class="cls-2" x="561.19" y="211.22" width="15.02" height="17.22"/><rect class="cls-2" x="593.37" y="141.74" width="90.49" height="272.23"/><rect class="cls-6" x="606.76" y="155.16" width="26.52" height="17.22"/><rect class="cls-6" x="606.76" y="184.05" width="26.52" height="17.22"/><rect class="cls-6" x="606.76" y="212.92" width="26.52" height="17.22"/><rect class="cls-6" x="606.76" y="241.8" width="26.52" height="17.22"/><rect class="cls-6" x="606.76" y="270.67" width="26.52" height="17.22"/><rect class="cls-6" x="606.76" y="299.54" width="26.52" height="17.22"/><rect class="cls-6" x="606.76" y="328.42" width="26.52" height="17.22"/><rect class="cls-6" x="606.76" y="357.29" width="26.52" height="17.22"/><rect class="cls-6" x="642.24" y="155.16" width="26.52" height="17.22"/><rect class="cls-6" x="642.24" y="184.05" width="26.52" height="17.22"/><rect class="cls-6" x="642.24" y="212.92" width="26.52" height="17.22"/><rect class="cls-6" x="642.24" y="241.8" width="26.52" height="17.22"/><rect class="cls-6" x="642.24" y="270.67" width="26.52" height="17.22"/><rect class="cls-6" x="642.24" y="299.54" width="26.52" height="17.22"/><rect class="cls-6" x="642.24" y="328.42" width="26.52" height="17.22"/><rect class="cls-6" x="642.24" y="357.29" width="26.52" height="17.22"/><path class="cls-3" d="M544,413.88V225.43H504.56V413.86Z"/><rect class="cls-4" x="507.55" y="233.05" width="4.79" height="12.83"/><rect class="cls-4" x="517.13" y="233.05" width="4.79" height="12.83"/><rect class="cls-4" x="526.68" y="233.05" width="4.79" height="12.83"/><rect class="cls-4" x="536.25" y="233.05" width="4.79" height="12.83"/><rect class="cls-4" x="507.55" y="254.58" width="4.79" height="12.83"/><rect class="cls-4" x="517.13" y="254.58" width="4.79" height="12.83"/><rect class="cls-4" x="526.68" y="254.58" width="4.79" height="12.83"/><rect class="cls-4" x="536.25" y="254.58" width="4.79" height="12.83"/><rect class="cls-4" x="507.55" y="276.1" width="4.79" height="12.83"/><rect class="cls-4" x="517.13" y="276.1" width="4.79" height="12.83"/><rect class="cls-4" x="526.68" y="276.1" width="4.79" height="12.83"/><rect class="cls-4" x="536.25" y="276.1" width="4.79" height="12.83"/><rect class="cls-4" x="507.55" y="297.63" width="4.79" height="12.83"/><rect class="cls-4" x="517.13" y="297.63" width="4.79" height="12.83"/><rect class="cls-4" x="526.68" y="297.63" width="4.79" height="12.83"/><rect class="cls-4" x="536.25" y="297.63" width="4.79" height="12.83"/><rect class="cls-4" x="507.55" y="319.18" width="4.79" height="12.83"/><rect class="cls-4" x="517.13" y="319.18" width="4.79" height="12.83"/><rect class="cls-4" x="526.68" y="319.18" width="4.79" height="12.83"/><rect class="cls-4" x="536.25" y="319.18" width="4.79" height="12.83"/><rect class="cls-4" x="507.55" y="340.7" width="4.79" height="12.83"/><rect class="cls-4" x="517.13" y="340.7" width="4.79" height="12.83"/><rect class="cls-4" x="526.68" y="340.7" width="4.79" height="12.83"/><rect class="cls-4" x="536.25" y="340.7" width="4.79" height="12.83"/><rect class="cls-4" x="507.55" y="362.23" width="4.79" height="12.83"/><rect class="cls-4" x="517.13" y="362.23" width="4.79" height="12.83"/><rect class="cls-4" x="526.68" y="362.23" width="4.79" height="12.83"/><rect class="cls-4" x="536.25" y="362.23" width="4.79" height="12.83"/><rect class="cls-4" x="507.55" y="383.75" width="4.79" height="12.83"/><rect class="cls-4" x="517.13" y="383.75" width="4.79" height="12.83"/><rect class="cls-4" x="526.68" y="383.75" width="4.79" height="12.83"/><rect class="cls-4" x="536.25" y="383.75" width="4.79" height="12.83"/><rect class="cls-7" x="58.42" y="267.54" width="12.79" height="10.77"/><rect class="cls-7" x="84.01" y="267.54" width="12.79" height="10.77"/><rect class="cls-7" x="109.58" y="267.54" width="12.79" height="10.77"/><rect class="cls-7" x="135.16" y="267.54" width="12.79" height="10.77"/><rect class="cls-7" x="58.42" y="285.6" width="12.79" height="10.77"/><rect class="cls-7" x="84.01" y="285.6" width="12.79" height="10.77"/><rect class="cls-7" x="109.58" y="285.6" width="12.79" height="10.77"/><rect class="cls-7" x="135.16" y="285.6" width="12.79" height="10.77"/><rect class="cls-7" x="58.42" y="303.66" width="12.79" height="10.77"/><rect class="cls-7" x="84.01" y="303.66" width="12.79" height="10.77"/><rect class="cls-7" x="109.58" y="303.66" width="12.79" height="10.77"/><rect class="cls-7" x="135.16" y="303.66" width="12.79" height="10.77"/><rect class="cls-7" x="58.42" y="321.71" width="12.79" height="10.77"/><rect class="cls-7" x="84.01" y="321.71" width="12.79" height="10.77"/><rect class="cls-7" x="109.58" y="321.71" width="12.79" height="10.77"/><rect class="cls-7" x="135.16" y="321.71" width="12.79" height="10.77"/><rect class="cls-7" x="58.42" y="339.75" width="12.79" height="10.77"/><rect class="cls-7" x="84.01" y="339.75" width="12.79" height="10.77"/><rect class="cls-7" x="109.58" y="339.75" width="12.79" height="10.77"/><rect class="cls-7" x="135.16" y="339.75" width="12.79" height="10.77"/><rect class="cls-7" x="58.42" y="357.8" width="12.79" height="10.77"/><rect class="cls-7" x="84.01" y="357.8" width="12.79" height="10.77"/><rect class="cls-7" x="109.58" y="357.8" width="12.79" height="10.77"/><rect class="cls-7" x="135.16" y="357.8" width="12.79" height="10.77"/><rect class="cls-7" x="58.42" y="375.86" width="12.79" height="10.77"/><rect class="cls-7" x="84.01" y="375.86" width="12.79" height="10.77"/><rect class="cls-7" x="109.58" y="375.86" width="12.79" height="10.77"/><rect class="cls-7" x="135.16" y="375.86" width="12.79" height="10.77"/></g></g><g id="Shadow"><path class="cls-8" d="M579,515.5c0,3.39-117.57,6.14-262.6,6.14s-262.6-2.75-262.6-6.14,117.61-6.13,262.61-6.13S579,512.12,579,515.5Z"/></g></g><g id="Background_complete-2" data-name="Background complete"><path class="cls-9" d="M634.94,425h0a23.45,23.45,0,0,1,.93,30.82A34,34,0,0,1,623.78,465l-40,18-28.27,4.37-370.06-2.35-23.19-4.53a23.55,23.55,0,0,1-19-23.45l.23-16.11a5.71,5.71,0,0,1,4-5.37l1.64-.5s1.37-15.81,10.9-19.38c34.73-15,57.72-19.77,115.85-22.2l49.09-29.34s19.83-12.67,38.29-14.33,60.27-1.68,79.43-.58c22.49,1.3,51,11.53,66.94,19.42,12.46,6.18,42.47,21.46,42.47,21.46l17,2.84c2.56.12,49.42,3,54.81,3.81a10.75,10.75,0,0,1,8.52,7.31c1.35,4.46,2.48,20.79,2.48,20.79"/><path class="cls-10" d="M491.67,369.55c-8-4-29.45-9.51-41.46-11.76s-36.38-2.55-46.12-2.3-36.81.7-51.09,4.76c-7.34,2.14-19.08,8.19-26.09,13.29-2.41,1.78-12.9,10-15.24,11.86l-18.16,17,223.15-7s1.29-7.78-2.73-12.27S491.67,369.55,491.67,369.55Z"/><path class="cls-4" d="M160.62,434.15,149.33,434c.44-3,1.94-11.16,6.76-15.67l14.94.22a3.5,3.5,0,0,1,3.47,3.56,3.55,3.55,0,0,1-.52,1.79l-2.72,4.42A12.29,12.29,0,0,1,160.62,434.15Z"/><path class="cls-3" d="M162,433.47c1.18-5,2.66-11.5,6.85-15H171a3.52,3.52,0,0,1,3.47,3.56,3.61,3.61,0,0,1-.52,1.8l-2.72,4.41a12.27,12.27,0,0,1-9.42,5.79C161.9,433.88,161.9,433.68,162,433.47Z"/><g class="cls-11"><path d="M271.54,485.76a56,56,0,0,0,.77-17.67C269.39,443,253,425,228.18,424.64c-21.57-.32-39.4,13.16-43,38.12a64.37,64.37,0,0,0,.75,22.4Z"/></g><g class="cls-11"><path d="M583.78,483.16c0-.93-.11-1.86-.12-2.85-.45-31.61-21.67-53.55-46.9-53.93a41.85,41.85,0,0,0-42.42,41.22c-.1,7-.44,13.66.39,19.53l60.77.41Z"/></g><path class="cls-10" d="M499.72,467.69a36.44,36.44,0,1,0,37-35.9,36.44,36.44,0,0,0-37,35.9Z"/><path class="cls-10" d="M499.73,467.6v.09a36.44,36.44,0,1,0,72.87,1.06v-.1Z"/><path class="cls-4" d="M510.58,467.85a25.58,25.58,0,1,0,25.95-25.21A25.58,25.58,0,0,0,510.58,467.85Z"/><path class="cls-3" d="M536.53,442.64a25.59,25.59,0,0,0-25.95,25.21l51.14.74A25.59,25.59,0,0,0,536.53,442.64Z"/><path class="cls-10" d="M520.57,468a15.59,15.59,0,1,0,15.81-15.35h0A15.59,15.59,0,0,0,520.57,468Z"/><circle class="cls-10" cx="228.88" cy="469.18" r="36.44"/><path class="cls-10" d="M192.48,468.54v.09a36.44,36.44,0,1,0,72.88,1.05v-.09Z"/><path class="cls-4" d="M203.34,468.79a25.58,25.58,0,1,0,25.95-25.21,25.58,25.58,0,0,0-25.95,25.21Z"/><path class="cls-3" d="M229.29,443.58a25.58,25.58,0,0,0-25.95,25.21h0l51.13.74A25.57,25.57,0,0,0,229.29,443.58Z"/><path class="cls-10" d="M213.33,468.94a15.58,15.58,0,1,0,15.81-15.36A15.58,15.58,0,0,0,213.33,468.94Z"/><g class="cls-12"><path d="M158.43,460.81c-.07,4.09-2.13,7.36-4.65,7.33s-4.46-3.37-4.4-7.44,2.13-7.36,4.65-7.32S158.48,456.72,158.43,460.81Z"/></g><path class="cls-10" d="M634.94,425a3.3,3.3,0,0,1-.7,0l-2,.08c-1.75,0-4.28.09-7.44.22s-6.85.3-11,.63a94.35,94.35,0,0,0-13.27,2,34.5,34.5,0,0,0-6.5,2.26,27.9,27.9,0,0,0-5.38,3.53,83.39,83.39,0,0,0-7.95,7.55,33,33,0,0,1-5.72,4.75,18.59,18.59,0,0,1-1.77.93,4,4,0,0,1-.65.26c0-.05.86-.44,2.31-1.4a35.25,35.25,0,0,0,5.58-4.84,80.69,80.69,0,0,1,7.92-7.66,27.42,27.42,0,0,1,5.45-3.61,33.83,33.83,0,0,1,6.63-2.31,89.36,89.36,0,0,1,13.32-1.88c4.14-.32,7.87-.47,11-.52s5.67-.09,7.44-.07h2A2.79,2.79,0,0,1,634.94,425Z"/><g class="cls-13"><path class="cls-6" d="M582.61,483.8l.44-.28a11,11,0,0,0,1.23-.93,12.64,12.64,0,0,0,3.37-4.74,19.21,19.21,0,0,0,1.18-9.13,66.21,66.21,0,0,0-8.28-25.82,52.81,52.81,0,0,0-10.84-13.21,44.66,44.66,0,0,0-16.38-9.2,51.09,51.09,0,0,0-20.13-1.72,68.88,68.88,0,0,0-19.64,5.1A42.24,42.24,0,0,0,489.19,449a70.87,70.87,0,0,0-3.79,14.45q-.54,3.39-.82,6.51a43.37,43.37,0,0,0-.24,5.81c.12,3.62,1.3,6.71,3.15,8.48a7.24,7.24,0,0,0,7.17,2.36l-.5.14a6.14,6.14,0,0,1-1.54.14,8.12,8.12,0,0,1-5.27-2.5c-1.91-1.78-3.16-4.94-3.3-8.6a42.52,42.52,0,0,1,.2-5.86c.18-2.06.43-4.24.78-6.5a71.06,71.06,0,0,1,3.72-14.56,52.91,52.91,0,0,1,3.61-7.56,41.75,41.75,0,0,1,5.32-7.15,45.46,45.46,0,0,1,15.69-10.75,68.49,68.49,0,0,1,19.79-5.16A51.68,51.68,0,0,1,553.48,420a45.16,45.16,0,0,1,16.55,9.3,53.09,53.09,0,0,1,10.9,13.34,66.16,66.16,0,0,1,8.19,26,19.24,19.24,0,0,1-1.29,9.22,12.42,12.42,0,0,1-3.48,4.75A7.6,7.6,0,0,1,582.61,483.8Z"/></g><path class="cls-10" d="M185.9,462.8l-1.18-1.39a26.07,26.07,0,0,0-3.53-3.44,34.53,34.53,0,0,0-14.64-6.73,66.66,66.66,0,0,0-16.26-1c-2.09.07-3.79.17-5,.24a12.84,12.84,0,0,1-1.86,0,1.79,1.79,0,0,1,.46-.09l1.35-.16c1.16-.12,2.85-.28,4.95-.41a63.48,63.48,0,0,1,16.4.93,33.67,33.67,0,0,1,14.8,6.9,23.56,23.56,0,0,1,3.46,3.6,12.44,12.44,0,0,1,.78,1.12A1.25,1.25,0,0,1,185.9,462.8Z"/><path class="cls-10" d="M185.68,435.65c0,.14-8.7.13-19.43,0s-19.42-.39-19.42-.54,8.7-.13,19.43,0S185.68,435.5,185.68,435.65Z"/><g class="cls-13"><path class="cls-6" d="M284.27,482v-2c0-.62,0-1.44-.09-2.38s-.11-2-.23-3.23a83.15,83.15,0,0,0-4.44-20.12,85.89,85.89,0,0,0-5.78-13,69.09,69.09,0,0,0-9.23-13.44,40.27,40.27,0,0,0-14.59-10.32,52,52,0,0,0-18.84-3.88,55.57,55.57,0,0,0-19,3,56.47,56.47,0,0,0-8.43,3.71l-1,.52-.93.59-1.86,1.15-1.8,1.25-.93.62-.85.67a51.45,51.45,0,0,0-11.16,11.84,56.4,56.4,0,0,0-6.44,12.64,58.74,58.74,0,0,0-2.79,11.38c-.19,1.72-.39,3.32-.43,4.81s-.07,2.79-.06,4.06.13,2.29.16,3.23a22.58,22.58,0,0,0,.26,2.36c.08.64.14,1.1.18,1.45a4.17,4.17,0,0,1,0,.5,2.12,2.12,0,0,0-.09-.49c-.09-.32-.13-.83-.23-1.45a23.41,23.41,0,0,1-.3-2.36c-.06-.93-.23-2-.22-3.24s-.08-2.58,0-4.07.21-3.1.39-4.83a58,58,0,0,1,2.79-11.47,56.14,56.14,0,0,1,6.34-12.8,51.67,51.67,0,0,1,11.21-12l.86-.68.93-.62,1.81-1.26,1.91-1.17.93-.59,1-.53a56.85,56.85,0,0,1,8.5-3.72,62,62,0,0,1,9.29-2.35,60.63,60.63,0,0,1,9.89-.72,52.06,52.06,0,0,1,19,3.94,40.24,40.24,0,0,1,14.74,10.46,69.38,69.38,0,0,1,9.3,13.54,87.18,87.18,0,0,1,5.75,13.1,80.89,80.89,0,0,1,4.28,20.23A59.92,59.92,0,0,1,284.27,482Z"/></g><path class="cls-10" d="M569.2,393.5a2.44,2.44,0,0,1,0,.54c-.06.4-.12.93-.2,1.51-.18,1.31-.45,3.21-.63,5.58a31.18,31.18,0,0,0,.38,8.24,17.41,17.41,0,0,0,4.59,8.78,24.51,24.51,0,0,0,8.37,5.5,45.43,45.43,0,0,0,7.94,2.31c2.32.46,4.22.74,5.52.93l1.51.25a2.44,2.44,0,0,1,.52.12,1.57,1.57,0,0,1-.53,0l-1.53-.15c-1.31-.16-3.22-.38-5.58-.81a42.58,42.58,0,0,1-8.06-2.21,24.63,24.63,0,0,1-8.57-5.58,17.71,17.71,0,0,1-4.65-9.05,30.09,30.09,0,0,1-.27-8.37c.22-2.37.55-4.26.79-5.58.11-.65.22-1.15.3-1.49A2.28,2.28,0,0,1,569.2,393.5Z"/><path class="cls-10" d="M384.07,413.44a1.69,1.69,0,0,1,.45,0,6.27,6.27,0,0,1,1.3.07,2.47,2.47,0,0,1,1.76,1.07,2.65,2.65,0,0,1,.26,2.66,4,4,0,0,1-2.63,2.05,11.76,11.76,0,0,1-3.79.19l-8.56-.49a6.94,6.94,0,0,1-2.3-.43,2.86,2.86,0,0,1-1.65-1.65,2.49,2.49,0,0,1,.43-2.22,3.58,3.58,0,0,1,1.72-1.27,12.44,12.44,0,0,1,3.79-.38c1.18,0,2.27,0,3.27.08l4.72.2a12.46,12.46,0,0,1,1.73.1,1.68,1.68,0,0,1-.45.06h-9.27a11.35,11.35,0,0,0-3.62.4,3,3,0,0,0-1.49,1.1,2,2,0,0,0-.34,1.77,2.32,2.32,0,0,0,1.36,1.33,6.41,6.41,0,0,0,2.12.39l8.57.53a11.77,11.77,0,0,0,3.65-.13,3.76,3.76,0,0,0,2.42-1.78,2.4,2.4,0,0,0-.13-2.4,2.32,2.32,0,0,0-1.56-1C384.7,413.47,384.07,413.52,384.07,413.44Z"/><path class="cls-10" d="M499.31,412.49a1.29,1.29,0,0,1,.44,0,7.15,7.15,0,0,1,1.31.07,2.45,2.45,0,0,1,1.76,1.07,2.71,2.71,0,0,1,.22,2.72,4.11,4.11,0,0,1-2.63,2.05,12.12,12.12,0,0,1-3.8.19l-8.57-.49a6.88,6.88,0,0,1-2.29-.43A2.86,2.86,0,0,1,484.1,416a2.49,2.49,0,0,1,.42-2.22,3.54,3.54,0,0,1,1.73-1.27,11.82,11.82,0,0,1,3.79-.38c1.18,0,2.27,0,3.27.08l4.71.2a12.46,12.46,0,0,1,1.73.09,1.09,1.09,0,0,1-.44.06c-.29,0-.73,0-1.29,0h-8a12,12,0,0,0-3.63.41,3.12,3.12,0,0,0-1.48,1.1,2,2,0,0,0-.35,1.77,2.37,2.37,0,0,0,1.38,1.34,6.63,6.63,0,0,0,2.12.39l8.56.52a11.76,11.76,0,0,0,3.65-.12,3.72,3.72,0,0,0,2.41-1.79,2.39,2.39,0,0,0-.12-2.41,2.31,2.31,0,0,0-1.57-1C499.94,412.52,499.3,412.59,499.31,412.49Z"/><path class="cls-10" d="M516.68,395.33a1.33,1.33,0,0,1-.12.45l-.36,1.36-1.47,5.23c-1.29,4.65-3.18,11.37-5.58,19.95v.06h0a44.71,44.71,0,0,0-11.21,7.43,47.42,47.42,0,0,0-5.21,5.58,56.15,56.15,0,0,0-4.57,6.77,67.54,67.54,0,0,0-6.51,16.57,80.89,80.89,0,0,0-2.52,19.53v.19H291.64v-.15c-2.65-21.6-4.33-39.4-5.33-51.79-.5-6.19-.86-11-1.08-14.32-.1-1.63-.18-2.89-.24-3.71s-.07-1.3-.07-1.3a10.36,10.36,0,0,0,.12,1.29c.11.84.16,2.11.29,3.72.27,3.3.66,8.12,1.18,14.31,1.06,12.38,2.78,30.16,5.46,51.76l-.16-.15H478.93l-.19.19a79.94,79.94,0,0,1,2.56-19.58,67.52,67.52,0,0,1,6.61-16.64,55.18,55.18,0,0,1,4.65-6.8,47.84,47.84,0,0,1,5.26-5.58,45.24,45.24,0,0,1,11.3-7.44l-.07.07c2.46-8.56,4.38-15.3,5.7-19.92l1.52-5.25c.17-.59.3-1,.4-1.35Z"/><path class="cls-10" d="M399.21,399.46v.2a2.11,2.11,0,0,1-.07.6c-.07.55-.17,1.32-.29,2.28s-.29,2.21-.42,3.61-.36,3-.51,4.8-.33,3.72-.45,5.82-.25,4.33-.36,6.69c-.15,4.72-.19,9.92,0,15.36s.59,10.62,1.06,15.32c.27,2.35.51,4.58.81,6.66s.57,4,.86,5.77.57,3.36.82,4.75.47,2.6.67,3.58.33,1.71.43,2.26l.11.59a.1.1,0,1,1-.06,0,2.55,2.55,0,0,0-.15-.57c-.12-.55-.3-1.29-.51-2.24s-.48-2.18-.74-3.57-.61-3-.89-4.74-.63-3.72-.93-5.79-.56-4.31-.84-6.66c-.5-4.7-.93-9.89-1.1-15.35s-.11-10.65.06-15.38c.13-2.37.22-4.61.39-6.7s.34-4.05.52-5.83.39-3.38.55-4.8.36-2.62.52-3.6.27-1.72.36-2.27l.1-.6Z"/><path class="cls-10" d="M285.81,397.13a12.65,12.65,0,0,1-9.7,1.79,10.36,10.36,0,0,1-7.35-5l7.17-.32Z"/><path class="cls-14" d="M275.93,393.64s7.23,4.4,9.3,3.81,35.83-27.25,56.17-37.55a24.73,24.73,0,0,0-6.18-1.4s-9.47,4.79-21.28,11.9c-9,5.4-18.12,11.07-22.39,13.69Z"/><path class="cls-10" d="M299.06,399.3l-.23.15-.71.41-2.79,1.57-10.44,5.86h0c-6.51-.25-14.95-.41-24.59,0-4.8.2-9.93.54-15.25,1.09s-10.87,1.3-16.55,2.21c-9.94,1.55-19.33,3.51-27.9,5.08a189,189,0,0,1-23,2.79c-6.59.38-11.94.28-15.63.18-1.86-.06-3.27-.13-4.24-.2l-1.11-.06h1.11c.93,0,2.41.08,4.25.11,3.72.06,9,.11,15.6-.31a194.81,194.81,0,0,0,23-2.84c8.56-1.59,18-3.56,27.89-5.13,5.68-.93,11.23-1.64,16.57-2.19s10.47-.87,15.29-1.07c9.65-.36,18.06-.15,24.62.13h-.08l10.51-5.75,2.79-1.51.72-.38Z"/><path class="cls-14" d="M306.75,400.14c51.21-2.29,154.53-4.2,205.74-6.51,0,0,1.69-5.63-3.12-9.14-1.76-1.29-12.4-9.3-24.82-14.07a191.43,191.43,0,0,0-47.32-11.05c-9.12-.74-25.81-1.41-25.81-1.41s-30.55,1.22-39.05,2a88.27,88.27,0,0,0-30.91,8.42c-10.69,5.29-29.26,20.85-29.26,20.85l-13.1,10.93Z"/><polygon class="cls-10" points="401 356.46 391.12 398.73 409.04 398.16 412.6 356.46 401 356.46"/><polygon class="cls-10" points="478.5 366.7 476.75 395.33 479.24 395.33 480.93 367.59 478.5 366.7"/><path class="cls-10" d="M308.68,390.44c.78,1.05,5.34,11.29,5.34,11.29l-17.3-1.14Z"/><path class="cls-15" d="M324.92,400.7l-13.2.37c-1.74,0-3.1-3.11-3.05-6.9h0c0-3.39,1.23-6.25,2.79-6.74l12.53-4Z"/><path class="cls-14" d="M406.61,356c.12,0-1.28,9.65-3.12,21.51S400.07,399,400,399s1.28-9.66,3.12-21.52S406.5,356,406.61,356Z"/><path class="cls-14" d="M309.19,389.81a21.2,21.2,0,0,1-4.95,8.14c-.11-.07,1.21-1.76,2.57-4S309.08,389.77,309.19,389.81Z"/><path class="cls-16" d="M382.27,364.15a1.58,1.58,0,0,1-.2.36l-.61.93-2.27,3.45c-2,2.93-4.65,7-7.6,11.46s-5.58,8.59-7.44,11.56l-2.25,3.5c-.25.37-.45.69-.63.93a1.91,1.91,0,0,1-.24.32,1.49,1.49,0,0,1,.17-.36l.56-1c.5-.85,1.22-2.07,2.13-3.57,1.86-3,4.42-7.13,7.36-11.63s5.68-8.51,7.7-11.39c1-1.44,1.86-2.61,2.41-3.4l.69-.93A2.92,2.92,0,0,0,382.27,364.15Z"/><path class="cls-16" d="M374.83,370.55a123.06,123.06,0,0,1-8.37,11.78,65.65,65.65,0,0,1,4-6A63.9,63.9,0,0,1,374.83,370.55Z"/><path class="cls-8" d="M634.78,422.82a19,19,0,0,1-7.44-1.11,9.85,9.85,0,0,1-5.26-12.88l.15-.33v-.09a9.2,9.2,0,0,1,8.07-5.22h1.78a11.46,11.46,0,0,1,1.16,4.24C633.76,411.28,634.48,417.18,634.78,422.82Z"/><path class="cls-16" d="M446.64,365.53c.09.05-3.82,6.39-8.75,14.13s-9,13.95-9.08,13.95,3.8-6.39,8.73-14.13S446.53,365.46,446.64,365.53Z"/><path class="cls-16" d="M445.31,373.54a38.43,38.43,0,0,1-2.91,4.91,39.73,39.73,0,0,1-3.28,4.65,38.43,38.43,0,0,1,2.91-4.91A39.39,39.39,0,0,1,445.31,373.54Z"/><path class="cls-16" d="M304.16,374.69a25.31,25.31,0,0,1-5.66,2.15,25.74,25.74,0,0,1-5.94,1.24c0-.14,2.6-.76,5.8-1.7S304.09,374.56,304.16,374.69Z"/><path class="cls-16" d="M385.05,395.11c0,.14-24.53.25-54.79.25s-54.8-.11-54.8-.25,24.53-.24,54.8-.24S385.05,395,385.05,395.11Z"/><path class="cls-16" d="M377,404.86a66,66,0,0,1-8,.24,66.26,66.26,0,0,1-8-.24,66.26,66.26,0,0,1,8-.24A66,66,0,0,1,377,404.86Z"/><path class="cls-16" d="M198.85,415.9a3.11,3.11,0,0,1-.61,0H196.5a54.16,54.16,0,0,0-6.36.4,48.94,48.94,0,0,0-34.75,21.23,53,53,0,0,0-3.25,5.48c-.36.67-.59,1.2-.78,1.55a2.5,2.5,0,0,1-.3.53,4.45,4.45,0,0,1,.22-.57c.15-.36.36-.93.69-1.6a43,43,0,0,1,3.15-5.57,47.78,47.78,0,0,1,35-21.39,42.9,42.9,0,0,1,6.41-.24c.75,0,1.34.08,1.74.11A2.6,2.6,0,0,1,198.85,415.9Z"/><path class="cls-16" d="M479.11,392.54c0,.13-16.24.24-36.26.24s-36.26-.11-36.26-.24,16.24-.24,36.26-.24S479.11,392.4,479.11,392.54Z"/><path class="cls-16" d="M510.93,403.44a16.37,16.37,0,0,1-2.62,0c-1.62,0-3.85-.09-6.31-.11h-6.32a14.33,14.33,0,0,1-2.62,0,13.46,13.46,0,0,1,2.61-.29c1.62-.11,3.86-.19,6.33-.18s4.71.12,6.33.25A12.68,12.68,0,0,1,510.93,403.44Z"/><path class="cls-17" d="M322.26,349.22l13.25,13.25,11.42-15.1,6.63,9.39S342,375,339.62,376.65s-5.31,3.16-9.3,0-13.72-22.32-13.72-22.32l3.83-5.89Z"/><path class="cls-18" d="M324.7,345.22a4.17,4.17,0,0,1,0-1.86,2.09,2.09,0,0,0-.4-1.49c-.24-.35-.09-.8-.24-1.74s-1.45-1.3-1.45-1.3l-.49-1.15c-.3-.7-2.05-1.39-3.39-1.74a1.64,1.64,0,0,0-1.86.45v.3l.65.84-2.69,1.05-1.75,9.86-.93,1.92,6.81,3.06,1.56-2.5a52.73,52.73,0,0,0,3.88-4A2.1,2.1,0,0,0,324.7,345.22Z"/><path class="cls-17" d="M317.29,336.75s-1.11-1.24-2-1.05-2.78,1.18-2.78,2.26,1.2,1,2,.86l.41-.2.68.46,2.69-1.05Z"/><path class="cls-17" d="M312.47,338.58a6,6,0,0,0-2.49.26,2,2,0,0,0-.56,2.72,2.56,2.56,0,0,0,.2.26l3.07-.63h4.5a6.1,6.1,0,0,0,0-1.81A11.38,11.38,0,0,0,312.47,338.58Z"/><path class="cls-17" d="M309.42,341.87a1.88,1.88,0,0,0-.86,1.74,2,2,0,0,0,1.21,1.54l3.23-1.36,7.17.14s1.12-1.39-.31-2-5-.68-6.46-.69A19.78,19.78,0,0,0,309.42,341.87Z"/><path class="cls-17" d="M309.74,345.15a1.74,1.74,0,0,0-.29,1.86c.52,1,.93,1,.93,1a3.4,3.4,0,0,0,.39,1.68,6.58,6.58,0,0,0,1,.83l2.41-1.86s3.41-.32,3.85-.79a4,4,0,0,0,.75-1.23s1.24.18,1.74-.36a1.47,1.47,0,0,0-.16-2.06,1.52,1.52,0,0,0-.48-.27l-6.88-.15Z"/><path class="cls-18" d="M293.53,351.55l8,8.59,10.68-9.84,8.76.18s-13.5,22.77-16.62,24.59-5.48,1-9-1.15-15.12-16.86-15.12-16.86Z"/><path class="cls-19" d="M318.73,346.77c.51-.37-1.36-.53-3.35-.41a28.57,28.57,0,0,0-3.66.63,3.08,3.08,0,0,1,1-.43,11.65,11.65,0,0,1,2.62-.49,11.84,11.84,0,0,1,2.66.12l.45.08a.52.52,0,0,1,.33.21.28.28,0,0,1,0,.25A.1.1,0,0,1,318.73,346.77Z"/><path class="cls-19" d="M320.15,344a5.31,5.31,0,0,1-1.26,0l-3-.15a15.9,15.9,0,0,0-3,.14,12.35,12.35,0,0,1-1.25.19,3.73,3.73,0,0,1,1.21-.39,12.56,12.56,0,0,1,3.06-.23,30.47,30.47,0,0,1,3,.23A6.43,6.43,0,0,1,320.15,344Z"/><path class="cls-19" d="M317.27,341.27c0,.08-1.65,0-3.72.1s-3.64.43-3.66.35a3.24,3.24,0,0,1,1.05-.3,17.49,17.49,0,0,1,2.59-.34,23.08,23.08,0,0,1,2.63,0A3.8,3.8,0,0,1,317.27,341.27Z"/><path class="cls-19" d="M317.18,339.34a16.43,16.43,0,0,0-3.11-.52c-1.73-.08-3.17,0-3.18-.07a3.3,3.3,0,0,1,.93-.16,14.23,14.23,0,0,1,2.26-.06,7.77,7.77,0,0,1,2.25.4A2.24,2.24,0,0,1,317.18,339.34Z"/><path class="cls-20" d="M319.84,337.41a9.41,9.41,0,0,1-1.81.8,8.36,8.36,0,0,1-1.86.64,5.83,5.83,0,0,1,1.76-.93A5.76,5.76,0,0,1,319.84,337.41Z"/><path class="cls-19" d="M336.17,369.61a30,30,0,0,0-.25-3.91,33.1,33.1,0,0,0-1-3.8,3.73,3.73,0,0,1,.53,1,13.52,13.52,0,0,1,.74,2.72,13,13,0,0,1,.14,2.79A3.86,3.86,0,0,1,336.17,369.61Z"/><path class="cls-20" d="M301.13,366.6c-.08,0,.34-1.53.45-3.43s-.11-3.44,0-3.46a9.5,9.5,0,0,1,.3,3.48A9.13,9.13,0,0,1,301.13,366.6Z"/><path class="cls-17" d="M357.29,320.54c0-2.91.63-8.88,1.23-14.3a11.21,11.21,0,0,1,11.48-10h.59c6.25.55,9.29,6.17,8.56,12.41l-.6,24.62-4.48,7.18-10.49-2.37.75-10.39S357.16,326.58,357.29,320.54Z"/><path class="cls-19" d="M363.18,327.69a14,14,0,0,0,7.91-2s-2,4.28-8,3.57Z"/><path class="cls-10" d="M359.75,311.7a.86.86,0,0,0,.78.93h0a.81.81,0,0,0,.93-.67v-.07a.86.86,0,0,0-.79-.93h0a.82.82,0,0,0-.92.71Z"/><path class="cls-10" d="M359.64,308.91c.11.12.77-.34,1.7-.31s1.59.51,1.7.4-.06-.25-.35-.48a2.34,2.34,0,0,0-1.35-.46,2.3,2.3,0,0,0-1.39.4C359.7,308.66,359.6,308.87,359.64,308.91Z"/><path class="cls-10" d="M368,311.87a.87.87,0,0,0,.8.93h0a.81.81,0,0,0,.92-.68.13.13,0,0,0,0-.06.84.84,0,0,0-.76-.93h0a.82.82,0,0,0-.93.7Z"/><path class="cls-10" d="M368.47,308.92c.09.13.8-.26,1.72-.13s1.52.68,1.63.58,0-.25-.28-.51a2.42,2.42,0,0,0-1.3-.61,2.36,2.36,0,0,0-1.38.25C368.54,308.68,368.42,308.87,368.47,308.92Z"/><path class="cls-10" d="M365.26,316.44a6.47,6.47,0,0,0-1.5-.32c-.23,0-.45-.08-.49-.24a1.22,1.22,0,0,1,.18-.7l.75-1.78a30.73,30.73,0,0,0,1.71-4.64,31.19,31.19,0,0,0-2.08,4.51c-.25.63-.5,1.22-.72,1.79a1.37,1.37,0,0,0-.15.93.58.58,0,0,0,.37.35,1.87,1.87,0,0,0,.4.07A5.6,5.6,0,0,0,365.26,316.44Z"/><path class="cls-10" d="M368.87,304.92c.08.26,1,.17,2.09.33s2,.48,2.1.26-.07-.34-.43-.59a3.36,3.36,0,0,0-1.54-.6,3.6,3.6,0,0,0-1.66.15C369,304.62,368.83,304.8,368.87,304.92Z"/><path class="cls-10" d="M360,305.34c.16.22.8,0,1.56,0s1.42.18,1.57,0,0-.31-.3-.52a2.13,2.13,0,0,0-1.27-.38,2.25,2.25,0,0,0-1.26.38C360,305,359.83,305.24,360,305.34Z"/><path class="cls-17" d="M378.55,313.11c.1,0,4.17-1.11,3.92,3s-4.33,3-4.33,2.9S378.55,313.11,378.55,313.11Z"/><path class="cls-19" d="M379.48,317.54a.74.74,0,0,0,.18.12.7.7,0,0,0,.53,0,1.78,1.78,0,0,0,.93-1.54,2.5,2.5,0,0,0-.14-1.05.82.82,0,0,0-.5-.57.36.36,0,0,0-.44.17c-.06.11,0,.19-.06.2s-.09-.07,0-.24a.44.44,0,0,1,.17-.25.58.58,0,0,1,.4-.09,1,1,0,0,1,.71.69,2.45,2.45,0,0,1,.19,1.16,1.86,1.86,0,0,1-1.16,1.71.8.8,0,0,1-.65-.14C379.48,317.64,379.48,317.55,379.48,317.54Z"/><path class="cls-10" d="M358.09,299.21a2.11,2.11,0,0,1,1.63-1.64,11.81,11.81,0,0,1,1.53-1c.69-.49.84-1.63,1.46-1.06a1.93,1.93,0,0,1,2.05-1.8,2,2,0,0,1,.63.15c0-.73,1-.93,1.75-1.16s1-.29,1.31.36a2.8,2.8,0,0,1,4.37-.23,3.57,3.57,0,0,1,4.28,2.05,3.39,3.39,0,0,1,2.93,2.41c.86.11,1.06.78,1.42,1.57s.82,1.68.3,2.38a1.85,1.85,0,0,1,.59,2.56,1.64,1.64,0,0,1-.29.35,2.68,2.68,0,0,1,1.07,3.2h0a1.91,1.91,0,0,1-1.28,3.4c.66.93-.21,2.26-.7,2.54,0,0-1.68-.73-2,.52h0a.77.77,0,0,1-.7.82.8.8,0,0,1-.34-.05,2.64,2.64,0,0,1-1-1.21,6.06,6.06,0,0,1-.82-1.65,1.46,1.46,0,0,1,.61-1.61,2.12,2.12,0,0,1-1.25-1.72,6.51,6.51,0,0,1,.19-2.24c.22-1.07.46-2.16.68-3.24a4.12,4.12,0,0,1-3.49-2.44,2.35,2.35,0,0,1-3.25-.68,2,2,0,0,1-.14-.25,3.08,3.08,0,0,1-3.78,1.8c.13.85-1.43,1.6-2.26,1.8a3,3,0,0,1-1.86-.42s-1.47.81-2.25.48-1.79-1.36-1.25-2.16A3.79,3.79,0,0,1,358.09,299.21Z"/><path class="cls-14" d="M365.89,293.73a1.4,1.4,0,0,1,.48-.26.87.87,0,0,1,.59.06.82.82,0,0,1,.48.6l.06.24.12-.2a1.5,1.5,0,0,1,1.29-.68,1.44,1.44,0,0,1,1.33,1.07l.08.28.17-.23a1.9,1.9,0,0,1,1.45-.64,1.77,1.77,0,0,1,1.44.86,2,2,0,0,1,.24.68v.16h.17a1.75,1.75,0,0,1,1.93,1,1.79,1.79,0,0,1-.34,1.91l-.17.16.23,0a1.92,1.92,0,0,1,1.21.83,2,2,0,0,1,.32,1.09,2.9,2.9,0,0,1-.26,1,.73.73,0,0,0,.17-.22,1.9,1.9,0,0,0,.22-.77,2,2,0,0,0-.28-1.21,2.11,2.11,0,0,0-1.33-.93l.06.21a2,2,0,0,0-1.86-3.38l.19.14a2.07,2.07,0,0,0-3.66-1l.26.06a1.73,1.73,0,0,0-1.6-1.26,1.68,1.68,0,0,0-1.46.83h.17a1,1,0,0,0-.61-.71.94.94,0,0,0-.7,0,1,1,0,0,0-.35.23S365.88,293.72,365.89,293.73Z"/><path class="cls-10" d="M357.46,317.26a1.29,1.29,0,0,1,1.76.44,1.24,1.24,0,0,1,.1.2,1.59,1.59,0,0,1,2.23-.39,1.61,1.61,0,0,1,.61.88,1.32,1.32,0,0,1,1.71-.72,1.42,1.42,0,0,1,.49.35,1.71,1.71,0,0,0,1.64-1.47,1.07,1.07,0,0,1,1.14.11,1.65,1.65,0,0,1,2.28-.52l.16.12a.93.93,0,0,1,1.78.06,1.48,1.48,0,0,1,1.72-.44,1,1,0,0,1,1-1l.21,0c-.14-.5.6-.74,1-1.1.15-.18.3-.36.47-.53s.5-.19.62,0a.85.85,0,0,1,1.6-.56,2.62,2.62,0,0,1,.14.73c.12.79.56,1.73,0,2.29-.1.09-.23.17-.28.3s.15.46.17.69-.24.49-.36.75a2.79,2.79,0,0,0,0,1.22c0,.42-.2.93-.62.93a1.44,1.44,0,0,1-.35,1.8,1.42,1.42,0,0,1-.8,1.85h0a.72.72,0,0,1,.06.93,2.08,2.08,0,0,1-.85.62.61.61,0,0,1,.15.84h0a1.39,1.39,0,0,1-.81.5.59.59,0,0,0-.36.18c-.14.22,0,.51,0,.77s-.62.51-.78.87,0,.77-.21,1-.44.13-.65.21c-.39.13-.56.56-.81.93a3.42,3.42,0,0,1-2,1.08l-1.15.25c-.77.14-1.55.23-2.33.32-.39.06-.86.06-1.07-.28a1.33,1.33,0,0,1-1.89.06,1.23,1.23,0,0,1-.24-.31,3.21,3.21,0,0,1-2.08-.39l-.69-.3c-.67-.29-1.43-.67-1.63-1.39a1.48,1.48,0,0,1-1.16-1.76,1.61,1.61,0,0,1,.09-.29c-.32.09-.61-.22-.66-.54a2.43,2.43,0,0,1,.12-.93c.23-1.3-.46-2.61-.27-3.91.12-.93.66-1.81.4-2.69a1.69,1.69,0,0,1-.12-.55c0-.18.18-.39.36-.33a.83.83,0,0,1,.52-1.06,1,1,0,0,1,.33-.05"/><path class="cls-6" d="M368.32,317.37c-.15,0-.18,1-1.06,1.68s-1.94.54-2,.68.23.2.68.23a2.48,2.48,0,0,0,1.64-.52,2.21,2.21,0,0,0,.82-1.41C368.49,317.62,368.39,317.36,368.32,317.37Z"/><path class="cls-14" d="M373.84,324.26a9.53,9.53,0,0,0,.39-2.13,9.68,9.68,0,0,0-.3-2.14,2.08,2.08,0,0,1,.26.59,5.45,5.45,0,0,1,.2,1.55,5.1,5.1,0,0,1-.27,1.55A1.73,1.73,0,0,1,373.84,324.26Z"/><path class="cls-14" d="M374.83,322.79a2,2,0,0,0,.22-.47,2.75,2.75,0,0,0,.1-1.21,16.9,16.9,0,0,0-.3-1.75,4.22,4.22,0,0,1,.47,1.73,2.67,2.67,0,0,1-.16,1.28A.86.86,0,0,1,374.83,322.79Z"/><path class="cls-14" d="M375.8,322a6.57,6.57,0,0,0,.43-1.8,5.64,5.64,0,0,0-.28-1.86,1.24,1.24,0,0,1,.25.5,3.58,3.58,0,0,1,.2,1.34,4,4,0,0,1-.31,1.31A1.44,1.44,0,0,1,375.8,322Z"/><path class="cls-14" d="M359,328.1a1.16,1.16,0,0,1-.58-.37,3.31,3.31,0,0,1-.71-1.47,4.92,4.92,0,0,1-.14-1.62,1.71,1.71,0,0,1,.14-.67,7.5,7.5,0,0,0,.16,2.26,3.45,3.45,0,0,0,.65,1.43A4,4,0,0,0,359,328.1Z"/><path class="cls-14" d="M360,327.88a1.7,1.7,0,0,1-.46-.32,3.26,3.26,0,0,1-.76-1.14,3.3,3.3,0,0,1-.22-1.36,1.25,1.25,0,0,1,.12-.54,5,5,0,0,1,0,.55,3.66,3.66,0,0,0,.94,2.41A4.11,4.11,0,0,0,360,327.88Z"/><path class="cls-14" d="M358.38,302.63a7.94,7.94,0,0,1,4.07-2.95c5-1.48,12-2,19.35,5.24l1.08.49a17.86,17.86,0,0,0-.16-4.32c-.25-1.22-2.48-8.36-10.46-9.12C372.26,292,360.06,290,358.38,302.63Z"/><g class="cls-21"><path d="M358.38,302.63a7.94,7.94,0,0,1,4.07-2.95c5-1.48,12-2,19.35,5.24l1.08.49a17.86,17.86,0,0,0-.16-4.32c-.25-1.22-2.48-8.36-10.46-9.12C372.26,292,360.06,290,358.38,302.63Z"/></g><path class="cls-14" d="M381.8,304.92c-3-3.32-6.93-5.23-11-6.75a59.65,59.65,0,0,0-14.93-2.79,9.17,9.17,0,0,0-3.89.4,3.48,3.48,0,0,0-2.34,2.88c-.07,1.64,3.19,3.48,4.65,4.16s4.56,1.86,4.56,1.86.81-3.72,3.76-4.79C368.74,297.72,382,305.05,381.8,304.92Z"/><path class="cls-10" d="M358,300.22a2.33,2.33,0,0,1,2.52-1.47.92.92,0,0,1,0-1.07,1.62,1.62,0,0,1,.93-.57,3,3,0,0,1,3.3,1.72,2.86,2.86,0,0,1,2.66-.73,2.21,2.21,0,0,1,1.86,1.92,1.8,1.8,0,0,1-1.06,1.63,2.74,2.74,0,0,1-2.43-.26,2.5,2.5,0,0,1-3.21,1.48,2.39,2.39,0,0,1-.74-.43,2.27,2.27,0,0,1-3.88-2.22Z"/><path class="cls-14" d="M353.79,499.58l.47,12.21s-12.25,4.56-12.39,6.82l23.66,0,.06-19.05Z"/><path class="cls-3" d="M361.59,510.74a.91.91,0,0,1-.42,1.78,1,1,0,0,1-.71-1.17.93.93,0,0,1,1.18-.59h0"/><path class="cls-10" d="M365.53,518.59l-.07-1.92-22.69.76s-1,.45-.93,1.2Z"/><path class="cls-6" d="M353.88,511.66c0,.12.58.17,1.15.54s.88.86,1,.81-.07-.71-.76-1.15S353.85,511.55,353.88,511.66Z"/><path class="cls-6" d="M351.4,512.7c0,.11.47.3.86.79s.51,1,.62,1,.19-.66-.31-1.25S351.4,512.59,351.4,512.7Z"/><path class="cls-6" d="M350,515.67c.11,0,.27-.56,0-1.19s-.84-.93-.93-.78.29.43.52.93S349.87,515.66,350,515.67Z"/><path class="cls-6" d="M354.08,508.87c.05.11.58-.06,1.23,0s1.16.25,1.23.14-.43-.51-1.2-.54S354,508.78,354.08,508.87Z"/><path class="cls-14" d="M381.19,500.57l.45,12.2s-12.24,4.57-12.37,6.83l23.69-.08.06-19Z"/><path class="cls-3" d="M389,511.73a.94.94,0,0,1,.67,1.11.93.93,0,0,1-1.09.67,1,1,0,0,1-.7-1.17.93.93,0,0,1,1.18-.58h0"/><path class="cls-10" d="M393,519.52l-.08-1.91-22.68.75s-1.05.46-.93,1.21Z"/><path class="cls-6" d="M381.26,512.65c0,.12.59.17,1.15.54s.88.85,1,.81-.07-.71-.77-1.15S381.23,512.55,381.26,512.65Z"/><path class="cls-6" d="M378.78,513.68c0,.11.47.32.87.8s.5,1,.63,1,.18-.66-.32-1.27S378.78,513.58,378.78,513.68Z"/><path class="cls-6" d="M377.37,516.67c.11,0,.26-.56,0-1.19s-.83-.89-.88-.79.29.43.52.93S377.25,516.65,377.37,516.67Z"/><path class="cls-6" d="M381.47,509.86c0,.1.57-.06,1.23,0s1.16.24,1.22.15-.43-.51-1.2-.56S381.41,509.77,381.47,509.86Z"/><path class="cls-10" d="M346.51,397.49a52.48,52.48,0,0,0-1.8,15.37c.11,3.29,7.33,94.39,7.33,94.39l14.92.64-.59-85.36,1.22.31s6.6,36.68,7,42.59c.37,5.31,5.58,44,5.58,44l13.6-.37-2.16-49.88-3-49L387.31,396Z"/><path class="cls-14" d="M369.1,413.93a2.71,2.71,0,0,1-.63.33,7.69,7.69,0,0,1-1.86.57,4,4,0,0,1-1.38,0,2.87,2.87,0,0,1-1.41-.76,3.43,3.43,0,0,1-.8-1.56c-.14-.6-.25-1.2-.33-1.81-.37-2.48-.6-4.73-.71-6.37-.07-.82-.11-1.49-.11-1.94a2.89,2.89,0,0,1,0-.72,3.39,3.39,0,0,1,.11.71c0,.52.13,1.17.21,1.93.17,1.63.44,3.88.8,6.34.2,1.23.31,2.47,1,3.22a3.1,3.1,0,0,0,2.55.78,8.44,8.44,0,0,0,1.86-.46A4.9,4.9,0,0,1,369.1,413.93Z"/><path class="cls-14" d="M365.1,402.19a.53.53,0,0,1,.31-.07,1.33,1.33,0,0,1,.83.29,1.51,1.51,0,0,1,.57,1.18,1.47,1.47,0,0,1-2.55.84,1.49,1.49,0,0,1-.24-1.29,1.36,1.36,0,0,1,.49-.73c.17-.12.29-.14.29-.12a1.73,1.73,0,0,0-.56.93,1.3,1.3,0,0,0,.24,1.06,1.21,1.21,0,0,0,1.72,0,1.18,1.18,0,0,0,.32-.64,1.28,1.28,0,0,0-.43-1A1.68,1.68,0,0,0,365.1,402.19Z"/><path class="cls-14" d="M388.49,409.34a2.1,2.1,0,0,1-.51.06,10.92,10.92,0,0,1-1.4,0,13.57,13.57,0,0,1-8.23-3.88,10.53,10.53,0,0,1-.93-1.06,1.6,1.6,0,0,1-.28-.43c.05,0,.5.53,1.36,1.33a15.18,15.18,0,0,0,8.11,3.83C387.76,409.29,388.49,409.28,388.49,409.34Z"/><path class="cls-14" d="M352.46,401.93a7,7,0,0,1-.84,1.49,17.21,17.21,0,0,1-6.12,5.46,6.41,6.41,0,0,1-1.57.67c0-.05.57-.33,1.46-.86a22.22,22.22,0,0,0,3.29-2.41,20.77,20.77,0,0,0,2.79-3A16.25,16.25,0,0,1,352.46,401.93Z"/><path class="cls-10" d="M278,303.19a2.81,2.81,0,0,0,1.07-5.51,2.93,2.93,0,0,0-2.67-4.89A3.51,3.51,0,0,0,271,290a3.93,3.93,0,0,0-4.86,0,2.79,2.79,0,0,0-2.37,4.82"/><path class="cls-18" d="M278.39,303.57a12,12,0,0,0-12.15-10.74h-.63c-6.66.53-9.94,6.51-9.22,13.15l.6,23.81h0l11.47,12.39,4.84-7.92-.05-7.9s6.39-1.14,6.34-7.56C279.56,315.72,279,309.39,278.39,303.57Z"/><path class="cls-20" d="M273.3,326.37a15.67,15.67,0,0,1-8.46-2.28s2,4.69,8.37,4Z"/><path class="cls-10" d="M276.84,309.44a.9.9,0,1,1-.93-.81A1,1,0,0,1,276.84,309.44Z"/><path class="cls-10" d="M277.08,306.74c-.11.12-.82-.37-1.81-.36s-1.69.54-1.8.42.06-.27.36-.51a2.53,2.53,0,0,1,1.45-.47,2.35,2.35,0,0,1,1.43.42C277,306.47,277.13,306.68,277.08,306.74Z"/><path class="cls-10" d="M267.9,309.82a.93.93,0,0,1-.86.93.87.87,0,0,1-.93-.8A.91.91,0,0,1,267,309,.93.93,0,0,1,267.9,309.82Z"/><path class="cls-10" d="M267.39,307.14c-.11.12-.82-.38-1.8-.36s-1.71.53-1.81.41.06-.27.36-.5a2.45,2.45,0,0,1,1.45-.48,2.35,2.35,0,0,1,1.44.43C267.33,306.87,267.44,307.08,267.39,307.14Z"/><path class="cls-10" d="M271.13,314.37a6.5,6.5,0,0,1,1.59-.32c.26,0,.49-.09.53-.26a1.29,1.29,0,0,0-.19-.75c-.24-.6-.51-1.24-.78-1.86a34,34,0,0,1-1.79-5,33.16,33.16,0,0,1,2.19,4.82l.75,1.92a1.4,1.4,0,0,1,.15,1,.64.64,0,0,1-.41.39,2.65,2.65,0,0,1-.42.06A6.27,6.27,0,0,1,271.13,314.37Z"/><path class="cls-10" d="M267.61,303.81c-.12.25-1,0-2,0s-1.9.18-2-.09.13-.35.5-.55a3.22,3.22,0,0,1,1.55-.37,3.18,3.18,0,0,1,1.53.43C267.51,303.41,267.67,303.65,267.61,303.81Z"/><path class="cls-10" d="M277.12,303.25c-.2.22-1,0-2,0s-1.8.19-2,0,0-.34.39-.56a3.35,3.35,0,0,1,3.22,0C277.1,302.88,277.2,303.14,277.12,303.25Z"/><path class="cls-18" d="M257.56,312.18a1.75,1.75,0,0,0-1.87-1.64h-.05c-1.19.14-2.51.85-2.38,3.32.24,4.39,4.59,3.24,4.59,3.11S257.67,314,257.56,312.18Z"/><path class="cls-20" d="M256.81,315.41a1,1,0,0,1-.21.13.68.68,0,0,1-.56,0,1.84,1.84,0,0,1-.93-1.64,2.6,2.6,0,0,1,.15-1.11.91.91,0,0,1,.55-.61.4.4,0,0,1,.47.18c.06.12,0,.21.06.22s.1-.09,0-.26a.44.44,0,0,0-.18-.26.56.56,0,0,0-.43-.1,1.09,1.09,0,0,0-.76.73,2.6,2.6,0,0,0-.21,1.23,2,2,0,0,0,1.22,1.86.84.84,0,0,0,.7-.15C256.81,315.52,256.83,315.42,256.81,315.41Z"/><path class="cls-10" d="M274.55,294.51a1.82,1.82,0,0,0-.16-.31,2.87,2.87,0,0,0-2.21-1.2,10.52,10.52,0,0,0-1.56-.61,3.82,3.82,0,0,0-5.23-1.36,3.93,3.93,0,0,0-1.27,1.23l-.54.09a3.91,3.91,0,0,0-5.45,1,3.77,3.77,0,0,0-.45.84,2.78,2.78,0,0,0-3.1,4.18,2.72,2.72,0,0,0-1.44,2.18,1.56,1.56,0,0,0,1.57,1.56h0a58.73,58.73,0,0,0,.33,6.76c.11,1.53,2.09,2.4,2.25,3.44.8,5.31,2.47,2.33,2.9-8.7l.33-.29c.12-.11.27-.48.47-.72s.68-.2,1-.18a2.78,2.78,0,0,0,2.86-2.07,1.15,1.15,0,0,0,1.58.11,6.09,6.09,0,0,0,1.18-1.3,1.79,1.79,0,0,1,1.48-.78,4.27,4.27,0,0,0,.93.19c.58-.07.84-.75.93-1.32a2.73,2.73,0,0,1,.42-1.39,3.1,3.1,0,0,1,1.11-.33,5,5,0,0,1,.66.08h.3a1.16,1.16,0,0,1,.4.15c2,.93,3.72,4.88,3.72,4.88A7.67,7.67,0,0,0,274.55,294.51Z"/><path class="cls-14" d="M254,298.61v-.06l.14-.18a2.09,2.09,0,0,1,.67-.51,2.8,2.8,0,0,1,1.3-.31,2.5,2.5,0,0,1,1.63.57l-.12,0a3.54,3.54,0,0,1,1.78-2.24,4.48,4.48,0,0,1,1.56-.51,5,5,0,0,1,1.73.09,8.86,8.86,0,0,1,3,1.32h-.13a3.84,3.84,0,0,1,1.93-2.11,3.79,3.79,0,0,1,2.25-.33,4.1,4.1,0,0,1,1.4.53l.31.23.1.1a3.19,3.19,0,0,0-.45-.28,3.65,3.65,0,0,0-1.35-.45,3.69,3.69,0,0,0-2.17.34,3.85,3.85,0,0,0-1.86,2v.1l-.09-.06a8.65,8.65,0,0,0-2.91-1.29,5.5,5.5,0,0,0-1.67-.08,4.45,4.45,0,0,0-1.51.48,3.37,3.37,0,0,0-1.7,2.12v.12l-.09-.08a2.53,2.53,0,0,0-1.56-.57,2.71,2.71,0,0,0-1.25.27A2.78,2.78,0,0,0,254,298.61Z"/><path class="cls-14" d="M271.54,295.57a.34.34,0,0,1-.08.17,4.91,4.91,0,0,0-.15.51c-.05.23-.1.51-.16.85a2.85,2.85,0,0,1-.41,1.08,1,1,0,0,1-.62.34,3.05,3.05,0,0,1-.74,0,1.37,1.37,0,0,0-.75.07,2.36,2.36,0,0,0-.63.5l-.56.7a2.74,2.74,0,0,1-.64.72,1.91,1.91,0,0,1-.93.34,1.57,1.57,0,0,1-.53,0,.73.73,0,0,1-.48-.3H265a3.51,3.51,0,0,1-.28.74,2.86,2.86,0,0,1-.52.63,3,3,0,0,1-1.53.68,4.09,4.09,0,0,1-.7,0,1.38,1.38,0,0,0-.64,0,1,1,0,0,0-.46.38,3.5,3.5,0,0,1-.44.5,3.44,3.44,0,0,1-2.24,1.11,3.19,3.19,0,0,1-2.07-.84,3.29,3.29,0,0,1-1-1.65l.08,0a1.7,1.7,0,0,1-1.43-.3,1.57,1.57,0,0,1-.6-.93,1.65,1.65,0,0,1,0-.7l.05-.17V300a1.83,1.83,0,0,0,0,.93,1.55,1.55,0,0,0,.58.86,1.59,1.59,0,0,0,1.35.27h.06v.06a3.09,3.09,0,0,0,.93,1.57,3,3,0,0,0,2,.78,3.31,3.31,0,0,0,2.11-1.06,4,4,0,0,0,.43-.49,1,1,0,0,1,.54-.45,1.14,1.14,0,0,1,.37-.05h.33a3.75,3.75,0,0,0,.67,0,2.82,2.82,0,0,0,1.43-.64,2.1,2.1,0,0,0,.49-.58,2.51,2.51,0,0,0,.26-.69l0-.21.11.18a.93.93,0,0,0,.85.25,1.85,1.85,0,0,0,.88-.3,3.58,3.58,0,0,0,.61-.68c.19-.24.37-.48.57-.7a2.23,2.23,0,0,1,.68-.54,1.64,1.64,0,0,1,.82-.06,4.33,4.33,0,0,0,.72,0,.83.83,0,0,0,.54-.29,3,3,0,0,0,.41-1c.07-.33.13-.61.19-.83a2.8,2.8,0,0,1,.18-.51A1,1,0,0,1,271.54,295.57Z"/><path class="cls-20" d="M268.09,316.16a2.39,2.39,0,0,0,1,2.94,1.73,1.73,0,0,0,2.32-.76h0a3.22,3.22,0,0,0,.28-1.47C270.69,316.64,269.09,316.39,268.09,316.16Z"/><path class="cls-10" d="M271.25,318.63a1,1,0,0,1-.26.26,1.86,1.86,0,0,1-.93.35,2,2,0,0,1-1.43-.44,2.26,2.26,0,0,1-.81-1.63,2.91,2.91,0,0,1,.09-.93v-.07H268l2.58.53a4.47,4.47,0,0,1,1,.25c-.35,0-.7-.08-1-.14-.65-.11-1.55-.27-2.58-.47l.1-.06a2.42,2.42,0,0,0-.09.93,2.13,2.13,0,0,0,.74,1.5,1.85,1.85,0,0,0,2.22.17C271.15,318.69,271.24,318.62,271.25,318.63Z"/><path class="cls-14" d="M266,496.41l-.61,14.07s14.09,5.35,14.23,8l-27.33-.21.06-22Z"/><path class="cls-3" d="M257,509.23a1.13,1.13,0,0,0-.78,1.26,1.08,1.08,0,0,0,1.26.79,1.17,1.17,0,0,0,.82-1.34,1.09,1.09,0,0,0-1.39-.67"/><g class="cls-22"><path class="cls-6" d="M252.34,518.23l.09-2.21,26.17,1s1.22.54,1.07,1.39Z"/></g><path class="cls-10" d="M265.87,510.34c0,.13-.67.19-1.33.62s-1,1-1.13.93.08-.83.93-1.33S265.91,510.22,265.87,510.34Z"/><path class="cls-10" d="M268.74,511.55c0,.13-.56.36-1,.93s-.59,1.17-.72,1.16-.22-.77.37-1.45S268.73,511.42,268.74,511.55Z"/><path class="cls-10" d="M270.34,515c-.12,0-.31-.64,0-1.36s1-1,1-.93-.34.5-.62,1.09S270.47,515,270.34,515Z"/><path class="cls-10" d="M265.66,507.12c-.06.12-.67-.07-1.42,0s-1.35.28-1.42.16.51-.59,1.4-.63S265.72,507,265.66,507.12Z"/><path class="cls-10" d="M266,507a24,24,0,0,1,0,3.39l-.11-.16c1.6.6,3.72,1.42,6,2.48a31.91,31.91,0,0,1,6,3.49,6.41,6.41,0,0,1,1.5,1.53c.29.44.25.77.2.75a1.89,1.89,0,0,0-.34-.66,8,8,0,0,0-1.55-1.36,39.23,39.23,0,0,0-6.06-3.33c-2.24-1.06-4.34-1.92-5.9-2.59l-.12,0v-.13A20.06,20.06,0,0,1,266,507Z"/><path class="cls-10" d="M248.37,398.26V411l5,40.74s-1.59,19.1-2.57,29.88c-.86,9.37.54,25.67.54,25.67h14.92l5.33-54.38L274.93,419l6-20.09Z"/><path class="cls-14" d="M274.82,494l-3.91,13.54s12.45,8.52,12,11.09L256.36,512l5.23-21.34Z"/><path class="cls-3" d="M263,504.3a1.1,1.1,0,0,0-1.06,1,1.07,1.07,0,0,0,1,1.06,1.18,1.18,0,0,0,1.12-1.11,1.11,1.11,0,0,0-1.2-1"/><g class="cls-22"><path class="cls-6" d="M256.36,512l.62-2.13L282.17,517s1.05.81.71,1.61Z"/></g><path class="cls-10" d="M271.38,507.43c0,.13-.7,0-1.44.28s-1.22.72-1.32.64.27-.78,1.17-1.07A1.64,1.64,0,0,1,271.38,507.43Z"/><path class="cls-10" d="M273.87,509.29c0,.14-.61.22-1.19.65s-.86,1-.93.93a1.5,1.5,0,0,1,.7-1.32C273.14,509,273.9,509.19,273.87,509.29Z"/><path class="cls-10" d="M274.61,513c-.12,0-.14-.69.38-1.32s1.18-.75,1.2-.63-.43.4-.84.93S274.74,513.06,274.61,513Z"/><path class="cls-10" d="M271.93,504.29c-.09.1-.64-.22-1.38-.36s-1.38-.05-1.41-.17.62-.45,1.49-.29S272,504.2,271.93,504.29Z"/><polygon class="cls-10" points="286.71 399.12 287.4 406.07 286.57 456.44 274.76 496.91 271.9 506.73 256.66 503.85 268.4 399.14 286.71 399.12"/><path class="cls-14" d="M286.25,457.49l-.06.25c-.05.16-.11.4-.19.69l-.77,2.72c-.68,2.37-1.67,5.82-2.93,10.17-2.52,8.71-6.09,21-10.27,35.44v.12h-.12L256.67,504h-.14v-.14c.78-4.1,1.59-8.37,2.42-12.77l6.81-35.86h0c-2.53-15.8-4.54-28.47-5.69-35.73h0c-1.11-2-2-3.57-2.54-4.65l-.65-1.19a4.15,4.15,0,0,1-.21-.42l.24.4.67,1.19,2.59,4.6h0c1.18,7.25,3.25,19.88,5.83,35.71v.05c-2,10.67-4.33,22.9-6.77,35.86-.84,4.38-1.65,8.67-2.43,12.78l-.11-.17,15.24,2.88-.16.09,10.37-35.41c1.29-4.34,2.31-7.78,3-10.16l.81-2.69.21-.7Z"/><path class="cls-14" d="M284,403.3a5.68,5.68,0,0,1-.84,1.21,10.72,10.72,0,0,1-2.71,2.31,11.14,11.14,0,0,1-3.29,1.35,5.08,5.08,0,0,1-1.46.18,16.55,16.55,0,0,0,4.61-1.77A17.19,17.19,0,0,0,284,403.3Z"/><path class="cls-18" d="M240.74,363.25s-1.77,11.41-.58,15.92S251,395.1,251,395.1l13.17-8.27-8.68-21.57Z"/><path class="cls-14" d="M252.94,334.94s7.57.11,7.68,9.54-1.92,22.06-1.92,22.06l-19.33-3.41s2.4-17.56,4.45-22.62S249.81,334.08,252.94,334.94Z"/><path class="cls-14" d="M256.54,328.14l-.24,1.54s-10.33,6.83-10.92,8.59c-.93,2.73,1.07,25.8,1.94,32.34s1.05,20.94,1.05,20.94a19.7,19.7,0,0,0-1.59,5.58,6.93,6.93,0,0,0,1.59,4.49c11.08,3.61,24.62.84,39.26-2.5l-.14-4.15-4.78-45.1s1.4-11.72-4.32-15.12l-5.58-3.2Z"/><path class="cls-23" d="M273.14,347.7a34.93,34.93,0,0,0,3.41,13.94,41.08,41.08,0,0,0,8.68,12.09l-1.52-13.57Z"/><path class="cls-14" d="M281.85,336.35c-1.81-1.46-5.18-2.26-7.1-.93a5.77,5.77,0,0,0-2.33,2.87c-1.64,4.79-.66,9.95.65,13.78s7.66,11.2,7.66,11.2l15.67-9.51-11.59-14A26.44,26.44,0,0,0,281.85,336.35Z"/><path class="cls-10" d="M281.85,336.35a2.16,2.16,0,0,1,.33.27c.21.19.5.48.87.88.72.79,1.68,2,3,3.57,2.56,3.07,6.19,7.43,10.47,12.59l.1.12-.13.08-14.8,9-.85.52-.12.07-.07-.1c-1.76-2.07-3.38-4.15-4.84-6.25a32,32,0,0,1-2-3.18,13.31,13.31,0,0,1-.78-1.67c-.2-.57-.37-1.13-.53-1.69-1.32-4.5-1.35-8.92-.15-12.27a5.22,5.22,0,0,1,1.37-2.13,5.07,5.07,0,0,1,1.86-1.24,5.15,5.15,0,0,1,1.95-.23,6.4,6.4,0,0,1,1.62.28,8.08,8.08,0,0,1,2.08.93,3.49,3.49,0,0,1,.62.47,5.63,5.63,0,0,0-.66-.43,8.22,8.22,0,0,0-2.06-.85,6.83,6.83,0,0,0-1.61-.25,5.11,5.11,0,0,0-1.86.25,5.56,5.56,0,0,0-3.13,3.28,20.34,20.34,0,0,0,.22,12.09c.16.55.33,1.12.54,1.67a12.67,12.67,0,0,0,.76,1.63,30.35,30.35,0,0,0,2,3.15c1.46,2.08,3.09,4.16,4.82,6.22h-.17l.85-.52,14.81-9v.19l-10.39-12.67c-1.27-1.54-2.21-2.79-2.92-3.61-.34-.41-.63-.71-.83-.93Z"/><path class="cls-10" d="M245.18,343.49a1.26,1.26,0,0,1,0,.27l.08.79c0,.73.12,1.7.2,2.89.16,2.5.37,5.85.62,9.57s.5,7.11.71,9.55c.11,1.19.21,2.17.27,2.89a6.3,6.3,0,0,0,.08.78,1.31,1.31,0,0,1,0,.28,1.31,1.31,0,0,1-.06-.27,6.6,6.6,0,0,0-.13-.78c-.09-.68-.22-1.66-.35-2.88-.28-2.44-.57-5.81-.81-9.55s-.41-7.12-.52-9.57c-.06-1.2-.1-2.17-.12-2.9v-.79A.87.87,0,0,1,245.18,343.49Z"/><path class="cls-10" d="M279.83,398.26l-.3.08-.84.21-1.34.28c-.53.11-1.14.23-1.81.32-1.33.23-2.93.42-4.7.59s-3.72.27-5.81.28-4,0-5.81-.16-3.39-.31-4.72-.53c-.67-.09-1.27-.2-1.8-.3s-1-.19-1.35-.28l-.85-.2a.94.94,0,0,1-.28-.1h.3l.86.15c.36.08.82.15,1.35.23s1.13.18,1.8.26c1.33.19,2.93.33,4.7.46s3.72.17,5.8.15,4-.12,5.78-.26,3.38-.32,4.71-.52l1.79-.28,1.36-.23.85-.16A1.08,1.08,0,0,1,279.83,398.26Z"/><path class="cls-9" d="M357,337.82h-6.6c-1.54.54-11.59,15.93-11.59,15.93l10.5,11.65,5.08-10.75Z"/><path class="cls-9" d="M350.38,337.82,364,333.65s-.05,3.29,4.7,3.39c5.48.12,10.08-4.7,10.08-4.7s11.4,3.56,13.79,5.48-5.42,42.23-5.42,42.23l-.72,12a8.85,8.85,0,0,1,1.18,4c0,2.08.08,3.47.08,3.47-14.61,4.41-29.11,8.22-42.44,4,0,0,.32-7.08,1.1-9s.63-2.11.63-2.11l1.27-22.17.24-16.66Z"/><path class="cls-17" d="M397.62,355.75s1.49,23.55,1.48,27c0,2.56-5.57,29.43-5.57,29.43l-8.31-2.79,2.92-26.1-2.92-27.55Z"/><path class="cls-9" d="M392.69,337.8a12.47,12.47,0,0,1,4.65,7.44c1,5,3.21,17.5,3.21,17.5l-17.82.7s1.07-8.67,1.07-9.22,3-12.48,3.2-12.75S392.69,337.8,392.69,337.8Z"/><path class="cls-10" d="M348.51,344c.09,0,.12,5.13.1,11.45s-.12,11.45-.2,11.45-.12-5.13-.09-11.45S348.43,344,348.51,344Z"/><path class="cls-10" d="M400.51,362.77h-.34l-.93.06-3.52.2-11.79.55h-.13v-.14c0-.37-.06-.76-.08-1.15a69.47,69.47,0,0,1,.26-12.57c.17-1.6.37-2.88.53-3.77.07-.44.14-.78.19-1s.05-.23.08-.35a1.09,1.09,0,0,1,0,.36c0,.26-.08.61-.13,1-.13.93-.29,2.18-.44,3.78a77,77,0,0,0-.18,12.52l.09,1.15-.15-.13,11.79-.47,3.53-.1h.93C400.39,362.75,400.51,362.75,400.51,362.77Z"/><path class="cls-10" d="M390,338.09a15,15,0,0,0-4.52,4.41A8.31,8.31,0,0,1,390,338.09Z"/><path class="cls-17" d="M385.05,411.27a32.74,32.74,0,0,0-4,3.49c-.73,1-2.53,4.51-3.87,5.58a1,1,0,0,0,1.14.87.93.93,0,0,0,.46-.18,11.64,11.64,0,0,0,3.51-3c.56-.87,1.15-.36,1.19.39s-.62,5.83-.62,5.83-1.59,5.65-1.16,6.28a1,1,0,0,0,1.44.24.93.93,0,0,0,.18-.16c.21-.3,2-5,2-5l.46-2.58s-.93,8.14-.41,8.78a.94.94,0,0,0,1.31.18.71.71,0,0,0,.13-.12c.35-.32.72-3.92.72-3.92l.84-4.8-.16,9.15s.1.87.78.93,1.13-1,1.13-1l.93-9.41s-.31,5.23,0,5.51.93.24,1.06-.16a51.45,51.45,0,0,0,.78-5.53l.42-9,.47-4.32-8.37-.55Z"/><path class="cls-10" d="M382,396a1.35,1.35,0,0,1-.3.14l-.89.36c-.77.31-1.85.72-3.3,1.18s-3.1.92-5,1.43a55.93,55.93,0,0,1-6.24,1.25c-2.23.33-4.38.58-6.33.72s-3.72.18-5.2.17-2.67-.05-3.49-.11l-.93-.07H350a1,1,0,0,1,.34,0h4.42c1.48,0,3.24-.08,5.18-.22s4.08-.39,6.31-.74,4.32-.79,6.23-1.24,3.58-.93,5-1.36,2.55-.81,3.33-1.09l.93-.31Z"/><path class="cls-6" d="M383.51,358.33l-.08.06-.25.12a3.4,3.4,0,0,1-1.08.25,7.51,7.51,0,0,1-3.9-1c-.76-.38-1.57-.83-2.49-1.21a7.38,7.38,0,0,0-1.45-.45,5.29,5.29,0,0,0-.79-.08h-.81a9.09,9.09,0,0,0-3.29,1c-1.09.55-2.17,1.22-3.29,1.86a15.55,15.55,0,0,1-3.49,1.55,6.89,6.89,0,0,1-3.55,0,15.15,15.15,0,0,1-3-1.16c-.93-.43-1.73-.85-2.52-1.14a7.7,7.7,0,0,0-3.91-.54,6.13,6.13,0,0,0-1.39.46l.32-.2a4.53,4.53,0,0,1,1-.37,7.45,7.45,0,0,1,4,.46c.81.28,1.66.7,2.56,1.11a14.81,14.81,0,0,0,2.95,1.12,6.87,6.87,0,0,0,3.43-.06,14.78,14.78,0,0,0,3.42-1.53c1.11-.64,2.19-1.32,3.3-1.86a9.43,9.43,0,0,1,3.39-1.05h.86a5.71,5.71,0,0,1,.82.09,7.85,7.85,0,0,1,1.49.48c.93.4,1.74.87,2.49,1.26a7.47,7.47,0,0,0,3.8,1A4.62,4.62,0,0,0,383.51,358.33Z"/><path class="cls-6" d="M384.25,361.27a1.33,1.33,0,0,1-.27.26,2.9,2.9,0,0,1-1,.5,5.92,5.92,0,0,1-4-.51c-.8-.35-1.61-.85-2.51-1.31a8.05,8.05,0,0,0-3-1,6,6,0,0,0-3.35.82,34.6,34.6,0,0,0-3.19,2.12,11.88,11.88,0,0,1-3.44,1.79,7.12,7.12,0,0,1-3.61,0c-2.26-.54-4.07-1.57-5.7-2.09a9.2,9.2,0,0,0-4-.6,8,8,0,0,0-1.45.34l.35-.17a5.29,5.29,0,0,1,1.09-.28,9.06,9.06,0,0,1,4.06.51c1.66.5,3.49,1.52,5.7,2a7,7,0,0,0,3.47,0,11.61,11.61,0,0,0,3.36-1.76,31.37,31.37,0,0,1,3.22-2.12,6.24,6.24,0,0,1,3.5-.85,8.32,8.32,0,0,1,3.1,1.05c.93.49,1.71,1,2.48,1.34a6,6,0,0,0,3.92.6A3.81,3.81,0,0,0,384.25,361.27Z"/></g></g></g></svg>