<svg xmlns="http://www.w3.org/2000/svg" viewBox="0 0 628.89 358.47"><defs><style>.cls-1{fill:#fcfcfc;}</style></defs><g id="Слой_2" data-name="Слой 2"><g id="Character"><path class="cls-1" d="M0,358.47V0H628.89V358.47ZM424.18,244.82c-.88,9.26-3.54,17.24-11.31,22.64-6.44,4.48-13.84,5.72-21.47,5.73q-58.11.07-116.21,0h-3.86v26.72H459.66c4.38,0,4.18,0,4.83,4.33A62,62,0,0,0,467,315c2.47,7.25,7.12,12.58,14.86,14.42a52,52,0,0,0,11.56,1.78c11.37.06,22.85.59,34.09-.73,13.73-1.62,20.47-11.6,21.39-24.77.4-5.7.22-11.45.7-17.14.57-6.77,2.66-13.22,7.08-18.43,4.89-5.77,6.67-12.56,7.22-19.66.66-8.51.72-17.08.69-25.62q-.07-22.38-.63-44.77a91.4,91.4,0,0,0-1.32-15.43c-3.36-17.11-11.48-31.91-23.39-44.52-6.69-7.09-14-13.62-21.14-20.54.93-.63,1.85-1.24,2.75-1.87,7.15-5,15-9.12,20.69-16.06,3.75-4.6,5.58-9.72,3.39-15.52-2.51-6.63-8.39-9.25-14.59-10.67a136.94,136.94,0,0,0-20.74-3.1,23.57,23.57,0,0,0-11.06,2c-5.8,2.67-7.56,8.37-8.45,14.3a9.63,9.63,0,0,1-.87,2.18,8.5,8.5,0,0,1-2-1.06C483,65.92,478.84,62,474.72,58c-7.3-7-14.49-14.16-21.83-21.14A135.27,135.27,0,0,0,440.8,26.13c-9.29-6.93-19.86-11.39-31.47-11.44-58-.24-116-.12-174-.07a39.07,39.07,0,0,0-7.68.89c-13.92,2.83-25.44,9.93-35.22,20-5.43,5.62-10.78,11.31-16.13,16.93-.48-.42-.35-.21-.17-.16,8.22,2.33,16.42,4.71,24.67,6.89A4.23,4.23,0,0,0,204,58.3c3.37-2.82,6.55-5.85,9.82-8.78a36.38,36.38,0,0,1,24-9.39c17.05-.45,34.12-.58,51.18-.59,25.43,0,50.86.21,76.3.33,13.4.06,26.8,0,40.2.23,9.24.18,17.77,2.94,24.64,9.34C444.56,62.84,458.8,76.42,473,90c4.5,4.28,8.85,8.74,13.87,13.72H245.37a3.68,3.68,0,0,0,0,.94c6.71,18.46,6.92,37.63,6.3,56.91-.19,5.7,0,11.4,0,17.43H433.39a10.88,10.88,0,0,1,.18,2.45c-1.25,6.64-1.9,13.49-4,19.88-5.25,16.24-16.68,24.58-33.73,24.78-13.17.17-26.35-.49-39.53-.52-26.18-.06-52.35.07-78.52.11-6.66,0-6.67,0-6.71,6.79,0,4,0,8.06,0,12.36ZM245.54,158l.89,0c-.91-12-1-24.05-2.86-35.86C235.7,72.23,189.17,54.48,157,58.22c-29.61,3.43-50.29,20.65-63.23,47.13-5.61,11.49-6.8,24-6.73,36.65.06,12.23.21,24.46.34,36.69.08,7.15-1.94,9.84-8.69,11.68a50.58,50.58,0,0,0-5.26,2c-3.82,1.52-5.61,4.18-5.57,8.46.11,11.4-.11,22.8-.11,34.19q0,36.71.16,73.4a6.66,6.66,0,0,0,3.75,6.09,41.09,41.09,0,0,0,5.43,2.4,252.58,252.58,0,0,0,102,15.88,254.52,254.52,0,0,0,77.55-16.21c7.43-2.81,8.39-4.26,8.39-12.3V206c0-11.51,0-11.53-10.74-15.63-7-2.67-8.65-4.94-8.72-12.35C245.49,171.37,245.54,164.68,245.54,158ZM102.39,80.82c11.75-12.54,25.44-22.11,42.24-27.28a121.81,121.81,0,0,0-14.28-1.3,38.6,38.6,0,0,0-27.06,8.66A13.3,13.3,0,0,0,102.39,80.82ZM80.77,170.28c-.22,1.68-.46,3.09-.6,4.51s-.18,2.68-.22,4,0,2.61,0,3.92l.83-.06Z"/><path class="cls-1" d="M424.18,244.82H271.1c0-4.3,0-8.33,0-12.36,0-6.78.05-6.77,6.71-6.79,26.17,0,52.34-.17,78.52-.11,13.18,0,26.36.69,39.53.52,17.05-.2,28.48-8.54,33.73-24.78,2.07-6.39,2.72-13.24,4-19.88a10.88,10.88,0,0,0-.18-2.45H251.65c0-6-.16-11.73,0-17.43.62-19.28.41-38.45-6.3-56.91a3.68,3.68,0,0,1,0-.94H486.91c-5-5-9.37-9.44-13.87-13.72-14.24-13.55-28.48-27.13-42.87-40.53-6.87-6.4-15.4-9.16-24.64-9.34-13.4-.26-26.8-.17-40.2-.23-25.44-.12-50.87-.34-76.3-.33-17.06,0-34.13.14-51.18.59a36.38,36.38,0,0,0-24,9.39c-3.27,2.93-6.45,6-9.82,8.78a4.23,4.23,0,0,1-3.24.91c-8.25-2.18-16.45-4.56-24.67-6.89-.18,0-.31-.26.17.16,5.35-5.62,10.7-11.31,16.13-16.93,9.78-10.11,21.3-17.21,35.22-20a39.07,39.07,0,0,1,7.68-.89c58,0,116-.17,174,.07,11.61.05,22.18,4.51,31.47,11.44a135.27,135.27,0,0,1,12.09,10.76c7.34,7,14.53,14.11,21.83,21.14,4.12,4,8.31,7.89,12.51,11.78a8.5,8.5,0,0,0,2,1.06,9.63,9.63,0,0,0,.87-2.18c.89-5.93,2.65-11.63,8.45-14.3a23.57,23.57,0,0,1,11.06-2,136.94,136.94,0,0,1,20.74,3.1c6.2,1.42,12.08,4,14.59,10.67,2.19,5.8.36,10.92-3.39,15.52-5.66,6.94-13.54,11-20.69,16.06-.9.63-1.82,1.24-2.75,1.87,7.16,6.92,14.45,13.45,21.14,20.54,11.91,12.61,20,27.41,23.39,44.52A91.4,91.4,0,0,1,564,180.11q.53,22.38.63,44.77c0,8.54,0,17.11-.69,25.62-.55,7.1-2.33,13.89-7.22,19.66-4.42,5.21-6.51,11.66-7.08,18.43-.48,5.69-.3,11.44-.7,17.14-.92,13.17-7.66,23.15-21.39,24.77-11.24,1.32-22.72.79-34.09.73a52,52,0,0,1-11.56-1.78c-7.74-1.84-12.39-7.17-14.86-14.42a62,62,0,0,1-2.54-10.77c-.65-4.3-.45-4.33-4.83-4.33H271.33V273.21h3.86q58.11,0,116.21,0c7.63,0,15-1.25,21.47-5.73C420.64,262.06,423.3,254.08,424.18,244.82Zm94.73-102.36c-3.73,1.21-7.83,1.8-11.13,3.74-14.48,8.54-28.87,17.25-42.95,26.43-3.26,2.12-5.74,6-7.61,9.62-2.87,5.53-1.6,9.14,4.16,11.66a56.16,56.16,0,0,0,15.18,4.45c8.79,1.12,17.6,2.39,26.6,1.06,5.31-.78,10.85.1,16.23-.38a32.93,32.93,0,0,0,10.81-2.75c11-5.13,17.36-19.53,14.32-31.51S530.31,143.28,518.91,142.46ZM443.08,272.88a19.49,19.49,0,0,0,2.05.3c17.69,0,35.39.19,53.07-.08a38.81,38.81,0,0,0,20.28-5.68c6.79-4.24,12.71-9.26,14.14-17.81,1.38-8.26-3.65-16-11.84-16.37-13.79-.59-27.62-.42-41.42-.12-2.35,0-5.2,1.82-6.87,3.66-9.51,10.43-18.77,21.09-28,31.77C443.62,269.57,443.57,271.3,443.08,272.88Z"/><path class="cls-1" d="M245.54,158c0,6.7,0,13.39,0,20.08.07,7.41,1.73,9.68,8.72,12.35C265,194.51,265,194.53,265,206v98.22c0,8-1,9.49-8.39,12.3a254.52,254.52,0,0,1-77.55,16.21A252.58,252.58,0,0,1,77,316.89a41.09,41.09,0,0,1-5.43-2.4,6.66,6.66,0,0,1-3.75-6.09q-.09-36.69-.16-73.4c0-11.39.22-22.79.11-34.19,0-4.28,1.75-6.94,5.57-8.46a50.58,50.58,0,0,1,5.26-2c6.75-1.84,8.77-4.53,8.69-11.68-.13-12.23-.28-24.46-.34-36.69-.07-12.63,1.12-25.16,6.73-36.65,12.94-26.48,33.62-43.7,63.23-47.13,32.22-3.74,78.75,14,86.62,63.85,1.87,11.81,2,23.9,2.86,35.86Zm-23.2,23.22a43.67,43.67,0,0,0,.76-5.76c-.13-14.73.24-29.49-.66-44.17C220.29,96,187,75.16,154.84,81.22,129.7,86,109.49,109,109.32,137.81c-.08,13.07,0,26.14,0,39.22v4.34A263.58,263.58,0,0,1,222.34,181.2ZM152,271.74h.49c0,6.36-.4,12.76.11,19.09a12.71,12.71,0,0,0,11.72,11.93c9.43,1,16-4.89,16.09-14.43.08-8.88.06-17.77,0-26.66A18.34,18.34,0,0,1,186,247.86a18.82,18.82,0,0,0,4.3-6.44c3.5-9.23,1.63-17.73-4.66-25.15s-14.79-10.12-24.28-8.27c-9.84,1.92-16.59,8-19.32,17.65s-.61,18.25,7,25.12a8.59,8.59,0,0,1,3,7.17C151.91,262.54,152,267.14,152,271.74Z"/><path class="cls-1" d="M102.39,80.82a13.3,13.3,0,0,1,.9-19.92,38.6,38.6,0,0,1,27.06-8.66,121.81,121.81,0,0,1,14.28,1.3C127.83,58.71,114.14,68.28,102.39,80.82Z"/><path class="cls-1" d="M80.77,170.28v12.39l-.83.06c0-1.31,0-2.62,0-3.92s.09-2.69.22-4S80.55,172,80.77,170.28Z"/><path class="cls-1" d="M518.91,142.46c11.4.82,22.57,10.36,25.61,22.32s-3.32,26.38-14.32,31.51A32.93,32.93,0,0,1,519.39,199c-5.38.48-10.92-.4-16.23.38-9,1.33-17.81.06-26.6-1.06a56.16,56.16,0,0,1-15.18-4.45c-5.76-2.52-7-6.13-4.16-11.66,1.87-3.6,4.35-7.5,7.61-9.62,14.08-9.18,28.47-17.89,42.95-26.43C511.08,144.26,515.18,143.67,518.91,142.46Z"/><path class="cls-1" d="M443.08,272.88c.49-1.58.54-3.31,1.41-4.33,9.23-10.68,18.49-21.34,28-31.77,1.67-1.84,4.52-3.61,6.87-3.66,13.8-.3,27.63-.47,41.42.12,8.19.36,13.22,8.11,11.84,16.37-1.43,8.55-7.35,13.57-14.14,17.81a38.81,38.81,0,0,1-20.28,5.68c-17.68.27-35.38.09-53.07.08A19.49,19.49,0,0,1,443.08,272.88Z"/><path class="cls-1" d="M222.34,181.2a263.58,263.58,0,0,0-113,.17V177c0-13.08-.06-26.15,0-39.22C109.49,109,129.7,86,154.84,81.22,187,75.16,220.29,96,222.44,131.27c.9,14.68.53,29.44.66,44.17A43.67,43.67,0,0,1,222.34,181.2ZM217.25,174c0-11,.27-21.49-.1-31.92a93.69,93.69,0,0,0-2.34-19.52c-6.64-26.22-33.42-40.08-58.2-35.39a50.4,50.4,0,0,0-41,49.14c-.14,11.61,0,23.23,0,34.84,0,.81.12,1.63.21,2.76A265,265,0,0,1,217.25,174Z"/><path class="cls-1" d="M152,271.74c0-4.6-.12-9.2,0-13.8a8.59,8.59,0,0,0-3-7.17c-7.6-6.87-9.7-15.54-7-25.12s9.48-15.73,19.32-17.65c9.49-1.85,17.91.75,24.28,8.27s8.16,15.92,4.66,25.15a18.82,18.82,0,0,1-4.3,6.44,18.34,18.34,0,0,0-5.54,13.82c.05,8.89.07,17.78,0,26.66-.08,9.54-6.66,15.38-16.09,14.43a12.71,12.71,0,0,1-11.72-11.93c-.51-6.33-.11-12.73-.11-19.09Zm6.3.46c0,4.81-.08,9.62,0,14.43a18,18,0,0,0,.86,5.52c1.16,3.3,3.91,4.83,7.68,4.69a7,7,0,0,0,6.87-5.37,21.56,21.56,0,0,0,.72-5.24c.07-8.47.11-16.94,0-25.4-.08-6.64,2.3-12,6.77-16.95a18.14,18.14,0,0,0,4.4-9c1.27-8.86-4.77-17.66-13.23-20.4a19.64,19.64,0,0,0-22.64,8.36c-4.81,8.07-3.41,17.2,3.79,23.82a14,14,0,0,1,4.74,10.82C158.34,262.38,158.33,267.29,158.33,272.2Z"/><path class="cls-1" d="M217.25,174a265,265,0,0,0-101.42-.09c-.09-1.13-.21-2-.21-2.76,0-11.61-.12-23.23,0-34.84a50.4,50.4,0,0,1,41-49.14c24.78-4.69,51.56,9.17,58.2,35.39A93.69,93.69,0,0,1,217.15,142C217.52,152.46,217.25,162.92,217.25,174Z"/><path class="cls-1" d="M158.33,272.2c0-4.91,0-9.82,0-14.74a14,14,0,0,0-4.74-10.82c-7.2-6.62-8.6-15.75-3.79-23.82a19.64,19.64,0,0,1,22.64-8.36c8.46,2.74,14.5,11.54,13.23,20.4a18.14,18.14,0,0,1-4.4,9c-4.47,4.93-6.85,10.31-6.77,16.95.11,8.46.07,16.93,0,25.4a21.56,21.56,0,0,1-.72,5.24,7,7,0,0,1-6.87,5.37c-3.77.14-6.52-1.39-7.68-4.69a18,18,0,0,1-.86-5.52C158.25,281.82,158.33,277,158.33,272.2Z"/></g></g></svg>