<svg xmlns="http://www.w3.org/2000/svg" viewBox="0 0 105.47 180.35"><defs><style>.cls-1{fill:#bfc1bf;}.cls-2{fill:#e04f4e;}.cls-3{fill:#909292;}.cls-4{fill:#343844;}.cls-5{fill:#c94d3f;}.cls-6{fill:#ad4236;}.cls-7{fill:#fa8b65;}.cls-8{fill:#d68162;}.cls-9{fill:#4a4d58;}.cls-10{fill:#f9f8f7;}</style></defs><g id="Слой_2" data-name="Слой 2"><g id="OBJECTS"><path class="cls-1" d="M104.75,63.55l-8.66-5.34V27.58A18.62,18.62,0,0,0,80.15,9.1a170.27,170.27,0,0,0-47.4,0A18.63,18.63,0,0,0,16.81,27.58V58.21L8.15,63.55a1.5,1.5,0,0,0,1.33,2.67l7.33-2.84V169.69a7.45,7.45,0,0,0,3.81,6.5h0a7,7,0,0,0,1,.47l.05,0a7.56,7.56,0,0,0,1.06.3h0c1.62.33,3.24.62,4.86.9l.29.05a169.74,169.74,0,0,0,57.15,0l.29-.05c1.62-.28,3.24-.57,4.85-.9h0a7.43,7.43,0,0,0,1-.3l.06,0a7.46,7.46,0,0,0,1-.47h0a7.43,7.43,0,0,0,3.81-6.5V63.38l7.34,2.84a1.49,1.49,0,0,0,1.88-.73A1.5,1.5,0,0,0,104.75,63.55Z"/><path class="cls-2" d="M82.73,169.54a169.77,169.77,0,0,1-67.44,0,7.43,7.43,0,0,1-5.92-7.29V20.14A18.62,18.62,0,0,1,25.31,1.66a170.27,170.27,0,0,1,47.4,0A18.62,18.62,0,0,1,88.65,20.14V162.25A7.42,7.42,0,0,1,82.73,169.54Z"/><path class="cls-2" d="M49,169.2a166,166,0,0,1-33-3.31,3.7,3.7,0,0,1-2.94-3.64V20.14A15,15,0,0,1,25.83,5.35a165.63,165.63,0,0,1,46.36,0A14.94,14.94,0,0,1,84.93,20.14V162.25A3.69,3.69,0,0,1,82,165.89,166.15,166.15,0,0,1,49,169.2Z"/><path class="cls-1" d="M75.4,4.83S82,5.58,86.74,17.08c0,0-10.33-2.06-11.34-5.36A14,14,0,0,1,75.4,4.83Z"/><path class="cls-3" d="M75.78,5.42c1.45.39,6.3,2.3,10.13,11-3.24-.75-9.35-2.59-10-4.82a13.1,13.1,0,0,1-.1-6.15m-.38-.59a14,14,0,0,0,0,6.89c1,3.3,11.34,5.36,11.34,5.36C82,5.58,75.4,4.83,75.4,4.83Z"/><path class="cls-1" d="M22.62,4.83S16,5.58,11.28,17.08c0,0,10.34-2.06,11.34-5.36A13.88,13.88,0,0,0,22.62,4.83Z"/><path class="cls-3" d="M22.25,5.42a13.13,13.13,0,0,1-.11,6.15c-.67,2.23-6.78,4.07-10,4.82,3.81-8.62,8.67-10.57,10.13-11m.37-.59S16,5.58,11.28,17.08c0,0,10.34-2.06,11.34-5.36a13.88,13.88,0,0,0,0-6.89Z"/><path class="cls-4" d="M84.85,151.81a138.25,138.25,0,0,1-71.67,0V48.42a138.46,138.46,0,0,1,71.67,0Z"/><polygon class="cls-5" points="13.18 48.42 25.65 64.5 25.65 70.08 13.18 53.6 13.18 48.42"/><polygon class="cls-5" points="22.98 140.54 13.18 151.81 13.18 142.18 22.98 136.06 22.98 140.54"/><rect class="cls-5" x="13.18" y="103.45" width="9.81" height="3.86"/><polygon class="cls-5" points="84.85 48.42 72.38 64.5 72.38 70.08 84.85 53.6 84.85 48.42"/><polygon class="cls-5" points="75.04 140.54 84.85 151.81 84.85 142.18 75.04 136.06 75.04 140.54"/><rect class="cls-5" x="75.04" y="103.45" width="9.81" height="3.86" transform="translate(159.89 210.76) rotate(180)"/><path class="cls-2" d="M75,140.54a132.6,132.6,0,0,1-52.06,0v-76A132.6,132.6,0,0,1,75,64.5Z"/><path class="cls-6" d="M68.94,3.6a179.48,179.48,0,0,0-39.86,0l-.11-1a180.25,180.25,0,0,1,40.08,0Z"/><path class="cls-6" d="M68.94,5.88a179.48,179.48,0,0,0-39.86,0l-.11-1a180.25,180.25,0,0,1,40.08,0Z"/><path class="cls-6" d="M68.94,8.16a179.48,179.48,0,0,0-39.86,0l-.11-1a180.25,180.25,0,0,1,40.08,0Z"/><path class="cls-6" d="M68.94,10.45a179.48,179.48,0,0,0-39.86,0l-.11-1a180.25,180.25,0,0,1,40.08,0Z"/><rect class="cls-2" x="34.96" y="165.12" width="28.11" height="6.23"/><path class="cls-7" d="M84.84,168.75l-.31-1.65-12,2.3.35,1.83q5-.71,9.88-1.69A7.13,7.13,0,0,0,84.84,168.75Z"/><path class="cls-8" d="M84.13,167.69l.15.79a6.27,6.27,0,0,1-1.64.57c-3,.6-6.13,1.15-9.39,1.62l-.16-.87,11-2.11m.4-.59-12,2.3.35,1.83q5-.71,9.88-1.69a7.13,7.13,0,0,0,2.11-.79l-.31-1.65Z"/><path class="cls-7" d="M13.18,168.75l.32-1.65,12,2.3-.35,1.83c-3.3-.47-6.6-1-9.88-1.69A7.24,7.24,0,0,1,13.18,168.75Z"/><path class="cls-8" d="M13.9,167.69l11,2.11-.17.87c-3.25-.47-6.41-1-9.38-1.62a6.34,6.34,0,0,1-1.65-.57l.16-.79m-.4-.59-.32,1.65a7.24,7.24,0,0,0,2.11.79c3.28.66,6.58,1.22,9.88,1.69l.35-1.83-12-2.3Z"/><path class="cls-4" d="M67.32,81.2H30.7V69.5a128.37,128.37,0,0,1,36.62,0Z"/><path class="cls-9" d="M49,43.7s18.25-.47,35.84,4.72L72.72,64.06S55.31,61.33,49,61.92Z"/><path class="cls-9" d="M49,156.53s18.31.3,35.84-4.72L75,140.54s-15.28,3-26,2.58Z"/><path class="cls-9" d="M67.32,69.5A128,128,0,0,0,49,68.18v13H67.32Z"/><path class="cls-5" d="M84.85,48.42l12.46,7.69a1.5,1.5,0,0,1,.56,1.94h0a1.5,1.5,0,0,1-1.89.73L84.85,54.46Z"/><path class="cls-5" d="M13.18,48.42.71,56.11a1.49,1.49,0,0,0-.55,1.94h0A1.49,1.49,0,0,0,2,58.78l11.14-4.32Z"/><path class="cls-10" d="M82.48,12.86a.5.5,0,0,1-.27-.08L76.5,9.13A.5.5,0,1,1,77,8.29l5.7,3.65a.49.49,0,0,1,.16.69A.51.51,0,0,1,82.48,12.86Z"/><path class="cls-10" d="M15.55,12.86a.48.48,0,0,1-.42-.23.5.5,0,0,1,.15-.69L21,8.29a.5.5,0,1,1,.54.84l-5.71,3.65A.56.56,0,0,1,15.55,12.86Z"/></g></g></svg>