<svg xmlns="http://www.w3.org/2000/svg" viewBox="0 0 652.63 749.54"><defs><style>.cls-1{fill:#bfc1bf;}.cls-2{fill:#e04f4e;}.cls-3{fill:#909292;}.cls-4{fill:#343844;}.cls-5{fill:#c94d3f;}.cls-6{fill:#ad4236;}.cls-7{fill:#fa8b65;}.cls-8{fill:#d68162;}.cls-9{fill:#4a4d58;}.cls-10{fill:#f9f8f7;}</style></defs><g id="Слой_2" data-name="Слой 2"><g id="OBJECTS"><path class="cls-1" d="M382.06,350.43l-8.66-5.34V314.46A18.64,18.64,0,0,0,357.46,296a170.27,170.27,0,0,0-47.4,0,18.63,18.63,0,0,0-15.94,18.48v30.63l-8.66,5.34a1.5,1.5,0,0,0-.56,1.94,1.49,1.49,0,0,0,1.88.73l7.34-2.84V456.57a7.46,7.46,0,0,0,3.81,6.51h0a8.13,8.13,0,0,0,1,.46l.06,0a7.43,7.43,0,0,0,1,.3h0c1.61.33,3.23.62,4.85.9l.29.05a169.74,169.74,0,0,0,57.15,0l.29-.05c1.62-.28,3.24-.57,4.86-.9h0a7.56,7.56,0,0,0,1.06-.3l0,0a8.27,8.27,0,0,0,1-.46h0a7.48,7.48,0,0,0,3.81-6.51V350.26l7.33,2.84a1.5,1.5,0,0,0,1.33-2.67Z"/><path class="cls-2" d="M360,456.42a169.82,169.82,0,0,1-67.45,0,7.42,7.42,0,0,1-5.91-7.29V307a18.62,18.62,0,0,1,15.94-18.48,170.27,170.27,0,0,1,47.4,0A18.63,18.63,0,0,1,366,307V449.13A7.43,7.43,0,0,1,360,456.42Z"/><path class="cls-2" d="M326.32,456.08a166.07,166.07,0,0,1-33-3.31,3.69,3.69,0,0,1-2.93-3.64V307a14.94,14.94,0,0,1,12.74-14.79,165.63,165.63,0,0,1,46.36,0A14.94,14.94,0,0,1,362.23,307V449.13a3.69,3.69,0,0,1-2.93,3.64A166,166,0,0,1,326.32,456.08Z"/><path class="cls-1" d="M352.7,291.71s6.61.75,11.35,12.25c0,0-10.34-2.06-11.35-5.36A14,14,0,0,1,352.7,291.71Z"/><path class="cls-3" d="M353.08,292.3c1.45.39,6.3,2.3,10.13,11-3.24-.75-9.35-2.59-10-4.82a13.24,13.24,0,0,1-.1-6.15m-.38-.59a14,14,0,0,0,0,6.89c1,3.3,11.35,5.36,11.35,5.36-4.74-11.5-11.35-12.25-11.35-12.25Z"/><path class="cls-1" d="M299.93,291.71s-6.61.75-11.35,12.25c0,0,10.34-2.06,11.35-5.36A14,14,0,0,0,299.93,291.71Z"/><path class="cls-3" d="M299.55,292.3a13.24,13.24,0,0,1-.1,6.15c-.68,2.23-6.79,4.07-10,4.82,3.81-8.62,8.67-10.57,10.13-11m.38-.59s-6.61.75-11.35,12.25c0,0,10.34-2.06,11.35-5.36a14,14,0,0,0,0-6.89Z"/><path class="cls-4" d="M362.15,438.69a138.25,138.25,0,0,1-71.67,0V335.31a138.25,138.25,0,0,1,71.67,0Z"/><polygon class="cls-5" points="290.48 335.31 302.95 351.38 302.95 356.96 290.48 340.49 290.48 335.31"/><polygon class="cls-5" points="300.29 427.42 290.48 438.69 290.48 429.06 300.29 422.94 300.29 427.42"/><rect class="cls-5" x="290.48" y="390.33" width="9.81" height="3.86"/><polygon class="cls-5" points="362.15 335.31 349.68 351.38 349.68 356.96 362.15 340.49 362.15 335.31"/><polygon class="cls-5" points="352.35 427.42 362.15 438.69 362.15 429.06 352.35 422.94 352.35 427.42"/><rect class="cls-5" x="352.34" y="390.33" width="9.81" height="3.86" transform="translate(714.5 784.52) rotate(180)"/><path class="cls-2" d="M352.34,427.42a132.55,132.55,0,0,1-52,0v-76a132.55,132.55,0,0,1,52,0Z"/><path class="cls-6" d="M346.24,290.48a179.39,179.39,0,0,0-39.85,0l-.11-1a180.25,180.25,0,0,1,40.08,0Z"/><path class="cls-6" d="M346.24,292.76a179.39,179.39,0,0,0-39.85,0l-.11-1a180.25,180.25,0,0,1,40.08,0Z"/><path class="cls-6" d="M346.24,295a179.39,179.39,0,0,0-39.85,0l-.11-1a180.25,180.25,0,0,1,40.08,0Z"/><path class="cls-6" d="M346.24,297.33a179.39,179.39,0,0,0-39.85,0l-.11-1a180.25,180.25,0,0,1,40.08,0Z"/><rect class="cls-2" x="312.26" y="452" width="28.11" height="6.23"/><path class="cls-7" d="M362.15,455.63l-.32-1.65-12,2.3.35,1.83c3.31-.47,6.61-1,9.89-1.69A7.34,7.34,0,0,0,362.15,455.63Z"/><path class="cls-8" d="M361.43,454.57l.15.79a6.27,6.27,0,0,1-1.64.57c-3,.6-6.13,1.15-9.39,1.62l-.16-.87,11-2.11m.4-.59-12,2.3.35,1.83c3.31-.47,6.61-1,9.89-1.69a7.18,7.18,0,0,0,2.1-.79l-.31-1.65Z"/><path class="cls-7" d="M290.49,455.63l.31-1.65,12,2.3-.35,1.83c-3.31-.47-6.61-1-9.89-1.69A7.18,7.18,0,0,1,290.49,455.63Z"/><path class="cls-8" d="M291.2,454.57l11,2.11-.16.87c-3.26-.47-6.41-1-9.39-1.62a6.27,6.27,0,0,1-1.64-.57l.15-.79m-.4-.59-.31,1.65a7.18,7.18,0,0,0,2.1.79c3.28.67,6.58,1.22,9.89,1.69l.35-1.83-12-2.3Z"/><path class="cls-4" d="M344.63,368.08H308v-11.7a128.37,128.37,0,0,1,36.62,0Z"/><path class="cls-9" d="M326.32,330.58s18.24-.47,35.83,4.73L350,350.94s-17.42-2.73-23.71-2.14Z"/><path class="cls-9" d="M326.32,443.41s18.3.3,35.83-4.72l-9.81-11.27s-15.27,3-26,2.58Z"/><path class="cls-9" d="M344.63,356.38a128.25,128.25,0,0,0-18.31-1.32v13h18.31Z"/><path class="cls-5" d="M362.15,335.31,374.62,343a1.5,1.5,0,0,1,.55,1.94h0a1.49,1.49,0,0,1-1.88.73l-11.14-4.31Z"/><path class="cls-5" d="M290.48,335.31,278,343a1.5,1.5,0,0,0-.56,1.94h0a1.49,1.49,0,0,0,1.88.73l11.14-4.31Z"/><path class="cls-10" d="M359.78,299.74a.53.53,0,0,1-.27-.08L353.8,296a.5.5,0,0,1,.54-.84l5.71,3.65a.5.5,0,0,1,.15.69A.51.51,0,0,1,359.78,299.74Z"/><path class="cls-10" d="M292.85,299.74a.51.51,0,0,1-.42-.23.5.5,0,0,1,.15-.69l5.71-3.65a.5.5,0,1,1,.54.84l-5.71,3.65A.53.53,0,0,1,292.85,299.74Z"/><rect class="cls-1" x="185.97" y="59.25" width="5.36" height="277.3" transform="translate(-84.68 191.36) rotate(-45)"/><rect class="cls-1" x="477.42" y="419.52" width="5.36" height="277.3" transform="translate(-254.07 502.97) rotate(-45)"/><rect class="cls-1" x="327.35" y="472.23" width="5.36" height="277.3"/><rect class="cls-1" x="323.63" width="5.36" height="277.3"/><rect class="cls-1" x="174.69" y="419.52" width="5.36" height="277.3" transform="translate(446.64 38.07) rotate(45)"/><rect class="cls-1" x="466" y="59.25" width="5.36" height="277.3" transform="translate(277.21 -273.44) rotate(45)"/><rect class="cls-1" x="135.97" y="242.13" width="5.36" height="277.3" transform="translate(-242.13 519.43) rotate(-90)"/><rect class="cls-1" x="511.3" y="242.13" width="5.36" height="277.3" transform="translate(133.2 894.76) rotate(-90)"/></g></g></svg>