<svg xmlns="http://www.w3.org/2000/svg" viewBox="0 0 177.06 202.34"><defs><style>.cls-1{fill:#bfc1bf;}.cls-2{fill:#e04f4e;}.cls-3{fill:#909292;}.cls-4{fill:#343844;}.cls-5{fill:#c94d3f;}.cls-6{fill:#ad4236;}.cls-7{fill:#fa8b65;}.cls-8{fill:#d68162;}.cls-9{fill:#4a4d58;}.cls-10{fill:#f9f8f7;}.cls-11{fill:#1c1c1c;}.cls-12{fill:#fff;}</style></defs><g id="Слой_2" data-name="Слой 2"><g id="OBJECTS"><path class="cls-1" d="M107.68,92l-3-1.82V79.76a6.34,6.34,0,0,0-5.43-6.3,57.48,57.48,0,0,0-16.15,0,6.35,6.35,0,0,0-5.43,6.3V90.19l-3,1.82a.52.52,0,0,0-.19.66.5.5,0,0,0,.64.25l2.5-1v36.22a2.56,2.56,0,0,0,1.3,2.22h0l.34.16h0a1.89,1.89,0,0,0,.36.11h0q.83.17,1.65.3l.1,0A57.85,57.85,0,0,0,101,131l.1,0c.56-.09,1.11-.19,1.66-.3h0a2.47,2.47,0,0,0,.36-.11h0l.34-.16h0a2.55,2.55,0,0,0,1.29-2.22V92l2.5,1a.5.5,0,0,0,.64-.25A.5.5,0,0,0,107.68,92Z"/><path class="cls-2" d="M100.18,128.12a57.73,57.73,0,0,1-23,0,2.53,2.53,0,0,1-2-2.48V77.22a6.35,6.35,0,0,1,5.43-6.3,58.24,58.24,0,0,1,16.15,0,6.35,6.35,0,0,1,5.43,6.3v48.42A2.53,2.53,0,0,1,100.18,128.12Z"/><path class="cls-2" d="M88.69,128a56.69,56.69,0,0,1-11.24-1.13,1.28,1.28,0,0,1-1-1.24V77.22a5.1,5.1,0,0,1,4.34-5,57,57,0,0,1,15.8,0,5.1,5.1,0,0,1,4.34,5v48.42a1.26,1.26,0,0,1-1,1.24A56.54,56.54,0,0,1,88.69,128Z"/><path class="cls-1" d="M97.68,72s2.25.26,3.87,4.18c0,0-3.52-.7-3.87-1.83A4.8,4.8,0,0,1,97.68,72Z"/><path class="cls-3" d="M97.81,72.2c.5.14,2.15.79,3.45,3.74-1.1-.25-3.18-.88-3.41-1.64a4.51,4.51,0,0,1,0-2.1Zm-.13-.2a4.8,4.8,0,0,0,0,2.35c.35,1.13,3.87,1.83,3.87,1.83C99.93,72.26,97.68,72,97.68,72Z"/><path class="cls-1" d="M79.7,72s-2.25.26-3.86,4.18c0,0,3.52-.7,3.86-1.83A4.8,4.8,0,0,0,79.7,72Z"/><path class="cls-3" d="M79.57,72.2a4.48,4.48,0,0,1,0,2.1c-.23.76-2.31,1.39-3.42,1.64,1.3-2.93,3-3.6,3.45-3.74Zm.13-.2s-2.25.26-3.86,4.18c0,0,3.52-.7,3.86-1.83a4.8,4.8,0,0,0,0-2.35Z"/><path class="cls-4" d="M100.9,122.08a47,47,0,0,1-24.42,0V86.86a47,47,0,0,1,24.42,0Z"/><polygon class="cls-5" points="76.48 86.86 80.73 92.33 80.73 94.23 76.48 88.62 76.48 86.86"/><polygon class="cls-5" points="79.82 118.24 76.48 122.08 76.48 118.8 79.82 116.72 79.82 118.24"/><rect class="cls-5" x="76.48" y="105.6" width="3.34" height="1.32"/><polygon class="cls-5" points="100.9 86.86 96.65 92.33 96.65 94.23 100.9 88.62 100.9 86.86"/><polygon class="cls-5" points="97.56 118.24 100.9 122.08 100.9 118.8 97.56 116.72 97.56 118.24"/><rect class="cls-5" x="97.56" y="105.6" width="3.34" height="1.32" transform="translate(198.46 212.52) rotate(180)"/><path class="cls-2" d="M97.56,118.24a45.27,45.27,0,0,1-17.74,0V92.33a45.27,45.27,0,0,1,17.74,0Z"/><path class="cls-6" d="M95.48,71.58a61.66,61.66,0,0,0-13.58,0l0-.33a61.17,61.17,0,0,1,13.66,0Z"/><path class="cls-6" d="M95.48,72.36a61.66,61.66,0,0,0-13.58,0l0-.34a62.39,62.39,0,0,1,13.66,0Z"/><path class="cls-6" d="M95.48,73.14a61.66,61.66,0,0,0-13.58,0l0-.34a61.17,61.17,0,0,1,13.66,0Z"/><path class="cls-6" d="M95.48,73.92a60.46,60.46,0,0,0-13.58,0l0-.34a61.17,61.17,0,0,1,13.66,0Z"/><rect class="cls-2" x="83.9" y="126.62" width="9.58" height="2.12"/><path class="cls-7" d="M100.9,127.85l-.11-.56-4.09.78.11.63c1.13-.16,2.25-.35,3.37-.58A2.23,2.23,0,0,0,100.9,127.85Z"/><path class="cls-8" d="M100.66,127.49l0,.27a2.35,2.35,0,0,1-.56.2c-1,.2-2.09.39-3.2.55l-.06-.3,3.77-.72Zm.13-.2-4.09.78.11.63c1.13-.16,2.25-.35,3.37-.58a2.23,2.23,0,0,0,.72-.27l-.11-.56Z"/><path class="cls-7" d="M76.49,127.85l.1-.56,4.1.78-.12.63c-1.13-.16-2.25-.35-3.37-.58A2.27,2.27,0,0,1,76.49,127.85Z"/><path class="cls-8" d="M76.73,127.49l3.76.72-.06.3c-1.1-.16-2.18-.35-3.19-.55a2.35,2.35,0,0,1-.56-.2l0-.27Zm-.14-.2-.1.56a2.27,2.27,0,0,0,.71.27c1.12.23,2.24.42,3.37.58l.12-.63-4.1-.78Z"/><path class="cls-4" d="M94.93,98H82.45V94a43.49,43.49,0,0,1,12.48,0Z"/><path class="cls-9" d="M88.69,85.25a44.92,44.92,0,0,1,12.21,1.61l-4.13,5.32s-5.93-.93-8.08-.72Z"/><path class="cls-9" d="M88.69,123.69a47.76,47.76,0,0,0,12.21-1.61l-3.34-3.84a47,47,0,0,1-8.87.88Z"/><path class="cls-9" d="M94.93,94a43.66,43.66,0,0,0-6.24-.45V98h6.24Z"/><path class="cls-5" d="M100.9,86.86l4.25,2.62a.51.51,0,0,1,.19.66h0a.52.52,0,0,1-.64.25l-3.8-1.48Z"/><path class="cls-5" d="M76.48,86.86l-4.24,2.62a.5.5,0,0,0-.19.66h0a.52.52,0,0,0,.64.25l3.79-1.48Z"/><path class="cls-10" d="M100.09,74.74a.16.16,0,0,1-.09,0l-1.94-1.24a.17.17,0,0,1,0-.24.16.16,0,0,1,.23,0l2,1.25a.17.17,0,0,1,0,.23A.19.19,0,0,1,100.09,74.74Z"/><path class="cls-10" d="M77.29,74.74a.17.17,0,0,1-.14-.08.16.16,0,0,1,0-.23l1.94-1.25a.17.17,0,0,1,.19.29l-2,1.24A.16.16,0,0,1,77.29,74.74Z"/><rect class="cls-1" x="89.04" y="194.68" width="1.83" height="1.83"/><rect class="cls-11" x="6.77" y="101.44" width="1.82" height="1.82"/><rect class="cls-11" x="1.7" width="26.87" height="26.87" rx="13.43"/><rect class="cls-11" x="76.96" width="26.87" height="26.87" rx="13.43"/><rect class="cls-11" x="150.19" width="26.87" height="26.87" rx="13.43"/><rect class="cls-11" y="175.47" width="26.87" height="26.87" rx="13.43"/><rect class="cls-11" x="75.26" y="175.47" width="26.87" height="26.87" rx="13.43"/><rect class="cls-11" x="150.19" y="175.47" width="26.87" height="26.87" rx="13.43"/><rect class="cls-11" y="86.38" width="26.87" height="26.87" rx="13.43"/><rect class="cls-11" x="150.19" y="86.38" width="26.87" height="26.87" rx="13.43"/><path class="cls-12" d="M11,10.17l.19.17.93.11V9.27a4.62,4.62,0,0,1,2.54-.93l-.08.18.63.67.63-.77,0-.22L18.5,9.3l-.72.53-3.2,2.27a1.44,1.44,0,0,0-.76,1.56,1.33,1.33,0,0,0,1.12,1.1A1.46,1.46,0,0,0,16.49,14l.9-1.27c.58-.82,1.16-1.64,1.88-2.64l1.1,2.75-.25,0-.74.58.84.79A4.74,4.74,0,0,1,19.1,16.7c-.1-.09-.17-.2-.25-.21-.24,0-.48,0-.72,0a2.3,2.3,0,0,0,.11.71,1.81,1.81,0,0,0,.47.49.52.52,0,0,0,.85,0,6.09,6.09,0,1,0-8.83-8.38,6,6,0,0,0-.28,8c.62.75.73.76,1.39.08.25-.25.66-.51.29-.92s-.62,0-.9.18c0,0-.07,0-.29,0L9.92,14l.26,0,.72-.61-.73-.65-.27,0Zm4.17,9.35v0a11.37,11.37,0,0,0,1.18-.06,1.38,1.38,0,0,0,1.17-1.39,1.34,1.34,0,0,0-1.24-1.32,15.72,15.72,0,0,0-2.17,0,1.37,1.37,0,0,0-1.3,1.34,1.42,1.42,0,0,0,1.31,1.4A9.2,9.2,0,0,0,15.14,19.52Z"/><path class="cls-12" d="M20.88,99.81a7.49,7.49,0,0,1-7.44,7.46,7.45,7.45,0,1,1,.06-14.9A7.43,7.43,0,0,1,20.88,99.81ZM13.45,95a4.82,4.82,0,1,0,4.8,4.76A4.85,4.85,0,0,0,13.45,95Z"/><path class="cls-12" d="M170.6,189a1.71,1.71,0,0,1,0,.6,1.25,1.25,0,0,1-.46.63,8.48,8.48,0,0,1-1.23.42.59.59,0,0,0-.38.89c.18.4.42.77.56,1.18a1.63,1.63,0,0,1-.08.68c0,.06-.1.11-.15.16-1.36,1.31-.86,1.23-2.52.43-.62-.31-.9-.19-1.14.47-.61,1.75-.18,1.43-2.08,1.48a.71.71,0,0,1-.83-.6c-.08-.33-.21-.65-.32-1a.64.64,0,0,0-1-.42c-.34.16-.69.32-1,.51a.64.64,0,0,1-.87-.15c-1.38-1.45-1.3-.89-.47-2.61.28-.59.17-.88-.46-1.1-1.79-.62-1.46-.2-1.51-2.12a.71.71,0,0,1,.56-.8c.35-.09.69-.22,1-.34.51-.18.63-.5.4-1l0-.1c-.76-1.53-.76-1.6.61-2.66a.84.84,0,0,1,.68-.07A9.6,9.6,0,0,1,161,184a.61.61,0,0,0,.94-.38l0-.15c.63-1.84.17-1.5,2.2-1.54a.6.6,0,0,1,.68.48c.12.4.26.8.39,1.19a.6.6,0,0,0,.92.41c.33-.16.67-.3,1-.49a.72.72,0,0,1,1,.18c1.3,1.36,1.2.85.42,2.48-.32.68-.23.93.49,1.16l.41.14C170.75,187.85,170.59,187.75,170.6,189Zm-7-3.69a3.68,3.68,0,1,0,3.67,3.67A3.69,3.69,0,0,0,163.59,185.26Z"/><path class="cls-12" d="M16.52,197.09a15.93,15.93,0,0,1-2.25-.83c-2.61-1.42-5.19-2.9-7.76-4.37a3.39,3.39,0,0,1-.31-6c2.26-1.61,4.54-3.21,6.82-4.79a2.41,2.41,0,0,1,3.88,1.1c1.23,2.86,2.46,5.73,3.65,8.61A4.49,4.49,0,0,1,16.52,197.09Zm-8-11.63a3.37,3.37,0,0,1,2.73,3.16,3.41,3.41,0,0,1-2.44,3.47l3.77,2.1a4.37,4.37,0,0,1,6.06-5.44l-1.94-4.63A2.36,2.36,0,0,1,14,185.23a2.43,2.43,0,0,1-1.83-2.39ZM19,192.65A2.4,2.4,0,1,0,16.58,195,2.43,2.43,0,0,0,19,192.65Zm-9.71-3.82a1.43,1.43,0,0,0-1.39-1.46,1.49,1.49,0,0,0-1.47,1.4,1.5,1.5,0,0,0,1.41,1.47A1.46,1.46,0,0,0,9.31,188.83Zm5.26-5.26c.22-.28.47-.46.45-.6s-.26-.35-.4-.52c-.16.16-.4.3-.45.48S14.37,183.27,14.57,183.57Z"/><path class="cls-12" d="M90.66,188.54h2.49c0-1.18,0-2.33,0-3.48,0-.1-.14-.22-.24-.3a1.06,1.06,0,0,1-.16-1.59,1,1,0,0,1,1.52,0,1.06,1.06,0,0,1-.12,1.59.8.8,0,0,0-.27.53c0,2.41,0,4.81,0,7.22a.89.89,0,0,0,.28.57,1.06,1.06,0,1,1-1.28,0,.72.72,0,0,0,.27-.43c0-1.09,0-2.19,0-3.32H90.7c0,.12,0,.25,0,.39V192c0,.47-.06.92.44,1.29a1,1,0,0,1-.11,1.43,1.06,1.06,0,0,1-1.49-.1,1,1,0,0,1,.08-1.44.86.86,0,0,0,.36-.84c0-1,0-2,0-3H87.45c0,1.15,0,2.28,0,3.42,0,.11.13.23.23.31a1.06,1.06,0,1,1-1.2,0,.56.56,0,0,0,.22-.36c0-1.11,0-2.22,0-3.4h-1.8c-1,0-1.38-.37-1.39-1.37s0-1.77,0-2.66a.78.78,0,0,0-.25-.49,1.06,1.06,0,1,1,1.2,0,.75.75,0,0,0-.23.46c0,.93,0,1.87,0,2.8,0,.29.07.52.4.53h2.1c0-.95,0-1.86,0-2.78,0-.46.07-.89-.43-1.24a1,1,0,0,1,.09-1.43,1.07,1.07,0,0,1,1.5.08,1,1,0,0,1-.11,1.48.78.78,0,0,0-.32.76c0,1,0,2,0,3.11h2.48c0-1.17,0-2.32,0-3.47,0-.11-.13-.23-.23-.31a1.06,1.06,0,1,1,1.37-1.6,1.05,1.05,0,0,1-.14,1.58c-.1.09-.24.21-.24.31C90.66,186.2,90.66,187.35,90.66,188.54Z"/><path class="cls-12" d="M87.66,9.44V8.49a1.77,1.77,0,0,0-.29-.05c-.39,0-.79-.1-.68-.57a.94.94,0,0,1,.71-.46c1.61,0,3.22,0,4.83,0,.38,0,.81,0,.74.51,0,.21-.42.37-.66.53-.07.05-.18,0-.31.05v1l.14-.13c.42.29.83.59,1.26.87.23.15.49.37.72.36.75,0,1.13.23,1.08,1l1.07.11c0,.22,0,.41,0,.59v4c-.09.06-.13.12-.17.11-.77-.11-1.07.33-1.39,1-1.06,2.11-.42,1.7-2.77,1.74-1.12,0-2.23,0-3.34,0a2.43,2.43,0,0,1-1.12-.46,4.43,4.43,0,0,1-2-4.69,6.18,6.18,0,0,0,0-1.92c-.19-1.15.55-1.74,1.27-2.35C87,9.52,87.33,9.53,87.66,9.44Zm2.51,4.36a7.8,7.8,0,0,0,.61-1.31c0-.22-.14-.52-.22-.78-.23.1-.58.14-.69.32a16.23,16.23,0,0,0-1,2c-.23.52,0,.82.54.86.35,0,.69,0,1.13,0a8.55,8.55,0,0,0-.6,1.31c0,.23.13.52.2.78.24-.1.59-.13.69-.3a19.18,19.18,0,0,0,1-2c.22-.51,0-.77-.54-.8C91,13.79,90.64,13.8,90.17,13.8Z"/><path class="cls-12" d="M171,17.54a2.11,2.11,0,0,1-2.59,1.24,1,1,0,0,0-1,.19,6.35,6.35,0,0,1-6.45.66c-.3-.13-.54-.3-.38-.66s.47-.26.75-.15a5.63,5.63,0,0,0,5.52-.53l.24-.2-.69-.54c0,.06,0,.11,0,.17-.86.24-1.7.52-2.57.69a3.07,3.07,0,0,1-1.27-.11c-.18,0-.31-.31-.47-.48.21-.12.43-.37.62-.34a4.16,4.16,0,0,0,2.94-.53l-.9-.85a8,8,0,0,0,1.07-1.21,8.76,8.76,0,0,0,.54-1.64c1.19.49,2.48.94,3.7,1.54A2.13,2.13,0,0,1,171,17.54Z"/><path class="cls-12" d="M162.66,16.08c-1.15.88-2.18,1.77-3.31,2.52a2.09,2.09,0,0,1-2.81-.63,2.12,2.12,0,0,1,.26-2.82,1,1,0,0,0,.33-.91,6.39,6.39,0,0,1,2.73-6c.15-.12.46,0,.7,0-.07.24-.06.57-.22.69a5.49,5.49,0,0,0-2.06,2.85,22.42,22.42,0,0,0-.42,2.62c.74-.06,1-.27,1-.92a4.38,4.38,0,0,1,1.27-3.12c.13-.14.45-.12.68-.17,0,.24.08.56,0,.71a4.09,4.09,0,0,0-1,2.87l1.26-.35A2.89,2.89,0,0,0,162.66,16.08Z"/><path class="cls-12" d="M170.15,12.91a.72.72,0,0,1-.33.6c-.42.12-.51-.25-.55-.57a5.6,5.6,0,0,0-2.65-4.21c-.25-.16-.54-.29-.81-.43-.29.57-.2.91.36,1.21a4.43,4.43,0,0,1,2,2.39c.12.32.32.72-.16.89s-.55-.25-.66-.56a3.93,3.93,0,0,0-1.84-2.13c-.11.43-.22.83-.31,1.2a6.66,6.66,0,0,0-1.51-.34,6.93,6.93,0,0,0-1.58.32,14.63,14.63,0,0,1-.57-4.22,2.14,2.14,0,0,1,4.21-.19.85.85,0,0,0,.57.7A6.47,6.47,0,0,1,170.15,12.91Z"/><path class="cls-12" d="M166.18,95.33c-.88-.38-1.14.41-1.65.73a.36.36,0,0,0-.11.25c0,1,0,2,0,3,1.13.38,1.36.74,1.33,2.06,0,.94-.32,1.33-1.3,1.63v1.33h1.73v.84h-4.46v-.81h1.73v-1.32c-1.2-.55-1.39-.88-1.3-2.26.06-.78.39-1.15,1.34-1.46,0-1,0-2,0-3,0-.23-.91-1-1.15-1l-.61,0c0-.18,0-.32,0-.45a4,4,0,0,1,0-.41,1.37,1.37,0,0,0,1.39-.56,1.14,1.14,0,0,1,1.67,0,1.32,1.32,0,0,0,1.39.56Z"/><path class="cls-12" d="M160.84,94.86c0,.53,0,1.07-.11,1.6a1.12,1.12,0,0,1-1,1,4.9,4.9,0,0,1-1.48,0,1.18,1.18,0,0,1-1-1.21c0-.94,0-1.88,0-2.81a1.26,1.26,0,0,1,1.14-1.27,4.76,4.76,0,0,1,1.25,0,1.34,1.34,0,0,1,1.18,1.42c0,.42,0,.84,0,1.26Z"/><path class="cls-12" d="M170.68,94.86c0,.48,0,1,0,1.44a1.18,1.18,0,0,1-1,1.16,4.59,4.59,0,0,1-1.48,0,1.3,1.3,0,0,1-1.07-1.4c0-.81,0-1.63,0-2.45a1.41,1.41,0,0,1,1.53-1.48,6.77,6.77,0,0,1,.78,0,1.33,1.33,0,0,1,1.28,1.33c0,.46,0,.92,0,1.38Z"/><path class="cls-12" d="M157.22,104.8c0-.48,0-1,0-1.44a1.22,1.22,0,0,1,1.06-1.2,4.83,4.83,0,0,1,1.42,0,1.31,1.31,0,0,1,1.09,1.38c0,.84,0,1.68,0,2.52a1.39,1.39,0,0,1-1.5,1.44q-.33,0-.66,0a1.37,1.37,0,0,1-1.43-1.44c0-.42,0-.84,0-1.26Z"/><path class="cls-12" d="M170.69,104.83c0,.44,0,.88,0,1.32a1.34,1.34,0,0,1-1.28,1.34,6.77,6.77,0,0,1-.78,0A1.41,1.41,0,0,1,167.1,106c0-.81,0-1.64,0-2.45a1.4,1.4,0,0,1,1.54-1.47,5.42,5.42,0,0,1,.9,0,1.33,1.33,0,0,1,1.15,1.27v.12c0,.43,0,.87,0,1.31Z"/><path class="cls-12" d="M99.52,16.74A1.14,1.14,0,0,1,98.78,18c-.94.34-1.4,0-1.4-1v-5.4c0-.48-.07-1,.63-1a1.25,1.25,0,0,1,1.48.91,3.1,3.1,0,0,1,0,.43C99.52,13.52,99.51,15.13,99.52,16.74Z"/><path class="cls-12" d="M84.48,10.62v6.27c-.88.16-1,0-1.06-.76,0-.57,0-1.13,0-1.75H82.35v1.8c0,.37,0,.77-.52.78s-.55-.41-.55-.81V11.38c0-.39.06-.76.52-.77s.55.37.55.75v1.86h1.06c0-.6,0-1.19,0-1.77C83.43,10.68,83.55,10.58,84.48,10.62Z"/><path class="cls-12" d="M165.37,13.58a1.87,1.87,0,0,1-1.81,1.8,1.79,1.79,0,0,1-1.67-1.79,1.74,1.74,0,1,1,3.48,0Z"/><path class="cls-12" d="M11,10.17,9.9,12.8l.27,0,.73.65-.72.61-.26,0,1,2.64c.22,0,.27,0,.29,0,.28-.2.55-.58.9-.18s0,.67-.29.92c-.66.68-.77.67-1.39-.08a6,6,0,0,1,.28-8,6.09,6.09,0,1,1,8.83,8.38.52.52,0,0,1-.85,0,1.81,1.81,0,0,1-.47-.49,2.3,2.3,0,0,1-.11-.71c.24,0,.48,0,.72,0,.08,0,.15.12.25.21a4.74,4.74,0,0,0,1.12-2.55l-.84-.79.74-.58.25,0-1.1-2.75c-.72,1-1.3,1.82-1.88,2.64L16.49,14a1.46,1.46,0,0,1-1.55.79,1.33,1.33,0,0,1-1.12-1.1,1.44,1.44,0,0,1,.76-1.56l3.2-2.27.72-.53L15.78,8.2l0,.22-.63.77-.63-.67.08-.18a4.62,4.62,0,0,0-2.54.93v1.18l-.93-.11Zm5.92,1.62-.1-.11c-.6.43-1.22.82-1.78,1.3a.73.73,0,0,0-.14.71c.24.31.55.16.76-.13Z"/><path class="cls-12" d="M15.14,19.52a9.2,9.2,0,0,1-1.05,0,1.42,1.42,0,0,1-1.31-1.4,1.37,1.37,0,0,1,1.3-1.34,15.72,15.72,0,0,1,2.17,0,1.34,1.34,0,0,1,1.24,1.32,1.38,1.38,0,0,1-1.17,1.39,11.37,11.37,0,0,1-1.18.06Zm0-.94a4.56,4.56,0,0,0,1,0,.62.62,0,0,0,.39-.43.6.6,0,0,0-.38-.44,16.35,16.35,0,0,0-2,0,.59.59,0,0,0-.38.44c0,.15.22.39.38.43A4.67,4.67,0,0,0,15.14,18.58Z"/><path class="cls-12" d="M13.45,95a4.82,4.82,0,0,1,0,9.63,4.82,4.82,0,1,1,0-9.63Zm-.06,6.13a1.26,1.26,0,0,0,1.36-1.32,1.32,1.32,0,1,0-2.63,0A1.25,1.25,0,0,0,13.39,101.13Zm-1.05.63L11,103l2,.79C13.09,102.07,13.09,102.07,12.34,101.76Zm4.27.56.81-2c-1.77-.14-1.77-.14-2.09.74Zm-7.2-2,.84,2L11.63,101c-.22-.25-.38-.61-.62-.67A8.2,8.2,0,0,0,9.41,100.28ZM14,95.81c-.15,1.77-.15,1.77.7,2.1L16,96.66Zm.63,5.85c-.21.17-.6.32-.65.55a8.52,8.52,0,0,0,0,1.63L16,103Zm.76-3c.32.83.59.93,2.08.65l-.82-2Zm-3.83.09-1.24-1.41-.82,2C11.07,99.5,11.17,99.47,11.51,98.7Zm1.41-2.89-2,.84,1.31,1.26C13.07,97.59,13.07,97.59,12.92,95.81Z"/><path class="cls-12" d="M18,192.65a1.44,1.44,0,0,0-1.38-1.47,1.49,1.49,0,0,0-1.47,1.4,1.43,1.43,0,0,0,1.4,1.45A1.39,1.39,0,0,0,18,192.65Z"/><path class="cls-12" d="M8.62,188.77c-.39-.21-.59-.41-.78-.39a.58.58,0,0,0-.37.44.57.57,0,0,0,.41.41C8.06,189.23,8.25,189,8.62,188.77Z"/><path class="cls-12" d="M16.89,11.79l-1.26,1.77c-.21.29-.52.44-.76.13A.73.73,0,0,1,15,13c.56-.48,1.18-.87,1.78-1.3Z"/><path class="cls-12" d="M15.14,18.58a4.67,4.67,0,0,1-1,0c-.16,0-.39-.28-.38-.43a.59.59,0,0,1,.38-.44,16.35,16.35,0,0,1,2,0,.6.6,0,0,1,.38.44.62.62,0,0,1-.39.43A4.56,4.56,0,0,1,15.14,18.58Z"/><path d="M13.39,101.13a1.25,1.25,0,0,1-1.27-1.29,1.32,1.32,0,1,1,2.63,0A1.26,1.26,0,0,1,13.39,101.13Z"/><path d="M12.34,101.76c.75.31.75.31.57,2L11,103Z"/><path d="M16.61,102.32l-1.28-1.25c.32-.88.32-.88,2.09-.74Z"/><path d="M9.41,100.28a8.2,8.2,0,0,1,1.6,0c.24.06.4.42.62.67l-1.38,1.28Z"/><path d="M14,95.81l2,.85-1.31,1.25C13.8,97.58,13.8,97.58,14,95.81Z"/><path d="M14.58,101.66,16,103l-2.06.86a8.52,8.52,0,0,1,0-1.63C14,102,14.37,101.83,14.58,101.66Z"/><path d="M15.34,98.61l1.26-1.32.82,2C15.93,99.54,15.66,99.44,15.34,98.61Z"/><path d="M11.51,98.7c-.34.77-.44.8-2.06.58l.82-2Z"/><path d="M12.92,95.81c.15,1.78.15,1.78-.7,2.1l-1.31-1.26Z"/><path class="cls-12" d="M18,192.65A1.38,1.38,0,0,1,16.61,194a1.42,1.42,0,0,1-1.37-1.45,1.49,1.49,0,0,1,1.44-1.4A1.43,1.43,0,0,1,18,192.65Zm-1.39-.71c-.22.33-.44.53-.41.66s.28.33.44.49c.14-.15.4-.3.41-.46S16.86,192.27,16.64,191.94Z"/><path class="cls-12" d="M165.62,188.91a2,2,0,0,1-2,2.06,2.07,2.07,0,0,1-2-2.05,2,2,0,0,1,2-2A2,2,0,0,1,165.62,188.91Zm-2,1.22a1.21,1.21,0,0,0,1.2-1.21,1.26,1.26,0,0,0-1.23-1.21,1.23,1.23,0,0,0-1.19,1.23A1.19,1.19,0,0,0,163.61,190.13Z"/><path class="cls-12" d="M16.61,191.94c.23.33.45.51.45.69s-.27.31-.42.46c-.16-.16-.41-.3-.45-.49S16.39,192.27,16.61,191.94Z"/></g></g></svg>