<?xml version="1.0" encoding="UTF-8"?><svg xmlns="http://www.w3.org/2000/svg" viewBox="0 0 406.01 353.83"><defs><style>.i{fill:#f24347;}.j{fill:#f0f0f0;}.k,.l,.m,.n,.o,.p,.q,.r{fill:#fff;}.s{fill:#fafafa;}.t,.o{opacity:.5;}.u{opacity:.9;}.l,.v{opacity:.4;}.w,.r{opacity:.6;}.x{fill:#f5f5f5;}.m,.y{opacity:.3;}.a`,.aa{opacity:.2;}.n,.ab{opacity:.1;}.p{opacity:.8;}.ac{fill:#364168;}.q{opacity:.7;}.ad{fill:#ed847e;}.aa{isolation:isolate;}.ae{fill:#ebebeb;}.af{fill:#407bff;}.ag{fill:#ffc3bd;}.ah{fill:#263238;}</style></defs><g id="a"/><g id="b"><g id="c"><g><g><rect class="j" x="117.83" y="119.76" width="47.87" height="192.12"/><rect class="x" x="117.07" y="130.07" width="50.18" height="7.07"/><rect class="x" x="117.07" y="145.35" width="50.18" height="7.07"/><rect class="x" x="117.07" y="160.62" width="50.18" height="7.07"/><rect class="x" x="117.07" y="175.9" width="50.18" height="7.07"/><rect class="x" x="117.07" y="191.17" width="50.18" height="7.07"/><rect class="x" x="117.07" y="206.44" width="50.18" height="7.07"/><rect class="x" x="117.07" y="221.72" width="50.18" height="7.07"/><rect class="x" x="117.07" y="236.99" width="50.18" height="7.07"/><rect class="x" x="117.07" y="252.26" width="50.18" height="7.07"/><rect class="x" x="117.07" y="267.54" width="50.18" height="7.07"/><rect class="x" x="117.07" y="282.81" width="50.18" height="7.07"/><rect class="x" x="117.07" y="298.09" width="50.18" height="7.07"/></g><g><polygon class="ae" points="91.87 311.88 35.09 311.88 35.09 54.59 91.87 77.67 91.87 311.88"/><rect class="s" x="38.15" y="81.71" width="15.52" height="15.52"/><rect class="j" x="55.72" y="81.71" width="15.52" height="15.52"/><rect class="s" x="73.3" y="81.71" width="15.52" height="15.52"/><rect class="s" x="38.15" y="99.05" width="15.52" height="15.52"/><rect class="s" x="55.72" y="99.05" width="15.52" height="15.52"/><rect class="s" x="73.3" y="99.05" width="15.52" height="15.52"/><rect class="s" x="38.15" y="116.38" width="15.52" height="15.52"/><rect class="j" x="55.72" y="116.38" width="15.52" height="15.52"/><rect class="s" x="73.3" y="116.38" width="15.52" height="15.52"/><rect class="j" x="38.15" y="133.71" width="15.52" height="15.52"/><rect class="s" x="55.72" y="133.71" width="15.52" height="15.52"/><rect class="s" x="73.3" y="133.71" width="15.52" height="15.52"/><rect class="s" x="38.15" y="151.05" width="15.52" height="15.52"/><rect class="s" x="55.72" y="151.05" width="15.52" height="15.52"/><rect class="j" x="73.3" y="151.05" width="15.52" height="15.52"/><rect class="s" x="38.15" y="168.38" width="15.52" height="15.52"/><rect class="j" x="55.72" y="168.38" width="15.52" height="15.52"/><rect class="s" x="73.3" y="168.38" width="15.52" height="15.52"/><rect class="j" x="38.15" y="185.71" width="15.52" height="15.52"/><rect class="j" x="55.72" y="185.71" width="15.52" height="15.52"/><rect class="s" x="73.3" y="185.71" width="15.52" height="15.52"/><rect class="s" x="38.15" y="203.05" width="15.52" height="15.52"/><rect class="j" x="55.72" y="203.05" width="15.52" height="15.52"/><rect class="s" x="73.3" y="203.05" width="15.52" height="15.52"/><rect class="s" x="38.15" y="220.38" width="15.52" height="15.52"/><rect class="s" x="55.72" y="220.38" width="15.52" height="15.52"/><rect class="s" x="73.3" y="220.38" width="15.52" height="15.52"/><rect class="j" x="38.15" y="237.71" width="15.52" height="15.52"/><rect class="s" x="55.72" y="237.71" width="15.52" height="15.52"/><rect class="j" x="73.3" y="237.71" width="15.52" height="15.52"/><rect class="s" x="38.15" y="255.05" width="15.52" height="15.52"/><rect class="j" x="55.72" y="255.05" width="15.52" height="15.52"/><rect class="s" x="73.3" y="255.05" width="15.52" height="15.52"/><rect class="j" x="38.15" y="272.38" width="15.52" height="15.52"/><rect class="s" x="55.72" y="272.38" width="15.52" height="15.52"/><rect class="s" x="73.3" y="272.38" width="15.52" height="15.52"/></g><g><polygon class="j" points="361.34 311.88 312.25 311.88 312.25 89.47 361.34 109.42 361.34 311.88"/><rect class="s" x="327.93" y="106.83" width="7.4" height="7.4"/><rect class="s" x="317.59" y="117.99" width="7.4" height="7.4"/><rect class="s" x="317.59" y="129.15" width="7.4" height="7.4"/><rect class="s" x="327.93" y="129.15" width="7.4" height="7.4"/><rect class="s" x="338.26" y="129.15" width="7.4" height="7.4"/><rect class="s" x="317.59" y="151.47" width="7.4" height="7.4"/><rect class="s" x="338.26" y="151.47" width="7.4" height="7.4"/><rect class="s" x="327.93" y="162.63" width="7.4" height="7.4"/><rect class="s" x="317.59" y="173.79" width="7.4" height="7.4"/><rect class="s" x="338.26" y="173.79" width="7.4" height="7.4"/><rect class="s" x="348.6" y="173.79" width="7.4" height="7.4"/><rect class="s" x="327.93" y="184.95" width="7.4" height="7.4"/><rect class="s" x="317.59" y="196.1" width="7.4" height="7.4"/><rect class="s" x="327.93" y="196.1" width="7.4" height="7.4"/><rect class="s" x="348.6" y="196.1" width="7.4" height="7.4"/><rect class="s" x="317.59" y="207.04" width="7.4" height="7.4" transform="translate(3.05 -4.58) rotate(.82)"/><rect class="s" x="338.26" y="207.34" width="7.4" height="7.4" transform="translate(3.06 -4.88) rotate(.82)"/><rect class="s" x="348.59" y="207.49" width="7.4" height="7.4" transform="translate(3.06 -5.03) rotate(.82)"/><rect class="s" x="327.93" y="218.42" width="7.4" height="7.4"/><g><rect class="s" x="348.6" y="228.57" width="7.4" height="7.4" transform="translate(704.59 464.53) rotate(180)"/><rect class="s" x="327.93" y="228.57" width="7.4" height="7.4" transform="translate(663.25 464.53) rotate(180)"/><rect class="s" x="317.59" y="228.57" width="7.4" height="7.4" transform="translate(642.58 464.53) rotate(180)"/><rect class="s" x="338.26" y="239.73" width="7.4" height="7.4" transform="translate(683.92 486.85) rotate(180)"/><rect class="s" x="348.6" y="250.89" width="7.4" height="7.4" transform="translate(704.59 509.17) rotate(180)"/><rect class="s" x="338.26" y="250.89" width="7.4" height="7.4" transform="translate(683.92 509.17) rotate(180)"/><rect class="s" x="317.59" y="250.89" width="7.4" height="7.4" transform="translate(642.58 509.17) rotate(180)"/><rect class="s" x="348.59" y="261.82" width="7.4" height="7.4" transform="translate(708.36 525.97) rotate(179.18)"/><rect class="s" x="327.93" y="262.12" width="7.4" height="7.4" transform="translate(667.03 526.86) rotate(179.18)"/><rect class="s" x="317.59" y="262.27" width="7.4" height="7.4" transform="translate(646.36 527.31) rotate(179.18)"/><rect class="s" x="338.26" y="273.21" width="7.4" height="7.4" transform="translate(683.92 553.81) rotate(180)"/></g></g><g><polygon class="j" points="297.82 83.6 297.82 73.91 278.21 73.91 278.21 83.6 245.68 83.6 245.68 311.88 302.56 311.88 302.56 83.6 297.82 83.6"/><g><rect class="s" x="264.05" y="95.86" width="8.4" height="8.4"/><rect class="s" x="275.78" y="95.86" width="8.4" height="8.4"/><rect class="s" x="252.32" y="108.53" width="8.4" height="8.4"/><rect class="s" x="264.05" y="108.53" width="8.4" height="8.4"/><rect class="s" x="287.52" y="108.53" width="8.4" height="8.4"/><rect class="s" x="252.32" y="121.2" width="8.4" height="8.4"/><rect class="s" x="275.78" y="121.2" width="8.4" height="8.4"/><rect class="s" x="287.52" y="121.2" width="8.4" height="8.4"/><rect class="s" x="252.32" y="146.54" width="8.4" height="8.4"/><rect class="s" x="275.78" y="146.54" width="8.4" height="8.4"/><rect class="s" x="252.32" y="159.21" width="8.4" height="8.4"/><rect class="s" x="264.05" y="159.21" width="8.4" height="8.4"/><rect class="s" x="287.52" y="159.21" width="8.4" height="8.4"/><rect class="s" x="252.32" y="222.47" width="8.4" height="8.4"/><rect class="s" x="264.05" y="222.47" width="8.4" height="8.4"/><rect class="s" x="287.52" y="222.47" width="8.4" height="8.4"/><rect class="s" x="252.32" y="235.14" width="8.4" height="8.4"/><rect class="s" x="275.78" y="235.14" width="8.4" height="8.4"/><rect class="s" x="287.52" y="235.14" width="8.4" height="8.4"/><rect class="s" x="252.32" y="260.47" width="8.4" height="8.4"/><rect class="s" x="275.78" y="260.47" width="8.4" height="8.4"/><rect class="s" x="252.32" y="273.14" width="8.4" height="8.4"/><rect class="s" x="264.05" y="273.14" width="8.4" height="8.4"/><rect class="s" x="287.52" y="273.14" width="8.4" height="8.4"/><rect class="s" x="287.52" y="171.88" width="8.4" height="8.4"/><rect class="s" x="252.32" y="184.54" width="8.4" height="8.4"/><rect class="s" x="264.05" y="184.54" width="8.4" height="8.4"/><rect class="s" x="275.78" y="197.3" width="8.4" height="8.4" transform="translate(2.92 -3.99) rotate(.82)"/><rect class="s" x="287.52" y="197.47" width="8.4" height="8.4" transform="translate(2.92 -4.16) rotate(.82)"/><rect class="s" x="252.32" y="209.88" width="8.4" height="8.4"/></g></g><g><rect class="ae" x="179.87" y="119.76" width="47.87" height="192.12"/><rect class="x" x="179.1" y="130.07" width="50.18" height="7.07"/><rect class="x" x="179.1" y="145.35" width="50.18" height="7.07"/><rect class="x" x="179.1" y="160.62" width="50.18" height="7.07"/><rect class="x" x="179.1" y="175.9" width="50.18" height="7.07"/><rect class="x" x="179.1" y="191.17" width="50.18" height="7.07"/><rect class="x" x="179.1" y="206.44" width="50.18" height="7.07"/><rect class="x" x="179.1" y="221.72" width="50.18" height="7.07"/><rect class="x" x="179.1" y="236.99" width="50.18" height="7.07"/><rect class="x" x="179.1" y="252.26" width="50.18" height="7.07"/><rect class="x" x="179.1" y="267.54" width="50.18" height="7.07"/><rect class="x" x="179.1" y="282.81" width="50.18" height="7.07"/><rect class="x" x="179.1" y="298.09" width="50.18" height="7.07"/></g><path class="j" d="M185.74,16.43c-1.37,0-2.68,.45-3.78,1.19,.47-1.02,.79-2.12,.89-3.27,.45-5.17-3.37-9.37-8.55-9.37-1.59,0-3.12,.4-4.49,1.1-1.02-3.55-4.22-6.08-8.23-6.08-5.17,0-9.73,4.19-10.19,9.37-.04,.42-.04,.84-.02,1.25-.77-.21-1.58-.34-2.43-.34-5.17,0-9.73,4.19-10.19,9.37-.45,5.17,3.37,9.37,8.55,9.37h37.33c3.47,0,6.54-2.82,6.84-6.29,.3-3.47-2.27-6.29-5.74-6.29Z"/><path class="x" d="M147.72,24.94c-2.09,0-4.07,.68-5.74,1.81,.72-1.55,1.19-3.22,1.35-4.97,.69-7.86-5.12-14.22-12.98-14.22-2.41,0-4.74,.61-6.82,1.67-1.55-5.39-6.4-9.23-12.5-9.23-7.86,0-14.78,6.37-15.47,14.22-.06,.64-.05,1.27-.03,1.89-1.16-.32-2.4-.51-3.69-.51-7.86,0-14.78,6.37-15.47,14.22-.69,7.86,5.12,14.22,12.98,14.22h56.7c5.28,0,9.93-4.28,10.39-9.55,.46-5.28-3.44-9.55-8.72-9.55Z"/><path class="s" d="M355.74,40.77c-2.09,0-4.07,.68-5.74,1.81,.71-1.55,1.19-3.22,1.35-4.97,.69-7.86-5.12-14.22-12.98-14.22-2.41,0-4.74,.61-6.82,1.67-1.55-5.39-6.4-9.23-12.5-9.23-7.86,0-14.78,6.37-15.47,14.22-.06,.64-.05,1.27-.03,1.89-1.16-.32-2.4-.51-3.69-.51-7.86,0-14.78,6.37-15.47,14.22-.69,7.86,5.12,14.22,12.98,14.22h56.7c5.28,0,9.93-4.28,10.39-9.55,.46-5.28-3.44-9.55-8.72-9.55Z"/><path class="x" d="M294.99,36.57c-1.41,0-2.74,.46-3.87,1.22,.48-1.04,.8-2.17,.91-3.35,.46-5.29-3.45-9.59-8.75-9.59-1.63,0-3.19,.41-4.6,1.12-1.05-3.63-4.31-6.22-8.42-6.22-5.29,0-9.96,4.29-10.43,9.59-.04,.43-.04,.86-.02,1.28-.78-.22-1.62-.35-2.49-.35-5.3,0-9.96,4.29-10.43,9.59-.46,5.29,3.45,9.59,8.75,9.59h38.22c3.56,0,6.69-2.88,7-6.44,.31-3.56-2.32-6.44-5.88-6.44Z"/></g></g><g id="d"><ellipse id="e" class="x" cx="193.89" cy="342.5" rx="193.89" ry="11.32"/></g><g id="f"><g><g><g><path class="ac" d="M179.96,253.82l207.38,15.47c5.39,.4,10.08-3.64,10.48-9.02l3.11-41.76c.18-2.39-.23-4.79-1.2-6.98l-7.98-18.18c-2.66-6.06-8.45-10.16-15.06-10.65l-90.96-6.79c-13.54-1.01-27.04,2.52-38.35,10.03l-23.14,15.36-40.85,4.62c-5.63,.64-10.54,4.1-13.03,9.19l-4.05,8.28c-1.1,2.26-1.68,4.74-1.69,7.25v6.61c-.03,8.69,6.66,15.92,15.33,16.57Z"/><path class="ah" d="M397.78,260.6l-4.83-.27c-3.02-13.2-14.32-23.48-28.53-24.54-14.62-1.09-27.66,7.92-32.28,21.13l-96.7-5.42c-1.89-14.6-13.82-26.37-29.08-27.51-15.66-1.17-29.51,9.26-33.13,24.02l-4.87-.27c1.18,1.45,2.62,2.68,4.22,3.67v.03c.15,.1,.33,.17,.49,.26,.25,.14,.5,.27,.75,.4,.27,.13,.54,.26,.81,.38,.3,.13,.61,.25,.92,.36,.25,.09,.5,.19,.76,.27,.37,.12,.76,.21,1.14,.3,.21,.05,.42,.11,.64,.15,.61,.12,1.23,.2,1.87,.25l55.65,4.15,94.84,7.07,56.9,4.24c.31,.02,.63,.03,.93,.02,.1,0,.21-.01,.31-.02,.2-.01,.4-.02,.6-.04,.12-.01,.24-.04,.36-.05,.18-.03,.36-.06,.53-.09,.12-.03,.25-.06,.37-.09,.17-.04,.33-.09,.5-.14,.12-.04,.24-.08,.36-.12,.16-.06,.32-.12,.48-.19,.11-.05,.22-.09,.34-.15,.16-.08,.33-.16,.48-.24,.1-.05,.2-.1,.29-.16,.18-.1,.35-.21,.51-.32,.07-.05,.15-.09,.22-.14,.03-.02,.07-.04,.11-.07h0c2.19-1.58,3.72-4.03,4.03-6.89Z"/><path class="l" d="M397.78,260.6l-4.83-.27c-3.02-13.2-14.32-23.48-28.53-24.54-14.62-1.09-27.66,7.92-32.28,21.13l-96.7-5.42c-1.89-14.6-13.82-26.37-29.08-27.51-15.66-1.17-29.51,9.26-33.13,24.02l-4.87-.27c1.18,1.45,2.62,2.68,4.22,3.67v.03c.15,.1,.33,.17,.49,.26,.25,.14,.5,.27,.75,.4,.27,.13,.54,.26,.81,.38,.3,.13,.61,.25,.92,.36,.25,.09,.5,.19,.76,.27,.37,.12,.76,.21,1.14,.3,.21,.05,.42,.11,.64,.15,.61,.12,1.23,.2,1.87,.25l55.65,4.15,94.84,7.07,56.9,4.24c.31,.02,.63,.03,.93,.02,.1,0,.21-.01,.31-.02,.2-.01,.4-.02,.6-.04,.12-.01,.24-.04,.36-.05,.18-.03,.36-.06,.53-.09,.12-.03,.25-.06,.37-.09,.17-.04,.33-.09,.5-.14,.12-.04,.24-.08,.36-.12,.16-.06,.32-.12,.48-.19,.11-.05,.22-.09,.34-.15,.16-.08,.33-.16,.48-.24,.1-.05,.2-.1,.29-.16,.18-.1,.35-.21,.51-.32,.07-.05,.15-.09,.22-.14,.03-.02,.07-.04,.11-.07h0c2.19-1.58,3.72-4.03,4.03-6.89Z"/><path class="q" d="M195.17,208.24l.86-.93-12.32,1.39c-4.68,.53-8.76,3.41-10.83,7.64l-2.43,4.96,6.17-1.72c7.11-1.98,13.53-5.91,18.54-11.33Z"/><path class="q" d="M171.28,239.22c-.19,2.61-1.37,4.66-2.63,4.56-1.26-.09-2.12-2.29-1.92-4.9,.19-2.61,1.37-4.66,2.63-4.56,1.26,.09,2.12,2.29,1.92,4.9Z"/><rect class="n" x="369.27" y="218.5" width="10.22" height="10.23" rx="2.42" ry="2.42" transform="translate(17.67 -27.23) rotate(4.27)"/><path class="ah" d="M349.46,191.49c-1.88-3.72-5.58-6.19-9.74-6.5l-54.35-4.05c-11.37-.85-16.03,2.25-26.26,9.05l-17.34,11.51c-2.51,1.67-1.42,5.58,1.59,5.7l116.51,4.88-10.41-20.59Z"/><path class="m" d="M349.46,191.49c-1.88-3.72-5.58-6.19-9.74-6.5l-54.35-4.05c-11.37-.85-16.03,2.25-26.26,9.05l-17.34,11.51c-2.51,1.67-1.42,5.58,1.59,5.7l116.51,4.88-10.41-20.59Z"/><path class="ah" d="M399.74,211.53l-7.98-18.18c-.76-1.74-1.79-3.31-3.02-4.69-.04,0-.08-.01-.12-.02l-32.28-2.41,17.62,22.47c2.04,2.6,5.11,4.18,8.41,4.31l18.18,1.05c-.2-.87-.46-1.72-.82-2.55Z"/><path class="m" d="M399.74,211.53l-7.98-18.18c-.76-1.74-1.79-3.31-3.02-4.69-.04,0-.08-.01-.12-.02l-32.28-2.41,17.62,22.47c2.04,2.6,5.11,4.18,8.41,4.31l18.18,1.05c-.2-.87-.46-1.72-.82-2.55Z"/><path class="ah" d="M232.01,200.2l33.42-22.38c-6.37,1.7-12.47,4.43-18.04,8.12l-23.14,15.36,2.99,.19c1.69,.11,3.37-.35,4.77-1.29Z"/><path class="m" d="M232.01,200.2l33.42-22.38c-6.37,1.7-12.47,4.43-18.04,8.12l-23.14,15.36,2.99,.19c1.69,.11,3.37-.35,4.77-1.29Z"/><rect class="q" x="282.2" y="214.22" width="12.89" height="2.93" rx="1.31" ry="1.31" transform="translate(16.85 -20.88) rotate(4.27)"/><rect class="q" x="347.5" y="216.97" width="12.89" height="2.93" rx="1.31" ry="1.31" transform="translate(17.23 -25.73) rotate(4.27)"/><path class="q" d="M393.98,220.95l5.85,12.44,1.11-14.88c.03-.42,.02-.84,.02-1.26l-4.21-.31c-2.15-.16-3.68,2.06-2.76,4.01Z"/><path class="ah" d="M284.09,175.82c4.15-1.72,8.69-2.46,13.22-2.04l25.85,2.29-.48,2.6,3.37,.25,.47-2.55,34.03,3.02c3.56,.32,6.97,1.29,10.1,2.86l6.04,.45c.33,.02,.66,.07,.99,.11-4.83-3.87-10.64-6.22-16.84-6.77l-63.24-5.61c-7.17-.64-14.35,1.21-20.28,5.2l-.41,.27c2.38-.17,4.77-.2,7.17-.08Z"/><path class="o" d="M284.09,175.82c4.15-1.72,8.69-2.46,13.22-2.04l25.85,2.29-.48,2.6,3.37,.25,.47-2.55,34.03,3.02c3.56,.32,6.97,1.29,10.1,2.86l6.04,.45c.33,.02,.66,.07,.99,.11-4.83-3.87-10.64-6.22-16.84-6.77l-63.24-5.61c-7.17-.64-14.35,1.21-20.28,5.2l-.41,.27c2.38-.17,4.77-.2,7.17-.08Z"/><g class="y"><path class="k" d="M236.5,210.06c-.67,9.03-1.35,18.05-2.02,27.08-.06,.86,1.28,.96,1.34,.1,.67-9.03,1.35-18.05,2.02-27.08,.06-.86-1.28-.96-1.34-.1h0Z"/></g><g class="y"><path class="k" d="M298.2,213.54c-2.04,12.3-4.08,24.59-6.12,36.89-.14,.85,1.2,.95,1.34,.1,2.04-12.3,4.08-24.59,6.12-36.89,.14-.85-1.2-.95-1.34-.1h0Z"/></g><g class="y"><path class="k" d="M363.26,217.27c-.65,4.95-1.3,9.91-1.94,14.86-.11,.86,1.23,.96,1.34,.1,.65-4.95,1.3-9.91,1.94-14.86,.11-.86-1.23-.96-1.34-.1h0Z"/></g><path class="n" d="M331.31,210.88l11.43-25.27c-.96-.33-1.98-.55-3.02-.62l-2.15-.16-11.68,25.82,5.42,.23Z"/><g class="ab"><path class="k" d="M297.01,209.45l6.16-13.62,1.01-13.48-18.82-1.4c-.63-.05-1.23-.08-1.82-.1l-12.45,27.52,25.92,1.09Z"/><path class="k" d="M349.46,191.49c-.85-1.69-2.09-3.1-3.56-4.19l-10.73,23.74,24.71,1.03-10.41-20.59Z"/></g><polygon class="ah" points="295.49 209.38 303.41 209.71 308.4 182.66 300.53 182.07 295.49 209.38"/></g><g><circle class="ah" cx="204" cy="255.61" r="22.64" transform="translate(-117.38 195.04) rotate(-40.73)"/><circle class="o" cx="204" cy="255.61" r="14.14" transform="translate(-121.41 288.24) rotate(-57.13)"/><g class="y"><path d="M206.03,251.55h.01c.38,.2,.84,.17,1.19-.08l4.19-2.97c.61-.43,.67-1.33,.1-1.81-1.36-1.15-3-2-4.81-2.43-.73-.17-1.42,.41-1.41,1.15l.1,5.13c0,.43,.25,.81,.63,1Z"/><path d="M202.57,251.3h.01c.4-.14,.7-.48,.77-.9l.86-5.06c.12-.74-.48-1.41-1.22-1.35-1.85,.16-3.6,.75-5.12,1.69-.63,.39-.71,1.29-.17,1.8l3.7,3.56c.31,.3,.75,.39,1.16,.26Z"/><path d="M199.94,253.58h0c.19-.39,.17-.85-.08-1.2l-2.97-4.19c-.43-.61-1.33-.67-1.81-.1-1.15,1.36-2,3-2.43,4.81-.17,.73,.41,1.42,1.15,1.41l5.13-.1c.43,0,.81-.25,1-.63Z"/><path d="M212.13,249.33l-3.56,3.7c-.3,.31-.39,.75-.26,1.16h0c.13,.42,.48,.72,.9,.79l5.06,.86c.74,.12,1.41-.48,1.35-1.22-.16-1.86-.75-3.6-1.69-5.12-.39-.63-1.29-.71-1.8-.17Z"/><path d="M205.42,259.92h-.01c-.4,.14-.7,.48-.77,.9l-.86,5.06c-.12,.74,.48,1.41,1.22,1.35,1.85-.16,3.6-.75,5.12-1.69,.63-.39,.71-1.29,.17-1.8l-3.7-3.56c-.31-.3-.75-.39-1.16-.26Z"/><path d="M199.68,257.04h0c-.13-.42-.48-.72-.9-.79l-5.06-.86c-.74-.12-1.41,.48-1.35,1.22,.16,1.86,.75,3.6,1.69,5.12,.39,.63,1.29,.71,1.8,.17l3.56-3.7c.3-.31,.39-.75,.26-1.16Z"/><path d="M208.05,257.65h0c-.19,.39-.17,.85,.08,1.2l2.97,4.19c.43,.61,1.33,.67,1.81,.1,1.15-1.36,2-3,2.43-4.81,.17-.73-.41-1.42-1.15-1.41l-5.13,.1c-.43,0-.81,.25-1,.63Z"/><path d="M201.96,259.67h-.01c-.38-.2-.84-.17-1.19,.08l-4.19,2.97c-.61,.43-.67,1.33-.1,1.81,1.36,1.15,3,2,4.81,2.43,.73,.17,1.42-.41,1.41-1.15l-.1-5.13c0-.43-.25-.81-.63-1Z"/></g></g><g><circle class="ah" cx="362.06" cy="267.4" r="22.64" transform="translate(-86.78 301.04) rotate(-40.73)"/><circle class="o" cx="362.06" cy="267.4" r="14.14" transform="translate(-66.33 129.28) rotate(-18.58)"/><g class="y"><path d="M364.09,263.34h.01c.38,.2,.84,.17,1.19-.08l4.19-2.97c.61-.43,.67-1.33,.1-1.81-1.36-1.15-3-2-4.81-2.43-.73-.17-1.42,.41-1.41,1.15l.1,5.13c0,.43,.25,.81,.63,1Z"/><path d="M360.63,263.09h.01c.4-.14,.7-.48,.77-.9l.86-5.06c.12-.74-.48-1.41-1.22-1.35-1.86,.16-3.6,.75-5.12,1.69-.63,.39-.71,1.29-.17,1.8l3.7,3.56c.31,.3,.75,.39,1.16,.26Z"/><path d="M358,265.37h0c.19-.39,.17-.85-.08-1.2l-2.97-4.19c-.43-.61-1.33-.67-1.81-.1-1.15,1.36-2,3-2.43,4.81-.17,.73,.41,1.42,1.15,1.41l5.13-.1c.43,0,.81-.25,1-.63Z"/><path d="M370.19,261.12l-3.56,3.7c-.3,.31-.39,.75-.26,1.16h0c.13,.42,.48,.72,.9,.79l5.06,.86c.74,.12,1.41-.48,1.35-1.22-.16-1.86-.75-3.6-1.69-5.12-.39-.63-1.29-.71-1.8-.17Z"/><path d="M363.48,271.72h-.01c-.4,.14-.7,.48-.77,.9l-.86,5.06c-.12,.74,.48,1.41,1.22,1.35,1.86-.16,3.6-.75,5.12-1.69,.63-.39,.71-1.29,.17-1.8l-3.7-3.56c-.31-.3-.75-.39-1.16-.26Z"/><path d="M357.74,268.83h0c-.13-.42-.48-.72-.9-.79l-5.06-.86c-.74-.12-1.41,.48-1.35,1.22,.16,1.86,.75,3.6,1.69,5.12,.39,.63,1.29,.71,1.8,.17l3.56-3.7c.3-.31,.39-.75,.26-1.16Z"/><path d="M366.12,269.44h0c-.19,.39-.17,.85,.08,1.2l2.97,4.19c.43,.61,1.33,.67,1.81,.1,1.15-1.36,2-3,2.43-4.81,.17-.73-.41-1.42-1.15-1.41l-5.13,.1c-.43,0-.81,.25-1,.63Z"/><path d="M360.02,271.46h-.01c-.38-.2-.84-.17-1.19,.08l-4.19,2.97c-.61,.43-.67,1.33-.1,1.81,1.36,1.15,3,2,4.81,2.43,.73,.17,1.42-.41,1.41-1.15l-.1-5.13c0-.43-.25-.81-.63-1Z"/></g></g></g><g><path class="af" d="M199.07,265.52l.8,.36c.45,.2,.61,.76,.34,1.17l-7.79,11.66-2.84-1.47,8.53-11.47c.22-.3,.63-.4,.97-.25Z"/><path class="af" d="M206.9,266.11l-.85,.24c-.47,.13-.71,.66-.51,1.11l5.97,12.69,3.03-1.04-6.73-12.61c-.18-.33-.56-.49-.92-.39Z"/></g><g class="t"><path class="k" d="M199.07,265.52l.8,.36c.45,.2,.61,.76,.34,1.17l-7.79,11.66-2.84-1.47,8.53-11.47c.22-.3,.63-.4,.97-.25Z"/><path class="k" d="M206.9,266.11l-.85,.24c-.47,.13-.71,.66-.51,1.11l5.97,12.69,3.03-1.04-6.73-12.61c-.18-.33-.56-.49-.92-.39Z"/></g><g><path class="af" d="M357.63,277.35l.8,.36c.45,.2,.61,.76,.34,1.17l-7.79,11.66-2.84-1.47,8.53-11.47c.22-.3,.63-.4,.97-.25Z"/><path class="af" d="M365.45,277.93l-.85,.24c-.47,.13-.72,.66-.51,1.11l5.97,12.69,3.03-1.04-6.73-12.61c-.18-.33-.56-.49-.92-.39Z"/></g><g class="t"><path class="k" d="M357.63,277.35l.8,.36c.45,.2,.61,.76,.34,1.17l-7.79,11.66-2.84-1.47,8.53-11.47c.22-.3,.63-.4,.97-.25Z"/><path class="k" d="M365.45,277.93l-.85,.24c-.47,.13-.72,.66-.51,1.11l5.97,12.69,3.03-1.04-6.73-12.61c-.18-.33-.56-.49-.92-.39Z"/></g></g></g><g id="g"><g><rect class="ah" x="232.46" y="278.2" width="98.22" height="34.15"/><rect class="m" x="232.46" y="278.2" width="98.22" height="34.15"/></g><g><polygon class="ah" points="121.86 287.27 121.86 270.31 56.81 270.31 56.81 312.35 146.1 312.35 146.1 287.27 121.86 287.27"/><polygon class="m" points="121.86 287.27 121.86 270.31 56.81 270.31 56.81 312.35 146.1 312.35 146.1 287.27 121.86 287.27"/></g><circle class="ah" cx="292.31" cy="315.43" r="30.19"/><circle class="o" cx="292.31" cy="315.43" r="17.63" transform="translate(-137.43 299.08) rotate(-45)"/><g class="t"><path class="k" d="M281.22,313.15c.29-1.43,.86-2.77,1.64-3.95,.36-.55,.34-1.26-.08-1.76h0c-.63-.76-1.82-.7-2.36,.12-.99,1.5-1.71,3.19-2.08,5.01-.2,.97,.6,1.86,1.58,1.76h0c.65-.06,1.17-.54,1.3-1.18Z"/><path class="k" d="M286.08,305.98c1.18-.78,2.51-1.34,3.95-1.64,.64-.13,1.12-.65,1.18-1.3h0c.09-.98-.8-1.78-1.76-1.58-1.82,.37-3.51,1.09-5.01,2.08-.82,.54-.88,1.73-.12,2.36h0c.5,.42,1.22,.44,1.76,.08Z"/><path class="k" d="M301.84,307.44h0c-.42,.51-.44,1.22-.08,1.76,.78,1.18,1.34,2.51,1.64,3.95,.13,.64,.65,1.12,1.3,1.18h0c.98,.09,1.78-.8,1.58-1.76-.37-1.82-1.09-3.51-2.08-5.01-.54-.82-1.73-.88-2.36-.12Z"/><path class="k" d="M294.58,304.34c1.43,.29,2.77,.86,3.95,1.64,.55,.36,1.26,.34,1.76-.08h0c.76-.63,.7-1.82-.12-2.36-1.5-.99-3.19-1.71-5.01-2.08-.97-.2-1.86,.6-1.76,1.58h0c.06,.65,.54,1.17,1.18,1.3Z"/><path class="k" d="M290.03,326.51c-1.43-.29-2.77-.86-3.95-1.64-.55-.36-1.26-.34-1.76,.08h0c-.76,.63-.7,1.82,.12,2.36,1.5,.99,3.19,1.71,5.01,2.08,.97,.2,1.86-.6,1.76-1.58h0c-.06-.65-.54-1.17-1.18-1.3Z"/><path class="k" d="M303.39,317.7c-.29,1.43-.86,2.77-1.64,3.95-.36,.55-.34,1.26,.08,1.76h0c.63,.76,1.82,.7,2.36-.12,.99-1.5,1.71-3.19,2.08-5.01,.2-.97-.6-1.86-1.58-1.76h0c-.65,.06-1.17,.54-1.3,1.18Z"/><path class="k" d="M282.86,321.65c-.78-1.18-1.34-2.51-1.64-3.95-.13-.64-.65-1.12-1.3-1.18h0c-.98-.09-1.78,.8-1.58,1.76,.37,1.82,1.09,3.51,2.08,5.01,.54,.82,1.73,.88,2.36,.12h0c.42-.51,.44-1.22,.08-1.76Z"/><path class="k" d="M298.53,324.88c-1.18,.78-2.51,1.34-3.95,1.64-.64,.13-1.12,.65-1.18,1.3h0c-.09,.98,.8,1.78,1.76,1.58,1.82-.37,3.51-1.09,5.01-2.08,.82-.54,.88-1.73,.12-2.36h0c-.5-.42-1.22-.44-1.76-.08Z"/></g><path class="i" d="M327.47,274.71H160.67v-43.92l-6.25-44.25h-27.59v91.62l13.01,38.35h118.06c-.01-.36-.03-.72-.03-1.09,0-19.01,15.41-34.43,34.43-34.43s34.43,15.41,34.43,34.43c0,.36-.02,.73-.03,1.09h6.53l72.78-3.31v-11.42l-78.54-27.07Z"/><g class="u"><rect class="k" x="160.32" y="279.38" width="4.56" height="4.56"/><rect class="k" x="164.88" y="283.79" width="4.56" height="4.56"/><rect class="k" x="169.44" y="279.38" width="4.56" height="4.56"/><rect class="k" x="174" y="283.79" width="4.56" height="4.56"/><rect class="k" x="178.56" y="279.38" width="4.56" height="4.56"/><rect class="k" x="183.12" y="283.79" width="4.56" height="4.56"/><rect class="k" x="187.68" y="279.38" width="4.56" height="4.56"/><rect class="k" x="192.24" y="283.79" width="4.56" height="4.56"/><rect class="k" x="196.8" y="279.38" width="4.56" height="4.56"/><rect class="k" x="201.36" y="283.79" width="4.56" height="4.56"/><rect class="k" x="205.92" y="279.38" width="4.56" height="4.56"/><rect class="k" x="210.48" y="283.79" width="4.56" height="4.56"/><rect class="k" x="215.04" y="279.38" width="4.56" height="4.56"/><rect class="k" x="219.6" y="283.79" width="4.56" height="4.56"/><rect class="k" x="224.16" y="279.38" width="4.56" height="4.56"/><rect class="k" x="228.72" y="283.79" width="4.56" height="4.56"/><rect class="k" x="233.28" y="279.38" width="4.56" height="4.56"/><rect class="k" x="237.84" y="283.79" width="4.56" height="4.56"/><rect class="k" x="242.4" y="279.38" width="4.56" height="4.56"/><rect class="k" x="246.96" y="283.79" width="4.56" height="4.56"/><rect class="k" x="251.52" y="279.38" width="4.56" height="4.56"/><rect class="k" x="256.08" y="283.79" width="4.56" height="4.56"/><rect class="k" x="260.64" y="279.38" width="4.56" height="4.56"/><rect class="k" x="313.06" y="279.38" width="4.56" height="4.56"/><rect class="k" x="317.62" y="283.79" width="4.56" height="4.56"/><rect class="k" x="322.18" y="279.38" width="4.56" height="4.56"/><rect class="k" x="326.74" y="283.79" width="4.56" height="4.56"/><rect class="k" x="331.3" y="279.38" width="4.56" height="4.56"/><rect class="k" x="335.86" y="283.79" width="4.56" height="4.56"/></g><path class="o" d="M194.01,292.69h9.55c1.41,0,2.56,1.15,2.56,2.56v9.1c0,1.41-1.15,2.56-2.56,2.56h-9.55c-1.16,0-2.11-.94-2.11-2.11v-10c0-1.16,.94-2.11,2.11-2.11Z"/><path class="a`" d="M203.69,299.8c0-.86-.7-1.56-1.56-1.56s-1.56,.7-1.56,1.56,.7,1.56,1.56,1.56,1.56-.7,1.56-1.56Z"/><g><circle class="ah" cx="97.68" cy="315.43" r="30.19"/><circle class="o" cx="97.68" cy="315.43" r="17.63" transform="translate(-194.43 161.46) rotate(-45)"/><g class="t"><path class="k" d="M86.6,313.15c.29-1.43,.86-2.77,1.64-3.95,.36-.55,.34-1.26-.08-1.76h0c-.63-.76-1.82-.7-2.36,.12-.99,1.5-1.71,3.19-2.08,5.01-.2,.97,.6,1.86,1.58,1.76h0c.65-.06,1.17-.54,1.3-1.18Z"/><path class="k" d="M91.46,305.98c1.18-.78,2.51-1.34,3.95-1.64,.64-.13,1.12-.65,1.18-1.3h0c.09-.98-.8-1.78-1.76-1.58-1.82,.37-3.51,1.09-5.01,2.08-.82,.54-.88,1.73-.12,2.36h0c.5,.42,1.22,.44,1.76,.08Z"/><path class="k" d="M107.22,307.44h0c-.42,.51-.44,1.22-.08,1.76,.78,1.18,1.34,2.51,1.64,3.95,.13,.64,.65,1.12,1.3,1.18h0c.98,.09,1.78-.8,1.58-1.76-.37-1.82-1.09-3.51-2.08-5.01-.54-.82-1.73-.88-2.36-.12Z"/><path class="k" d="M99.96,304.34c1.43,.29,2.77,.86,3.95,1.64,.55,.36,1.26,.34,1.76-.08h0c.76-.63,.7-1.82-.12-2.36-1.5-.99-3.19-1.71-5.01-2.08-.97-.2-1.86,.6-1.76,1.58h0c.06,.65,.54,1.17,1.18,1.3Z"/><path class="k" d="M95.41,326.51c-1.43-.29-2.77-.86-3.95-1.64-.55-.36-1.26-.34-1.76,.08h0c-.76,.63-.7,1.82,.12,2.36,1.5,.99,3.19,1.71,5.01,2.08,.97,.2,1.86-.6,1.76-1.58h0c-.06-.65-.54-1.17-1.18-1.3Z"/><path class="k" d="M108.77,317.7c-.29,1.43-.86,2.77-1.64,3.95-.36,.55-.34,1.26,.08,1.76h0c.63,.76,1.82,.7,2.36-.12,.99-1.5,1.71-3.19,2.08-5.01,.2-.97-.6-1.86-1.58-1.76h0c-.65,.06-1.17,.54-1.3,1.18Z"/><path class="k" d="M88.23,321.65c-.78-1.18-1.34-2.51-1.64-3.95-.13-.64-.65-1.12-1.3-1.18h0c-.98-.09-1.78,.8-1.58,1.76,.37,1.82,1.09,3.51,2.08,5.01,.54,.82,1.73,.88,2.36,.12h0c.42-.51,.44-1.22,.08-1.76Z"/><path class="k" d="M103.91,324.88c-1.18,.78-2.51,1.34-3.95,1.64-.64,.13-1.12,.65-1.18,1.3h0c-.09,.98,.8,1.78,1.76,1.58,1.82-.37,3.51-1.09,5.01-2.08,.82-.54,.88-1.73,.12-2.36h0c-.5-.42-1.22-.44-1.76-.08Z"/></g></g><g><g><rect class="ah" x="20.97" y="239.77" width="1.82" height="9.68"/><rect class="w" x="20.97" y="239.77" width="1.82" height="9.68"/></g><path class="i" d="M69.03,290.49l11.45-8.83,11.36-2.28h32.07v-83.28c0-5.28-4.28-9.55-9.55-9.55H58.06c-6.92,0-13.09,4.38-15.37,10.92l-12.86,36.86c-1.83,5.24-2.76,10.76-2.76,16.32v61.72h26.91l15.05-21.86Z"/><g><path class="af" d="M27.1,261.24h.63c1.83,0,3.32,1.49,3.32,3.32v11.49c0,1.83-1.49,3.32-3.32,3.32h-.63c-1.55,0-2.82-1.26-2.82-2.82v-12.5c0-1.55,1.26-2.82,2.82-2.82Z"/><path class="p" d="M27.1,261.24h.63c1.83,0,3.32,1.49,3.32,3.32v11.49c0,1.83-1.49,3.32-3.32,3.32h-.63c-1.55,0-2.82-1.26-2.82-2.82v-12.5c0-1.55,1.26-2.82,2.82-2.82Z"/></g><rect class="ah" x="101.32" y="253.3" width="3.55" height="12.41" rx="1.71" ry="1.71"/><path class="i" d="M26.94,254.46l-5.5-2.46c-.64-.29-1.05-.92-1.05-1.62v-1.41c0-.98,.8-1.78,1.78-1.78h5.58c1.09,0,1.97,.88,1.97,1.97v3.5c0,1.43-1.47,2.38-2.77,1.8Z"/><path class="ah" d="M100.11,231.83h2.22c3.3,0,5.97-2.67,5.97-5.97v-29.76c0-1.25-1.01-2.27-2.27-2.27H58.06c-3.82,0-7.23,2.42-8.49,6.03l-12.86,36.86c-.17,.49-.33,1.05-.49,1.66-1.47,5.85,4.14,11,9.83,9.01l35.18-12.34c6.07-2.13,12.45-3.22,18.88-3.22Z"/><path class="o" d="M100.11,231.83h2.22c3.3,0,5.97-2.67,5.97-5.97v-29.76c0-1.25-1.01-2.27-2.27-2.27H58.06c-3.82,0-7.23,2.42-8.49,6.03l-12.86,36.86c-.17,.49-.33,1.05-.49,1.66-1.47,5.85,4.14,11,9.83,9.01l35.18-12.34c6.07-2.13,12.45-3.22,18.88-3.22Z"/><path class="ac" d="M122.76,275.21h-30.55c-11.59,0-22.3,6.21-28.05,16.28l-11.92,20.86h9.59l9.56-16.73c4.27-7.47,12.21-12.08,20.81-12.08h30.55c1.21,0,2.19-.98,2.19-2.19v-3.95c0-1.21-.98-2.19-2.19-2.19Z"/><path class="l" d="M122.76,275.21h-30.55c-11.59,0-22.3,6.21-28.05,16.28l-11.92,20.86h9.59l9.56-16.73c4.27-7.47,12.21-12.08,20.81-12.08h30.55c1.21,0,2.19-.98,2.19-2.19v-3.95c0-1.21-.98-2.19-2.19-2.19Z"/><g><rect class="ah" x="22.72" y="295.86" width="11.89" height="11.89" rx="2" ry="2"/><rect class="q" x="22.72" y="295.86" width="11.89" height="11.89" rx="2" ry="2"/></g><g><path class="ah" d="M57.33,316.52H23.36c-1.22,0-2.2-.99-2.2-2.2v-5.88c0-1.22,.99-2.2,2.2-2.2H63.29c1.16,0,1.87,1.27,1.27,2.25l-3.66,6.02c-.76,1.25-2.11,2.01-3.57,2.01Z"/><path class="r" d="M57.33,316.52H23.36c-1.22,0-2.2-.99-2.2-2.2v-5.88c0-1.22,.99-2.2,2.2-2.2H63.29c1.16,0,1.87,1.27,1.27,2.25l-3.66,6.02c-.76,1.25-2.11,2.01-3.57,2.01Z"/></g><path class="ah" d="M21.65,221.42h.23c1.01,0,1.83,.82,1.83,1.83v17.17c0,1.01-.82,1.83-1.83,1.83h-.23c-2.03,0-3.67-1.65-3.67-3.67v-13.47c0-2.03,1.65-3.67,3.67-3.67Z"/><g class="y"><path d="M35.2,249.87v44.65c0,1,1.56,1.01,1.56,0v-44.65c0-1-1.56-1.01-1.56,0h0Z"/></g><g class="y"><path d="M107.51,234.35v36.99c0,1,1.56,1.01,1.56,0v-36.99c0-1-1.56-1.01-1.56,0h0Z"/></g><g class="a`"><polygon class="k" points="70.79 193.83 65.81 193.83 46.28 247.31 51.98 245.31 70.79 193.83"/><polygon class="k" points="89.84 193.83 74.71 193.83 56.48 243.73 73.84 237.64 89.84 193.83"/></g></g></g><g id="h"><g><g><polygon class="ag" points="167.52 333.88 169.96 342.74 173.93 342.74 172.45 332.78 167.52 333.88"/><path class="ah" d="M174.03,341.92l-4.49,.09c-.2,0-.36,.14-.4,.33l-.86,4.24c-.08,.38,.16,.74,.54,.82,.05,.01,.1,.02,.15,.01,1.87-.07,3.53-.2,5.86-.24,2.75-.05,2.06,.29,5.29,.28,1.95,0,2.26-2.23,1.44-2.32-3.79-.41-4.9-1.54-6.38-2.87-.32-.25-.73-.38-1.14-.36Z"/><polygon class="a`" points="173.56 340.24 172.45 332.78 167.52 333.88 169.35 340.52 173.56 340.24"/><path class="ah" d="M163.2,256.05l10.73,81.23-6.03,.57s-7.15-25.75-8.51-34.53c-.24-1.58-.71-4.8-.99-6.37-.33-1.81-1.18-5.24-1.73-7-1.04-3.36-3.9-13.5-3.9-13.5l-4.32-17.53,14.76-2.88Z"/><path class="t" d="M151.04,263.09l-.73,3.37,2.46,9.99s1.29,4.57,2.45,8.59c.53-17.26-2.32-21.95-2.32-21.95h-1.86Z"/><polygon class="af" points="166.59 336.13 167.39 339.17 174.69 338.36 174.51 335.16 166.59 336.13"/></g><g><polygon class="ag" points="144.33 333.46 145.37 342.59 149.31 342.64 149.38 333.14 144.33 333.46"/><polygon class="a`" points="149.38 333.14 144.33 333.46 145.14 340.59 149.32 340.56 149.38 333.14"/><path class="ah" d="M154.58,256.95l-4.5,81.36-6.05,.06s-2.44-26.61-2.21-35.5c.04-1.6,.16-4.85,.16-6.44,0-1.84-.23-5.37-.45-7.2-.42-3.49-1.61-14.49-1.93-18.01-.41-4.49-.63-13.99-.63-13.99l15.62-.29Z"/><polygon class="af" points="142.85 335.82 143.37 338.92 150.7 338.81 151.03 335.61 142.85 335.82"/><path class="ah" d="M149.49,341.92l-4.49,.09c-.2,0-.36,.14-.4,.33l-.86,4.24c-.08,.38,.16,.74,.54,.82,.05,.01,.1,.02,.15,.01,1.87-.07,3.53-.2,5.86-.24,2.75-.05,2.06,.29,5.29,.28,1.95,0,2.26-2.23,1.44-2.32-3.79-.41-4.9-1.54-6.38-2.87-.32-.25-.73-.38-1.14-.36Z"/></g><path class="ag" d="M172.74,223.66l11.61-2.95,2.36-1.79c.2-.15,.44-.23,.69-.23h1.74c.12,0,.24-.02,.35-.05l.57-.18c.83-.27,1.64,.45,1.48,1.3l-.41,2.16c-.09,.47-.47,.84-.94,.92l-5.11,.84-11.7,4.27-.64-4.27Z"/><path class="af" d="M157.51,220.13l14.13,2.78,3.93-.57,.67,5.08-4.12,.96-13.6,.1s-3.35-5.08-1.01-8.33Z"/><path class="t" d="M157.51,220.13l14.13,2.78,3.93-.57,.67,5.08-4.12,.96-13.6,.1s-3.35-5.08-1.01-8.33Z"/><polygon class="af" points="174.6 221.76 175.85 228.37 177.78 227.43 176.71 221.76 174.6 221.76"/><polygon class="o" points="174.6 221.76 175.85 228.37 177.78 227.43 176.71 221.76 174.6 221.76"/><path class="a`" d="M159.05,222.49l-1.01,.6,.57,1.96,.86,3.39,6.98-.05c-5.61-.39-7.4-5.91-7.4-5.91Z"/><polygon class="af" points="146.09 234.88 155.35 233.83 154.65 220.58 141.55 222.68 146.09 234.88"/><polygon class="v" points="146.09 234.88 155.35 233.83 154.65 220.58 141.55 222.68 146.09 234.88"/><path class="af" d="M157.51,220.13l-5.93,.95c.9,4.08-.53,8.82-.53,8.82-1.09-3.38-5.48-6.31-7.54-7.53l-6.69,1.07,1.65,36.06c.04,.93,.75,1.7,1.68,1.82,4.03,.51,14.81,1.36,22.63-2.92,.65-.36,1.04-1.05,1-1.79-.31-6-1.92-33.15-6.27-36.47Z"/><path class="o" d="M157.51,220.13l-5.93,.95c.9,4.08-.53,8.82-.53,8.82-1.09-3.38-5.48-6.31-7.54-7.53l-6.69,1.07,1.65,36.06c.04,.93,.75,1.7,1.68,1.82,4.03,.51,14.81,1.36,22.63-2.92,.65-.36,1.04-1.05,1-1.79-.31-6-1.92-33.15-6.27-36.47Z"/><path class="p" d="M137.27,233.39l.17,3.82c11.94-.11,20.32-2.69,24.11-4.15-.23-1.49-.48-2.93-.75-4.28-11.28,4.2-20,4.64-23.53,4.61Z"/><path class="a`" d="M137.57,239.91c4.49-7.47,1.78-11.98,1.78-11.98l-.76,.29-1.47,1.78,.45,9.92Z"/><path class="ag" d="M145.02,223c1.15,.86,2.94,1.88,4.7,1.53,1.64-.32,1.89-1.54,1.8-2.54-1.6-.82-2.01-2.61-1.94-4.31l-6.17-3.39c.95,2.27,2.25,6.22,1.62,8.71Z"/><path class="aa" d="M145.92,215.69l3.66,1.99c-.01,.52,.02,1.05,.1,1.56-1.21,.07-2.92-.6-3.65-1.79-.46-.72-.39-1.61-.11-1.76Z"/><path class="ah" d="M148.96,210.22c-2.8-1.45-4.49-4.69-4.31-5.44,.18-.75,4.35-2.32,4.95-2.04,2.99,1.29,1.41,5.41,1.41,5.41l1.09,1.26-3.14,.82Z"/><path class="ag" d="M141.55,210.54c1.25,3.6,1.8,5.77,4.18,7.13,3.57,2.05,7.62-.91,7.47-4.8-.14-3.53-2.16-8.81-6.16-9.26-2.85-.34-5.43,1.7-5.77,4.55-.09,.8,0,1.62,.27,2.38Z"/><path class="ah" d="M141.51,213.17c-2.65-1.71-4.81-4.57-4.52-5.28,.77-1.89,3.81-3.42,5.87-2.57,3.01,1.23,.9,6,.9,6l.97,1.37-3.22,.47Z"/><path class="ag" d="M140.72,214.46c.71,.64,1.65,.97,2.6,.93,1.27-.08,1.49-1.31,.8-2.29-.62-.88-2.04-1.91-3.15-1.36-1.11,.55-1.12,1.92-.25,2.72Z"/><path class="ah" d="M147.58,209.99c.08,.3,.31,.5,.5,.44s.28-.34,.2-.64c-.08-.3-.31-.49-.5-.44-.2,.06-.28,.34-.2,.64Z"/><path class="ah" d="M150.94,209.05c.08,.3,.31,.49,.5,.44,.2-.06,.28-.34,.2-.64s-.31-.5-.5-.44c-.2,.06-.28,.34-.2,.64Z"/><path class="ad" d="M149.73,209.51c.61,.81,1.33,1.53,2.14,2.15-.4,.64-1.35,.67-1.35,.67l-.79-2.82Z"/><path class="ah" d="M146.02,208.92s-.06,.01-.09,0c-.09-.04-.14-.14-.1-.24,.2-.55,.66-.97,1.22-1.12,.1-.02,.2,.04,.22,.14,.02,.1-.04,.2-.14,.22h0c-.44,.13-.8,.46-.96,.9-.03,.05-.08,.09-.14,.1Z"/><path class="ah" d="M151.87,207.32c-.06,0-.12-.01-.16-.06-.3-.35-.74-.54-1.2-.51-.1,.01-.19-.05-.21-.15-.01-.1,.05-.19,.15-.21,.59-.05,1.16,.19,1.54,.64,.07,.07,.06,.18-.01,.25h0s-.07,.05-.11,.05Z"/><path class="ah" d="M150.19,214.08c.18,0,.36-.02,.54-.05,.05,0,.09-.06,.08-.11h0c0-.05-.06-.09-.11-.08-.8,.16-1.62-.07-2.22-.62-.04-.04-.1-.04-.13,0-.04,.04-.04,.1,0,.14,.5,.47,1.17,.73,1.85,.73Z"/><path class="af" d="M139.95,212.12s-3.05-2.05-3.2-4.06,1.08-5.36,3.35-6.9c2.28-1.54,6.91-2.83,10.94,2.41l-6.53,1.97-2.6,2.69-1.95,3.88Z"/><path class="y" d="M139.95,212.12s-3.05-2.05-3.2-4.06,1.08-5.36,3.35-6.9c2.28-1.54,6.91-2.83,10.94,2.41l-6.53,1.97-2.6,2.69-1.95,3.88Z"/><path class="af" d="M140.1,212.35s2.98-8.23,11.13-8.13c0,0,2.22-6.05-2.1-5.44-4.31,.61-6.83,8.5-6.83,8.5,0,0-3.93,4.24-2.2,5.06Z"/><path class="o" d="M140.1,212.35s2.98-8.23,11.13-8.13c0,0,2.22-6.05-2.1-5.44-4.31,.61-6.83,8.5-6.83,8.5,0,0-3.93,4.24-2.2,5.06Z"/><path class="p" d="M163.61,253.71c-.08-1.24-.17-2.71-.29-4.33-12.64,3.49-21.98,2.86-25.2,2.47l.18,3.86c12.84,1.16,21.86-.97,25.32-2Z"/><g><path class="ah" d="M141.26,239.56l10.27,1.21s-2.08,9.8,1.37,13.9l-8.15,.09-3.49-15.21Z"/><path class="q" d="M141.26,239.56l10.27,1.21s-2.08,9.8,1.37,13.9l-8.15,.09-3.49-15.21Z"/><rect class="ah" x="139.08" y="239.23" width="12.07" height="16.53" rx="1.58" ry="1.58" transform="translate(30.03 -15.31) rotate(6.74)"/><rect class="o" x="139.08" y="239.23" width="12.07" height="16.53" rx="1.58" ry="1.58" transform="translate(30.03 -15.31) rotate(6.74)"/><path class="ah" d="M146.44,238.59l.91-1.01c.21-.24,.07-.61-.25-.65l-1.45-.17c-.32-.04-.54,.3-.39,.58l.65,1.2-2.6-.31-.15,1.29c-.07,.58,.35,1.11,.93,1.18l3.63,.43c.58,.07,1.11-.35,1.18-.93l.15-1.29-2.6-.31Z"/></g><path class="ag" d="M130.53,242.54l7.57,4.5,4.68-1.22c.29-.08,.59-.05,.86,.07h0c.64,.29,.93,1.05,.65,1.7l-.91,2.08c-.24,.54-.81,.85-1.39,.76l-4.66-.75-9.1-3.83,2.3-3.3Z"/><g><path class="af" d="M136.81,223.43s-12.5,15.95-12.31,18.92c.19,2.97,5.84,4.79,5.84,4.79l2.49-3.54-2.18-2.11s5.03-5.21,6.66-6.98c1.88-2.04,4.33-4.9-.51-11.07Z"/><path class="t" d="M136.81,223.43s-12.5,15.95-12.31,18.92c.19,2.97,5.84,4.79,5.84,4.79l2.49-3.54-2.18-2.11s5.03-5.21,6.66-6.98c1.88-2.04,4.33-4.9-.51-11.07Z"/><polygon class="af" points="132.7 242.5 129.34 247.48 131.02 248.05 133.8 243.98 132.7 242.5"/><polygon class="o" points="132.7 242.5 129.34 247.48 131.02 248.05 133.8 243.98 132.7 242.5"/></g><path class="af" d="M155.15,261.01l-3.08-30.19c-.05-.53-.5-.93-1.03-.93l3.26,31.27c.28-.05,.57-.1,.85-.15Z"/></g></g></g></svg>