<svg xmlns="http://www.w3.org/2000/svg" viewBox="0 0 697.65 414.82"><defs><style>.cls-1{fill:#ebebeb;}.cls-2{fill:#fff;}.cls-3{fill:#e0e0e0;}.cls-4{fill:#f5f5f5;}.cls-5{fill:#ff725e;}.cls-6{fill:#263238;}.cls-7{opacity:0.4;}.cls-8{fill:#e04f4e;}.cls-9{fill:#455a64;}.cls-10{opacity:0.2;}.cls-11{fill:#fafafa;}.cls-12{opacity:0.6;}.cls-13{fill:#ffbe9d;}.cls-14{fill:#eb996e;}</style></defs><g id="Слой_2" data-name="Слой 2"><g id="Background_Complete" data-name="Background Complete"><rect class="cls-1" x="173.51" y="74.3" width="74.21" height="313.84"/><rect class="cls-2" x="187.34" y="96.3" width="22.56" height="43.47"/><path class="cls-3" d="M199.26,139.76c-.17,0-.3-9.73-.3-21.73s.13-21.73.3-21.73.3,9.73.3,21.73S199.42,139.76,199.26,139.76Z"/><path class="cls-3" d="M209.9,111.4a108.14,108.14,0,0,1-11.28.3,108.14,108.14,0,0,1-11.28-.3c0-.17,5-.3,11.28-.3S209.9,111.23,209.9,111.4Z"/><path class="cls-3" d="M210,126.94c0,.17-5.09.3-11.37.3s-11.37-.13-11.37-.3a109.87,109.87,0,0,1,11.37-.3A109.87,109.87,0,0,1,210,126.94Z"/><rect class="cls-2" x="187.34" y="153.07" width="22.56" height="43.47"/><path class="cls-3" d="M199.26,196.54c-.17,0-.3-9.73-.3-21.73s.13-21.74.3-21.74.3,9.73.3,21.74S199.42,196.54,199.26,196.54Z"/><path class="cls-3" d="M209.9,168.17c0,.17-5.05.31-11.28.31s-11.28-.14-11.28-.31a108.14,108.14,0,0,1,11.28-.3A108.14,108.14,0,0,1,209.9,168.17Z"/><path class="cls-3" d="M210,183.72c0,.17-5.09.3-11.37.3s-11.37-.13-11.37-.3,5.09-.3,11.37-.3S210,183.55,210,183.72Z"/><rect class="cls-2" x="187.34" y="209.85" width="22.56" height="43.47"/><path class="cls-3" d="M199.26,253.32c-.17,0-.3-9.74-.3-21.74s.13-21.73.3-21.73.3,9.73.3,21.73S199.42,253.32,199.26,253.32Z"/><path class="cls-3" d="M209.9,225c0,.17-5.05.3-11.28.3s-11.28-.13-11.28-.3,5-.3,11.28-.3S209.9,224.78,209.9,225Z"/><path class="cls-3" d="M210,240.5a109.87,109.87,0,0,1-11.37.3,109.87,109.87,0,0,1-11.37-.3c0-.17,5.09-.31,11.37-.31S210,240.33,210,240.5Z"/><rect class="cls-2" x="187.34" y="266.63" width="22.56" height="43.47"/><path class="cls-3" d="M199.26,310.09c-.17,0-.3-9.73-.3-21.73s.13-21.73.3-21.73.3,9.72.3,21.73S199.42,310.09,199.26,310.09Z"/><path class="cls-3" d="M209.9,281.73a108.14,108.14,0,0,1-11.28.3,108.14,108.14,0,0,1-11.28-.3c0-.17,5-.3,11.28-.3S209.9,281.56,209.9,281.73Z"/><path class="cls-3" d="M210,297.27c0,.17-5.09.3-11.37.3s-11.37-.13-11.37-.3a109.87,109.87,0,0,1,11.37-.3A109.87,109.87,0,0,1,210,297.27Z"/><rect class="cls-3" x="225.21" y="74.3" width="54.07" height="313.84"/><rect class="cls-2" x="242.01" y="96.3" width="22.56" height="43.47"/><path class="cls-3" d="M253.92,139.76c-.17,0-.3-9.73-.3-21.73s.13-21.73.3-21.73.3,9.73.3,21.73S254.09,139.76,253.92,139.76Z"/><path class="cls-3" d="M264.56,111.4a108.14,108.14,0,0,1-11.28.3,107.86,107.86,0,0,1-11.27-.3c0-.17,5-.3,11.27-.3S264.56,111.23,264.56,111.4Z"/><path class="cls-3" d="M264.68,126.94c0,.17-5.09.3-11.37.3s-11.37-.13-11.37-.3a109.87,109.87,0,0,1,11.37-.3A109.87,109.87,0,0,1,264.68,126.94Z"/><rect class="cls-2" x="242.01" y="153.54" width="22.56" height="43.47"/><path class="cls-3" d="M253.92,197c-.17,0-.3-9.74-.3-21.74s.13-21.73.3-21.73.3,9.73.3,21.73S254.09,197,253.92,197Z"/><path class="cls-3" d="M264.56,168.64c0,.17-5.05.3-11.28.3s-11.27-.13-11.27-.3,5-.3,11.27-.3S264.56,168.47,264.56,168.64Z"/><path class="cls-3" d="M264.68,184.18c0,.17-5.09.31-11.37.31s-11.37-.14-11.37-.31a109.87,109.87,0,0,1,11.37-.3A109.87,109.87,0,0,1,264.68,184.18Z"/><rect class="cls-2" x="242.01" y="210.78" width="22.56" height="43.47"/><path class="cls-3" d="M253.92,254.25c-.17,0-.3-9.73-.3-21.73s.13-21.74.3-21.74.3,9.73.3,21.74S254.09,254.25,253.92,254.25Z"/><path class="cls-3" d="M264.56,225.88c0,.17-5.05.3-11.28.3s-11.27-.13-11.27-.3a107.86,107.86,0,0,1,11.27-.3A108.14,108.14,0,0,1,264.56,225.88Z"/><path class="cls-3" d="M264.68,241.43a109.87,109.87,0,0,1-11.37.3,109.87,109.87,0,0,1-11.37-.3c0-.17,5.09-.3,11.37-.3S264.68,241.26,264.68,241.43Z"/><rect class="cls-2" x="242.01" y="268.02" width="22.56" height="43.47"/><path class="cls-3" d="M253.92,311.49c-.17,0-.3-9.73-.3-21.73s.13-21.74.3-21.74.3,9.73.3,21.74S254.09,311.49,253.92,311.49Z"/><path class="cls-3" d="M264.56,283.12c0,.17-5.05.31-11.28.31s-11.27-.14-11.27-.31a107.86,107.86,0,0,1,11.27-.3A108.14,108.14,0,0,1,264.56,283.12Z"/><path class="cls-3" d="M264.68,298.67c0,.17-5.09.3-11.37.3s-11.37-.13-11.37-.3,5.09-.3,11.37-.3S264.68,298.5,264.68,298.67Z"/><rect class="cls-2" x="187.34" y="323.4" width="22.56" height="43.47"/><path class="cls-3" d="M199.26,366.87c-.17,0-.3-9.73-.3-21.73s.13-21.74.3-21.74.3,9.73.3,21.74S199.42,366.87,199.26,366.87Z"/><path class="cls-3" d="M209.9,338.5c0,.17-5.05.3-11.28.3s-11.28-.13-11.28-.3a108.14,108.14,0,0,1,11.28-.3A108.14,108.14,0,0,1,209.9,338.5Z"/><path class="cls-3" d="M210,354.05a109.87,109.87,0,0,1-11.37.3,109.87,109.87,0,0,1-11.37-.3c0-.17,5.09-.3,11.37-.3S210,353.88,210,354.05Z"/><rect class="cls-2" x="242.01" y="325.27" width="22.56" height="43.47"/><path class="cls-3" d="M253.92,368.73c-.17,0-.3-9.73-.3-21.73s.13-21.73.3-21.73.3,9.72.3,21.73S254.09,368.73,253.92,368.73Z"/><path class="cls-3" d="M264.56,340.37a108.14,108.14,0,0,1-11.28.3,107.86,107.86,0,0,1-11.27-.3c0-.17,5-.3,11.27-.3S264.56,340.2,264.56,340.37Z"/><path class="cls-3" d="M264.68,355.91c0,.17-5.09.3-11.37.3s-11.37-.13-11.37-.3a109.87,109.87,0,0,1,11.37-.3A109.87,109.87,0,0,1,264.68,355.91Z"/><rect class="cls-1" x="498.56" y="73.39" width="74.21" height="313.84"/><rect class="cls-2" x="512.39" y="95.39" width="22.56" height="43.47"/><path class="cls-3" d="M524.31,138.86c-.17,0-.3-9.74-.3-21.74s.13-21.73.3-21.73.3,9.73.3,21.73S524.47,138.86,524.31,138.86Z"/><path class="cls-3" d="M535,110.49c0,.17-5.05.3-11.28.3s-11.28-.13-11.28-.3,5.05-.3,11.28-.3S535,110.32,535,110.49Z"/><path class="cls-3" d="M535.07,126a109.87,109.87,0,0,1-11.37.3,109.87,109.87,0,0,1-11.37-.3c0-.17,5.09-.31,11.37-.31S535.07,125.87,535.07,126Z"/><rect class="cls-2" x="512.39" y="152.17" width="22.56" height="43.47"/><path class="cls-3" d="M524.31,195.63c-.17,0-.3-9.73-.3-21.73s.13-21.73.3-21.73.3,9.72.3,21.73S524.47,195.63,524.31,195.63Z"/><path class="cls-3" d="M535,167.27a108.14,108.14,0,0,1-11.28.3,108.14,108.14,0,0,1-11.28-.3c0-.17,5.05-.31,11.28-.31S535,167.1,535,167.27Z"/><path class="cls-3" d="M535.07,182.81c0,.17-5.09.3-11.37.3s-11.37-.13-11.37-.3,5.09-.3,11.37-.3S535.07,182.64,535.07,182.81Z"/><rect class="cls-2" x="512.39" y="208.94" width="22.56" height="43.47"/><path class="cls-3" d="M524.31,252.41c-.17,0-.3-9.73-.3-21.73s.13-21.74.3-21.74.3,9.73.3,21.74S524.47,252.41,524.31,252.41Z"/><path class="cls-3" d="M535,224c0,.17-5.05.3-11.28.3s-11.28-.13-11.28-.3a108.14,108.14,0,0,1,11.28-.3A108.14,108.14,0,0,1,535,224Z"/><path class="cls-3" d="M535.07,239.59a109.87,109.87,0,0,1-11.37.3,109.87,109.87,0,0,1-11.37-.3c0-.17,5.09-.3,11.37-.3S535.07,239.42,535.07,239.59Z"/><rect class="cls-2" x="512.39" y="265.72" width="22.56" height="43.47"/><path class="cls-3" d="M524.31,309.18c-.17,0-.3-9.73-.3-21.73s.13-21.73.3-21.73.3,9.73.3,21.73S524.47,309.18,524.31,309.18Z"/><path class="cls-3" d="M535,280.82c0,.17-5.05.3-11.28.3s-11.28-.13-11.28-.3,5.05-.3,11.28-.3S535,280.65,535,280.82Z"/><path class="cls-3" d="M535.07,296.36c0,.17-5.09.31-11.37.31s-11.37-.14-11.37-.31a109.87,109.87,0,0,1,11.37-.3A109.87,109.87,0,0,1,535.07,296.36Z"/><rect class="cls-3" x="550.26" y="73.39" width="54.07" height="313.84"/><rect class="cls-2" x="567.05" y="95.39" width="22.56" height="43.47"/><path class="cls-3" d="M579,138.86c-.17,0-.3-9.74-.3-21.74s.13-21.73.3-21.73.3,9.73.3,21.73S579.14,138.86,579,138.86Z"/><path class="cls-3" d="M589.61,110.49c0,.17-5.05.3-11.28.3s-11.28-.13-11.28-.3,5.05-.3,11.28-.3S589.61,110.32,589.61,110.49Z"/><path class="cls-3" d="M589.73,126A215.61,215.61,0,0,1,567,126c0-.17,5.09-.31,11.37-.31S589.73,125.87,589.73,126Z"/><rect class="cls-2" x="567.05" y="152.63" width="22.56" height="43.47"/><path class="cls-3" d="M579,196.1c-.17,0-.3-9.73-.3-21.73s.13-21.74.3-21.74.3,9.73.3,21.74S579.14,196.1,579,196.1Z"/><path class="cls-3" d="M589.61,167.73c0,.17-5.05.3-11.28.3s-11.28-.13-11.28-.3a212.21,212.21,0,0,1,22.56,0Z"/><path class="cls-3" d="M589.73,183.28a215.61,215.61,0,0,1-22.74,0c0-.17,5.09-.3,11.37-.3S589.73,183.11,589.73,183.28Z"/><rect class="cls-2" x="567.05" y="209.87" width="22.56" height="43.47"/><path class="cls-3" d="M579,253.34c-.17,0-.3-9.73-.3-21.73s.13-21.74.3-21.74.3,9.73.3,21.74S579.14,253.34,579,253.34Z"/><path class="cls-3" d="M589.61,225c0,.17-5.05.31-11.28.31s-11.28-.14-11.28-.31a212.21,212.21,0,0,1,22.56,0Z"/><path class="cls-3" d="M589.73,240.52c0,.17-5.09.3-11.37.3s-11.37-.13-11.37-.3,5.09-.3,11.37-.3S589.73,240.35,589.73,240.52Z"/><rect class="cls-2" x="567.05" y="267.12" width="22.56" height="43.47"/><path class="cls-3" d="M579,310.58c-.17,0-.3-9.73-.3-21.73s.13-21.73.3-21.73.3,9.72.3,21.73S579.14,310.58,579,310.58Z"/><path class="cls-3" d="M589.61,282.22a212.21,212.21,0,0,1-22.56,0c0-.17,5.05-.3,11.28-.3S589.61,282.05,589.61,282.22Z"/><path class="cls-3" d="M589.73,297.76c0,.17-5.09.3-11.37.3s-11.37-.13-11.37-.3,5.09-.3,11.37-.3S589.73,297.59,589.73,297.76Z"/><rect class="cls-2" x="512.39" y="322.49" width="22.56" height="43.47"/><path class="cls-3" d="M524.31,366c-.17,0-.3-9.73-.3-21.73s.13-21.74.3-21.74.3,9.73.3,21.74S524.47,366,524.31,366Z"/><path class="cls-3" d="M535,337.6a108.14,108.14,0,0,1-11.28.3,108.14,108.14,0,0,1-11.28-.3c0-.17,5.05-.31,11.28-.31S535,337.43,535,337.6Z"/><path class="cls-3" d="M535.07,353.14c0,.17-5.09.3-11.37.3s-11.37-.13-11.37-.3,5.09-.3,11.37-.3S535.07,353,535.07,353.14Z"/><rect class="cls-2" x="567.05" y="324.36" width="22.56" height="43.47"/><path class="cls-3" d="M579,367.82c-.17,0-.3-9.73-.3-21.73s.13-21.73.3-21.73.3,9.73.3,21.73S579.14,367.82,579,367.82Z"/><path class="cls-3" d="M589.61,339.46c0,.17-5.05.3-11.28.3s-11.28-.13-11.28-.3,5.05-.3,11.28-.3S589.61,339.29,589.61,339.46Z"/><path class="cls-3" d="M589.73,355c0,.17-5.09.31-11.37.31S567,355.17,567,355a215.61,215.61,0,0,1,22.74,0Z"/><rect class="cls-1" x="273.4" width="91.69" height="387.76"/><rect class="cls-2" x="290.49" y="27.18" width="27.87" height="53.71"/><path class="cls-3" d="M305.21,80.89c-.21,0-.37-12-.37-26.86s.16-26.85.37-26.85.37,12,.37,26.85S305.41,80.89,305.21,80.89Z"/><path class="cls-3" d="M318.36,45.84c0,.2-6.24.37-13.94.37s-13.93-.17-13.93-.37,6.24-.37,13.93-.37S318.36,45.63,318.36,45.84Z"/><path class="cls-3" d="M318.5,65.05c0,.2-6.29.37-14,.37s-14-.17-14-.37,6.28-.38,14-.38S318.5,64.84,318.5,65.05Z"/><rect class="cls-2" x="290.49" y="97.33" width="27.87" height="53.71"/><path class="cls-3" d="M305.21,151c-.21,0-.37-12-.37-26.85s.16-26.86.37-26.86.37,12,.37,26.86S305.41,151,305.21,151Z"/><path class="cls-3" d="M318.36,116c0,.21-6.24.37-13.94.37s-13.93-.16-13.93-.37,6.24-.37,13.93-.37S318.36,115.78,318.36,116Z"/><path class="cls-3" d="M318.5,135.2c0,.2-6.29.37-14,.37s-14-.17-14-.37,6.28-.38,14-.38S318.5,135,318.5,135.2Z"/><rect class="cls-2" x="290.49" y="167.48" width="27.87" height="53.71"/><path class="cls-3" d="M305.21,221.19c-.21,0-.37-12-.37-26.85s.16-26.86.37-26.86.37,12,.37,26.86S305.41,221.19,305.21,221.19Z"/><path class="cls-3" d="M318.36,186.14c0,.21-6.24.37-13.94.37s-13.93-.16-13.93-.37,6.24-.37,13.93-.37S318.36,185.93,318.36,186.14Z"/><path class="cls-3" d="M318.5,205.35c0,.2-6.29.37-14,.37s-14-.17-14-.37,6.28-.38,14-.38S318.5,205.14,318.5,205.35Z"/><rect class="cls-2" x="290.49" y="237.63" width="27.87" height="53.71"/><path class="cls-3" d="M305.21,291.34c-.21,0-.37-12-.37-26.85s.16-26.86.37-26.86.37,12,.37,26.86S305.41,291.34,305.21,291.34Z"/><path class="cls-3" d="M318.36,256.29c0,.21-6.24.37-13.94.37s-13.93-.16-13.93-.37,6.24-.37,13.93-.37S318.36,256.09,318.36,256.29Z"/><path class="cls-3" d="M318.5,275.5c0,.2-6.29.37-14,.37s-14-.17-14-.37,6.28-.37,14-.37S318.5,275.29,318.5,275.5Z"/><rect class="cls-3" x="337.28" width="66.81" height="387.76"/><rect class="cls-2" x="358.02" y="27.18" width="27.87" height="53.71"/><path class="cls-3" d="M372.74,80.89c-.2,0-.37-12-.37-26.86s.17-26.85.37-26.85.38,12,.38,26.85S373,80.89,372.74,80.89Z"/><path class="cls-3" d="M385.89,45.84c0,.2-6.24.37-13.93.37S358,46,358,45.84s6.24-.37,13.94-.37S385.89,45.63,385.89,45.84Z"/><path class="cls-3" d="M386,65.05c0,.2-6.29.37-14.05.37s-14.05-.17-14.05-.37,6.29-.38,14.05-.38S386,64.84,386,65.05Z"/><rect class="cls-2" x="358.02" y="97.91" width="27.87" height="53.71"/><path class="cls-3" d="M372.74,151.61c-.2,0-.37-12-.37-26.85s.17-26.85.37-26.85.38,12,.38,26.85S373,151.61,372.74,151.61Z"/><path class="cls-3" d="M385.89,116.57c0,.2-6.24.37-13.93.37s-13.94-.17-13.94-.37,6.24-.38,13.94-.38S385.89,116.36,385.89,116.57Z"/><path class="cls-3" d="M386,135.77c0,.21-6.29.37-14.05.37s-14.05-.16-14.05-.37,6.29-.37,14.05-.37S386,135.57,386,135.77Z"/><rect class="cls-2" x="358.02" y="168.63" width="27.87" height="53.71"/><path class="cls-3" d="M372.74,222.34c-.2,0-.37-12-.37-26.85s.17-26.86.37-26.86.38,12,.38,26.86S373,222.34,372.74,222.34Z"/><path class="cls-3" d="M385.89,187.29c0,.21-6.24.37-13.93.37S358,187.5,358,187.29s6.24-.37,13.94-.37S385.89,187.09,385.89,187.29Z"/><path class="cls-3" d="M386,206.5c0,.2-6.29.37-14.05.37s-14.05-.17-14.05-.37,6.29-.37,14.05-.37S386,206.29,386,206.5Z"/><rect class="cls-2" x="358.02" y="239.36" width="27.87" height="53.71"/><path class="cls-3" d="M372.74,293.07c-.2,0-.37-12-.37-26.86s.17-26.85.37-26.85.38,12,.38,26.85S373,293.07,372.74,293.07Z"/><path class="cls-3" d="M385.89,258c0,.2-6.24.37-13.93.37S358,258.22,358,258s6.24-.37,13.94-.37S385.89,257.81,385.89,258Z"/><path class="cls-3" d="M386,277.22c0,.21-6.29.38-14.05.38s-14.05-.17-14.05-.38,6.29-.37,14.05-.37S386,277,386,277.22Z"/><rect class="cls-2" x="290.49" y="307.78" width="27.87" height="53.71"/><path class="cls-3" d="M305.21,361.49c-.21,0-.37-12-.37-26.85s.16-26.86.37-26.86.37,12,.37,26.86S305.41,361.49,305.21,361.49Z"/><path class="cls-3" d="M318.36,326.44c0,.21-6.24.37-13.94.37s-13.93-.16-13.93-.37,6.24-.37,13.93-.37S318.36,326.24,318.36,326.44Z"/><path class="cls-3" d="M318.5,345.65c0,.2-6.29.37-14,.37s-14-.17-14-.37,6.28-.37,14-.37S318.5,345.44,318.5,345.65Z"/><rect class="cls-2" x="358.02" y="310.09" width="27.87" height="53.71"/><path class="cls-3" d="M372.74,363.79c-.2,0-.37-12-.37-26.85s.17-26.85.37-26.85.38,12,.38,26.85S373,363.79,372.74,363.79Z"/><path class="cls-3" d="M385.89,328.74c0,.21-6.24.38-13.93.38S358,329,358,328.74s6.24-.37,13.94-.37S385.89,328.54,385.89,328.74Z"/><path class="cls-3" d="M386,348c0,.21-6.29.37-14.05.37s-14.05-.16-14.05-.37,6.29-.37,14.05-.37S386,347.75,386,348Z"/><path class="cls-1" d="M533.55,32.38c.51-3.71-4.72-6.76-8.65-7.07-1.88-.16-3.82.13-5.6-.49-3.85-1.34-5.39-6.31-9.14-7.9-2.81-1.18-6-.13-8.76,1.24s-5.41,3.1-8.46,3.29c-2.64.17-5.51-.81-7.83.48-1.72,1-2.62,2.95-4.21,4.13a10.11,10.11,0,0,1-5.52,1.49,15.51,15.51,0,0,0-5.68.93c-1.76.8-3.21,2.66-2.85,4.56Z"/><path class="cls-1" d="M99.51,61.69c.51-3.71-4.72-6.76-8.65-7.08-1.88-.15-3.83.14-5.6-.48-3.85-1.34-5.39-6.31-9.14-7.9-2.81-1.18-6-.13-8.77,1.24s-5.41,3.1-8.45,3.29c-2.64.17-5.51-.81-7.83.48-1.72,1-2.63,2.95-4.22,4.12a10.06,10.06,0,0,1-5.51,1.5,15.27,15.27,0,0,0-5.68.93c-1.76.8-3.21,2.66-2.85,4.56Z"/><path class="cls-4" d="M207.2,24.78c.79-5.75-7.33-10.48-13.44-11-2.91-.23-5.93.21-8.69-.75C179.1,11,176.72,3.26,170.89.8c-4.36-1.84-9.38-.2-13.6,1.92s-8.4,4.8-13.12,5.1c-4.1.27-8.56-1.25-12.15.75-2.68,1.49-4.08,4.58-6.55,6.4s-5.56,2.15-8.55,2.32-6.1.19-8.83,1.44-5,4.13-4.41,7.08Z"/></g><g id="Plant"><path class="cls-5" d="M416.1,362.62a4.79,4.79,0,0,1,2.49,2.82,8.38,8.38,0,0,1,.33,3.82,15,15,0,0,1-3.2,7c-2.09-1.82-2.57-5-2.71-6.62-.23-2.58.93-7.36,3.09-7"/><path class="cls-5" d="M418.14,380.31a4.08,4.08,0,0,1,1.33-3.89,5.42,5.42,0,0,1,4-1.26,2.31,2.31,0,0,1,1.76.79,1.75,1.75,0,0,1,0,1.78A3.55,3.55,0,0,1,424,379c-1.8,1.14-3.76,1.9-5.81,1.29"/><path class="cls-6" d="M415.47,387.91a2.75,2.75,0,0,1,.07-.51c.07-.36.15-.82.25-1.38a14.52,14.52,0,0,1,1.42-4.39,8.8,8.8,0,0,1,3.16-3.35,5.86,5.86,0,0,1,1.29-.57,2.1,2.1,0,0,1,.37-.1l.13,0a9.5,9.5,0,0,0-1.72.8,9,9,0,0,0-3.07,3.33,15.55,15.55,0,0,0-1.45,4.33c-.13.58-.23,1-.31,1.37A3.24,3.24,0,0,1,415.47,387.91Z"/><path class="cls-6" d="M415.55,366.34s0,.08,0,.23,0,.37,0,.64c0,.55.06,1.35.09,2.35.07,2,.12,4.73.11,7.76s-.09,5.77-.17,7.76c0,1-.08,1.8-.12,2.35,0,.26,0,.47,0,.64a.68.68,0,0,1,0,.22.77.77,0,0,1,0-.22c0-.17,0-.38,0-.64,0-.58,0-1.38.06-2.35.05-2,.1-4.73.12-7.76s0-5.78-.05-7.76c0-1,0-1.77,0-2.35v-.64A.82.82,0,0,1,415.55,366.34Z"/><path class="cls-5" d="M414.53,381.82a9.56,9.56,0,0,0-5.23-7,2,2,0,0,0-2.18,0,2,2,0,0,0-.17,2.17,8.19,8.19,0,0,0,7.53,5.08"/><path class="cls-6" d="M409.64,377.15l.44.19a5.28,5.28,0,0,1,.5.27,7.15,7.15,0,0,1,.64.4,7.75,7.75,0,0,1,.73.55,8.13,8.13,0,0,1,.77.7,10.51,10.51,0,0,1,1.48,1.9,10.65,10.65,0,0,1,1,2.19,9.26,9.26,0,0,1,.24,1,8.48,8.48,0,0,1,.13.9,6.87,6.87,0,0,1,0,.76,4.88,4.88,0,0,1,0,.56,3.23,3.23,0,0,1-.06.48s0-.69-.09-1.78c0-.28-.07-.58-.14-.89s-.16-.65-.26-1a10.18,10.18,0,0,0-2.41-4,9.79,9.79,0,0,0-.75-.71c-.24-.22-.49-.39-.71-.56C410.25,377.47,409.62,377.18,409.64,377.15Z"/></g><g id="Car"><rect class="cls-5" x="291.4" y="163.42" width="346.96" height="46.9" transform="translate(927.98 378.13) rotate(-179.46)"/><g class="cls-7"><rect x="291.4" y="163.42" width="346.96" height="46.9" transform="translate(927.98 378.13) rotate(-179.46)"/></g><path class="cls-8" d="M277.06,157.69a28.78,28.78,0,0,1,23.83-18.45l78-8.42,28.62-20a116.65,116.65,0,0,1,67.93-21l152.14,1.44h0l32.7.31a3.19,3.19,0,0,1,1.2,6.14l-13.38,5.57a24.77,24.77,0,0,1,1.31,2.63l7.37,17.52a34.13,34.13,0,0,1,2.65,13.49,7.62,7.62,0,0,1,7.55,7.69l-.29,30.38,7.86,3.6a10.54,10.54,0,0,1,6.15,9.68l-.07,7.88a12.88,12.88,0,0,1-10.47,12.53l-41.87,8,0-3.78a40.34,40.34,0,0,0-40-40.72h0a40.34,40.34,0,0,0-40.72,40l0,3.78-167.9-1.59,0-3.78a40.34,40.34,0,0,0-40-40.72h0a40.34,40.34,0,0,0-40.72,40l0,3.77-20.62-.19a10.08,10.08,0,0,1-10-10.17l.22-23.05Z"/><path class="cls-9" d="M649.38,105.84l7.37,17.52a34.13,34.13,0,0,1,2.65,13.49l-10.39-.1-9.88-29.81,8.94-3.73A24.77,24.77,0,0,1,649.38,105.84Z"/><path class="cls-5" d="M277.06,157.69a29.23,29.23,0,0,1,2.41-4.89l11,.11L280.3,176l-11.69,6.6,0-2.57Z"/><g class="cls-10"><path d="M277.06,157.69a29.23,29.23,0,0,1,2.41-4.89l11,.11L280.3,176l-11.69,6.6,0-2.57Z"/></g><path class="cls-1" d="M666,164.65l-5.73-.05a16.11,16.11,0,0,1-9.12-2.95l-9.46-6.7A6.22,6.22,0,0,1,639,149.8h0a6.22,6.22,0,0,1,6.28-6.17l20.83.2a.92.92,0,0,1,.91.92l-.16,19A.92.92,0,0,1,666,164.65Z"/><path class="cls-5" d="M268,181.57l3.34-1.89-2,0a1.21,1.21,0,0,1,0-2.41l6.2.06,2.09-1.18-7.06-.07a1.21,1.21,0,1,1,0-2.41l9.39.09.53-1.2-8.51-.08a1.21,1.21,0,0,1,0-2.41l9.55.09.53-1.2-8.88-.08a1.21,1.21,0,0,1,0-2.41l9.92.1.53-1.2-9.05-.09a1.21,1.21,0,0,1,0-2.41l10.09.1.53-1.2-9.23-.09a1.2,1.2,0,0,1,0-2.4l10.27.09.53-1.2-9.5-.09a1.2,1.2,0,0,1,0-2.4l10.54.1.73-1.67-9.21-.08a1.21,1.21,0,0,1,0-2.41l11,.11a1.2,1.2,0,0,1,1.09,1.69L288.23,161h0l-1.59,3.6h0l-1.59,3.6h0l-1.59,3.59h0l-1.59,3.59h0l-.47,1.06a1.18,1.18,0,0,1-.51.57l-11.69,6.6a1.2,1.2,0,0,1-.6.16,1.22,1.22,0,0,1-1-.62A1.2,1.2,0,0,1,268,181.57Z"/><g class="cls-10"><path class="cls-2" d="M268,181.57l3.34-1.89-2,0a1.21,1.21,0,0,1,0-2.41l6.2.06,2.09-1.18-7.06-.07a1.21,1.21,0,1,1,0-2.41l9.39.09.53-1.2-8.51-.08a1.21,1.21,0,0,1,0-2.41l9.55.09.53-1.2-8.88-.08a1.21,1.21,0,0,1,0-2.41l9.92.1.53-1.2-9.05-.09a1.21,1.21,0,0,1,0-2.41l10.09.1.53-1.2-9.23-.09a1.2,1.2,0,0,1,0-2.4l10.27.09.53-1.2-9.5-.09a1.2,1.2,0,0,1,0-2.4l10.54.1.73-1.67-9.21-.08a1.21,1.21,0,0,1,0-2.41l11,.11a1.2,1.2,0,0,1,1.09,1.69L288.23,161h0l-1.59,3.6h0l-1.59,3.6h0l-1.59,3.59h0l-1.59,3.59h0l-.47,1.06a1.18,1.18,0,0,1-.51.57l-11.69,6.6a1.2,1.2,0,0,1-.6.16,1.22,1.22,0,0,1-1-.62A1.2,1.2,0,0,1,268,181.57Z"/></g><circle class="cls-6" cx="587.04" cy="214.07" r="35.16" transform="translate(-14.48 44.9) rotate(-4.33)"/><path class="cls-6" d="M622.19,213.81v.09a35.16,35.16,0,1,1-70.31.35v-.09Z"/><path class="cls-11" d="M611.72,214a24.69,24.69,0,1,1-24.81-24.56A24.69,24.69,0,0,1,611.72,214Z"/><path class="cls-3" d="M586.91,189.39A24.68,24.68,0,0,1,611.72,214l-49.37.25A24.69,24.69,0,0,1,586.91,189.39Z"/><path class="cls-6" d="M602.07,214A15,15,0,1,1,587,199,15,15,0,0,1,602.07,214Z"/><path class="cls-6" d="M374.36,211.55a35.16,35.16,0,1,1-35.33-35A35.17,35.17,0,0,1,374.36,211.55Z"/><path class="cls-6" d="M374.35,211.46s0,.06,0,.09a35.16,35.16,0,1,1-70.32.35s0-.06,0-.09Z"/><path class="cls-11" d="M363.88,211.61A24.68,24.68,0,1,1,339.08,187,24.67,24.67,0,0,1,363.88,211.61Z"/><path class="cls-3" d="M339.08,187a24.68,24.68,0,0,1,24.8,24.57l-49.36.24A24.69,24.69,0,0,1,339.08,187Z"/><path class="cls-6" d="M354.24,211.65a15,15,0,1,1-15.11-15A15,15,0,0,1,354.24,211.65Z"/><path class="cls-9" d="M378.86,130.82l28.62-20a116.91,116.91,0,0,1,26.64-13.88l9.37.09-57.24,37.26Z"/><path class="cls-11" d="M294.77,150.73,281,150.6a33.51,33.51,0,0,1,7.18-6.91C291.3,142.7,295.12,146.7,294.77,150.73Z"/><path class="cls-6" d="M576.55,137.15l-182.89-1.73,52.56-35.54a22.27,22.27,0,0,1,13.23-4.2l113.39,1.07s40.73-.61,49.56,11.76Z"/><path class="cls-9" d="M575,137.22,568.54,99l21.27.2A68.8,68.8,0,0,1,613.69,104l6.39,2.89a6.11,6.11,0,0,1,2.42,9.53l-7.56,9.21a32,32,0,0,1-23.19,11.71c-.66,0-1.32.05-2,.05Zm-84.35-.8L491,98.25l62.66.59,6.44,38.24Zm-89.57-.85,47.3-34.66a15.38,15.38,0,0,1,9.25-3l21.67.2-7.69,38.1Z"/><path class="cls-6" d="M478.43,205.75a1.23,1.23,0,0,0,0-.18c0-.14,0-.31,0-.53,0-.49,0-1.17,0-2,0-1.79,0-4.35,0-7.5,0-6.35,0-15.08-.06-24.73,0-4.83-.05-9.43-.07-13.62,0-2.09,0-4.08,0-5.94a32.37,32.37,0,0,1,.23-5.15,35.93,35.93,0,0,1,1.76-7.26c.3-.83.55-1.47.73-1.9l.2-.49c.05-.11.07-.16.06-.17l-.09.16c-.06.11-.13.27-.23.48-.2.42-.47,1.05-.79,1.88a34.47,34.47,0,0,0-1.87,7.27,32.7,32.7,0,0,0-.26,5.18c0,1.86,0,3.85,0,5.94,0,4.19,0,8.79,0,13.62.06,9.65.11,18.39.15,24.74,0,3.14.07,5.7.09,7.49q0,1.31,0,2c0,.22,0,.39,0,.53S478.42,205.75,478.43,205.75Z"/><path class="cls-6" d="M399.69,138.22s-.06,0-.15.09l-.41.32-.3.23-.32.34a6.94,6.94,0,0,0-.75.87,23.89,23.89,0,0,0-3.23,6.52q-.76,2.19-1.41,4.85c-.22.88-.41,1.79-.59,2.74a13.9,13.9,0,0,0-.25,3c0,4.07,0,8.55.12,13.24.15,9.39.36,17.89.52,24,.09,3.06.17,5.54.22,7.29,0,.84.06,1.5.07,2l0,.51c0,.12,0,.17,0,.17s0,0,0-.17v-.52c0-.47,0-1.14,0-2,0-1.74-.07-4.23-.11-7.28-.11-6.18-.27-14.67-.44-24.05-.07-4.69-.15-9.16-.14-13.22a13.48,13.48,0,0,1,.24-2.94c.17-.94.36-1.86.57-2.73.41-1.76.87-3.38,1.36-4.83a24.57,24.57,0,0,1,3.12-6.53A11,11,0,0,1,399.69,138.22Z"/><path class="cls-8" d="M393.66,136.92h0a6.3,6.3,0,0,1,3.26-5.45l8.28-4.54a15.59,15.59,0,0,1,7.7-1.94h0a15.77,15.77,0,0,1,4.89.82,8.93,8.93,0,0,1,5.92,8.26h0a9.07,9.07,0,0,1-9.15,9.33l-14.68-.14A6.28,6.28,0,0,1,393.66,136.92Z"/><path class="cls-6" d="M393.66,136.92s0,.28.09.8a6.24,6.24,0,0,0,.7,2.15,6.5,6.5,0,0,0,2.5,2.51,6.37,6.37,0,0,0,2.12.69,22.88,22.88,0,0,0,2.53.07l12.56.08a9.6,9.6,0,0,0,3.5-.54,9,9,0,0,0,5.25-5.11,9.06,9.06,0,0,0,.59-3.88,8.94,8.94,0,0,0-3.65-6.61,9.54,9.54,0,0,0-3.39-1.46,15.48,15.48,0,0,0-10,.86c-.95.42-1.82.94-2.68,1.4l-2.47,1.34-4.24,2.3a6.25,6.25,0,0,0-2.55,2.46,6.52,6.52,0,0,0-.75,2.14c-.08.52-.08.8-.1.8a4.51,4.51,0,0,1,0-.81,6.13,6.13,0,0,1,.7-2.2,6.45,6.45,0,0,1,2.57-2.58l4.22-2.35,2.45-1.36c.86-.46,1.73-1,2.7-1.43a15.85,15.85,0,0,1,6.59-1.38,16.33,16.33,0,0,1,3.64.45,9.79,9.79,0,0,1,3.52,1.52,9.32,9.32,0,0,1,3.19,10.93,9.23,9.23,0,0,1-5.48,5.31,9.72,9.72,0,0,1-3.63.55l-12.56-.16a23.62,23.62,0,0,1-2.56-.1,6.3,6.3,0,0,1-4.71-3.37,6.14,6.14,0,0,1-.65-2.21A5,5,0,0,1,393.66,136.92Z"/><path class="cls-2" d="M416.48,128.49s-.21-.29-.7-.69a4.89,4.89,0,0,0-2.42-1,10.46,10.46,0,0,0-3.91.39,29.19,29.19,0,0,0-4.64,1.53,30.54,30.54,0,0,0-7.57,4.6c-1.76,1.45-2.69,2.53-2.74,2.48a4.41,4.41,0,0,1,.62-.78,26.24,26.24,0,0,1,1.95-1.9,27.7,27.7,0,0,1,7.59-4.75,27,27,0,0,1,4.71-1.52,10.11,10.11,0,0,1,4-.31,4.78,4.78,0,0,1,2.47,1.15,3.87,3.87,0,0,1,.49.57C416.46,128.4,416.49,128.48,416.48,128.49Z"/><path class="cls-6" d="M535.82,214.66s0-.14,0-.43,0-.72,0-1.27-.09-1.25-.08-2.07.05-1.76.07-2.82.22-2.23.34-3.51c.06-.64.21-1.3.33-2s.22-1.42.4-2.15a54.75,54.75,0,0,1,3.24-9.69,52.79,52.79,0,0,1,6.43-10.57,50.45,50.45,0,0,1,10.22-9.82,47.73,47.73,0,0,1,14-6.91,55.68,55.68,0,0,1,16.65-2.36A57.94,57.94,0,0,1,604,163.85a52.45,52.45,0,0,1,14,7,57.18,57.18,0,0,1,10.48,9.57,62,62,0,0,1,7.06,10.18,67.2,67.2,0,0,1,4.16,9.35c.26.7.45,1.41.67,2.07s.43,1.31.58,1.94c.3,1.25.62,2.39.84,3.43s.37,2,.52,2.77.21,1.49.29,2.05.13,1,.17,1.26.07.43.07.43,0-.15,0-.43-.08-.72-.14-1.27-.13-1.25-.25-2.06-.32-1.73-.5-2.78-.52-2.18-.81-3.44c-.15-.63-.38-1.27-.57-1.95s-.4-1.37-.66-2.08a67.18,67.18,0,0,0-4.13-9.4,61.77,61.77,0,0,0-7.06-10.24,57,57,0,0,0-10.51-9.64,51.89,51.89,0,0,0-14.07-7.08,57.77,57.77,0,0,0-16.68-2.81,56,56,0,0,0-16.74,2.38,47.94,47.94,0,0,0-14.11,7,50.22,50.22,0,0,0-10.26,9.9,52.48,52.48,0,0,0-6.42,10.64,53.89,53.89,0,0,0-3.21,9.75c-.18.73-.27,1.46-.4,2.15s-.25,1.35-.31,2c-.11,1.29-.27,2.46-.31,3.53s0,2,0,2.82.09,1.51.11,2.07.07,1,.09,1.27S535.82,214.66,535.82,214.66Z"/><path class="cls-6" d="M572.28,162.8s.08-.08.19-.24l.46-.72c.39-.63,1-1.55,1.61-2.7a46,46,0,0,0,2.14-4.15,6.5,6.5,0,0,0,.44-1.31,1.73,1.73,0,0,0,0-.75c-.06-.23-.13-.46-.19-.69-.3-.92-.64-1.85-1-2.79-1.48-3.78-2.95-7.13-4-9.56-.54-1.21-1-2.19-1.3-2.86l-.37-.77A1.11,1.11,0,0,0,570,136a1.14,1.14,0,0,0,.09.29c.08.21.19.47.31.79.31.73.72,1.71,1.21,2.9,1,2.45,2.47,5.82,4,9.58.36.95.71,1.87,1,2.77a3,3,0,0,1,.22,1.3,6.93,6.93,0,0,1-.41,1.24c-.69,1.6-1.44,3-2.07,4.16l-1.52,2.75-.41.75A1.39,1.39,0,0,0,572.28,162.8Z"/><path class="cls-6" d="M623,175.06c0,.09,9.84.21,22,.27s22,0,22-.06-9.84-.2-22-.26S623,175,623,175.06Z"/><path class="cls-6" d="M393.26,204.39c0,.09,31.93.46,71.3.84s71.3.6,71.3.51-31.91-.46-71.3-.83S393.26,204.31,393.26,204.39Z"/><path class="cls-6" d="M268.42,203.59c0,.09,4.89.21,10.92.27s10.92,0,10.92-.06-4.89-.2-10.92-.26S268.42,203.51,268.42,203.59Z"/><path class="cls-6" d="M296,146.22h.23l.69-.05,2.63-.18c2.29-.17,5.59-.44,9.67-.81,8.17-.73,19.43-1.9,31.84-3.51s23.59-3.38,31.67-4.76c4-.69,7.31-1.27,9.56-1.7l2.59-.49.67-.14.23-.05-.23,0-.68.11-2.6.43-9.57,1.6c-8.09,1.32-19.28,3-31.69,4.66s-23.65,2.82-31.81,3.61l-9.66.9-2.63.25-.68.07Z"/><path class="cls-6" d="M454.84,151.57s-.17,0-.49-.08a3.46,3.46,0,0,1-1.3-.53,3.33,3.33,0,0,1-1.32-1.74,3.78,3.78,0,0,1-.15-1.37,3.18,3.18,0,0,1,.4-1.47,3.27,3.27,0,0,1,2.87-1.72l4.19.05,9.59.11a3.24,3.24,0,0,1,2.18.87,3.28,3.28,0,0,1,1,2,3.63,3.63,0,0,1-.42,2.19,3.3,3.3,0,0,1-1.6,1.4,5.15,5.15,0,0,1-2.07.23h-2l-3.65,0h-5.28l-1.44,0-.5,0a3.89,3.89,0,0,0,.5,0l1.44,0,5.28.1,3.65.06,2,0c.35,0,.69,0,1.07,0a3.35,3.35,0,0,0,1.11-.24,3.56,3.56,0,0,0,1.76-1.52,3.88,3.88,0,0,0,.46-2.37,3.56,3.56,0,0,0-3.51-3.21l-9.59-.07-4.19,0a3.55,3.55,0,0,0-3.08,1.88,3.65,3.65,0,0,0-.4,1.57,4,4,0,0,0,.19,1.44,3.41,3.41,0,0,0,1.42,1.78,3.31,3.31,0,0,0,1.36.5A1.89,1.89,0,0,0,454.84,151.57Z"/><path class="cls-2" d="M456.09,143.61a45.14,45.14,0,0,0,5.44.22,46.52,46.52,0,0,0,5.44-.12,49.33,49.33,0,0,0-5.44-.21A45.36,45.36,0,0,0,456.09,143.61Z"/><path class="cls-6" d="M545.24,153s-.18,0-.5-.08a3.37,3.37,0,0,1-2.61-2.27,3.57,3.57,0,0,1-.15-1.37,3.36,3.36,0,0,1,.39-1.47,3.29,3.29,0,0,1,2.88-1.71l4.19,0,9.59.1a3.25,3.25,0,0,1,3.2,2.91,3.61,3.61,0,0,1-.42,2.19,3.29,3.29,0,0,1-1.6,1.4,5,5,0,0,1-2.07.23h-12.4l-.5,0a2.42,2.42,0,0,0,.5,0l1.43,0,5.29.1,3.64.06,2,0c.35,0,.69,0,1.07,0a3.94,3.94,0,0,0,1.11-.24,3.65,3.65,0,0,0,1.76-1.52,4,4,0,0,0,.46-2.38,3.56,3.56,0,0,0-3.51-3.2l-9.59-.08-4.19,0a3.54,3.54,0,0,0-3.08,1.87,3.66,3.66,0,0,0-.4,1.58,3.93,3.93,0,0,0,.19,1.43,3.47,3.47,0,0,0,1.41,1.79,3.36,3.36,0,0,0,1.36.49A2,2,0,0,0,545.24,153Z"/><path class="cls-2" d="M546.49,145a49.33,49.33,0,0,0,5.44.21,45.36,45.36,0,0,0,5.44-.11,44.2,44.2,0,0,0-5.44-.21A45.36,45.36,0,0,0,546.49,145Z"/><path class="cls-6" d="M289.62,213.47s0-.14,0-.43,0-.72,0-1.27,0-1.25,0-2.06.14-1.76.22-2.81.32-2.22.49-3.49c.09-.64.27-1.29.41-2s.28-1.4.48-2.12a59.43,59.43,0,0,1,3.49-9.59,55.43,55.43,0,0,1,6.56-10.48,52.27,52.27,0,0,1,10.23-9.78,48.36,48.36,0,0,1,14-7,53.55,53.55,0,0,1,33.15.32A48.19,48.19,0,0,1,372.55,170a51.89,51.89,0,0,1,10,10,55.36,55.36,0,0,1,6.37,10.6,58.63,58.63,0,0,1,3.31,9.65c.19.73.29,1.45.44,2.13s.29,1.34.37,2c.15,1.28.34,2.45.42,3.5s.12,2,.17,2.82,0,1.5,0,2.06V214c0,.29,0,.44,0,.44s0-.15,0-.44,0-.72,0-1.27.05-1.25,0-2.07-.09-1.76-.14-2.82-.26-2.22-.4-3.51c-.07-.64-.24-1.3-.36-2s-.24-1.41-.43-2.14a58.2,58.2,0,0,0-3.28-9.71,55.44,55.44,0,0,0-6.36-10.66,51.8,51.8,0,0,0-10.07-10,48.42,48.42,0,0,0-13.92-7.32,53.69,53.69,0,0,0-33.35-.31,48.5,48.5,0,0,0-14,7.05,52,52,0,0,0-10.26,9.86,55.09,55.09,0,0,0-6.56,10.54,58.32,58.32,0,0,0-3.46,9.64c-.2.73-.32,1.45-.47,2.14s-.31,1.34-.4,2c-.17,1.28-.37,2.45-.46,3.51s-.14,2-.19,2.81,0,1.51,0,2.07,0,1,0,1.27S289.62,213.47,289.62,213.47Z"/><path class="cls-6" d="M557.64,96.61l.28,0,.8,0,3.1,0,11.4.11,37.59.23,20.7.09c6.36,0,12.09.11,16.9-.12a82.8,82.8,0,0,0,11.34-1.19c1.32-.24,2.34-.46,3-.64l.78-.19.27-.08-.27,0-.79.16c-.69.15-1.72.35-3,.58a91,91,0,0,1-11.33,1.09c-4.8.2-10.53.08-16.89,0l-20.7-.11-37.59-.15h-15.3Z"/><path class="cls-11" d="M514.11,112.4c0,.08,6.59,3.71,14.8,8.11s14.91,7.92,15,7.84-6.58-3.71-14.8-8.12S514.15,112.32,514.11,112.4Z"/><path class="cls-11" d="M500.19,109.47a2.55,2.55,0,0,0,.32.21l.95.51,3.48,1.88c2.95,1.57,7,3.77,11.47,6.25s8.46,4.78,11.35,6.45l3.43,2,.94.53a2.78,2.78,0,0,0,.34.17,1.85,1.85,0,0,0-.31-.23l-.9-.57c-.8-.5-2-1.21-3.38-2.07-2.87-1.73-6.86-4.06-11.32-6.54s-8.54-4.65-11.51-6.17c-1.49-.77-2.7-1.38-3.54-1.79l-1-.46A2.06,2.06,0,0,0,500.19,109.47Z"/><path class="cls-11" d="M439.65,114a1.21,1.21,0,0,0,.26.14l.77.37,2.82,1.29c2.39,1.1,5.68,2.63,9.27,4.41s6.81,3.46,9.12,4.69l2.75,1.46.75.39a1.17,1.17,0,0,0,.27.12s-.07-.07-.24-.18l-.72-.44c-.63-.37-1.55-.91-2.7-1.55-2.29-1.28-5.49-3-9.09-4.78s-6.9-3.28-9.31-4.32c-1.21-.53-2.19-.94-2.87-1.21l-.79-.31A1.19,1.19,0,0,0,439.65,114Z"/><path class="cls-11" d="M448.36,113.2a13.45,13.45,0,0,0,1.74.92c1.08.54,2.57,1.31,4.17,2.22s3,1.8,4,2.46a14,14,0,0,0,1.67,1,11.32,11.32,0,0,0-1.55-1.22c-1-.7-2.39-1.63-4-2.55s-3.12-1.65-4.23-2.15A11.08,11.08,0,0,0,448.36,113.2Z"/><path class="cls-11" d="M584.94,114.15c0,.08,4.37,1.9,9.82,4s9.89,3.84,9.92,3.75-4.36-1.89-9.81-4S585,114.07,584.94,114.15Z"/><path class="cls-11" d="M590.64,112.37c0,.09,3.76,1.59,8.46,3.35s8.55,3.14,8.58,3.06-3.76-1.59-8.47-3.35S590.67,112.29,590.64,112.37Z"/><path class="cls-11" d="M332.25,158.06a3.2,3.2,0,0,0,.51,0l1.43-.13,1-.1c.37,0,.79,0,1.23-.06.88,0,1.88-.12,3-.09h1.74c.61,0,1.24.06,1.89.09,1.31,0,2.7.2,4.16.35A67.51,67.51,0,0,1,356.6,160a68.32,68.32,0,0,1,9,3.33c1.32.65,2.59,1.24,3.72,1.89.57.32,1.14.61,1.65.93l1.49.91c1,.57,1.77,1.17,2.5,1.66.36.26.71.48,1,.71l.83.62,1.14.87a2.93,2.93,0,0,0,.42.28s-.13-.12-.38-.33l-1.11-.91-.81-.66c-.3-.23-.64-.46-1-.72-.72-.51-1.52-1.13-2.48-1.71l-1.48-.94c-.52-.32-1.08-.61-1.65-.94-1.13-.67-2.4-1.27-3.72-1.92a64.35,64.35,0,0,0-9-3.37,65.21,65.21,0,0,0-9.41-1.88c-1.47-.14-2.87-.3-4.18-.33-.66,0-1.29-.07-1.9-.06h-1.76c-1.11,0-2.12.09-3,.14-.45,0-.86.05-1.24.09l-1,.13-1.42.19Z"/><path class="cls-11" d="M585.85,158.82a2.12,2.12,0,0,0,.4,0l1.13,0c.49,0,1.09,0,1.79.06s1.49.07,2.36.17l1.37.14c.48.05,1,.14,1.48.21,1,.12,2.11.35,3.25.56a66.12,66.12,0,0,1,7.28,2,75.27,75.27,0,0,1,7,2.79c2.1,1,4,1.95,5.49,2.82.77.42,1.44.84,2.05,1.2s1.11.67,1.52.93l1,.6.35.19a1.62,1.62,0,0,0-.31-.24l-.93-.65c-.4-.28-.9-.62-1.5-1s-1.26-.8-2-1.23c-1.52-.9-3.37-1.89-5.48-2.89a69.41,69.41,0,0,0-7-2.83,64,64,0,0,0-7.33-2c-1.14-.2-2.23-.42-3.26-.53-.52-.07-1-.15-1.49-.19l-1.38-.12c-.88-.09-1.68-.1-2.37-.13s-1.31,0-1.8,0l-1.13,0Z"/></g><g id="Towing"><polygon class="cls-6" points="695.01 277.69 218.75 281.77 218.75 263.31 695.01 263.31 695.01 277.69"/><rect class="cls-6" x="82.31" y="251.68" width="115.08" height="48.53"/><rect class="cls-6" x="73.53" y="293.59" width="589.32" height="33.96" transform="translate(736.37 621.14) rotate(180)"/><path class="cls-6" d="M195.2,134h21.5a0,0,0,0,1,0,0v170.6a0,0,0,0,1,0,0H211a15.81,15.81,0,0,1-15.81-15.81V134a0,0,0,0,1,0,0Z" transform="translate(411.9 438.57) rotate(180)"/><path class="cls-3" d="M5.51,217.91c0-7,2.71-11.64,7.66-18.68l64-80.7a9.3,9.3,0,0,1,6.63-2.73h102a9.41,9.41,0,0,1,9.41,9.41V249.73A19.8,19.8,0,0,1,175,269.52h0C87.52,257,72,324.41,72,324.41L6.33,323.27l-.86-98.62Z"/><path class="cls-9" d="M7.47,208.34l7.51-.16,64-83.34-6-1S30.28,177,12.29,200.49C9.89,203.63,8.74,206.37,7.47,208.34Z"/><path class="cls-9" d="M171.32,134.52l-76.07-.47a8.17,8.17,0,0,0-6,2.69l-46.93,62a6.47,6.47,0,0,0,5,10.55l124-.18c4.59,0,8.3-4,8.3-9V143.51C179.57,138.56,175.89,134.55,171.32,134.52Z"/><rect class="cls-6" x="200.06" y="274.48" width="491.75" height="26.47" transform="translate(891.87 575.44) rotate(180)"/><path class="cls-5" d="M632.67,316.61h11.59a4.46,4.46,0,0,0,4.46-4.46h0a4.47,4.47,0,0,0-4.46-4.47H632.67a4.46,4.46,0,0,0-4.46,4.47h0A4.46,4.46,0,0,0,632.67,316.61Z"/><path class="cls-6" d="M31.18,347.2H210.71a9.83,9.83,0,0,0,9.83-9.82h0a9.83,9.83,0,0,0-9.83-9.83H31.18a9.83,9.83,0,0,0-9.83,9.83h0A9.83,9.83,0,0,0,31.18,347.2Z"/><rect class="cls-6" x="210.3" y="334.44" width="263.89" height="9.04" transform="translate(684.5 677.92) rotate(180)"/><rect class="cls-9" x="248" y="298.06" width="135.91" height="52.69" rx="26.35" transform="translate(631.91 648.82) rotate(180)"/><polygon class="cls-9" points="273.18 232.33 247.3 163.2 230 164.15 229 265.75 697.64 269.15 697.52 236.52 273.18 232.33"/><polygon class="cls-2" points="697.64 257.23 229.05 258.17 229 244.63 697.64 245.37 697.64 257.23"/><polygon class="cls-5" points="540.71 245.13 523.38 257.45 540.06 257.4 557.09 245.15 540.71 245.13"/><polygon class="cls-5" points="504.05 245.19 486.72 257.51 503.4 257.47 520.43 245.21 504.05 245.19"/><polygon class="cls-5" points="467.49 245.01 449.97 257.63 466.66 257.59 484.17 245.04 467.49 245.01"/><polygon class="cls-5" points="430.99 244.95 413.27 257.72 429.95 257.68 447.27 244.98 430.99 244.95"/><polygon class="cls-5" points="394.63 244.9 376.6 257.81 393.25 257.77 411.11 244.92 394.63 244.9"/><polygon class="cls-5" points="357.76 244.84 339.86 257.9 356.55 257.86 374.33 244.86 357.76 244.84"/><polygon class="cls-5" points="321.43 244.78 303.16 257.99 319.84 257.95 337.9 244.81 321.43 244.78"/><polygon class="cls-5" points="285 244.72 266.46 258.08 283.14 258.04 301.08 244.75 285 244.72"/><polygon class="cls-5" points="248.25 244.66 230.13 258.18 246.81 258.14 264.54 244.69 248.25 244.66"/><polygon class="cls-5" points="574.46 245.05 557.07 257.47 573.75 257.43 591.02 245.21 574.46 245.05"/><polygon class="cls-5" points="608.13 245.23 590.94 257.45 607.27 257.47 624.51 245.27 608.13 245.23"/><polygon class="cls-5" points="642.89 245.23 624.66 257.42 641.35 257.38 658.51 245.23 642.89 245.23"/><polygon class="cls-5" points="675.17 245.39 657.98 257.42 674.66 257.38 691.55 245.43 675.17 245.39"/><path class="cls-6" d="M187.57,265.34s0-.38,0-1.12,0-1.86,0-3.3c0-2.92,0-7.19,0-12.7,0-11-.05-27-.09-46.67,0-9.86,0-20.65,0-32.24,0-5.79,0-11.79,0-18,0-3.08,0-6.21,0-9.39v-4.79a23.79,23.79,0,0,0-.24-4.79,9.39,9.39,0,0,0-6.19-6.82,14.5,14.5,0,0,0-4.9-.47H92.15a19,19,0,0,0-2.73.1,9.4,9.4,0,0,0-4.81,2.19,11.87,11.87,0,0,0-1.77,2l-1.63,2.19L78,135.94l-6.43,8.59L47,177.25,35.58,192.48q-2.78,3.71-5.47,7.3a56.41,56.41,0,0,0-5,7.23A27,27,0,0,0,22,219.09c0,1.36,0,2.72,0,4.06q0,8.07,0,15.47c0,19.7-.07,35.65-.09,46.68,0,5.5-.05,9.78-.06,12.69,0,1.44,0,2.55,0,3.3s0,1.13,0,1.13,0-.39,0-1.13,0-1.86,0-3.3c0-2.91,0-7.19-.05-12.69,0-11,0-27-.06-46.67q0-7.4,0-15.47c0-1.35,0-2.71,0-4.08a26.61,26.61,0,0,1,.39-4.16,27.76,27.76,0,0,1,2.78-8.11,56.42,56.42,0,0,1,5-7.3l5.46-7.3L46.62,177c7.8-10.44,16-21.39,24.5-32.74l6.42-8.59,3.26-4.35,1.64-2.18a11.31,11.31,0,0,1,1.83-2.1,9.79,9.79,0,0,1,5.08-2.31,19,19,0,0,1,2.8-.11H176a14.66,14.66,0,0,1,5.05.5,9.86,9.86,0,0,1,6.51,7.18,10.5,10.5,0,0,1,.2,1.23c0,.42.06.84.05,1.24,0,.81,0,1.62,0,2.42v14.18c0,6.17,0,12.17,0,18,0,11.59,0,22.38,0,32.24,0,19.7-.06,35.64-.08,46.67,0,5.51,0,9.78,0,12.7q0,2.16,0,3.3C187.58,265,187.57,265.34,187.57,265.34Z"/><path class="cls-6" d="M79.86,211.84h0a8.22,8.22,0,0,1-8.22-8.22V174.28a8.22,8.22,0,0,1,8.22-8.22h0a8.22,8.22,0,0,1,8.21,8.22v29.34A8.22,8.22,0,0,1,79.86,211.84Z"/><path class="cls-6" d="M61.56,222h-3V190.3a9.91,9.91,0,0,1,5.5-8.84c7.71-3.78,8.79-3.93,9.26-4l.42,3-.21-1.49.21,1.49c-.19,0-1.49.35-8.36,3.72a6.89,6.89,0,0,0-3.82,6.15Z"/><rect class="cls-6" x="60.33" y="199.26" width="17.24" height="3"/><path class="cls-6" d="M60.45,230.52h0a5.78,5.78,0,0,1-5.78-5.78v-7.13a5.77,5.77,0,0,1,5.78-5.77h0a5.77,5.77,0,0,1,5.78,5.77v7.13A5.78,5.78,0,0,1,60.45,230.52Z"/><path class="cls-3" d="M155.42,115.8H113.59a5.58,5.58,0,0,1,5.58-5.58h30.67a5.58,5.58,0,0,1,5.58,5.58Z"/><path class="cls-8" d="M149.1,110.22H122a11.89,11.89,0,0,1,11.89-11.89h3.38a11.89,11.89,0,0,1,11.88,11.89Z"/><path class="cls-2" d="M156,149.51c.09.12-10.41,8.64-23.46,19s-23.7,18.74-23.79,18.63,10.42-8.64,23.47-19S155.91,149.4,156,149.51Z"/><path class="cls-2" d="M149.49,164.19c.09.11-10.42,8.63-23.47,19s-23.7,18.74-23.78,18.63,10.41-8.63,23.46-19S149.4,164.08,149.49,164.19Z"/><path class="cls-9" d="M196.88,337.38a50.58,50.58,0,1,1-50.57-50.58A50.57,50.57,0,0,1,196.88,337.38Z"/><path class="cls-9" d="M196.87,337.25s0,.08,0,.13a50.58,50.58,0,0,1-101.15,0c0-.05,0-.09,0-.13Z"/><path class="cls-11" d="M181.81,337.38a35.51,35.51,0,1,1-35.5-35.51A35.5,35.5,0,0,1,181.81,337.38Z"/><path class="cls-3" d="M146.31,301.87a35.5,35.5,0,0,1,35.5,35.51h-71A35.51,35.51,0,0,1,146.31,301.87Z"/><path class="cls-6" d="M167.94,337.38a21.63,21.63,0,1,1-21.63-21.63A21.64,21.64,0,0,1,167.94,337.38Z"/><path class="cls-9" d="M558,337.25a50.58,50.58,0,1,1-50.58-50.58A50.58,50.58,0,0,1,558,337.25Z"/><path class="cls-9" d="M558,337.12s0,.08,0,.13a50.58,50.58,0,0,1-101.15,0c0-.05,0-.09,0-.13Z"/><path class="cls-11" d="M543,337.25a35.51,35.51,0,1,1-35.51-35.51A35.5,35.5,0,0,1,543,337.25Z"/><path class="cls-3" d="M507.45,301.74A35.51,35.51,0,0,1,543,337.25H472A35.5,35.5,0,0,1,507.45,301.74Z"/><path class="cls-6" d="M529.08,337.25a21.63,21.63,0,1,1-21.63-21.63A21.62,21.62,0,0,1,529.08,337.25Z"/><path class="cls-9" d="M656.59,299.33l-1.31,0-3.83,0-14.75.08-54.25.18-179,.42-208.09.29h-.14v-.15c0-14.23.05-25.49.06-33.2,0-3.84,0-6.8,0-8.8,0-1,0-1.75,0-2.27s0-.77,0-.77,0,.26,0,.77,0,1.28,0,2.27c0,2,0,5,0,8.8,0,7.71,0,19,.07,33.2l-.15-.15,208.09-.51,179-.26,54.25,0,14.75,0h3.83Z"/><rect class="cls-6" x="0.17" y="302.42" width="82.14" height="27.36" rx="8.51"/><path class="cls-9" d="M8.68,329.78H8.15a8.23,8.23,0,0,1-1.54-.21,8.58,8.58,0,0,1-6.5-7.27A22.21,22.21,0,0,1,0,319.83c0-.85,0-1.74,0-2.66,0-1.83,0-3.8,0-5.88a8.72,8.72,0,0,1,8.79-9.08h7.87l17.36,0,39.77,0A8.77,8.77,0,0,1,82.06,308a8.2,8.2,0,0,1,.49,2.59c0,.87,0,1.7,0,2.55v7.52a11.12,11.12,0,0,1-.21,2.5,9,9,0,0,1-.88,2.34,9.34,9.34,0,0,1-1.49,2,8.71,8.71,0,0,1-4.22,2.33,10.08,10.08,0,0,1-2.37.23H71.09L38.61,330l-21.9-.08-6-.05-1.55,0-.52,0,.52,0,1.55,0,6-.05,21.9-.08,32.48,0H73.4a9,9,0,0,0,2.26-.22,8.28,8.28,0,0,0,4-2.2,8.87,8.87,0,0,0,1.4-1.87,8.53,8.53,0,0,0,.83-2.21,10.44,10.44,0,0,0,.19-2.39v-7.52a13.91,13.91,0,0,0-.49-5,8.2,8.2,0,0,0-3-4,8.29,8.29,0,0,0-4.78-1.53l-39.77,0-17.36,0H8.8a8.29,8.29,0,0,0-6.3,2.74,8.46,8.46,0,0,0-2.16,5.93c0,2.08,0,4,0,5.88,0,.92,0,1.81,0,2.66a21.57,21.57,0,0,0,0,2.44,8.43,8.43,0,0,0,6.28,7.19A14.77,14.77,0,0,0,8.68,329.78Z"/><path class="cls-5" d="M54.69,321.75H65.43a4.42,4.42,0,0,0,4.42-4.42h0a4.42,4.42,0,0,0-4.42-4.42H54.69a4.42,4.42,0,0,0-4.42,4.42h0A4.42,4.42,0,0,0,54.69,321.75Z"/><path class="cls-4" d="M7.47,297.08h0V262.9h0a11.25,11.25,0,0,1,11.25,11.25v11.68A11.25,11.25,0,0,1,7.47,297.08Z"/><path class="cls-2" d="M86.09,199a7.18,7.18,0,0,1-.11-1.3c0-1-.06-2.14-.11-3.57-.07-3-.12-7.16-.16-11.75,0-2.29,0-4.47,0-6.47a10.74,10.74,0,0,0-1-5,5.41,5.41,0,0,0-2.46-2.36,10.55,10.55,0,0,0-1.24-.37,1.35,1.35,0,0,1,.35,0,3.47,3.47,0,0,1,1,.2,5.31,5.31,0,0,1,2.7,2.37,10.65,10.65,0,0,1,1.19,5.19c0,2,0,4.19.07,6.48,0,4.59,0,8.74,0,11.75,0,1.43,0,2.62-.06,3.56A5.65,5.65,0,0,1,86.09,199Z"/><path class="cls-6" d="M173.64,115.36c0,.14-15.85.26-35.4.26s-35.4-.12-35.4-.26,15.85-.26,35.4-.26S173.64,115.21,173.64,115.36Z"/><path class="cls-2" d="M137.45,101.13c0,.09-.91-.16-2.37-.18a11.56,11.56,0,0,0-5.46,1.24,11.71,11.71,0,0,0-4.19,3.72c-.82,1.2-1.14,2.07-1.23,2a5.71,5.71,0,0,1,.92-2.23,10.75,10.75,0,0,1,4.26-4,10.87,10.87,0,0,1,5.72-1.15A5.55,5.55,0,0,1,137.45,101.13Z"/><path class="cls-6" d="M170.2,229.06s.21,0,.59-.1a3.74,3.74,0,0,0,1.53-.74,3.45,3.45,0,0,0,1.22-2.28,3.37,3.37,0,0,0-1.34-3.05,3.32,3.32,0,0,0-1.87-.65H168l-5.09,0-11.65,0a3.26,3.26,0,0,0-.68,6.45,6.12,6.12,0,0,0,1.3.07l9.51.06,6.42.08,1.74,0a4.19,4.19,0,0,1,.61.05,2.45,2.45,0,0,1-.61.06l-1.74,0-6.42.09-9.51.05a6.23,6.23,0,0,1-1.41-.08,3.76,3.76,0,0,1,.79-7.44l11.65,0,5.09,0,2.31,0a3.6,3.6,0,0,1,2.07.76,3.66,3.66,0,0,1,1.41,3.37,3.57,3.57,0,0,1-1.39,2.41,3.31,3.31,0,0,1-1.63.68A1.9,1.9,0,0,1,170.2,229.06Z"/><rect class="cls-8" x="71.2" y="233.65" width="75.11" height="23.18" rx="7.39"/><path class="cls-2" d="M134.26,242.65c0,.14-11.93.26-26.65.26S81,242.79,81,242.65s11.93-.26,26.65-.26S134.26,242.5,134.26,242.65Z"/><path class="cls-2" d="M129.16,247.84c0,.14-8.78.26-19.61.26s-19.62-.12-19.62-.26,8.78-.26,19.62-.26S129.16,247.69,129.16,247.84Z"/><path class="cls-9" d="M695,277.69l-1.24,0-3.62,0-14,0-51.32-.07c-43.33-.15-103.19-.63-169.3-1.28s-126-1.2-169.32-1.43l-51.32-.25-14-.06-3.63,0-1.23,0s.42,0,1.23,0l3.63,0,14,0,51.32.08c43.33.14,103.2.62,169.33,1.28s126,1.19,169.3,1.43l51.31.24,14,.06,3.62,0Z"/></g><g id="Character"><path class="cls-6" d="M249.77,383.43l-.05,12.43s12.62,4.23,12.83,6.52l-24.1.77-.72-19.37Z"/><path class="cls-3" d="M242.24,395.05a1,1,0,0,0-.65,1.15,1,1,0,0,0,1.13.65,1,1,0,0,0,.68-1.22,1,1,0,0,0-1.25-.54"/><path class="cls-9" d="M238.45,403.15V401.2h23.11s1.09.43,1,1.19Z"/><path class="cls-2" d="M250.11,395.73c0,.11-.59.19-1.15.58s-.86.9-1,.86,0-.73.73-1.2S250.13,395.62,250.11,395.73Z"/><path class="cls-2" d="M252.67,396.69c0,.11-.47.33-.86.84s-.48,1-.6,1-.21-.66.28-1.29S252.66,396.58,252.67,396.69Z"/><path class="cls-2" d="M254.2,399.67c-.1,0-.29-.55,0-1.21s.82-.93.87-.83-.27.45-.5,1S254.32,399.66,254.2,399.67Z"/><path class="cls-2" d="M249.81,392.89c-.05.11-.59,0-1.26,0s-1.17.29-1.24.2.42-.54,1.21-.61S249.86,392.8,249.81,392.89Z"/><path class="cls-6" d="M220.84,385.86l-.67,15,2.9,12a1.54,1.54,0,0,1-1.24,1.88h0a1.54,1.54,0,0,1-1.35-.42c-2.24-2.25-10.24-10.68-10.28-11.49,0-1.27-.42-16.07-.42-16.07Z"/><path class="cls-9" d="M221.83,414.79l-11.68-13.1,0,.63a2.48,2.48,0,0,0,.52,1.52c.93,1.14,3.57,4.24,9.79,10.53a1.54,1.54,0,0,0,1.39.42Z"/><g class="cls-12"><path class="cls-2" d="M213.34,396.9a1,1,0,0,1,.23,1.23.89.89,0,0,1-1.21.23,1,1,0,0,1-.24-1.29.94.94,0,0,1,1.29-.11"/></g><path class="cls-2" d="M218.54,408.15a4.52,4.52,0,0,1,1.34-1.14,4.63,4.63,0,0,1,1.74-.29s-.18-.16-.53-.22a2.39,2.39,0,0,0-1.35.21,2.45,2.45,0,0,0-1,.9C218.53,407.92,218.5,408.14,218.54,408.15Z"/><path class="cls-2" d="M219.56,410.19a12.34,12.34,0,0,1,1.35-.62c.78-.22,1.44-.06,1.47-.16a1.72,1.72,0,0,0-1.56-.16C219.93,409.49,219.49,410.14,219.56,410.19Z"/><path class="cls-2" d="M216.6,405.53a14.86,14.86,0,0,1,2-1.1,16.22,16.22,0,0,1,2.24-.47,3.41,3.41,0,0,0-2.35.16A3.36,3.36,0,0,0,216.6,405.53Z"/><path class="cls-2" d="M216.42,400.94c0,.09.88-.24,2-.25s1.93.26,2,.17a3.83,3.83,0,0,0-3.92.08Z"/><path class="cls-2" d="M216.5,396.53a7.61,7.61,0,0,1,2-.32,8,8,0,0,1,2,.54s-.14-.22-.48-.43a3.38,3.38,0,0,0-3-.17C216.66,396.32,216.48,396.49,216.5,396.53Z"/><path class="cls-2" d="M218.53,395.37a1.22,1.22,0,0,0,0-.57,4.09,4.09,0,0,0-.42-1.5,1.81,1.81,0,0,0-.73-.85.62.62,0,0,0-.7.12,1,1,0,0,0-.26.68,2.19,2.19,0,0,0,1.87,2.05,2.53,2.53,0,0,0,2.51-1.27.86.86,0,0,0,.06-.72.62.62,0,0,0-.63-.34,2.18,2.18,0,0,0-1,.49,4.6,4.6,0,0,0-1.06,1.15,1.4,1.4,0,0,0-.24.51,7.36,7.36,0,0,1,1.43-1.47,2.08,2.08,0,0,1,.89-.41.33.33,0,0,1,.34.18.57.57,0,0,1-.07.48,2.22,2.22,0,0,1-2.18,1.07,1.87,1.87,0,0,1-1.61-1.72.74.74,0,0,1,.15-.48.35.35,0,0,1,.39-.07,1.61,1.61,0,0,1,.63.71A6,6,0,0,1,218.53,395.37Z"/><path class="cls-13" d="M226.55,187.52l3.45,28c.32,4.55,2.61,7.88,7.16,7.88h0a8.67,8.67,0,0,0,8.66-9.24c-.18-2.65-.33-4.82-.33-4.82s6.73-1,6.82-7.78c0-3.89-.63-12.71-1.2-19.48A8.84,8.84,0,0,0,242.3,174h-4.06A12.46,12.46,0,0,0,226.55,187.52Z"/><path class="cls-14" d="M245.49,209.34a16.26,16.26,0,0,1-8.77-2.59s2.17,4.9,8.89,4.29Z"/><path class="cls-6" d="M249.84,188.51c-.12.13-.84-.41-1.88-.41s-1.79.52-1.9.4.06-.29.39-.53a2.67,2.67,0,0,1,1.53-.47,2.54,2.54,0,0,1,1.5.49C249.8,188.23,249.9,188.46,249.84,188.51Z"/><path class="cls-6" d="M240.62,191.39a1,1,0,0,1-.93,1,.92.92,0,0,1-1-.87,1,1,0,0,1,.93-1A.92.92,0,0,1,240.62,191.39Z"/><path class="cls-6" d="M249.86,191.39a1,1,0,0,1-.93,1,.92.92,0,0,1-1-.87,1,1,0,0,1,.93-1A.92.92,0,0,1,249.86,191.39Z"/><path class="cls-6" d="M239.85,188.65c-.12.13-.85-.41-1.88-.41s-1.8.52-1.91.4.07-.29.4-.53a2.64,2.64,0,0,1,1.52-.47,2.52,2.52,0,0,1,1.5.49C239.8,188.37,239.91,188.6,239.85,188.65Z"/><path class="cls-6" d="M243.53,196.7a7.42,7.42,0,0,1,1.68-.3c.27,0,.52-.08.56-.26a1.35,1.35,0,0,0-.18-.78q-.36-1-.78-2a34.55,34.55,0,0,1-1.75-5.27,35.51,35.51,0,0,1,2.17,5.11l.75,2a1.54,1.54,0,0,1,.14,1,.68.68,0,0,1-.44.39,1.93,1.93,0,0,1-.45.06A6.37,6.37,0,0,1,243.53,196.7Z"/><path class="cls-6" d="M240.48,197.42c.17,0,.18,1.11,1.14,1.91s2.15.68,2.16.83-.26.22-.77.23a2.79,2.79,0,0,1-1.81-.63,2.39,2.39,0,0,1-.87-1.6C240.28,197.69,240.41,197.41,240.48,197.42Z"/><path class="cls-6" d="M239.8,186c-.1.28-1.14.15-2.35.3s-2.2.48-2.36.22.1-.38.5-.66a4.09,4.09,0,0,1,3.58-.39C239.62,185.67,239.84,185.89,239.8,186Z"/><path class="cls-6" d="M249.7,186c-.18.23-.89,0-1.75,0s-1.59.15-1.75-.09,0-.36.36-.58a2.55,2.55,0,0,1,2.82.09C249.68,185.62,249.78,185.86,249.7,186Z"/><path class="cls-13" d="M228.82,192.57c-.12,0-4.63-1.37-4.48,3.24s4.73,3.5,4.74,3.37S228.82,192.57,228.82,192.57Z"/><path class="cls-14" d="M227.62,197.48s-.08.06-.22.13a.81.81,0,0,1-.59,0,2,2,0,0,1-1-1.75,2.58,2.58,0,0,1,.19-1.16.92.92,0,0,1,.58-.63.4.4,0,0,1,.48.2c.07.13,0,.22.07.23s.09-.08,0-.27A.49.49,0,0,0,227,194a.61.61,0,0,0-.45-.11,1.15,1.15,0,0,0-.81.74,2.75,2.75,0,0,0-.24,1.3,2.09,2.09,0,0,0,1.23,2,.88.88,0,0,0,.73-.15C227.61,197.59,227.63,197.49,227.62,197.48Z"/><path class="cls-6" d="M226.25,192.41a2.42,2.42,0,0,1,2.22,1.14c.3.66.37,1.4.66,2.06a1.64,1.64,0,0,0,1.68,1.09,1.42,1.42,0,0,0,1-1,3.74,3.74,0,0,0,0-1.49c-.27-2.15-.72-4.28-.81-6.45a11.19,11.19,0,0,1,1.36-6.26,6.05,6.05,0,0,1,5.39-3c1.43.11,2.74.86,4.16,1.06a5.66,5.66,0,0,0,4.68-1.56,9,9,0,0,1,.87-.63,2.65,2.65,0,0,0-.48-1.43c-2.82-2.6-7.91-3.33-11.63-2.39a13.39,13.39,0,0,0-8.82,7.05c-1.6,3.5-1.13,8.35-.25,11.88"/><path class="cls-6" d="M245.89,178c-2.55.11-7.4,1.07-9.41,2.65-.23.18-.49.49-.33.75s.39.2.62.19a34.41,34.41,0,0,1,6.92,1,12.17,12.17,0,0,0,4.5.65,4.4,4.4,0,0,0,3.66-2.36l.64.24A7.5,7.5,0,0,0,245.89,178Z"/><path class="cls-5" d="M251.18,181a8.62,8.62,0,0,0-5-2.26c-5.83-.5-15.38,1.29-20.39,11.32a23,23,0,0,1-1.05-5.33c0-1.37.82-9.53,9.21-12.09C233.94,172.68,246.58,167.85,251.18,181Z"/><g class="cls-10"><path d="M251.35,181a8.22,8.22,0,0,0-5.62-2.55c-5.21-.23-15.06,2.16-19.79,11.61a23.19,23.19,0,0,1-1-5.33c0-1.37.82-9.53,9.21-12.09C234.11,172.68,246.75,167.85,251.35,181Z"/></g><path class="cls-5" d="M226.56,188.67c2.52-4.23,6.28-7.14,10.34-9.67a64.89,64.89,0,0,1,15.41-6.28,10.12,10.12,0,0,1,4.25-.45,3.84,3.84,0,0,1,3.16,2.59c.44,1.74-2.66,4.43-4.11,5.49a47.71,47.71,0,0,1-4.43,2.61s0-3.24-5.14-3.9C239,178.17,226.35,188.85,226.56,188.67Z"/><path class="cls-2" d="M236,176a24.87,24.87,0,0,1,4.71-1.86,26.2,26.2,0,0,1,5-.51,5,5,0,0,0-1.5-.2,13.72,13.72,0,0,0-3.63.37,13.27,13.27,0,0,0-3.4,1.34A4.59,4.59,0,0,0,236,176Z"/><path class="cls-3" d="M229.08,211.1s-15.62,5.84-16.65,6.35,4.66,37.05,4.66,37.05l-1.54,30s26.44,2.71,33.27,1.17a42.21,42.21,0,0,0,10.37-3.5l-2.67-42.46-2.59-21.45L245.74,213C240.61,216.75,236.1,215.53,229.08,211.1Z"/><polygon class="cls-13" points="260.53 238.61 262.12 253.9 257.16 253.9 256.97 239.79 260.53 238.61"/><path class="cls-3" d="M253.55,218.09a11.92,11.92,0,0,1,5.91,7c1.37,4.92,2,14.66,2,14.66h-5Z"/><path class="cls-9" d="M256.05,226.51a3.15,3.15,0,0,1,.12.83c.05.53.12,1.3.19,2.26.13,1.91.29,4.55.42,7.47s.18,5.56.18,7.48c0,.95,0,1.73,0,2.26a3.35,3.35,0,0,1-.07.84,5.18,5.18,0,0,1-.07-.83c0-.61-.05-1.37-.08-2.27-.07-2-.17-4.59-.28-7.47s-.23-5.48-.32-7.47c0-.9-.06-1.66-.08-2.27A4.16,4.16,0,0,1,256.05,226.51Z"/><path class="cls-8" d="M259.19,278.06s.51,10.13.22,18.77c-.12,3.35-7.46,96.07-7.46,96.07l-15.19.64.59-86.88-1.23.33s-6.72,37.32-7.15,43.34c-.38,5.41-5.71,44.8-5.71,44.8l-13.89.75,2.25-51.9,2.62-50.05,1.16-15.11,8.37-.14Z"/><path class="cls-6" d="M214.85,293.24s.18.05.52.06a9.24,9.24,0,0,0,1.43,0,14,14,0,0,0,4.52-1.25,13.83,13.83,0,0,0,3.85-2.71,7.56,7.56,0,0,0,.94-1.07c.2-.27.31-.42.29-.44s-.51.55-1.39,1.35a15.38,15.38,0,0,1-3.82,2.57,15.69,15.69,0,0,1-4.42,1.32C215.59,293.2,214.85,293.19,214.85,293.24Z"/><path class="cls-6" d="M251.53,285.7a6,6,0,0,0,.85,1.52,17.84,17.84,0,0,0,2.77,3.16,18,18,0,0,0,3.45,2.4,6.27,6.27,0,0,0,1.61.67s-.58-.33-1.5-.87a22.54,22.54,0,0,1-3.34-2.44,22.16,22.16,0,0,1-2.81-3.05C251.92,286.24,251.57,285.68,251.53,285.7Z"/><path class="cls-6" d="M217.3,349.22a35.64,35.64,0,0,0,3-3.44,36.53,36.53,0,0,0,2.75-3.62,35.1,35.1,0,0,0-3,3.45A38.64,38.64,0,0,0,217.3,349.22Z"/><path class="cls-6" d="M247.61,343.3a14.09,14.09,0,0,0,1.48,2.33,14.42,14.42,0,0,0,1.71,2.17,13.32,13.32,0,0,0-1.48-2.33A13.71,13.71,0,0,0,247.61,343.3Z"/><polygon class="cls-8" points="227.98 232.64 222.02 278.86 259.19 278.06 254.36 232.64 227.98 232.64"/><path class="cls-5" d="M217.1,215.62s6.48.68,8.53,5.77a66.08,66.08,0,0,1,3.59,12.73,1.7,1.7,0,0,0,1.69,1.5h0a1.71,1.71,0,0,0,1.7-1.86c-.34-4-2.08-12.15-5-15.67a10.52,10.52,0,0,0-6.93-3.84Z"/><polygon class="cls-5" points="250.31 215.96 250.99 234.4 253.63 234.4 253.07 217.45 250.31 215.96"/><path class="cls-13" d="M221.65,228.32S217,249.08,218.4,243c.89-3.83-1.33,10.12-1.33,10.12l20.89-1,2.69,7.91s-24.7,6.89-28.43,7A9.77,9.77,0,0,1,202.51,256c.85-6.15,5.31-27.71,5.31-27.71Z"/><path class="cls-3" d="M257.44,252.71a35.89,35.89,0,0,1,3.34-1.91l1.38-.32a1.86,1.86,0,0,1,1.55.31.87.87,0,0,1,.42.74c0,.57-.9,1-.9,1l-1.51.55,3.76,2s5.2,3.33,5.27,4.33a2.79,2.79,0,0,1-.44,2.14,4.5,4.5,0,0,1-1.77.55s-.55,1.41-1.2,1.52a14.69,14.69,0,0,1-2.86-.37L261,261.94l-4-4.89-.18-3.59Z"/><path class="cls-5" d="M268.91,259.29a43.32,43.32,0,0,0-.63-4.74c-.23-.4-12.8-1-12.8-1l-8.79,1.26s-.63,3.14,0,4.79,5.88,3.2,5.88,3.2Z"/><path class="cls-6" d="M253.84,262a9.57,9.57,0,0,1-.15-1.72c0-.52,0-1.18-.11-1.85s-.69-1.14-1.42-1.44-1.49-.48-2.15-.75l-1.75-.68a8.46,8.46,0,0,1-1.57-.7,8.19,8.19,0,0,1,1.66.47l1.77.61c.65.25,1.41.4,2.18.73a3.58,3.58,0,0,1,1,.66,1.69,1.69,0,0,1,.55,1.06c.06.72,0,1.34,0,1.88A8.27,8.27,0,0,1,253.84,262Z"/><path class="cls-6" d="M268.08,254.89a13.93,13.93,0,0,1-2.12.43l-5.15.9-5.14,1a15,15,0,0,1-2.14.34,12.41,12.41,0,0,1,2.09-.58c1.3-.31,3.12-.7,5.13-1.06s3.84-.64,5.17-.81A12.45,12.45,0,0,1,268.08,254.89Z"/><polygon class="cls-5" points="252.49 252.69 252.49 253.58 256.05 253.42 256.05 252.63 252.49 252.69"/><polygon class="cls-3" points="253.94 253.51 253.94 255.41 254.78 255.24 254.78 253.48 253.94 253.51"/><path class="cls-6" d="M255.48,255.14c0,.1-.51.26-1.18.37s-1.22.13-1.23,0,.51-.26,1.17-.37S255.46,255.05,255.48,255.14Z"/><polygon class="cls-5" points="257.93 252.38 257.93 253.15 261.01 253.01 261.01 252.33 257.93 252.38"/><polygon class="cls-3" points="259.19 253.09 259.19 254.74 259.91 254.59 259.91 253.06 259.19 253.09"/><path class="cls-6" d="M260.51,254.5c0,.1-.44.25-1,.35s-1.06.09-1.07,0,.44-.25,1-.34S260.5,254.41,260.51,254.5Z"/><path class="cls-3" d="M253.33,251.12l-2.72-1.27-6.6.63-6,1.61,1.33,7.44,4.29,4.3,7.15.43,1.69-1.21s3.31,0,3.3-.37.53-1.09.25-1.27a17.08,17.08,0,0,0-2.82-.24l-3.21-2.67s-2.91-2.78-2.72-3.87.16-1.2.89-1.57a17.88,17.88,0,0,1,2.31-.79s2.24.85,3,.48.5-1.45.5-1.45Z"/><path class="cls-9" d="M247,259.76s.3.21.71.6a15.33,15.33,0,0,0,1.68,1.42,6.63,6.63,0,0,0,1.95,1c.53.16.89.18.89.24a1.74,1.74,0,0,1-1,0,5.25,5.25,0,0,1-2.09-.91,9,9,0,0,1-1.65-1.53C247.2,260.09,247,259.79,247,259.76Z"/><path class="cls-9" d="M244,260.94c.07-.08,1.26.78,2.86,1.62s3,1.36,2.94,1.45a12.38,12.38,0,0,1-5.8-3.07Z"/><path class="cls-9" d="M257.5,252.91a5.23,5.23,0,0,1,2.42-1.81,5.32,5.32,0,0,1,3-.49,24.18,24.18,0,0,0-2.84.81A23.19,23.19,0,0,0,257.5,252.91Z"/><path class="cls-9" d="M265.76,260.24s.21.21.59.51a3.59,3.59,0,0,0,1.81.73l-.05.3c-.68-.17-1.46-.37-2.29-.55a11.35,11.35,0,0,0-3.58-.3,1.65,1.65,0,0,0-.92.47c-.17.19-.22.33-.25.32s0-.17.14-.4a1.66,1.66,0,0,1,1-.63,9.69,9.69,0,0,1,3.71.2c.85.18,1.62.4,2.3.59l-.06.31a3.45,3.45,0,0,1-1.9-.9A1.52,1.52,0,0,1,265.76,260.24Z"/><path class="cls-3" d="M212.43,217.45a19.36,19.36,0,0,0-5.45,9.06c-1.89,6.2-3.75,13.45-3.75,13.45l17.45,3.39s.47-3.08,1.33-8.67C224.12,221,215.51,217.62,212.43,217.45Z"/><path class="cls-14" d="M211.38,257.07a29.67,29.67,0,0,1,2.83-2.06,27.51,27.51,0,0,1,2.88-2,13.77,13.77,0,0,1-2.67,2.27A12.55,12.55,0,0,1,211.38,257.07Z"/><path class="cls-9" d="M203.23,240a7.38,7.38,0,0,1,1.12.15l3,.53c2.54.46,6,1.12,9.92,1.87l3.43.67-.2.15c.41-3,.76-5.69,1-7.66.13-.9.24-1.65.32-2.23a5.12,5.12,0,0,1,.16-.8,3.9,3.9,0,0,1,0,.82c-.06.58-.14,1.33-.23,2.24-.23,2-.54,4.62-.89,7.67l0,.18-.18,0-3.43-.66c-3.87-.75-7.38-1.45-9.91-2l-3-.64A7.91,7.91,0,0,1,203.23,240Z"/><path class="cls-9" d="M223.75,226.51c-.07,0-.1-.82-.49-2.07a9.84,9.84,0,0,0-7.06-6.66c-1.27-.31-2.09-.3-2.09-.36a1.66,1.66,0,0,1,.58,0,7.71,7.71,0,0,1,1.57.18,9.44,9.44,0,0,1,7.24,6.83,7.84,7.84,0,0,1,.26,1.55A1.88,1.88,0,0,1,223.75,226.51Z"/><polygon class="cls-3" points="232.62 251.73 234.93 261.98 239.99 260.24 237.96 252.09 232.62 251.73"/><polygon class="cls-5" points="213.16 314.43 211.66 318.95 224.04 318.95 224.04 315.38 213.16 314.43"/><path class="cls-6" d="M213.16,314.43a3.46,3.46,0,0,1,.75-.06l2.18-.07c1.87-.05,4.56-.09,7.72-.11H224v.23c.08,1.41.16,2.93.25,4.51v.28h-1.25c-4.45,0-8.48,0-11.4-.08h-.25l.08-.24c.5-1.42.91-2.55,1.2-3.32a8,8,0,0,1,.47-1.14,7.68,7.68,0,0,1-.33,1.29c-.23.79-.56,1.92-1,3.28l-.18-.24c2.92,0,7-.07,11.4-.07h1l-.26.27c-.08-1.59-.15-3.11-.21-4.51l.24.23c-3.07,0-5.71-.06-7.59-.11L214,314.5A3.62,3.62,0,0,1,213.16,314.43Z"/></g></g></svg>