<?xml version="1.0" encoding="UTF-8"?><svg xmlns="http://www.w3.org/2000/svg" viewBox="0 0 615.58 68.8"><defs><style>.d{fill:#f24347;}.e{fill:#364168;}</style></defs><g id="a"/><g id="b"><g id="c"><g><path class="d" d="M0,35.86C0,16.17,14.96,0,34.66,0c9.63,0,17.97,3.61,23.99,10.15l-7.83,7.83c-1.81,1.81-4.73,2.41-7.14,.6-3.01-1.21-6.02-2.41-9.63-2.41-9.55,0-17.29,7.74-17.29,17.37s7.14,19.18,17.89,19.18c3.01,0,6.62-1.29,9.03-2.49,2.41-1.81,5.33-1.2,7.14,.6l7.83,7.83c-6.02,6.62-14.96,10.15-25.11,10.15C15.48,68.8,0,53.83,0,35.86Z"/><path class="d" d="M93.22,3.87l.09-.09c.86-2.15,3.01-3.7,5.5-3.7s4.56,1.46,5.5,3.53l30.44,65.1-.17,.09h-16.86l-6.62-14.19h-24.51l-6.62,14.19h-17.03L93.22,3.87Zm10.66,35.34l-4.99-10.92-5.07,10.92h10.06Z"/><path class="d" d="M143.36,39.82c0-3.27,2.75-6.02,6.02-6.02h19.61c4.99,0,8.94-4.04,8.69-9.03-.17-4.73-4.21-8.34-8.86-8.34h-25.46V.09h25.37c13.76,0,25.46,11.18,25.37,24.94,0,9.98-5.85,18.49-14.36,22.45l21.33,21.33h-22.7l-18.66-18.66v18.66h-16.34v-28.98Z"/><path class="e" d="M209.67,0h10.41c3.35,0,6.02,2.67,6.02,6.02V26.23h26.66V0h10.41c3.27,0,6.02,2.67,6.02,6.02v62.78h-16.43v-26.23h-26.66v26.23h-16.43V0Z"/><path class="e" d="M282.08,39.13V0h10.32c3.27,0,5.93,2.67,5.93,6.02V39.3c0,6.88,5.33,12.73,12.21,12.99,7.22,.26,13.16-5.5,13.16-12.73V0h10.32c3.35,0,6.02,2.67,6.02,6.02V39.56c0,16.17-13.24,28.98-29.5,28.98s-28.47-13.5-28.47-29.41Z"/><path class="e" d="M352.94,0h12.9c1.72,0,3.44,.77,4.56,2.06l36.03,41.88V0h10.32c3.35,0,6.02,2.67,6.02,6.02v62.78h-16.51l-36.98-43v43h-16.34V0Z"/><path class="e" d="M455.2,16.34h-21.67V0h53.66c3.35,0,6.02,2.75,6.02,6.02v10.32h-21.67v52.46h-16.34V16.34Z"/><path class="e" d="M503.96,0h35c3.27,0,6.02,2.67,6.02,6.02v10.32h-24.68v9.89h24.68v16.34h-24.68v9.89h24.68v16.34h-41.02V0Z"/><path class="e" d="M557.88,39.82c0-3.27,2.75-6.02,6.02-6.02h19.61c4.99,0,8.94-4.04,8.69-9.03-.17-4.73-4.21-8.34-8.86-8.34h-25.46V.09h25.37c13.76,0,25.46,11.18,25.37,24.94,0,9.98-5.85,18.49-14.36,22.45l21.33,21.33h-22.7l-18.66-18.66v18.66h-16.34v-28.98Z"/></g></g></g></svg>