<?xml version="1.0" encoding="UTF-8"?><svg xmlns="http://www.w3.org/2000/svg" viewBox="0 0 630.23 69.6"><defs><style>.d{fill:#f24347;}.e{fill:#364168;}</style></defs><g id="a"/><g id="b"><g id="c"><g><path class="d" d="M0,36.28C0,16.36,15.14,0,35.06,0c9.74,0,18.18,3.65,24.27,10.27l-7.92,7.92c-1.83,1.83-4.79,2.44-7.22,.61-3.05-1.22-6.09-2.44-9.74-2.44-9.66,0-17.49,7.83-17.49,17.58s7.22,19.4,18.1,19.4c3.05,0,6.7-1.3,9.14-2.52,2.44-1.83,5.39-1.22,7.22,.61l7.92,7.92c-6.09,6.7-15.14,10.27-25.41,10.27C15.66,69.6,0,54.47,0,36.28Z"/><path class="d" d="M94.31,3.92l.09-.09c.87-2.17,3.04-3.74,5.57-3.74s4.61,1.48,5.57,3.57l30.8,65.86-.17,.09h-17.05l-6.7-14.36h-24.8l-6.7,14.36h-17.23L94.31,3.92Zm10.79,35.76l-5.05-11.05-5.13,11.05h10.18Z"/><path class="d" d="M145.03,40.28c0-3.31,2.78-6.09,6.09-6.09h19.84c5.05,0,9.05-4.09,8.79-9.14-.17-4.79-4.26-8.44-8.96-8.44h-25.75V.09h25.67c13.92,0,25.75,11.31,25.67,25.23,0,10.09-5.92,18.71-14.53,22.71l21.58,21.58h-22.97l-18.88-18.88v18.88h-16.53v-29.32Z"/><path class="e" d="M212.11,0h10.53c3.39,0,6.09,2.7,6.09,6.09V26.54h26.97V0h10.53c3.31,0,6.09,2.7,6.09,6.09v63.51h-16.62v-26.54h-26.97v26.54h-16.62V0Z"/><path class="e" d="M313.81,3.92l.09-.09c.87-2.17,3.04-3.74,5.57-3.74s4.61,1.48,5.57,3.57l30.8,65.86-.17,.09h-17.05l-6.7-14.36h-24.8l-6.7,14.36h-17.23L313.81,3.92Zm10.79,35.76l-5.05-11.05-5.13,11.05h10.18Z"/><path class="e" d="M364.53,0h13.05c1.74,0,3.48,.78,4.61,2.09l36.46,42.37V0h10.44c3.39,0,6.09,2.7,6.09,6.09v63.51h-16.71l-37.41-43.5v43.5h-16.53V0Z"/><path class="e" d="M467.97,16.53h-21.92V0h54.29c3.39,0,6.09,2.78,6.09,6.09v10.44h-21.93v53.07h-16.53V16.53Z"/><path class="e" d="M517.3,0h35.41c3.31,0,6.09,2.7,6.09,6.09v10.44h-24.97v10.01h24.97v16.53h-24.97v10.01h24.97v16.53h-41.5V0Z"/><path class="e" d="M571.85,40.28c0-3.31,2.78-6.09,6.09-6.09h19.84c5.05,0,9.05-4.09,8.79-9.14-.17-4.79-4.26-8.44-8.96-8.44h-25.75V.09h25.67c13.92,0,25.75,11.31,25.67,25.23,0,10.09-5.92,18.71-14.53,22.71l21.58,21.58h-22.97l-18.88-18.88v18.88h-16.53v-29.32Z"/></g></g></g></svg>